<?xml version="1.0" encoding="utf-8"?>
<!-- Generator: Adobe Illustrator 19.0.0, SVG Export Plug-In . SVG Version: 6.00 Build 0)  -->
<svg version="1.1" id="Capa_1" xmlns="http://www.w3.org/2000/svg" xmlns:xlink="http://www.w3.org/1999/xlink" x="0px" y="0px"
	 viewBox="-399 277.3 42 42" style="enable-background:new -399 277.3 42 42;" xml:space="preserve">
<g>
	<path d="M-378,277.3c-11.6,0-21,9.4-21,21s9.4,21,21,21s21-9.4,21-21S-366.4,277.3-378,277.3z M-372.8,299h-3.4
		c0,5.5,0,12.2,0,12.2h-5.1c0,0,0-6.7,0-12.2h-2.4v-4.3h2.4v-2.8c0-2,0.9-5.1,5.1-5.1h3.8v4.2c0,0-2.3,0-2.7,0
		c-0.4,0-1.1,0.2-1.1,1.2v2.5h3.9L-372.8,299z"/>
</g>
</svg>
