<?xml version="1.0" encoding="utf-8"?>
<!-- Generator: Adobe Illustrator 19.0.0, SVG Export Plug-In . SVG Version: 6.00 Build 0)  -->
<svg version="1.1" id="Capa_1" xmlns="http://www.w3.org/2000/svg" xmlns:xlink="http://www.w3.org/1999/xlink" x="0px" y="0px"
	 viewBox="-399 277.3 42 42" style="enable-background:new -399 277.3 42 42;" xml:space="preserve">
<path d="M-378,277.3c-11.6,0-21,9.4-21,21s9.4,21,21,21s21-9.4,21-21S-366.4,277.3-378,277.3z M-372.7,298.3c0,5.3-4.3,9.6-9.6,9.6
	c-5.3,0-9.6-4.3-9.6-9.6s4.3-9.6,9.6-9.6c2.1,0,4.1,0.7,5.8,2l-2.2,2.9c-1-0.8-2.3-1.2-3.6-1.2c-3.3,0-5.9,2.7-5.9,5.9
	s2.7,5.9,5.9,5.9c2.6,0,4.9-1.7,5.6-4.1h-5.6v-3.6h9.6V298.3z M-365.4,299.5v2.7h-2.4v-2.7h-2.7v-2.4h2.7v-2.7h2.4v2.7h2.7v2.4
	H-365.4z"/>
</svg>
