<?xml version="1.0" encoding="utf-8"?>
<!-- Generator: Adobe Illustrator 19.0.0, SVG Export Plug-In . SVG Version: 6.00 Build 0)  -->
<svg version="1.1" id="Capa_1" xmlns="http://www.w3.org/2000/svg" xmlns:xlink="http://www.w3.org/1999/xlink" x="0px" y="0px"
	 viewBox="-399 277.3 42 42" style="enable-background:new -399 277.3 42 42;" xml:space="preserve">
<g>
	<path d="M-373,286.3h-10c-3.9,0-7,3.1-7,7v10c0,3.9,3.1,7,7,7h10c3.9,0,7-3.1,7-7v-10C-366,289.4-369.1,286.3-373,286.3z
		 M-378,303.3c-2.8,0-5-2.2-5-5s2.2-5,5-5s5,2.2,5,5S-375.2,303.3-378,303.3z M-371.1,294.6c-1.4,0-2.5-1.1-2.5-2.5
		c0-1.4,1.1-2.5,2.5-2.5s2.5,1.1,2.5,2.5C-368.6,293.4-369.7,294.6-371.1,294.6z"/>
	<path d="M-378,277.3c-11.6,0-21,9.4-21,21s9.4,21,21,21s21-9.4,21-21S-366.4,277.3-378,277.3z M-373,313.3h-10c-5.5,0-10-4.5-10-10
		v-10c0-5.5,4.5-10,10-10h10c5.5,0,10,4.5,10,10v10C-363,308.8-367.5,313.3-373,313.3z"/>
</g>
</svg>
