<?xml version="1.0" encoding="utf-8"?>
<!-- Generator: Adobe Illustrator 19.0.0, SVG Export Plug-In . SVG Version: 6.00 Build 0)  -->
<svg version="1.1" id="Capa_1" xmlns="http://www.w3.org/2000/svg" xmlns:xlink="http://www.w3.org/1999/xlink" x="0px" y="0px"
	 viewBox="-399 277.3 42 42" style="enable-background:new -399 277.3 42 42;" xml:space="preserve">
<style type="text/css">
	.st0{fill:#010002;}
</style>
<g>
	<path class="st0" d="M-378,277.3c-11.6,0-21,9.4-21,21s9.4,21,21,21s21-9.4,21-21S-366.4,277.3-378,277.3z M-383.2,308.5h-5.2
		v-18.4h5.2V308.5z M-385.7,289c-1.4,0-2.5-1.1-2.5-2.5c0-1.4,1.1-2.5,2.5-2.5c1.4,0,2.5,1.1,2.5,2.5
		C-383.2,287.9-384.4,289-385.7,289z M-364.9,308.5h-5.2v-11.4c0-1.3-0.4-2.3-2-2.3c-2.7,0-3.2,2.3-3.2,2.3v11.4h-5.2v-18.4h5.2v1.8
		c0.8-0.6,2.6-1.8,5.2-1.8c1.7,0,5.2,1,5.2,7.2V308.5L-364.9,308.5z"/>
</g>
</svg>
