<svg xmlns="http://www.w3.org/2000/svg" width="86.9" height="22" viewBox="-436 270 86.9 22"><title>logo-partner-linkedin</title><path fill="#fff" d="M-436 273.3h3.3c.1 0 .1 0 .1.1v12c0 .2 0 .2.2.2h5.9c.2 0 .2 0 .2.2v2.8c0 .1 0 .2-.1.2h-9.5v-15.5zm58.3 6v-.2-5.7c0-.1 0-.2.2-.2h2.9c.1 0 .2 0 .2.2v15.2c0 .1 0 .1-.1.1h-2.7c-.1 0-.2 0-.1-.2v-1.2c-.1.1-.2.3-.3.4-.9.9-2.1 1.4-3.4 1.3-2.3-.1-4.2-1.8-4.6-4-.3-1.5-.2-3.1.5-4.4.8-1.8 2.6-2.8 4.6-2.6.9 0 1.9.4 2.6 1 0 0 .1.2.2.3zm.3 4.3c.1-.8-.2-1.5-.7-2.1-.7-.7-1.6-.9-2.6-.7-.8.1-1.5.7-1.8 1.6-.2.7-.2 1.5 0 2.1.2.6.7 1.2 1.4 1.4.3.1.6.2 1 .2.7 0 1.4-.2 1.9-.6.5-.5.8-1.2.8-1.9zm-19.6 5.2h-4c-.1 0-.1-.1-.2-.1l-2.4-3.6c-.3-.5-.6-.9-.9-1.4v5c0 .2 0 .2-.2.2h-2.9c-.1 0-.2 0-.2-.2v-15.2c0-.1 0-.2.1-.2h3c.2 0 .1.1.1.2v9.1l1.2-1.4 2.4-2.7c0-.1.1-.1.2-.1h3.9l-.5.5c-1.2 1.4-2.4 2.8-3.7 4.2-.1.1-.1.2 0 .3 1.3 1.8 2.7 3.6 4 5.4h.1z"/><path fill="#fff" d="M-390.6 284.5h-3.6c-.1 0-.2 0-.1.2.4 1.4 1.7 2.2 3.1 1.8.4-.1.7-.3 1-.6.2-.2.4-.4.5-.6.1-.1.1-.1.2 0l2.1 1.5c.1.1 0 .1 0 .2-.7.8-1.6 1.4-2.7 1.7-2 .6-4.2.2-5.8-1.2-1-.9-1.7-2.2-1.8-3.5-.1-1.2.1-2.4.7-3.4.8-1.4 2.1-2.3 3.7-2.6 1.1-.3 2.3-.2 3.4.2 1.4.5 2.4 1.7 2.8 3.1.2.8.3 1.5.3 2.3v.6c0 .1 0 .2-.2.2-1.2.1-2.4.1-3.6.1zm-1.6-2.2h1.8c.4 0 .4 0 .3-.4-.2-.9-1-1.6-2-1.6-1.1-.1-2.1.7-2.3 1.8 0 .1 0 .2.1.2h2.1zm-24.4-2.6c.1 0 .1-.1 0 0 .7-1 1.6-1.6 2.7-1.6.6-.1 1.3 0 1.9.2 1.1.3 1.9 1.1 2.2 2.2.2.7.3 1.5.3 2.2v6c0 .2-.1.2-.2.2h-2.9c-.1 0-.2 0-.2-.2v-5.3c0-.4 0-.8-.1-1.1-.1-.8-.9-1.4-1.7-1.3h-.1c-.9 0-1.6.7-1.6 1.6-.1.3-.1.7-.1 1v5.1c0 .2 0 .2-.2.2h-2.9c-.1 0-.2 0-.2-.2v-10.2c0-.1 0-.2.2-.2h2.8c.1 0 .2 0 .1.1v1.3zm-8.2 3.8v-5c0-.2 0-.2.2-.2h2.9c.1 0 .2 0 .2.2v10.2c0 .1 0 .2-.2.2h-2.9c-.1 0-.2 0-.2-.2v-5.2zm1.6-6.7c-1 0-1.9-.9-1.9-1.9 0-1 .9-1.9 1.9-1.9 1 0 1.9.8 1.9 1.9 0 1-.8 1.9-1.9 1.9zm74.1-3v-2.1c0-.8-.5-1.5-1.3-1.6H-369.8c-.8.2-1.4.9-1.3 1.8v18.6c0 .7.5 1.4 1.2 1.6 0 0 .1 0 .1.1h19.3c.3-.1.5-.2.8-.4.4-.3.6-.8.6-1.3v-16.7zm-15.7 15h-2.9c-.1 0-.2 0-.2-.2v-10.2c0-.1 0-.2.2-.2h2.9c.1 0 .2 0 .2.2v10.2c0 .1-.1.2-.2.2zm-1.4-12c-1 0-1.9-.8-1.9-1.9s.8-1.9 1.9-1.9c1 0 1.9.8 1.9 1.9 0 1-.9 1.9-1.9 1.9zm13.6 12h-2.9c-.1 0-.2 0-.2-.2v-5.2c0-.4 0-.9-.1-1.3-.1-.8-.9-1.4-1.7-1.2-.9 0-1.6.7-1.7 1.6-.1.3-.1.6-.1 1v5.1c0 .1 0 .2-.2.2h-2.9c-.1 0-.2 0-.2-.2v-10.1c0-.2 0-.2.2-.2h2.8c.1 0 .2 0 .2.2v1.3c.1 0 .1 0 .1-.1.6-.9 1.6-1.5 2.6-1.6.7-.1 1.5 0 2.2.3.9.3 1.6 1.1 1.9 2.1.2.8.3 1.7.3 2.5v5.7c-.1 0-.1.1-.3.1z"/></svg>