<?xml version="1.0" encoding="utf-8"?>
<!-- Generator: Adobe Illustrator 19.0.0, SVG Export Plug-In . SVG Version: 6.00 Build 0)  -->
<svg version="1.1" id="Capa_1" xmlns="http://www.w3.org/2000/svg" xmlns:xlink="http://www.w3.org/1999/xlink" x="0px" y="0px"
	 viewBox="-399 277.3 42 42" style="enable-background:new -399 277.3 42 42;" xml:space="preserve">
<g>
	<g>
		<path d="M-378,277.3c-11.6,0-21,9.4-21,21s9.4,21,21,21s21-9.4,21-21S-366.4,277.3-378,277.3z M-368.6,293.5c0,0.2,0,0.4,0,0.6
			c0,6.4-4.9,13.7-13.8,13.7c-2.7,0-5.3-0.8-7.4-2.2c0.4,0,0.8,0.1,1.2,0.1c2.3,0,4.3-0.8,6-2.1c-2.1,0-3.9-1.4-4.5-3.4
			c0.3,0.1,0.6,0.1,0.9,0.1c0.4,0,0.9-0.1,1.3-0.2c-2.2-0.4-3.9-2.4-3.9-4.7c0,0,0,0,0-0.1c0.7,0.4,1.4,0.6,2.2,0.6
			c-1.3-0.9-2.1-2.3-2.1-4c0-0.9,0.2-1.7,0.7-2.4c2.4,2.9,5.9,4.8,10,5.1c-0.1-0.4-0.1-0.7-0.1-1.1c0-2.7,2.2-4.8,4.8-4.8
			c1.4,0,2.6,0.6,3.5,1.5c1.1-0.2,2.1-0.6,3.1-1.2c-0.4,1.1-1.1,2.1-2.1,2.7c1-0.1,1.9-0.4,2.8-0.8
			C-366.9,292-367.7,292.8-368.6,293.5z"/>
	</g>
</g>
</svg>
