<?xml version="1.0" encoding="utf-8"?>
<!-- Generator: Adobe Illustrator 19.0.0, SVG Export Plug-In . SVG Version: 6.00 Build 0)  -->
<svg version="1.1" id="Capa_1" xmlns="http://www.w3.org/2000/svg" xmlns:xlink="http://www.w3.org/1999/xlink" x="0px" y="0px"
	 viewBox="-399 277.3 42 42" style="enable-background:new -399 277.3 42 42;" xml:space="preserve">
<g>
	<g>
		<path d="M-381.8,302.9c3.2-1.6,6.3-3.3,9.4-4.9c-3.2-1.6-6.3-3.3-9.4-4.9C-381.8,296.4-381.8,299.6-381.8,302.9z"/>
		<path d="M-378,277.3c-11.6,0-21,9.4-21,21s9.4,21,21,21s21-9.4,21-21S-366.4,277.3-378,277.3z M-363.7,305.3
			c-0.4,1.6-1.7,2.7-3.2,2.9c-3.7,0.4-7.4,0.4-11.1,0.4s-7.4,0-11.1-0.4c-1.6-0.2-2.8-1.3-3.2-2.9c-0.5-2.2-0.5-4.7-0.5-7
			s0-4.8,0.5-7c0.4-1.6,1.7-2.7,3.2-2.9c3.7-0.4,7.4-0.4,11.1-0.4s7.4,0,11.1,0.4c1.6,0.2,2.8,1.3,3.2,2.9c0.5,2.2,0.5,4.7,0.5,7
			S-363.2,303.1-363.7,305.3z"/>
	</g>
</g>
</svg>
