<?xml version="1.0" encoding="utf-8"?>
<!-- Generator: Adobe Illustrator 21.1.0, SVG Export Plug-In . SVG Version: 6.00 Build 0)  -->
<svg version="1.1" id="Layer_1" xmlns="http://www.w3.org/2000/svg" xmlns:xlink="http://www.w3.org/1999/xlink" x="0px" y="0px" width="250" height="42"
	 viewBox="0 0 904.6 151.5" style="enable-background:new 0 0 904.6 151.5;" xml:space="preserve">
<style type="text/css">
	.st0{fill:#FFFFFF;}
	.st1{fill:#AC2225;}
	.st2{fill:#424242;}
</style>
<g>
	<path class="st0" d="M80.9,51.5H51.4v14.9h29.5c3.8,0,6.9-3.3,6.9-7.4C87.8,54.9,84.7,51.5,80.9,51.5z"/>
	<path class="st0" d="M136.1,60.9c0-25.4-15.6-47.2-37.7-56.3C91.2,1.6,83.4,0,75.2,0H12.4C5.6,0,0,5.6,0,12.4v126.7
		c0,6.8,5.6,12.4,12.4,12.4h123.7l-26.9-40.1C125.4,100.4,136.1,81.9,136.1,60.9z M78.6,89.9H51.4v31.5c0,3.3-2.7,6-6,6H32.5
		c-3.3,0-6-2.7-6-6V34.1c0-3.3,2.7-6,6-6H39h6.4h33.2h0c17,0,30.9,13.9,30.9,30.9v0C109.5,76,95.6,89.9,78.6,89.9L78.6,89.9z"/>
	<g>
		<path class="st0" d="M194.9,32.2c3.2,2.7,4.8,6.9,4.8,12.5c0,5.6-1.6,9.8-4.9,12.4c-3.3,2.6-8.3,3.9-15.1,3.9h-6.1v12.7h-10.2
			V28.1h16.1C186.6,28.1,191.7,29.5,194.9,32.2z M187.4,50.2c1.2-1.4,1.8-3.4,1.8-6c0-2.6-0.8-4.5-2.4-5.6c-1.6-1.1-4.1-1.7-7.4-1.7
			h-5.8v15.4h6.9C183.9,52.2,186.2,51.6,187.4,50.2z"/>
		<path class="st0" d="M225.2,47.3c-2.9,0-5.1,1-6.5,3.1c-1.4,2.1-2.2,4.8-2.2,8.2v15.2h-9.8V38.7h9.8v4.6c1.3-1.4,2.8-2.7,4.7-3.7
			c1.9-1,3.8-1.5,5.8-1.6l0.1,9.2H225.2z"/>
		<path class="st0" d="M268.2,56.2c0,5.1-1.8,9.4-5.3,12.9c-3.5,3.5-8,5.2-13.3,5.2c-5.3,0-9.8-1.7-13.3-5.2
			c-3.5-3.5-5.3-7.8-5.3-12.9s1.8-9.4,5.3-12.9c3.5-3.5,8-5.3,13.3-5.3c5.3,0,9.8,1.8,13.3,5.3C266.4,46.8,268.2,51.1,268.2,56.2z
			 M240.9,56.2c0,2.9,0.8,5.2,2.4,7c1.6,1.8,3.7,2.7,6.3,2.7s4.6-0.9,6.3-2.7c1.6-1.8,2.4-4.1,2.4-7s-0.8-5.2-2.4-7.1
			c-1.6-1.8-3.7-2.7-6.3-2.7s-4.6,0.9-6.3,2.7C241.7,51,240.9,53.4,240.9,56.2z"/>
		<path class="st0" d="M307.7,54.9v18.9h-9.9V54.6c0-2.8-0.4-4.8-1.3-6.1c-0.8-1.3-2.2-2-4.1-2s-3.6,0.7-5,2.1
			c-1.5,1.4-2.2,3.5-2.2,6.2v18.9h-9.8V38.7h9.8v4c2.7-3,5.8-4.6,9.3-4.6c2.2,0,4.2,0.7,6,2c1.8,1.3,3.2,2.9,4.1,4.8
			c1.3-2.1,3.2-3.8,5.5-5c2.3-1.2,4.6-1.8,6.9-1.8c4.1,0,7.5,1.2,10,3.7c2.5,2.5,3.8,6,3.8,10.7v21.4h-9.9V54.6c0-5.4-2-8.1-5.9-8.1
			c-2,0-3.7,0.7-5.1,2.1C308.4,50,307.7,52.1,307.7,54.9z"/>
		<path class="st0" d="M374.8,56.2c0,5.1-1.8,9.4-5.3,12.9c-3.5,3.5-8,5.2-13.3,5.2s-9.8-1.7-13.3-5.2c-3.5-3.5-5.3-7.8-5.3-12.9
			s1.8-9.4,5.3-12.9c3.5-3.5,8-5.3,13.3-5.3s9.8,1.8,13.3,5.3C373,46.8,374.8,51.1,374.8,56.2z M347.5,56.2c0,2.9,0.8,5.2,2.5,7
			c1.6,1.8,3.7,2.7,6.3,2.7s4.6-0.9,6.3-2.7c1.6-1.8,2.5-4.1,2.5-7s-0.8-5.2-2.5-7.1c-1.6-1.8-3.7-2.7-6.3-2.7s-4.6,0.9-6.3,2.7
			C348.3,51,347.5,53.4,347.5,56.2z"/>
		<path class="st0" d="M200.5,96.9c0,7.3-2.9,12-8.7,14.2l11.6,16.3h-12.5l-10.1-14.6h-7.1v14.6h-10.2V81.8h17.3
			c7.1,0,12.2,1.2,15.2,3.6C199,87.8,200.5,91.6,200.5,96.9z M188.2,102.3c1.3-1.1,1.9-2.9,1.9-5.4c0-2.5-0.7-4.1-2-5.1
			c-1.3-0.9-3.6-1.4-6.9-1.4h-7.6V104h7.4C184.6,104,187,103.5,188.2,102.3z"/>
		<path class="st0" d="M240.4,122.3c-4,3.7-8.6,5.6-13.9,5.6c-5.3,0-9.7-1.6-13.2-4.9c-3.5-3.3-5.2-7.7-5.2-13.2s1.8-9.9,5.3-13.2
			c3.5-3.3,7.7-4.9,12.6-4.9c4.8,0,8.9,1.5,12.3,4.4c3.4,2.9,5.1,6.9,5.1,12v5.2h-25.6c0.3,1.9,1.3,3.5,3,4.7
			c1.7,1.2,3.6,1.8,5.7,1.8c3.4,0,6.3-1.2,8.5-3.5L240.4,122.3z M231,101.5c-1.4-1.1-3-1.7-4.9-1.7c-1.9,0-3.7,0.6-5.3,1.8
			c-1.6,1.2-2.5,2.8-2.8,4.8h15.4C233.1,104.2,232.4,102.6,231,101.5z"/>
		<path class="st0" d="M270.8,91.7c4.1,0,7.7,1.7,10.9,5.1s4.8,7.7,4.8,12.9c0,5.2-1.6,9.5-4.8,13c-3.2,3.5-6.9,5.2-11.2,5.2
			s-7.7-1.7-10.4-5.2v17.3h-9.8V92.3h9.8v3.9C263.1,93.2,266.7,91.7,270.8,91.7z M260,109.9c0,2.9,0.8,5.2,2.4,7
			c1.6,1.8,3.5,2.7,5.8,2.7c2.3,0,4.2-0.9,5.9-2.7c1.7-1.8,2.5-4.1,2.5-7c0-2.8-0.8-5.2-2.5-7.1c-1.7-1.9-3.6-2.9-5.9-2.9
			c-2.3,0-4.3,0.9-5.8,2.8C260.8,104.7,260,107,260,109.9z"/>
		<path class="st0" d="M316.5,111.2V92.3h9.9v35.1h-9.9v-4.6c-2.4,3.4-5.6,5.2-9.4,5.2c-3.9,0-7.1-1.2-9.7-3.6
			c-2.6-2.4-3.9-6-3.9-10.7V92.3h9.9v19.1c0,5.4,2,8.1,5.9,8.1c2,0,3.7-0.7,5.1-2.1C315.8,116,316.5,113.9,316.5,111.2z"/>
		<path class="st0" d="M355.9,91.7c4.3,0,8,1.7,11.2,5c3.2,3.3,4.8,7.6,4.8,12.8s-1.6,9.6-4.9,13.1c-3.3,3.5-7,5.3-11.1,5.3
			c-4.2,0-7.6-1.7-10.4-5.2v4.6h-9.8V79h9.8v17.2C348.2,93.2,351.6,91.7,355.9,91.7z M345.3,109.9c0,2.9,0.8,5.2,2.4,7
			c1.6,1.8,3.5,2.7,5.8,2.7c2.3,0,4.2-0.9,5.9-2.7c1.7-1.8,2.5-4.1,2.5-7c0-2.8-0.8-5.2-2.5-7.1c-1.7-1.9-3.6-2.9-5.9-2.9
			c-2.3,0-4.3,0.9-5.8,2.8S345.3,107,345.3,109.9z"/>
		<path class="st0" d="M389,127.4h-9.8V79h9.8V127.4z"/>
		<path class="st0" d="M399.1,87.8c-1.1-1.1-1.7-2.5-1.7-4.1c0-1.6,0.6-3,1.7-4.1c1.1-1.1,2.5-1.7,4.1-1.7c1.6,0,3,0.6,4.1,1.7
			c1.1,1.1,1.7,2.5,1.7,4.1c0,1.6-0.6,3-1.7,4.1c-1.1,1.1-2.5,1.7-4.1,1.7C401.5,89.5,400.2,88.9,399.1,87.8z M408,127.4h-9.8V92.3
			h9.8V127.4z"/>
		<path class="st0" d="M434.2,119.3c3.3,0,6.2-1.6,8.8-4.9l5.8,6.5c-4.5,4.7-9.4,7.1-14.7,7.1s-9.7-1.7-13.4-5
			c-3.6-3.3-5.5-7.7-5.5-13.1c0-5.4,1.8-9.8,5.5-13.1c3.7-3.4,8-5.1,13.1-5.1c2.5,0,5.1,0.5,7.7,1.6c2.6,1,4.9,2.6,6.8,4.6l-5.1,6.7
			c-1.1-1.3-2.5-2.4-4.1-3.1c-1.6-0.7-3.3-1.1-4.9-1.1c-2.6,0-4.8,0.8-6.6,2.5c-1.9,1.7-2.8,4-2.8,7c0,3,0.9,5.3,2.8,7
			C429.5,118.4,431.7,119.3,434.2,119.3z"/>
	</g>
</g>
<g>
	<path class="st0" d="M565.3,59c0-17-13.9-30.9-30.9-30.9l0,0h-33.2h-6.4h-6.4c-3.3,0-6,2.7-6,6v87.3c0,3.3,2.7,6,6,6h12.9
		c3.3,0,6-2.7,6-6V89.9h27.3l0,0C551.4,89.9,565.3,76,565.3,59L565.3,59z M536.7,66.4h-29.5V51.5h29.5c3.8,0,6.9,3.3,6.9,7.4
		C543.6,63.1,540.5,66.4,536.7,66.4z"/>
	<path class="st1" d="M536.7,51.5h-29.5v14.9h29.5c3.8,0,6.9-3.3,6.9-7.4S540.5,51.5,536.7,51.5z"/>
	<path class="st1" d="M591.9,60.9c0-25.4-15.6-47.2-37.7-56.3C547,1.6,539.2,0,531,0h-62.8c-6.8,0-12.4,5.6-12.4,12.4v126.7
		c0,6.8,5.6,12.4,12.4,12.4h123.7L565,111.4C581.2,100.4,591.9,81.9,591.9,60.9z M534.4,89.9L534.4,89.9h-27.2v31.5c0,3.3-2.7,6-6,6
		h-12.9c-3.3,0-6-2.7-6-6V34.1c0-3.3,2.7-6,6-6h6.5h6.4h33.2l0,0c17,0,30.9,13.9,30.9,30.9l0,0C565.3,76,551.4,89.9,534.4,89.9z"/>
	<g>
		<path class="st2" d="M650.7,32.2c3.2,2.7,4.8,6.9,4.8,12.5s-1.6,9.8-4.9,12.4s-8.3,3.9-15.1,3.9h-6.1v12.7h-10.2V28.1h16.1
			C642.4,28.1,647.5,29.5,650.7,32.2z M643.2,50.2c1.2-1.4,1.8-3.4,1.8-6s-0.8-4.5-2.4-5.6c-1.6-1.1-4.1-1.7-7.4-1.7h-5.8v15.4h6.9
			C639.7,52.2,642,51.6,643.2,50.2z"/>
		<path class="st2" d="M681,47.3c-2.9,0-5.1,1-6.5,3.1c-1.4,2.1-2.2,4.8-2.2,8.2v15.2h-9.8V38.7h9.8v4.6c1.3-1.4,2.8-2.7,4.7-3.7
			c1.9-1,3.8-1.5,5.8-1.6l0.1,9.2L681,47.3L681,47.3z"/>
		<path class="st2" d="M724,56.2c0,5.1-1.8,9.4-5.3,12.9s-8,5.2-13.3,5.2s-9.8-1.7-13.3-5.2s-5.3-7.8-5.3-12.9s1.8-9.4,5.3-12.9
			s8-5.3,13.3-5.3s9.8,1.8,13.3,5.3C722.2,46.8,724,51.1,724,56.2z M696.7,56.2c0,2.9,0.8,5.2,2.4,7c1.6,1.8,3.7,2.7,6.3,2.7
			c2.6,0,4.6-0.9,6.3-2.7c1.6-1.8,2.4-4.1,2.4-7s-0.8-5.2-2.4-7.1c-1.6-1.8-3.7-2.7-6.3-2.7c-2.6,0-4.6,0.9-6.3,2.7
			C697.5,51,696.7,53.4,696.7,56.2z"/>
		<path class="st2" d="M763.5,54.9v18.9h-9.9V54.6c0-2.8-0.4-4.8-1.3-6.1c-0.8-1.3-2.2-2-4.1-2s-3.6,0.7-5,2.1
			c-1.5,1.4-2.2,3.5-2.2,6.2v18.9h-9.8v-35h9.8v4c2.7-3,5.8-4.6,9.3-4.6c2.2,0,4.2,0.7,6,2s3.2,2.9,4.1,4.8c1.3-2.1,3.2-3.8,5.5-5
			c2.3-1.2,4.6-1.8,6.9-1.8c4.1,0,7.5,1.2,10,3.7s3.8,6,3.8,10.7v21.4h-9.9V54.6c0-5.4-2-8.1-5.9-8.1c-2,0-3.7,0.7-5.1,2.1
			C764.2,50,763.5,52.1,763.5,54.9z"/>
		<path class="st2" d="M830.6,56.2c0,5.1-1.8,9.4-5.3,12.9s-8,5.2-13.3,5.2s-9.8-1.7-13.3-5.2s-5.3-7.8-5.3-12.9s1.8-9.4,5.3-12.9
			s8-5.3,13.3-5.3s9.8,1.8,13.3,5.3C828.8,46.8,830.6,51.1,830.6,56.2z M803.3,56.2c0,2.9,0.8,5.2,2.5,7c1.6,1.8,3.7,2.7,6.3,2.7
			s4.6-0.9,6.3-2.7c1.6-1.8,2.5-4.1,2.5-7s-0.8-5.2-2.5-7.1c-1.6-1.8-3.7-2.7-6.3-2.7s-4.6,0.9-6.3,2.7
			C804.1,51,803.3,53.4,803.3,56.2z"/>
		<path class="st2" d="M656.3,96.9c0,7.3-2.9,12-8.7,14.2l11.6,16.3h-12.5l-10.1-14.6h-7.1v14.6h-10.2V81.8h17.3
			c7.1,0,12.2,1.2,15.2,3.6S656.3,91.6,656.3,96.9z M644,102.3c1.3-1.1,1.9-2.9,1.9-5.4s-0.7-4.1-2-5.1c-1.3-0.9-3.6-1.4-6.9-1.4
			h-7.6V104h7.4C640.4,104,642.8,103.5,644,102.3z"/>
		<path class="st2" d="M696.2,122.3c-4,3.7-8.6,5.6-13.9,5.6s-9.7-1.6-13.2-4.9s-5.2-7.7-5.2-13.2s1.8-9.9,5.3-13.2
			c3.5-3.3,7.7-4.9,12.6-4.9c4.8,0,8.9,1.5,12.3,4.4c3.4,2.9,5.1,6.9,5.1,12v5.2h-25.6c0.3,1.9,1.3,3.5,3,4.7
			c1.7,1.2,3.6,1.8,5.7,1.8c3.4,0,6.3-1.2,8.5-3.5L696.2,122.3z M686.8,101.5c-1.4-1.1-3-1.7-4.9-1.7c-1.9,0-3.7,0.6-5.3,1.8
			c-1.6,1.2-2.5,2.8-2.8,4.8h15.4C688.9,104.2,688.2,102.6,686.8,101.5z"/>
		<path class="st2" d="M726.6,91.7c4.1,0,7.7,1.7,10.9,5.1c3.2,3.4,4.8,7.7,4.8,12.9c0,5.2-1.6,9.5-4.8,13
			c-3.2,3.5-6.9,5.2-11.2,5.2c-4.3,0-7.7-1.7-10.4-5.2V140h-9.8V92.3h9.8v3.9C718.9,93.2,722.5,91.7,726.6,91.7z M715.8,109.9
			c0,2.9,0.8,5.2,2.4,7c1.6,1.8,3.5,2.7,5.8,2.7c2.3,0,4.2-0.9,5.9-2.7c1.7-1.8,2.5-4.1,2.5-7c0-2.8-0.8-5.2-2.5-7.1
			s-3.6-2.9-5.9-2.9c-2.3,0-4.3,0.9-5.8,2.8C716.6,104.7,715.8,107,715.8,109.9z"/>
		<path class="st2" d="M772.3,111.2V92.3h9.9v35.1h-9.9v-4.6c-2.4,3.4-5.6,5.2-9.4,5.2c-3.9,0-7.1-1.2-9.7-3.6
			c-2.6-2.4-3.9-6-3.9-10.7V92.3h9.9v19.1c0,5.4,2,8.1,5.9,8.1c2,0,3.7-0.7,5.1-2.1C771.6,116,772.3,113.9,772.3,111.2z"/>
		<path class="st2" d="M811.7,91.7c4.3,0,8,1.7,11.2,5c3.2,3.3,4.8,7.6,4.8,12.8s-1.6,9.6-4.9,13.1s-7,5.3-11.1,5.3
			c-4.2,0-7.6-1.7-10.4-5.2v4.6h-9.8V79h9.8v17.2C804,93.2,807.4,91.7,811.7,91.7z M801.1,109.9c0,2.9,0.8,5.2,2.4,7
			c1.6,1.8,3.5,2.7,5.8,2.7c2.3,0,4.2-0.9,5.9-2.7c1.7-1.8,2.5-4.1,2.5-7c0-2.8-0.8-5.2-2.5-7.1s-3.6-2.9-5.9-2.9
			c-2.3,0-4.3,0.9-5.8,2.8S801.1,107,801.1,109.9z"/>
		<path class="st2" d="M844.8,127.4H835V79h9.8V127.4z"/>
		<path class="st2" d="M854.9,87.8c-1.1-1.1-1.7-2.5-1.7-4.1s0.6-3,1.7-4.1c1.1-1.1,2.5-1.7,4.1-1.7s3,0.6,4.1,1.7
			c1.1,1.1,1.7,2.5,1.7,4.1s-0.6,3-1.7,4.1c-1.1,1.1-2.5,1.7-4.1,1.7C857.3,89.5,856,88.9,854.9,87.8z M863.8,127.4H854V92.3h9.8
			V127.4z"/>
		<path class="st2" d="M890,119.3c3.3,0,6.2-1.6,8.8-4.9l5.8,6.5c-4.5,4.7-9.4,7.1-14.7,7.1s-9.7-1.7-13.4-5
			c-3.6-3.3-5.5-7.7-5.5-13.1s1.8-9.8,5.5-13.1c3.7-3.4,8-5.1,13.1-5.1c2.5,0,5.1,0.5,7.7,1.6c2.6,1,4.9,2.6,6.8,4.6l-5.1,6.7
			c-1.1-1.3-2.5-2.4-4.1-3.1s-3.3-1.1-4.9-1.1c-2.6,0-4.8,0.8-6.6,2.5c-1.9,1.7-2.8,4-2.8,7s0.9,5.3,2.8,7
			C885.3,118.4,887.5,119.3,890,119.3z"/>
	</g>
</g>
</svg>
