<?xml version="1.0" encoding="utf-8"?>
<!-- Generator: Adobe Illustrator 21.1.0, SVG Export Plug-In . SVG Version: 6.00 Build 0)  -->
<svg version="1.1" id="Layer_1" xmlns="http://www.w3.org/2000/svg" xmlns:xlink="http://www.w3.org/1999/xlink" x="0px" y="0px"
	 viewBox="0 0 716.6 132.1" style="enable-background:new 0 0 716.6 132.1;" xml:space="preserve">
<style type="text/css">
	.st0{fill:#414141;}
	.st1{fill:#FFFFFF;}
	.st2{fill:#AB2123;}
</style>
<g>
	<g>
		<path class="st0" d="M2.8,44l3.1-7c3.9,3.1,10,5.3,16,5.3c7.5,0,10.7-2.7,10.7-6.3c0-10.4-28.8-3.6-28.8-21.6C3.8,6.6,10,0,23.3,0
			c5.8,0,11.9,1.5,16.1,4.3l-2.8,7c-4.4-2.6-9.1-3.8-13.4-3.8c-7.5,0-10.5,2.9-10.5,6.6c0,10.3,28.7,3.6,28.7,21.4
			c0,7.8-6.3,14.4-19.6,14.4C14.3,49.8,6.8,47.5,2.8,44z"/>
		<path class="st0" d="M46.9,24.9C46.9,10.6,58,0,73,0s26.1,10.5,26.1,24.9C99.1,39.3,88,49.8,73,49.8S46.9,39.2,46.9,24.9z
			 M90,24.9c0-9.9-7.3-17-17-17c-9.8,0-17,7.1-17,17c0,9.9,7.3,17,17,17C82.8,41.9,90,34.8,90,24.9z"/>
		<path class="st0" d="M105.2,24.9c0-14.5,11.1-24.9,25.9-24.9c7.9,0,14.7,2.8,19.2,8.1l-5.8,5.5c-3.5-3.8-7.9-5.7-12.9-5.7
			c-10,0-17.3,7.1-17.3,17c0,10,7.3,17,17.3,17c5.1,0,9.4-1.9,12.9-5.7l5.8,5.5c-4.5,5.3-11.3,8.1-19.2,8.1
			C116.2,49.8,105.2,39.4,105.2,24.9z"/>
		<path class="st0" d="M158.9,0.7h9v48.4h-9V0.7z"/>
		<path class="st0" d="M212.4,37.9h-24.2l-4.8,11.2h-9.3L196,0.7h8.9l21.9,48.4h-9.4L212.4,37.9z M209.4,30.9l-9.1-21.2l-9.1,21.2
			H209.4z"/>
		<path class="st0" d="M232.8,0.7h9v40.8h25.3v7.6h-34.3V0.7z"/>
		<path class="st0" d="M289.9,24.9C289.9,10.4,301,0,315.9,0c7.9,0,14.7,2.8,19.2,8.1l-5.8,5.5c-3.5-3.8-7.9-5.7-12.9-5.7
			c-10,0-17.3,7.1-17.3,17c0,10,7.3,17,17.3,17c5.1,0,9.4-1.9,12.9-5.7l5.8,5.5c-4.5,5.3-11.3,8.1-19.2,8.1
			C301,49.8,289.9,39.4,289.9,24.9z"/>
		<path class="st0" d="M339.2,24.9c0-14.3,11.1-24.9,26.1-24.9c15,0,26.1,10.5,26.1,24.9c0,14.4-11.1,24.9-26.1,24.9
			C350.2,49.8,339.2,39.2,339.2,24.9z M382.3,24.9c0-9.9-7.3-17-17-17c-9.8,0-17,7.1-17,17c0,9.9,7.3,17,17,17
			C375,41.9,382.3,34.8,382.3,24.9z"/>
		<path class="st0" d="M445.4,49.1L445.3,17l-15.9,26.6h-4l-15.9-26.2v31.7h-8.6V0.7h7.4l19.2,32.1l18.9-32.1h7.4l0.1,48.4H445.4z"
			/>
		<path class="st0" d="M511.5,49.1L511.4,17l-15.9,26.6h-4l-15.9-26.2v31.7H467V0.7h7.4l19.2,32.1l18.9-32.1h7.4l0.1,48.4H511.5z"/>
		<path class="st0" d="M569.4,41.6v7.5H533V0.7h35.4v7.5H542v12.6h23.4v7.4H542v13.4H569.4z"/>
		<path class="st0" d="M611.1,49.1l-9.9-14.2c-0.6,0.1-1.2,0.1-1.9,0.1h-10.9v14.1h-9V0.7h19.9c12.7,0,20.6,6.5,20.6,17.2
			c0,7.3-3.7,12.7-10.3,15.3l11.1,15.9H611.1z M598.9,8.3h-10.5v19.3h10.5c7.9,0,12-3.6,12-9.7S606.8,8.3,598.9,8.3z"/>
		<path class="st0" d="M626.5,24.9c0-14.5,11.1-24.9,25.9-24.9c7.9,0,14.7,2.8,19.2,8.1l-5.8,5.5c-3.5-3.8-7.9-5.7-12.9-5.7
			c-10,0-17.3,7.1-17.3,17c0,10,7.3,17,17.3,17c5.1,0,9.4-1.9,12.9-5.7l5.8,5.5c-4.5,5.3-11.3,8.1-19.2,8.1
			C637.6,49.8,626.5,39.4,626.5,24.9z"/>
		<path class="st0" d="M716.6,41.6v7.5h-36.3V0.7h35.4v7.5h-26.4v12.6h23.4v7.4h-23.4v13.4H716.6z"/>
		<path class="st0" d="M38.3,112.9H14l-4.8,11.2H0l21.8-48.4h8.9l21.9,48.4h-9.4L38.3,112.9z M35.3,105.9l-9.1-21.2l-9.1,21.2H35.3z
			"/>
		<path class="st0" d="M54.5,99.9C54.5,85.4,65.6,75,80.5,75c7.9,0,14.7,2.8,19.2,8.1l-5.8,5.5c-3.5-3.8-7.9-5.7-12.9-5.7
			c-10,0-17.3,7.1-17.3,17s7.3,17,17.3,17c5.1,0,9.4-1.9,12.9-5.7l5.8,5.5c-4.5,5.3-11.3,8.1-19.2,8.1
			C65.6,124.8,54.5,114.4,54.5,99.9z"/>
		<path class="st0" d="M138.7,112.9h-24.2l-4.8,11.2h-9.3l21.8-48.4h8.9l21.9,48.4h-9.4L138.7,112.9z M135.7,105.9l-9.1-21.2
			l-9.1,21.2H135.7z"/>
		<path class="st0" d="M159.1,75.7h21.2c15.7,0,26.4,9.7,26.4,24.2c0,14.5-10.7,24.2-26.4,24.2h-21.2V75.7z M179.8,116.5
			c10.8,0,17.8-6.6,17.8-16.6c0-10-7-16.6-17.8-16.6h-11.8v33.2H179.8z"/>
		<path class="st0" d="M252.6,116.6v7.5h-36.3V75.7h35.4v7.5h-26.4v12.6h23.4v7.4h-23.4v13.4H252.6z"/>
		<path class="st0" d="M307.1,124.1L307,92l-15.9,26.6h-4l-15.9-26.2v31.7h-8.6V75.7h7.4l19.2,32.1l18.9-32.1h7.4l0.1,48.4H307.1z"
			/>
		<path class="st0" d="M349.6,107v17.1h-9v-17l-19-31.5h9.6l14.2,23.6l14.3-23.6h8.9L349.6,107z"/>
	</g>
	<g>
		<path class="st0" d="M402.1,117c0,4.2-2.9,6.9-6.8,6.9c-1.8,0-3.4-0.6-4.5-1.9v1.7h-3V105h3.2v6.9c1.1-1.2,2.6-1.8,4.3-1.8
			C399.2,110.1,402.1,112.8,402.1,117z M398.9,117c0-2.6-1.7-4.2-4-4.2c-2.3,0-4,1.6-4,4.2c0,2.6,1.7,4.2,4,4.2
			C397.2,121.3,398.9,119.6,398.9,117z"/>
		<path class="st0" d="M417.3,110.3l-6.3,14.6c-1.2,3.1-3,4-5.2,4c-1.3,0-2.8-0.5-3.6-1.2l1.3-2.3c0.6,0.6,1.5,0.9,2.3,0.9
			c1.1,0,1.8-0.5,2.4-1.9l0.2-0.5l-5.9-13.5h3.3l4.2,10l4.3-10H417.3z"/>
	</g>
	<g>
		<path class="st1" d="M474.6,92.7c0-7.2-5.9-13.2-13.2-13.2l0,0h-14.2h-2.7h-2.7c-1.4,0-2.6,1.2-2.6,2.6v37.2
			c0,1.4,1.2,2.6,2.6,2.6h5.5c1.4,0,2.6-1.2,2.6-2.6v-13.4h11.6l0,0C468.7,105.8,474.6,99.9,474.6,92.7L474.6,92.7z M462.4,95.8
			h-12.6v-6.4h12.6c1.6,0,2.9,1.4,2.9,3.2C465.4,94.4,464.1,95.8,462.4,95.8z"/>
		<path class="st2" d="M462.4,89.5h-12.6v6.4h12.6c1.6,0,2.9-1.4,2.9-3.2C465.4,90.9,464.1,89.5,462.4,89.5z"/>
		<path class="st2" d="M486,93.5c0-10.8-6.7-20.1-16.1-24c-3.1-1.3-6.4-2-9.9-2h-26.8c-2.9,0-5.3,2.4-5.3,5.3v54
			c0,2.9,2.4,5.3,5.3,5.3H486L474.5,115C481.4,110.3,486,102.4,486,93.5z M461.5,105.8L461.5,105.8h-11.6v13.4
			c0,1.4-1.2,2.6-2.6,2.6h-5.5c-1.4,0-2.6-1.2-2.6-2.6V82.1c0-1.4,1.2-2.6,2.6-2.6h2.8h2.7h14.2l0,0c7.2,0,13.2,5.9,13.2,13.2l0,0
			C474.6,99.9,468.7,105.8,461.5,105.8z"/>
		<g>
			<path class="st0" d="M511.1,81.2c1.4,1.2,2,2.9,2,5.3c0,2.4-0.7,4.2-2.1,5.3s-3.5,1.7-6.4,1.7H502v5.4h-4.3V79.5h6.9
				C507.5,79.5,509.7,80.1,511.1,81.2z M507.9,88.9c0.5-0.6,0.8-1.4,0.8-2.6s-0.3-1.9-1-2.4c-0.7-0.5-1.7-0.7-3.2-0.7H502v6.6h2.9
				C506.4,89.8,507.4,89.5,507.9,88.9z"/>
			<path class="st0" d="M524,87.7c-1.2,0-2.2,0.4-2.8,1.3s-0.9,2-0.9,3.5V99h-4.2V84h4.2v2c0.6-0.6,1.2-1.2,2-1.6
				c0.8-0.4,1.6-0.6,2.5-0.7l0,3.9L524,87.7L524,87.7z"/>
			<path class="st0" d="M542.3,91.5c0,2.2-0.8,4-2.3,5.5c-1.5,1.5-3.4,2.2-5.7,2.2c-2.3,0-4.2-0.7-5.7-2.2c-1.5-1.5-2.3-3.3-2.3-5.5
				s0.8-4,2.3-5.5c1.5-1.5,3.4-2.3,5.7-2.3c2.3,0,4.2,0.8,5.7,2.3C541.6,87.5,542.3,89.3,542.3,91.5z M530.7,91.5c0,1.2,0.3,2.2,1,3
				c0.7,0.8,1.6,1.2,2.7,1.2c1.1,0,2-0.4,2.7-1.2c0.7-0.8,1-1.7,1-3c0-1.2-0.3-2.2-1-3c-0.7-0.8-1.6-1.2-2.7-1.2
				c-1.1,0-2,0.4-2.7,1.2C531,89.3,530.7,90.3,530.7,91.5z"/>
			<path class="st0" d="M559.2,90.9V99h-4.2v-8.2c0-1.2-0.2-2-0.6-2.6c-0.3-0.6-0.9-0.9-1.7-0.9s-1.5,0.3-2.1,0.9
				c-0.6,0.6-0.9,1.5-0.9,2.6v8.1h-4.2V84h4.2v1.7c1.2-1.3,2.5-2,4-2c0.9,0,1.8,0.3,2.6,0.9c0.8,0.6,1.4,1.2,1.7,2
				c0.6-0.9,1.4-1.6,2.3-2.1c1-0.5,2-0.8,2.9-0.8c1.7,0,3.2,0.5,4.3,1.6c1.1,1.1,1.6,2.6,1.6,4.6V99h-4.2v-8.2
				c0-2.3-0.9-3.5-2.5-3.5c-0.9,0-1.6,0.3-2.2,0.9C559.5,88.8,559.2,89.7,559.2,90.9z"/>
			<path class="st0" d="M587.8,91.5c0,2.2-0.8,4-2.3,5.5c-1.5,1.5-3.4,2.2-5.7,2.2c-2.3,0-4.2-0.7-5.7-2.2c-1.5-1.5-2.3-3.3-2.3-5.5
				s0.8-4,2.3-5.5c1.5-1.5,3.4-2.3,5.7-2.3c2.3,0,4.2,0.8,5.7,2.3C587,87.5,587.8,89.3,587.8,91.5z M576.1,91.5c0,1.2,0.3,2.2,1.1,3
				c0.7,0.8,1.6,1.2,2.7,1.2s2-0.4,2.7-1.2c0.7-0.8,1.1-1.7,1.1-3c0-1.2-0.3-2.2-1.1-3c-0.7-0.8-1.6-1.2-2.7-1.2s-2,0.4-2.7,1.2
				C576.5,89.3,576.1,90.3,576.1,91.5z"/>
			<path class="st0" d="M513.5,108.8c0,3.1-1.2,5.1-3.7,6.1l4.9,7h-5.3l-4.3-6.2h-3v6.2h-4.3v-19.4h7.4c3,0,5.2,0.5,6.5,1.5
				C512.8,105,513.5,106.6,513.5,108.8z M508.2,111.1c0.6-0.5,0.8-1.2,0.8-2.3c0-1.1-0.3-1.7-0.9-2.2c-0.6-0.4-1.5-0.6-2.9-0.6H502
				v5.8h3.2C506.7,111.9,507.7,111.6,508.2,111.1z"/>
			<path class="st0" d="M530.5,119.7c-1.7,1.6-3.7,2.4-5.9,2.4s-4.1-0.7-5.6-2.1c-1.5-1.4-2.2-3.3-2.2-5.6c0-2.3,0.8-4.2,2.3-5.6
				c1.5-1.4,3.3-2.1,5.4-2.1c2,0,3.8,0.6,5.2,1.9s2.2,2.9,2.2,5.1v2.2h-10.9c0.1,0.8,0.6,1.5,1.3,2s1.5,0.8,2.4,0.8
				c1.4,0,2.7-0.5,3.6-1.5L530.5,119.7z M526.5,110.8c-0.6-0.5-1.3-0.7-2.1-0.7c-0.8,0-1.6,0.3-2.3,0.8s-1.1,1.2-1.2,2h6.6
				C527.4,111.9,527.1,111.3,526.5,110.8z"/>
			<path class="st0" d="M543.4,106.6c1.7,0,3.3,0.7,4.6,2.2s2,3.3,2,5.5c0,2.2-0.7,4.1-2,5.5s-2.9,2.2-4.8,2.2s-3.3-0.7-4.4-2.2v7.4
				h-4.2v-20.3h4.2v1.7C540.1,107.3,541.7,106.6,543.4,106.6z M538.8,114.4c0,1.2,0.3,2.2,1,3c0.7,0.8,1.5,1.2,2.5,1.2
				s1.8-0.4,2.5-1.2c0.7-0.8,1.1-1.7,1.1-3c0-1.2-0.3-2.2-1.1-3c-0.7-0.8-1.5-1.2-2.5-1.2s-1.8,0.4-2.5,1.2
				C539.2,112.2,538.8,113.1,538.8,114.4z"/>
			<path class="st0" d="M562.9,114.9v-8.1h4.2v15h-4.2v-2c-1,1.4-2.4,2.2-4,2.2c-1.7,0-3-0.5-4.1-1.5c-1.1-1-1.7-2.6-1.7-4.6v-9.1
				h4.2v8.1c0,2.3,0.9,3.5,2.5,3.5c0.9,0,1.6-0.3,2.2-0.9C562.6,117,562.9,116.1,562.9,114.9z"/>
			<path class="st0" d="M579.7,106.6c1.8,0,3.4,0.7,4.8,2.1c1.4,1.4,2,3.2,2,5.5c0,2.2-0.7,4.1-2.1,5.6c-1.4,1.5-3,2.3-4.7,2.3
				c-1.8,0-3.2-0.7-4.4-2.2v2h-4.2v-20.6h4.2v7.3C576.4,107.3,577.9,106.6,579.7,106.6z M575.2,114.4c0,1.2,0.3,2.2,1,3
				c0.7,0.8,1.5,1.2,2.5,1.2s1.8-0.4,2.5-1.2c0.7-0.8,1.1-1.7,1.1-3c0-1.2-0.3-2.2-1.1-3c-0.7-0.8-1.5-1.2-2.5-1.2s-1.8,0.4-2.5,1.2
				S575.2,113.1,575.2,114.4z"/>
			<path class="st0" d="M593.8,121.8h-4.2v-20.6h4.2V121.8z"/>
			<path class="st0" d="M598.1,105c-0.5-0.5-0.7-1.1-0.7-1.7c0-0.7,0.3-1.3,0.7-1.7c0.5-0.5,1.1-0.7,1.7-0.7c0.7,0,1.3,0.3,1.7,0.7
				c0.5,0.5,0.7,1.1,0.7,1.7c0,0.7-0.3,1.3-0.7,1.7c-0.5,0.5-1.1,0.7-1.7,0.7C599.2,105.7,598.6,105.4,598.1,105z M601.9,121.8h-4.2
				v-15h4.2V121.8z"/>
			<path class="st0" d="M613.1,118.4c1.4,0,2.6-0.7,3.8-2.1l2.5,2.8c-1.9,2-4,3-6.3,3s-4.1-0.7-5.7-2.1c-1.5-1.4-2.3-3.3-2.3-5.6
				s0.8-4.2,2.3-5.6c1.6-1.4,3.4-2.2,5.6-2.2c1.1,0,2.2,0.2,3.3,0.7c1.1,0.4,2.1,1.1,2.9,2l-2.2,2.9c-0.5-0.6-1.1-1-1.7-1.3
				c-0.7-0.3-1.4-0.5-2.1-0.5c-1.1,0-2,0.3-2.8,1.1c-0.8,0.7-1.2,1.7-1.2,3c0,1.3,0.4,2.3,1.2,3C611.1,118,612,118.4,613.1,118.4z"
				/>
		</g>
	</g>
</g>
</svg>
