<?xml version="1.0" encoding="utf-8"?>
<!-- Generator: Adobe Illustrator 19.0.0, SVG Export Plug-In . SVG Version: 6.00 Build 0)  -->
<svg version="1.1" id="Layer_1" xmlns="http://www.w3.org/2000/svg" xmlns:xlink="http://www.w3.org/1999/xlink" x="0px" y="0px"
	 viewBox="-1275 625.5 448.8 151.5" style="enable-background:new -1275 625.5 448.8 151.5;" xml:space="preserve">
<style type="text/css">
	.st0{fill:#FFFFFF;}
	.st1{fill:#F68838;}
	.st2{fill:#414141;}
</style>
<g>
	<path class="st0" d="M-1165.5,684.5c0-17-13.9-30.9-30.9-30.9l0,0h-33.2h-6.4h-6.4c-3.3,0-6,2.7-6,6v87.3c0,3.3,2.7,6,6,6h12.9
		c3.3,0,6-2.7,6-6v-31.5h27.3l0,0C-1179.4,715.4-1165.5,701.5-1165.5,684.5L-1165.5,684.5z M-1194.1,691.9h-29.5V677h29.5
		c3.8,0,6.9,3.3,6.9,7.4C-1187.2,688.6-1190.3,691.9-1194.1,691.9z"/>
	<path class="st1" d="M-1194.1,677h-29.5v14.9h29.5c3.8,0,6.9-3.3,6.9-7.4S-1190.3,677-1194.1,677z"/>
	<path class="st1" d="M-1138.9,686.4c0-25.4-15.6-47.2-37.7-56.3c-7.2-3-15-4.6-23.2-4.6h-62.8c-6.8,0-12.4,5.6-12.4,12.4v126.7
		c0,6.8,5.6,12.4,12.4,12.4h123.7l-26.9-40.1C-1149.6,725.9-1138.9,707.4-1138.9,686.4z M-1196.4,715.4L-1196.4,715.4h-27.2v31.5
		c0,3.3-2.7,6-6,6h-12.9c-3.3,0-6-2.7-6-6v-87.3c0-3.3,2.7-6,6-6h6.5h6.4h33.2l0,0c17,0,30.9,13.9,30.9,30.9l0,0
		C-1165.5,701.5-1179.4,715.4-1196.4,715.4z"/>
	<g>
		<path class="st2" d="M-1080.1,657.7c3.2,2.7,4.8,6.9,4.8,12.5c0,5.6-1.6,9.8-4.9,12.4c-3.3,2.6-8.3,3.9-15.1,3.9h-6.1v12.7h-10.2
			v-45.6h16.1C-1088.4,653.6-1083.3,655-1080.1,657.7z M-1087.6,675.7c1.2-1.4,1.8-3.4,1.8-6c0-2.6-0.8-4.5-2.4-5.6
			c-1.6-1.1-4.1-1.7-7.4-1.7h-5.8v15.4h6.9C-1091.1,677.7-1088.8,677.1-1087.6,675.7z"/>
		<path class="st2" d="M-1049.8,672.8c-2.9,0-5.1,1-6.5,3.1c-1.4,2.1-2.2,4.8-2.2,8.2v15.2h-9.8v-35.1h9.8v4.6
			c1.3-1.4,2.8-2.7,4.7-3.7c1.9-1,3.8-1.5,5.8-1.6l0.1,9.2L-1049.8,672.8L-1049.8,672.8z"/>
		<path class="st2" d="M-1006.8,681.7c0,5.1-1.8,9.4-5.3,12.9s-8,5.2-13.3,5.2c-5.3,0-9.8-1.7-13.3-5.2s-5.3-7.8-5.3-12.9
			c0-5.1,1.8-9.4,5.3-12.9s8-5.3,13.3-5.3c5.3,0,9.8,1.8,13.3,5.3S-1006.8,676.6-1006.8,681.7z M-1034.1,681.7c0,2.9,0.8,5.2,2.4,7
			c1.6,1.8,3.7,2.7,6.3,2.7c2.6,0,4.6-0.9,6.3-2.7c1.6-1.8,2.4-4.1,2.4-7c0-2.9-0.8-5.2-2.4-7.1c-1.6-1.8-3.7-2.7-6.3-2.7
			c-2.6,0-4.6,0.9-6.3,2.7C-1033.3,676.5-1034.1,678.9-1034.1,681.7z"/>
		<path class="st2" d="M-967.3,680.4v18.9h-9.9v-19.2c0-2.8-0.4-4.8-1.3-6.1c-0.8-1.3-2.2-2-4.1-2s-3.6,0.7-5,2.1
			c-1.5,1.4-2.2,3.5-2.2,6.2v18.9h-9.8v-35h9.8v4c2.7-3,5.8-4.6,9.3-4.6c2.2,0,4.2,0.7,6,2c1.8,1.3,3.2,2.9,4.1,4.8
			c1.3-2.1,3.2-3.8,5.5-5c2.3-1.2,4.6-1.8,6.9-1.8c4.1,0,7.5,1.2,10,3.7s3.8,6,3.8,10.7v21.4h-9.9v-19.3c0-5.4-2-8.1-5.9-8.1
			c-2,0-3.7,0.7-5.1,2.1C-966.6,675.5-967.3,677.6-967.3,680.4z"/>
		<path class="st2" d="M-900.2,681.7c0,5.1-1.8,9.4-5.3,12.9s-8,5.2-13.3,5.2s-9.8-1.7-13.3-5.2s-5.3-7.8-5.3-12.9
			c0-5.1,1.8-9.4,5.3-12.9s8-5.3,13.3-5.3s9.8,1.8,13.3,5.3S-900.2,676.6-900.2,681.7z M-927.5,681.7c0,2.9,0.8,5.2,2.5,7
			c1.6,1.8,3.7,2.7,6.3,2.7s4.6-0.9,6.3-2.7c1.6-1.8,2.5-4.1,2.5-7c0-2.9-0.8-5.2-2.5-7.1c-1.6-1.8-3.7-2.7-6.3-2.7
			s-4.6,0.9-6.3,2.7C-926.7,676.5-927.5,678.9-927.5,681.7z"/>
		<path class="st2" d="M-1074.5,722.4c0,7.3-2.9,12-8.7,14.2l11.6,16.3h-12.5l-10.1-14.6h-7.1v14.6h-10.2v-45.6h17.3
			c7.1,0,12.2,1.2,15.2,3.6C-1076,713.3-1074.5,717.1-1074.5,722.4z M-1086.8,727.8c1.3-1.1,1.9-2.9,1.9-5.4s-0.7-4.1-2-5.1
			c-1.3-0.9-3.6-1.4-6.9-1.4h-7.6v13.6h7.4C-1090.4,729.5-1088,729-1086.8,727.8z"/>
		<path class="st2" d="M-1034.6,747.8c-4,3.7-8.6,5.6-13.9,5.6s-9.7-1.6-13.2-4.9s-5.2-7.7-5.2-13.2s1.8-9.9,5.3-13.2
			c3.5-3.3,7.7-4.9,12.6-4.9c4.8,0,8.9,1.5,12.3,4.4c3.4,2.9,5.1,6.9,5.1,12v5.2h-25.6c0.3,1.9,1.3,3.5,3,4.7
			c1.7,1.2,3.6,1.8,5.7,1.8c3.4,0,6.3-1.2,8.5-3.5L-1034.6,747.8z M-1044,727c-1.4-1.1-3-1.7-4.9-1.7s-3.7,0.6-5.3,1.8
			c-1.6,1.2-2.5,2.8-2.8,4.8h15.4C-1041.9,729.7-1042.6,728.1-1044,727z"/>
		<path class="st2" d="M-1004.2,717.2c4.1,0,7.7,1.7,10.9,5.1c3.2,3.4,4.8,7.7,4.8,12.9s-1.6,9.5-4.8,13c-3.2,3.5-6.9,5.2-11.2,5.2
			c-4.3,0-7.7-1.7-10.4-5.2v17.3h-9.8v-47.7h9.8v3.9C-1011.9,718.7-1008.3,717.2-1004.2,717.2z M-1015,735.4c0,2.9,0.8,5.2,2.4,7
			c1.6,1.8,3.5,2.7,5.8,2.7c2.3,0,4.2-0.9,5.9-2.7c1.7-1.8,2.5-4.1,2.5-7c0-2.8-0.8-5.2-2.5-7.1c-1.7-1.9-3.6-2.9-5.9-2.9
			c-2.3,0-4.3,0.9-5.8,2.8C-1014.2,730.2-1015,732.5-1015,735.4z"/>
		<path class="st2" d="M-958.5,736.7v-18.9h9.9v35.1h-9.9v-4.6c-2.4,3.4-5.6,5.2-9.4,5.2c-3.9,0-7.1-1.2-9.7-3.6
			c-2.6-2.4-3.9-6-3.9-10.7v-21.4h9.9v19.1c0,5.4,2,8.1,5.9,8.1c2,0,3.7-0.7,5.1-2.1C-959.2,741.5-958.5,739.4-958.5,736.7z"/>
		<path class="st2" d="M-919.1,717.2c4.3,0,8,1.7,11.2,5c3.2,3.3,4.8,7.6,4.8,12.8s-1.6,9.6-4.9,13.1s-7,5.3-11.1,5.3
			c-4.2,0-7.6-1.7-10.4-5.2v4.6h-9.8v-48.3h9.8v17.2C-926.8,718.7-923.4,717.2-919.1,717.2z M-929.7,735.4c0,2.9,0.8,5.2,2.4,7
			c1.6,1.8,3.5,2.7,5.8,2.7c2.3,0,4.2-0.9,5.9-2.7c1.7-1.8,2.5-4.1,2.5-7c0-2.8-0.8-5.2-2.5-7.1c-1.7-1.9-3.6-2.9-5.9-2.9
			c-2.3,0-4.3,0.9-5.8,2.8C-928.8,730.1-929.7,732.5-929.7,735.4z"/>
		<path class="st2" d="M-886,752.9h-9.8v-48.4h9.8V752.9z"/>
		<path class="st2" d="M-875.9,713.3c-1.1-1.1-1.7-2.5-1.7-4.1c0-1.6,0.6-3,1.7-4.1c1.1-1.1,2.5-1.7,4.1-1.7s3,0.6,4.1,1.7
			c1.1,1.1,1.7,2.5,1.7,4.1c0,1.6-0.6,3-1.7,4.1c-1.1,1.1-2.5,1.7-4.1,1.7C-873.5,715-874.8,714.4-875.9,713.3z M-867,752.9h-9.8
			v-35.1h9.8V752.9z"/>
		<path class="st2" d="M-840.8,744.8c3.3,0,6.2-1.6,8.8-4.9l5.8,6.5c-4.5,4.7-9.4,7.1-14.7,7.1s-9.7-1.7-13.4-5
			c-3.6-3.3-5.5-7.7-5.5-13.1c0-5.4,1.8-9.8,5.5-13.1c3.7-3.4,8-5.1,13.1-5.1c2.5,0,5.1,0.5,7.7,1.6c2.6,1,4.9,2.6,6.8,4.6l-5.1,6.7
			c-1.1-1.3-2.5-2.4-4.1-3.1s-3.3-1.1-4.9-1.1c-2.6,0-4.8,0.8-6.6,2.5c-1.9,1.7-2.8,4-2.8,7s0.9,5.3,2.8,7
			C-845.5,743.9-843.3,744.8-840.8,744.8z"/>
	</g>
</g>
</svg>
