<svg xmlns="http://www.w3.org/2000/svg" viewBox="0 0 448.8 151.5"><defs><style>.a{fill:#fff;}</style></defs><title>pr-logo-white</title><path class="a" d="M80.9,51.5H51.4V66.4H80.9A7.16,7.16,0,0,0,87.8,59C87.8,54.9,84.7,51.5,80.9,51.5Z"/><path class="a" d="M136.1,60.9A60.92,60.92,0,0,0,98.4,4.6,60,60,0,0,0,75.2,0H12.4A12.46,12.46,0,0,0,0,12.4V139.1a12.46,12.46,0,0,0,12.4,12.4H136.1l-26.9-40.1A61,61,0,0,0,136.1,60.9Zm-57.5,29H51.4v31.5a6,6,0,0,1-6,6H32.5a6,6,0,0,1-6-6V34.1a6,6,0,0,1,6-6H78.6A31,31,0,0,1,109.5,59h0A31,31,0,0,1,78.6,89.9Z"/><path class="a" d="M194.9,32.2c3.2,2.7,4.8,6.9,4.8,12.5s-1.6,9.8-4.9,12.4S186.5,61,179.7,61h-6.1V73.7H163.4V28.1h16.1C186.6,28.1,191.7,29.5,194.9,32.2Zm-7.5,18a9,9,0,0,0,1.8-6c0-2.6-.8-4.5-2.4-5.6s-4.1-1.7-7.4-1.7h-5.8V52.3h6.9C183.9,52.2,186.2,51.6,187.4,50.2Z"/><path class="a" d="M225.2,47.3c-2.9,0-5.1,1-6.5,3.1a14.46,14.46,0,0,0-2.2,8.2V73.8h-9.8V38.7h9.8v4.6a17.52,17.52,0,0,1,4.7-3.7A13.66,13.66,0,0,1,227,38l0.1,9.2h-1.9v0.1Z"/><path class="a" d="M268.2,56.2a17.58,17.58,0,0,1-5.3,12.9,19.61,19.61,0,0,1-26.6,0A17.58,17.58,0,0,1,231,56.2a17.58,17.58,0,0,1,5.3-12.9,19.34,19.34,0,0,1,26.6,0A17.58,17.58,0,0,1,268.2,56.2Zm-27.3,0a10.09,10.09,0,0,0,2.4,7,8,8,0,0,0,6.3,2.7,8.17,8.17,0,0,0,6.3-2.7,10.08,10.08,0,0,0,2.4-7,10.52,10.52,0,0,0-2.4-7.1,8,8,0,0,0-6.3-2.7,8.17,8.17,0,0,0-6.3,2.7A10.71,10.71,0,0,0,240.9,56.2Z"/><path class="a" d="M307.7,54.9V73.8h-9.9V54.6c0-2.8-.4-4.8-1.3-6.1a4.49,4.49,0,0,0-4.1-2,6.88,6.88,0,0,0-5,2.1c-1.5,1.4-2.2,3.5-2.2,6.2V73.7h-9.8v-35h9.8v4c2.7-3,5.8-4.6,9.3-4.6a10.06,10.06,0,0,1,6,2,12.57,12.57,0,0,1,4.1,4.8,14,14,0,0,1,5.5-5,14.8,14.8,0,0,1,6.9-1.8c4.1,0,7.5,1.2,10,3.7s3.8,6,3.8,10.7V73.9h-9.9V54.6c0-5.4-2-8.1-5.9-8.1a6.94,6.94,0,0,0-5.1,2.1C308.4,50,307.7,52.1,307.7,54.9Z"/><path class="a" d="M374.8,56.2a17.58,17.58,0,0,1-5.3,12.9,19.61,19.61,0,0,1-26.6,0,17.58,17.58,0,0,1-5.3-12.9,17.58,17.58,0,0,1,5.3-12.9,19.34,19.34,0,0,1,26.6,0A17.58,17.58,0,0,1,374.8,56.2Zm-27.3,0a9.69,9.69,0,0,0,2.5,7,8,8,0,0,0,6.3,2.7,8.17,8.17,0,0,0,6.3-2.7,10.14,10.14,0,0,0,2.5-7,10.11,10.11,0,0,0-2.5-7.1,8,8,0,0,0-6.3-2.7,8.17,8.17,0,0,0-6.3,2.7A10.28,10.28,0,0,0,347.5,56.2Z"/><path class="a" d="M200.5,96.9c0,7.3-2.9,12-8.7,14.2l11.6,16.3H190.9l-10.1-14.6h-7.1v14.6H163.5V81.8h17.3c7.1,0,12.2,1.2,15.2,3.6S200.5,91.6,200.5,96.9Zm-12.3,5.4c1.3-1.1,1.9-2.9,1.9-5.4s-0.7-4.1-2-5.1-3.6-1.4-6.9-1.4h-7.6V104H181C184.6,104,187,103.5,188.2,102.3Z"/><path class="a" d="M240.4,122.3a19.84,19.84,0,0,1-13.9,5.6,18.45,18.45,0,0,1-13.2-4.9c-3.5-3.3-5.2-7.7-5.2-13.2s1.8-9.9,5.3-13.2A17.67,17.67,0,0,1,226,91.7a18.36,18.36,0,0,1,12.3,4.4q5.1,4.35,5.1,12v5.2H217.8a7,7,0,0,0,3,4.7,9.65,9.65,0,0,0,5.7,1.8,11.38,11.38,0,0,0,8.5-3.5ZM231,101.5a7.68,7.68,0,0,0-4.9-1.7,8.7,8.7,0,0,0-5.3,1.8,7,7,0,0,0-2.8,4.8h15.4A7,7,0,0,0,231,101.5Z"/><path class="a" d="M270.8,91.7c4.1,0,7.7,1.7,10.9,5.1a18.08,18.08,0,0,1,4.8,12.9,18.49,18.49,0,0,1-4.8,13,14.64,14.64,0,0,1-11.2,5.2,12.44,12.44,0,0,1-10.4-5.2V140h-9.8V92.3h9.8v3.9A14.67,14.67,0,0,1,270.8,91.7ZM260,109.9a10.08,10.08,0,0,0,2.4,7,7.44,7.44,0,0,0,5.8,2.7,7.79,7.79,0,0,0,5.9-2.7,9.69,9.69,0,0,0,2.5-7,10.28,10.28,0,0,0-2.5-7.1,7.68,7.68,0,0,0-5.9-2.9,7.1,7.1,0,0,0-5.8,2.8A11,11,0,0,0,260,109.9Z"/><path class="a" d="M316.5,111.2V92.3h9.9v35.1h-9.9v-4.6a11.21,11.21,0,0,1-9.4,5.2,13.7,13.7,0,0,1-9.7-3.6c-2.6-2.4-3.9-6-3.9-10.7V92.3h9.9v19.1c0,5.4,2,8.1,5.9,8.1a6.94,6.94,0,0,0,5.1-2.1C315.8,116,316.5,113.9,316.5,111.2Z"/><path class="a" d="M355.9,91.7a15.13,15.13,0,0,1,11.2,5,17.67,17.67,0,0,1,4.8,12.8,18.37,18.37,0,0,1-4.9,13.1c-3.3,3.5-7,5.3-11.1,5.3a12.7,12.7,0,0,1-10.4-5.2v4.6h-9.8V79h9.8V96.2A13.26,13.26,0,0,1,355.9,91.7Zm-10.6,18.2a10.08,10.08,0,0,0,2.4,7,7.44,7.44,0,0,0,5.8,2.7,7.79,7.79,0,0,0,5.9-2.7,9.69,9.69,0,0,0,2.5-7,10.28,10.28,0,0,0-2.5-7.1,7.68,7.68,0,0,0-5.9-2.9,7.1,7.1,0,0,0-5.8,2.8A11.34,11.34,0,0,0,345.3,109.9Z"/><path class="a" d="M389,127.4h-9.8V79H389v48.4Z"/><path class="a" d="M399.1,87.8a5.79,5.79,0,1,1,4.1,1.7A5.5,5.5,0,0,1,399.1,87.8Zm8.9,39.6h-9.8V92.3H408v35.1Z"/><path class="a" d="M434.2,119.3c3.3,0,6.2-1.6,8.8-4.9l5.8,6.5c-4.5,4.7-9.4,7.1-14.7,7.1a19.35,19.35,0,0,1-13.4-5,17,17,0,0,1-5.5-13.1c0-5.4,1.8-9.8,5.5-13.1a18.61,18.61,0,0,1,13.1-5.1,19.69,19.69,0,0,1,7.7,1.6,18.64,18.64,0,0,1,6.8,4.6l-5.1,6.7a11.43,11.43,0,0,0-4.1-3.1,12.43,12.43,0,0,0-4.9-1.1,9.21,9.21,0,0,0-6.6,2.5,10.15,10.15,0,0,0,0,14A10.48,10.48,0,0,0,434.2,119.3Z"/></svg>