<?xml version="1.0" encoding="utf-8"?>
<!-- Generator: Adobe Illustrator 19.0.0, SVG Export Plug-In . SVG Version: 6.00 Build 0)  -->
<svg version="1.1" id="Layer_1" xmlns="http://www.w3.org/2000/svg" xmlns:xlink="http://www.w3.org/1999/xlink" x="0px" y="0px"
	 viewBox="0 0 136.1 151.5" style="enable-background:new 0 0 136.1 151.5;" xml:space="preserve">
<style type="text/css">
	.st0{fill:#FFFFFF;}
	.st1{fill:#AB2123;}
	.st2{fill:none;}
</style>
<path class="st0" d="M78.6,28.1L78.6,28.1H45.4H39h-6.4c-3.3,0-6,2.7-6,6v87.3c0,3.3,2.7,6,6,6h12.9c3.3,0,6-2.7,6-6V89.9h27.3h0
	c17,0,30.9-13.9,30.9-30.9v0C109.5,42,95.6,28.1,78.6,28.1z M80.9,66.4H51.4V51.6h29.5c3.8,0,6.9,3.3,6.9,7.4S84.7,66.4,80.9,66.4z"
	/>
<path class="st1" d="M80.9,51.6H51.4v14.9h29.5c3.8,0,6.9-3.3,6.9-7.4S84.7,51.6,80.9,51.6z"/>
<g>
	<path class="st2" d="M109.5,59L109.5,59c0-17-13.9-30.9-30.9-30.9h0H45.4H39h-6.4c-3.3,0-6,2.7-6,6v87.3c0,3.3,2.7,6,6,6h12.9
		c3.3,0,6-2.7,6-6V89.9h27.3h0C95.6,89.9,109.5,76,109.5,59z"/>
	<path class="st1" d="M136.1,60.9c0-25.4-15.6-47.2-37.7-56.3C91.2,1.6,83.4,0,75.2,0H12.4C5.6,0,0,5.6,0,12.4v126.7
		c0,6.8,5.6,12.4,12.4,12.4h123.7l-26.9-40.1C125.4,100.4,136.1,81.9,136.1,60.9z M78.6,89.9H51.4v31.5c0,3.3-2.7,6-6,6H32.5
		c-3.3,0-6-2.7-6-6V34.1c0-3.3,2.7-6,6-6H39h6.4h33.2h0c17,0,30.9,13.9,30.9,30.9v0C109.5,76,95.6,89.9,78.6,89.9L78.6,89.9z"/>
</g>
</svg>
