<svg xmlns="http://www.w3.org/2000/svg" viewBox="0 0 136.1 151.5"><defs><style>.a{fill:#fff;}</style></defs><title>pr-logo-white-symbol</title><path class="a" d="M206.92,51.5h-29.5V66.4h29.5a7.16,7.16,0,0,0,6.9-7.4C213.82,54.9,210.72,51.5,206.92,51.5Z" transform="translate(-126.02)"/><path class="a" d="M262.12,60.9a60.92,60.92,0,0,0-37.7-56.3A60,60,0,0,0,201.22,0h-62.8A12.46,12.46,0,0,0,126,12.4V139.1a12.46,12.46,0,0,0,12.4,12.4h123.7l-26.9-40.1A61,61,0,0,0,262.12,60.9Zm-57.5,29h-27.2v31.5a6,6,0,0,1-6,6h-12.9a6,6,0,0,1-6-6V34.1a6,6,0,0,1,6-6h46.1A30.9,30.9,0,0,1,204.62,89.9Z" transform="translate(-126.02)"/></svg>