<svg xmlns="http://www.w3.org/2000/svg" width="290" height="64" viewBox="0 0 290 64">
    <g fill="none" fill-rule="evenodd">
        <path fill="#FFF" d="M73.458 16.728h1.756L68.005.95h-1.644l-7.21 15.778h1.735l1.892-4.215h8.785l1.895 4.215zm-10.069-5.567l3.786-8.475 3.784 8.475h-7.57zm23.425-6.289V7.15c-.991-1.556-2.704-2.367-4.685-2.367-3.38 0-5.947 2.322-5.947 5.725 0 3.404 2.568 5.77 5.947 5.77 1.937 0 3.626-.789 4.617-2.297v1.51c0 2.93-1.374 4.305-4.37 4.305a7.05 7.05 0 0 1-4.662-1.623l-.811 1.218c1.238 1.172 3.356 1.825 5.518 1.825 3.92 0 5.925-1.846 5.925-5.928V4.872h-1.532zm-4.528 9.985c-2.613 0-4.482-1.78-4.482-4.348 0-2.568 1.87-4.328 4.482-4.328 2.613 0 4.506 1.758 4.506 4.328 0 2.57-1.893 4.348-4.506 4.348zm20.88-4.057c0-3.561-2.41-6.018-5.744-6.018-3.334 0-5.79 2.503-5.79 6.018 0 3.515 2.523 6.04 6.218 6.04a5.83 5.83 0 0 0 4.572-1.937l-.901-1.038a4.668 4.668 0 0 1-3.626 1.556c-2.59 0-4.482-1.645-4.662-4.125h9.912c-.002-.18.02-.36.02-.496zm-5.744-4.643c2.32 0 4.01 1.623 4.212 3.944h-8.402c.202-2.321 1.892-3.944 4.19-3.944zm15.045-1.375c-2.048 0-3.649.834-4.506 2.276V4.872h-1.531V16.73h1.597v-6.222c0-2.705 1.598-4.283 4.144-4.283 2.253 0 3.56 1.285 3.56 3.787v6.717h1.597V9.854c.004-3.404-1.978-5.072-4.861-5.072zm14.167 12.059c2.004 0 3.694-.811 4.64-2.344l-1.194-.812a4.006 4.006 0 0 1-3.446 1.736c-2.59 0-4.483-1.826-4.483-4.621 0-2.772 1.892-4.62 4.483-4.62a4.026 4.026 0 0 1 3.446 1.758l1.194-.812c-.946-1.555-2.636-2.344-4.64-2.344-3.537 0-6.103 2.48-6.103 6.018s2.566 6.04 6.103 6.04zm15.969-11.969l-4.46 10.075-4.46-10.075h-1.667l5.293 11.834-.518 1.148c-.676 1.488-1.397 1.984-2.455 1.984a2.958 2.958 0 0 1-2.163-.903l-.743 1.195a4.051 4.051 0 0 0 2.883 1.082c1.69 0 2.95-.744 3.942-3.066l5.926-13.274H142.603zm22.275 11.045l-2.253-2.322a10.806 10.806 0 0 0 1.397-3.629l-1.307-.405a9.849 9.849 0 0 1-1.058 3.042l-4.325-4.463c2.568-1.487 3.514-2.592 3.514-4.17 0-1.96-1.442-3.133-3.672-3.133-2.433 0-3.987 1.354-3.987 3.36 0 1.216.45 2.163 1.982 3.74-2.883 1.668-3.964 3.044-3.964 4.914 0 2.39 2.207 4.012 5.293 4.012a6.958 6.958 0 0 0 5.271-2.14l2.185 2.253.924-1.06zm-7.703-13.885c1.464 0 2.297.789 2.297 1.961 0 1.127-.743 1.916-3.018 3.223-1.442-1.465-1.78-2.119-1.78-3.042 0-1.263.924-2.142 2.5-2.142zm-.586 13.502c-2.275 0-3.807-1.127-3.807-2.84 0-1.398.766-2.39 3.289-3.832l4.751 4.891a5.478 5.478 0 0 1-4.233 1.78zM184.45 2.393V.95h-10.813v15.778h1.666v-6.694h8.154V8.59h-8.152V2.393h9.145zm4.414 4.8V4.87h-1.532v11.856h1.598v-6.04c0-2.794 1.509-4.372 3.986-4.372.113 0 .248.022.383.022V4.782c-2.182 0-3.693.834-4.435 2.412v-.001zm17.546 3.606c0-3.561-2.41-6.018-5.744-6.018-3.333 0-5.788 2.502-5.788 6.018 0 3.515 2.522 6.04 6.217 6.04a5.831 5.831 0 0 0 4.572-1.938l-.901-1.037a4.666 4.666 0 0 1-3.626 1.555c-2.59 0-4.483-1.645-4.663-4.124h9.912c-.001-.18.021-.36.021-.495v-.001zm-5.745-4.642c2.32 0 4.01 1.623 4.212 3.944h-8.4c.202-2.321 1.892-3.944 4.188-3.944zm19.348 4.643c0-3.561-2.41-6.018-5.744-6.018-3.334 0-5.789 2.503-5.789 6.018 0 3.515 2.523 6.04 6.217 6.04a5.831 5.831 0 0 0 4.572-1.937l-.9-1.038a4.666 4.666 0 0 1-3.627 1.556c-2.59 0-4.483-1.645-4.663-4.125h9.913c0-.18.022-.36.022-.496h-.001zm-5.744-4.643c2.32 0 4.01 1.623 4.212 3.944h-8.4c.202-2.321 1.892-3.944 4.19-3.944h-.002zm9.008 10.571h1.6V.004h-1.6v16.724zm10.204-11.946a7.52 7.52 0 0 0-4.82 1.6l.72 1.195a6.032 6.032 0 0 1 3.942-1.398c2.208 0 3.356 1.105 3.356 3.133v.721h-3.761c-3.4 0-4.573 1.533-4.573 3.359 0 2.051 1.645 3.448 4.325 3.448 1.96 0 3.356-.744 4.077-1.96v1.848h1.532V9.382c.001-3.067-1.732-4.6-4.797-4.6h-.001zm-.562 10.795c-1.892 0-2.996-.857-2.996-2.231 0-1.218.743-2.12 3.041-2.12h3.717v1.94c-.631 1.556-1.96 2.411-3.762 2.411zM248.663 4.78c-2.048 0-3.65.834-4.506 2.277V4.87h-1.532v11.856h1.598v-6.22c0-2.705 1.597-4.283 4.144-4.283 2.253 0 3.559 1.285 3.559 3.787v6.717h1.597V9.854c.005-3.404-1.977-5.072-4.86-5.072V4.78zm14.166 12.059c2.005 0 3.695-.811 4.64-2.344l-1.193-.811a4.006 4.006 0 0 1-3.447 1.735c-2.59 0-4.482-1.826-4.482-4.62 0-2.773 1.892-4.621 4.482-4.621a4.027 4.027 0 0 1 3.447 1.758l1.196-.81c-.946-1.556-2.636-2.344-4.64-2.344-3.537 0-6.104 2.48-6.104 6.018s2.565 6.04 6.101 6.04v-.001zm17.907-6.04c0-3.562-2.41-6.019-5.744-6.019-3.333 0-5.789 2.503-5.789 6.018 0 3.516 2.523 6.041 6.217 6.041a5.831 5.831 0 0 0 4.573-1.938l-.902-1.037a4.666 4.666 0 0 1-3.626 1.555c-2.59 0-4.483-1.645-4.663-4.125h9.913c-.002-.179.021-.359.021-.494v-.002zm-5.744-4.642c2.32 0 4.01 1.623 4.212 3.944h-8.402c.203-2.321 1.892-3.944 4.19-3.944zm10.54 1.037V4.872h-1.531V16.73h1.599v-6.041c0-2.795 1.509-4.373 3.987-4.373.112 0 .248.022.383.022V4.782c-2.185 0-3.695.834-4.438 2.412zM89.532 63.292l-4.176-9.496H65.181l-4.176 9.496H55.42l17.192-37.986h5.37l17.245 37.986h-5.694zM67.08 49.454h16.378l-8.19-18.613-8.188 18.613z"/>
        <path fill="#FFF" d="M108.622 63.726c5.912 0 11.01-2.062 14.48-5.969l-3.525-3.419a14.112 14.112 0 0 1-10.684 4.558c-8.569 0-14.914-6.186-14.914-14.597s6.345-14.597 14.914-14.597c4.176 0 7.755 1.41 10.684 4.504l3.525-3.419c-3.47-3.907-8.568-5.915-14.426-5.915-11.55 0-20.12 8.194-20.12 19.427 0 11.233 8.569 19.427 20.066 19.427z"/>
        <path fill="#FFF" d="M149.624 63.292l-4.18-9.496H125.27l-4.176 9.496h-5.586l17.193-37.986h5.372l17.244 37.986h-5.693zM127.17 49.454h-.002 16.38l-8.189-18.613-8.19 18.613z"/>
        <path fill="#FFF" d="M152.28 63.292l-.001-.002V25.304h16c12.202 0 20.5 7.704 20.5 18.993 0 11.29-8.298 18.995-20.5 18.995h-16zm5.422-4.72h10.25c9.38 0 15.401-5.754 15.401-14.273 0-8.52-6.018-14.272-15.4-14.272h-10.25v28.545z"/>
        <path fill="#FFF" d="M193.82 58.572V46.305h19.036v-4.61H193.82V30.026h21.369v-4.72h-26.792v37.985h27.55v-4.72H193.82zM256.46 63.293l-.055-37.986h-4.447l-15.62 26.699-15.835-26.699h-4.447v37.986h5.206V35.78l13.722 22.9h2.495L251.2 35.616l.054 27.675h5.206z"/>
        <path fill="#FFF" d="M288.782 25.307h-5.37L271.21 45.331l-12.148-20.024h-5.804l15.077 24.745v13.24h5.37v-13.13z"/>
        <path fill="#FF7757" d="M14.283 31.902h9.522L9.522 63.11H0L14.283 31.9zM9.523.692H0l14.283 31.21h9.522L9.522.692z" opacity=".2"/>
        <path fill="#FF7757" d="M30.606 31.902h9.523L25.846 63.11h-9.522L30.606 31.9zM25.846.692h-9.522l14.282 31.21h9.523L25.846.692z" opacity=".5"/>
        <path fill="#FF7757" d="M46.93 31.902h9.522L42.17 63.11h-9.524L46.93 31.9zM42.169.692h-9.524l14.283 31.21h9.522L42.17.692z"/>
    </g>
</svg>
