<svg xmlns="http://www.w3.org/2000/svg" width="54.38" height="54.94" viewBox="0 0 54.38 54.94">
  <metadata><?xpacket begin="﻿" id="W5M0MpCehiHzreSzNTczkc9d"?>
<x:xmpmeta xmlns:x="adobe:ns:meta/" x:xmptk="Adobe XMP Core 5.6-c140 79.160451, 2017/05/06-01:08:21        ">
   <rdf:RDF xmlns:rdf="http://www.w3.org/1999/02/22-rdf-syntax-ns#">
      <rdf:Description rdf:about=""/>
   </rdf:RDF>
</x:xmpmeta>
                                                                                                    
                                                                                                    
                                                                                                    
                                                                                                    
                                                                                                    
                                                                                                    
                                                                                                    
                                                                                                    
                                                                                                    
                                                                                                    
                                                                                                    
                                                                                                    
                                                                                                    
                                                                                                    
                                                                                                    
                                                                                                    
                                                                                                    
                                                                                                    
                                                                                                    
                                                                                                    
                           
<?xpacket end="w"?></metadata>
<defs>
    <style>
      .cls-1 {
        fill: #516e91;
        fill-rule: evenodd;
      }
    </style>
  </defs>
  <path class="cls-1" d="M1637.42,1082c-1.67,0-5.62-1.77-8.82-3.34-4.08-2.02-17.57-9.09-19.39-15.4a13.3,13.3,0,0,1,1.08-10.73,13.913,13.913,0,0,1,8.27-6.03,13.6,13.6,0,0,1,9.2.6,13.618,13.618,0,0,1,7.48-5.36,13.987,13.987,0,0,1,10.22.76,13.328,13.328,0,0,1,6.63,8.53c1.83,6.34-5.98,19.6-8.42,23.51-1.94,3.11-4.48,6.85-5.78,7.38v0.01c-0.03.01-.06,0.02-0.1,0.03s-0.05.01-.08,0.02h0A2.477,2.477,0,0,1,1637.42,1082Zm-0.27-1.92h0Zm0.02-.02h0Zm-14.85-32.09a11.789,11.789,0,0,0-3.21.45,11.947,11.947,0,0,0-7.09,5.13,11.339,11.339,0,0,0-.87,9.16c2.02,7.01,23.56,17,26.09,17.3,0.96-.78,4.57-5.78,7.92-12.07,4.01-7.51,5.83-13.47,5-16.35a11.42,11.42,0,0,0-5.62-7.31,12.02,12.02,0,0,0-8.75-.61,11.531,11.531,0,0,0-6.79,5.23,1.035,1.035,0,0,1-1.34.38A11.517,11.517,0,0,0,1622.32,1047.97Zm15.03,32.04h0Zm-20.68-40.19a0.984,0.984,0,0,1-.47-0.11l-2.49-1.3-2.49,1.3a0.993,0.993,0,0,1-1.06-.08,0.983,0.983,0,0,1-.4-0.98l0.48-2.75-2.02-1.96a1,1,0,0,1,.56-1.7l2.78-.41,1.25-2.5a1.041,1.041,0,0,1,1.8,0l1.25,2.5,2.78,0.41a1,1,0,0,1,.56,1.7l-2.01,1.96,0.47,2.75A1,1,0,0,1,1616.67,1039.82Zm-2.96-3.54a0.984,0.984,0,0,1,.47.11l1.15,0.6-0.22-1.27a0.983,0.983,0,0,1,.29-0.89l0.93-.9-1.29-.19a0.994,0.994,0,0,1-.75-0.55l-0.58-1.16-0.58,1.16a0.994,0.994,0,0,1-.75.55l-1.29.19,0.93,0.9a0.983,0.983,0,0,1,.29.89l-0.22,1.27,1.15-.6A0.984,0.984,0,0,1,1613.71,1036.28Zm-9.63,18.5a1.015,1.015,0,0,1-.86-0.48l-1.46-2.4-2.81-.16a0.992,0.992,0,0,1-.7-1.65l1.83-2.12-0.71-2.7a0.988,0.988,0,0,1,.31-1.01,1.008,1.008,0,0,1,1.05-.17l2.6,1.08,2.36-1.51a1.007,1.007,0,0,1,1.55.92l-0.23,2.79,2.18,1.77a1,1,0,0,1,.34,1,1.021,1.021,0,0,1-.75.75l-2.74.64-1.02,2.61a1.008,1.008,0,0,1-.85.63A0.277,0.277,0,0,1,1604.08,1054.78Zm-2.98-4.92,1.31,0.08a0.96,0.96,0,0,1,.8.48l0.67,1.1,0.48-1.2a1.013,1.013,0,0,1,.7-0.62l1.27-.29-1.01-.82a1.008,1.008,0,0,1-.36-0.86l0.1-1.29-1.09.7a0.993,0.993,0,0,1-.93.08l-1.21-.5,0.34,1.25a1.006,1.006,0,0,1-.22.91Zm35.99-14.16a1.02,1.02,0,0,1-.79-0.38l-1.12-1.42-1.81.12a1,1,0,0,1-.93-0.5,0.973,0.973,0,0,1,.03-1.05l1.01-1.5-0.67-1.67a0.987,0.987,0,0,1,.18-1.04,1.012,1.012,0,0,1,1.02-.3l1.75,0.49,1.39-1.15a1.005,1.005,0,0,1,1.65.73l0.07,1.8,1.53,0.96a1,1,0,0,1,.46.95,1.015,1.015,0,0,1-.65.84l-1.7.62-0.44,1.74a1.019,1.019,0,0,1-.77.74A1.492,1.492,0,0,1,1637.09,1035.7Zm-1.45-3.83a1,1,0,0,1,.79.38l0.19,0.23,0.07-.28a1.05,1.05,0,0,1,.63-0.7l0.28-.1-0.25-.16a1,1,0,0,1-.47-0.81l-0.01-.29-0.23.19a1.019,1.019,0,0,1-.92.19l-0.29-.08,0.11,0.28a0.949,0.949,0,0,1-.1.92l-0.16.25,0.3-.02h0.06Zm-4.41,33.52a1.026,1.026,0,0,1-.63-0.22l-1.94-1.55-2.37.71a1.014,1.014,0,0,1-1.03-.27,0.993,0.993,0,0,1-.2-1.04l0.88-2.31-1.42-2.02a1.033,1.033,0,0,1-.05-1.06,1.016,1.016,0,0,1,.93-0.51l2.47,0.12,1.51-1.97a1.011,1.011,0,0,1,1.77.35l0.65,2.38,2.34,0.81a0.995,0.995,0,0,1,.22,1.78l-2.07,1.35-0.06,2.47a0.99,0.99,0,0,1-.58.88A1.035,1.035,0,0,1,1631.23,1065.39Zm-2.35-3.88a1.026,1.026,0,0,1,.63.22l0.76,0.61,0.02-.97a0.961,0.961,0,0,1,.45-0.81l0.81-.53-0.91-.32a0.992,0.992,0,0,1-.64-0.68l-0.26-.93-0.58.77a0.979,0.979,0,0,1-.85.39l-0.97-.04,0.55,0.79a1,1,0,0,1,.12.92l-0.35.9,0.93-.28A1.446,1.446,0,0,1,1628.88,1061.51Zm-8.57-.37a1,1,0,0,1-.47-0.12l-1.6-.84-1.6.84a0.993,0.993,0,0,1-1.06-.08,0.975,0.975,0,0,1-.4-0.97l0.3-1.78-1.29-1.26a0.973,0.973,0,0,1-.26-1.02,1.023,1.023,0,0,1,.81-0.69l1.8-.25,0.8-1.62a1.049,1.049,0,0,1,1.8,0l0.8,1.62,1.8,0.25a1.023,1.023,0,0,1,.81.69,0.973,0.973,0,0,1-.26,1.02l-1.29,1.26,0.3,1.78A1.017,1.017,0,0,1,1620.31,1061.14Zm-2.07-3.09a1,1,0,0,1,.47.12l0.26,0.13-0.05-.29a1.048,1.048,0,0,1,.29-0.89l0.22-.21-0.3-.04a1.01,1.01,0,0,1-.76-0.55l-0.13-.26-0.13.26a1.01,1.01,0,0,1-.76.55l-0.3.04,0.22,0.21a1.048,1.048,0,0,1,.29.89l-0.05.29,0.26-.13A1,1,0,0,1,1618.24,1058.05Z" transform="translate(-1598 -1027.06)"/>
</svg>
