<svg xmlns="http://www.w3.org/2000/svg" width="52" height="52" viewBox="0 0 52 52">
  <metadata><?xpacket begin="﻿" id="W5M0MpCehiHzreSzNTczkc9d"?>
<x:xmpmeta xmlns:x="adobe:ns:meta/" x:xmptk="Adobe XMP Core 5.6-c140 79.160451, 2017/05/06-01:08:21        ">
   <rdf:RDF xmlns:rdf="http://www.w3.org/1999/02/22-rdf-syntax-ns#">
      <rdf:Description rdf:about=""/>
   </rdf:RDF>
</x:xmpmeta>
                                                                                                    
                                                                                                    
                                                                                                    
                                                                                                    
                                                                                                    
                                                                                                    
                                                                                                    
                                                                                                    
                                                                                                    
                                                                                                    
                                                                                                    
                                                                                                    
                                                                                                    
                                                                                                    
                                                                                                    
                                                                                                    
                                                                                                    
                                                                                                    
                                                                                                    
                                                                                                    
                           
<?xpacket end="w"?></metadata>
<defs>
    <style>
      .cls-1 {
        fill: #516e91;
        fill-rule: evenodd;
      }
    </style>
  </defs>
  <path class="cls-1" d="M2031.83,1125.24v-13.5a3.718,3.718,0,0,0-5.64-3.17c-6.09,3.74-13.06,12.11-20.23,12.11h-9.19a4.324,4.324,0,0,0-4.25,3.93h-1.97a3.551,3.551,0,0,0-3.55,3.55v8.18a3.544,3.544,0,0,0,3.55,3.55h2.03a4.4,4.4,0,0,0,2.73,3.68l5.32,14.77a2.472,2.472,0,0,0,2.29,1.65h6.91a2.451,2.451,0,0,0,2.03-1.08,2.651,2.651,0,0,0,.32-2.28l-4.57-12.81c6.47,0.32,12.94,8.69,18.58,12.18a3.511,3.511,0,0,0,1.9.57,3.777,3.777,0,0,0,1.84-.51,3.611,3.611,0,0,0,1.9-3.23v-13.32A7.135,7.135,0,1,0,2031.83,1125.24Zm-39.31,12.12h-1.97a1,1,0,0,1-1.01-1.02v-8.18a1,1,0,0,1,1.01-1.01h1.97v10.21Zm17.12,20.1h-6.72l-4.89-13.57h6.73Zm19.09-3.62a1.133,1.133,0,0,1-1.21,0c-6.47-3.99-13.95-12.49-21.56-12.49h-9.19a1.81,1.81,0,0,1-1.78-1.78v-14.58a1.769,1.769,0,0,1,1.78-1.77h7.61v8.3a1.265,1.265,0,1,0,2.53,0v-8.3c7.29-.19,14.4-8.69,20.61-12.5a1.161,1.161,0,0,1,1.21,0,1.127,1.127,0,0,1,.57,1.02v41.09h0A1.032,1.032,0,0,1,2028.73,1153.84Zm-23.09-19.15a1.27,1.27,0,1,1-1.26,1.27A1.272,1.272,0,0,1,2005.64,1134.69Z" transform="translate(-1987 -1108)"/>
</svg>
