<?xml version="1.0" encoding="utf-8"?>
<!-- Generator: Adobe Illustrator 21.1.0, SVG Export Plug-In . SVG Version: 6.00 Build 0)  -->
<svg version="1.1" id="Capa_1" xmlns="http://www.w3.org/2000/svg" xmlns:xlink="http://www.w3.org/1999/xlink" x="0px" y="0px"
	 viewBox="0 0 57.9 57.9" style="enable-background:new 0 0 57.9 57.9;" xml:space="preserve">
<style type="text/css">
	.st0{fill:none;}
	.st1{fill:#516E91;}
	.st2{fill:#FFFFFF;}
</style>
<g>
	<path class="st0" d="M24,22.8c0,0,0.1,0.1,0.1,0.1h11.7c2.8-1.9,4.4-5,4.4-8.4c0-5.6-4.6-10.2-10.2-10.2c-5.6,0-10.2,4.6-10.2,10.2
		C19.8,17.8,21.4,20.9,24,22.8z M27.4,8.8H30c0.6,0,1,0.4,1,1v9.1c0,0.6-0.4,1-1,1c-0.6,0-1-0.4-1-1v-8.1h-1.6c-0.6,0-1-0.4-1-1
		S26.9,8.8,27.4,8.8z"/>
	<path class="st0" d="M21.3,48.2v-5.5c0-1.4-1.1-2.6-2.6-2.6H7.5c-1.4,0-2.6,1.1-2.6,2.6v5.5c0,1.4,1.1,2.6,2.6,2.6h10.6h0.6
		C20.1,50.8,21.3,49.7,21.3,48.2z M9.2,47.2c-1.3,0-2.3-1-2.3-2.3c0-1.3,1-2.3,2.3-2.3s2.3,1,2.3,2.3C11.5,46.1,10.5,47.2,9.2,47.2z
		 M17,47.1c-1.3,0-2.3-1-2.3-2.3s1-2.3,2.3-2.3c1.3,0,2.3,1,2.3,2.3S18.3,47.1,17,47.1z"/>
	<path class="st0" d="M40.6,20.6c-0.5,0.8-1,1.6-1.7,2.3c1.3,0,2.8,0.1,4.5,0.8c0.5,0.2,0.8,0.8,0.6,1.3c-0.2,0.5-0.8,0.8-1.3,0.6
		c-1.8-0.7-3.3-0.7-4.6-0.6c-0.3,0-0.6,0-0.9,0H22.9c-0.3,0-0.6,0-0.9,0c-1.4,0-2.9-0.1-4.6,0.6c-0.1,0-0.2,0.1-0.4,0.1
		c-0.4,0-0.8-0.2-0.9-0.6c-0.2-0.5,0-1.1,0.6-1.3c1.7-0.7,3.2-0.8,4.5-0.8c-0.7-0.7-1.2-1.5-1.7-2.3C12.3,20.5,5,24.9,5,32.3v5.3
		c0,0.3,0,0.6,0,0.8c0,0.2,0,0.3,0,0.3c0,0,0,0.1,0.1,0.1c0.7-0.5,1.6-0.7,2.5-0.7h11.2c2.5,0,4.6,2,4.6,4.6v5.5
		c0,0.9-0.3,1.8-0.8,2.6h18c7.3,0,13.2-5.9,13.2-13.2v-5.3C53.7,25.3,47,21.1,40.6,20.6z M10.5,35.5H9.2c-0.6,0-1-0.4-1-1s0.4-1,1-1
		h1.3c0.6,0,1,0.4,1,1S11.1,35.5,10.5,35.5z M20.9,35.5h-1.3c-0.6,0-1-0.4-1-1s0.4-1,1-1h1.3c0.6,0,1,0.4,1,1S21.5,35.5,20.9,35.5z"
		/>
	<path class="st1" d="M52.1,23.6c-0.2-0.6-0.3-1.8,0.1-2.2c0.3-0.3,1.1-0.3,2.2,0c0.5,0.2,1.1-0.1,1.2-0.7c0.2-0.5-0.1-1.1-0.7-1.2
		c-1.9-0.6-3.3-0.4-4.2,0.5c-0.5,0.5-0.7,1.2-0.8,1.8c-2.5-1.7-5.5-2.8-8.5-3.2c0.5-1.3,0.7-2.7,0.7-4.1c0-6.7-5.5-12.2-12.2-12.2
		c-6.7,0-12.2,5.5-12.2,12.2c0,1.4,0.3,2.8,0.7,4.1C10.7,18.9,3,24,3,32.3v5.3c0,0.3,0,0.6,0,0.7c0,0.9,0.1,1.1,0.6,1.9l0.1,0.1
		C3.2,41.1,3,41.9,3,42.7v5.5c0,2.5,2,4.6,4.6,4.6h3.9v2.5c0,0.6,0.4,1,1,1s1-0.4,1-1v-2.5h4.7h0.6h2.5v2.5c0,0.6,0.4,1,1,1
		s1-0.4,1-1v-2.5h12.1v2.5c0,0.6,0.4,1,1,1s1-0.4,1-1v-2.5h3.1c1.6,0,3.2-0.3,4.6-0.7v3.2c0,0.6,0.4,1,1,1s1-0.4,1-1v-4
		c5.1-2.5,8.6-7.6,8.6-13.6v-5.3C55.7,28.8,54.3,25.9,52.1,23.6z M30,4.3c5.6,0,10.2,4.6,10.2,10.2c0,3.4-1.6,6.5-4.4,8.4H24.1
		c0,0-0.1-0.1-0.1-0.1c-2.7-1.9-4.2-5-4.2-8.3C19.8,8.9,24.4,4.3,30,4.3z M18.1,50.8H7.5c-1.4,0-2.6-1.1-2.6-2.6v-5.5
		c0-1.4,1.1-2.6,2.6-2.6h11.2c1.4,0,2.6,1.1,2.6,2.6v5.5c0,1.4-1.1,2.6-2.6,2.6H18.1z M53.7,37.6c0,7.3-5.9,13.2-13.2,13.2h-18
		c0.5-0.7,0.8-1.6,0.8-2.6v-5.5c0-2.5-2-4.6-4.6-4.6H7.5c-0.9,0-1.8,0.3-2.5,0.7C5,38.8,5,38.8,5,38.8c0-0.1,0-0.2,0-0.3
		c0-0.2,0-0.5,0-0.8v-5.3c0-7.4,7.3-11.8,14.4-11.8c0.5,0.8,1.1,1.6,1.7,2.3c-1.3,0-2.8,0.1-4.5,0.8c-0.5,0.2-0.8,0.8-0.6,1.3
		c0.2,0.4,0.5,0.6,0.9,0.6c0.1,0,0.3,0,0.4-0.1c1.8-0.7,3.3-0.7,4.6-0.6c0.3,0,0.6,0,0.9,0h14.2c0.3,0,0.6,0,0.9,0
		c1.3,0,2.9-0.1,4.6,0.6c0.5,0.2,1.1,0,1.3-0.6c0.2-0.5,0-1.1-0.6-1.3c-1.7-0.7-3.2-0.8-4.5-0.8c0.7-0.7,1.2-1.5,1.7-2.3
		c6.4,0.5,13.1,4.7,13.1,11.7V37.6z"/>
	<circle class="st2" cx="9.2" cy="44.8" r="0.3"/>
	<path class="st1" d="M9.2,42.5c-1.3,0-2.3,1-2.3,2.3c0,1.3,1,2.3,2.3,2.3s2.3-1,2.3-2.3C11.5,43.6,10.5,42.5,9.2,42.5z M9.2,45.2
		c-0.2,0-0.3-0.1-0.3-0.3c0-0.2,0.1-0.3,0.3-0.3s0.3,0.1,0.3,0.3C9.5,45,9.4,45.2,9.2,45.2z"/>
	<circle class="st2" cx="17" cy="44.8" r="0.3"/>
	<path class="st1" d="M17,42.5c-1.3,0-2.3,1-2.3,2.3s1,2.3,2.3,2.3c1.3,0,2.3-1,2.3-2.3S18.3,42.5,17,42.5z M17,45.1
		c-0.2,0-0.3-0.1-0.3-0.3s0.1-0.3,0.3-0.3s0.3,0.1,0.3,0.3S17.2,45.1,17,45.1z"/>
	<path class="st1" d="M20.9,33.5h-1.3c-0.6,0-1,0.4-1,1s0.4,1,1,1h1.3c0.6,0,1-0.4,1-1S21.5,33.5,20.9,33.5z"/>
	<path class="st1" d="M10.5,33.5H9.2c-0.6,0-1,0.4-1,1s0.4,1,1,1h1.3c0.6,0,1-0.4,1-1S11.1,33.5,10.5,33.5z"/>
	<path class="st1" d="M27.4,10.8H29v8.1c0,0.6,0.4,1,1,1c0.6,0,1-0.4,1-1V9.8c0-0.6-0.4-1-1-1h-2.6c-0.6,0-1,0.4-1,1
		S26.9,10.8,27.4,10.8z"/>
</g>
</svg>
