<svg xmlns="http://www.w3.org/2000/svg" width="59.955" height="59.955" viewBox="0 0 512 512">
  <metadata><?xpacket begin="﻿" id="W5M0MpCehiHzreSzNTczkc9d"?>
<x:xmpmeta xmlns:x="adobe:ns:meta/" x:xmptk="Adobe XMP Core 5.6-c140 79.160451, 2017/05/06-01:08:21        ">
   <rdf:RDF xmlns:rdf="http://www.w3.org/1999/02/22-rdf-syntax-ns#">
      <rdf:Description rdf:about=""/>
   </rdf:RDF>
</x:xmpmeta>
<?xpacket end="w"?></metadata>
<defs>
    <style>
      .cls-1 {
        fill-rule: evenodd;
      }
    </style>
  </defs>
  <path fill="#516e91" id="Forma_1" data-name="Forma 1" class="cls-1" d="M102.333,235.669l-8.749,8.794a28.408,28.408,0,0,0,0,40.008l41.733,41.962a27.979,27.979,0,0,0,19.967,8.3h0.009a27.953,27.953,0,0,0,19.958-8.308l7.861-7.906,7.864,7.906c0.057,0.058.14,0.077,0.2,0.133a8.555,8.555,0,0,0,2.308,1.552c0.25,0.115.5,0.187,0.763,0.278a8.409,8.409,0,0,0,1.031.375c0.283,0.058,28.083,6.463,72.924,47.863a27.774,27.774,0,0,0,18.908,7.412,28.21,28.21,0,0,0,20.05-8.392l14.05-14.121a28.4,28.4,0,0,0-.367-40.375,556.98,556.98,0,0,0-51.379-44.947,952.2,952.2,0,0,1,106.429-55.532,28.314,28.314,0,0,0,8.383-45.816l-31.363-31.523a58.242,58.242,0,0,0-10.7-66.7,57.6,57.6,0,0,0-66.4-10.8L244.492,34.359A28.107,28.107,0,0,0,198.8,42.771c-17.708,39.875-53.367,113.766-93.192,160.587A28.306,28.306,0,0,0,102.333,235.669Zm206.641,97.752a11.332,11.332,0,0,1,.134,16.071l-14.05,14.121a10.965,10.965,0,0,1-15.275.475,255.59,255.59,0,0,0-66.811-46.948c1-.886,2.056-1.761,3.078-2.643a381.12,381.12,0,0,1,37.983-28.4A480.709,480.709,0,0,1,308.974,333.421ZM330.107,88.675a41.24,41.24,0,0,1,9.9,41.691l-26.7-26.834L288.665,78.754A40.677,40.677,0,0,1,330.107,88.675ZM118.609,214.42c41.216-48.462,77.708-124,95.791-164.724a10.937,10.937,0,0,1,8.1-6.425,11.454,11.454,0,0,1,2.05-.188,10.973,10.973,0,0,1,7.842,3.313L332.645,147.164l3.721,3.741h0L372.174,186.9a11.2,11.2,0,0,1,3.117,10.067h0a10.982,10.982,0,0,1-6.383,8.142,867.213,867.213,0,0,0-135.53,74.46q-1.261.887-2.5,1.769c-9.521,6.787-18.532,13.772-26.763,20.909-1.022.886-1.993,1.764-2.981,2.645-1.325,1.183-2.715,2.355-3.994,3.545L119.016,229.9v0A11.35,11.35,0,0,1,118.609,214.42Zm-5.068,34.18,57.533,57.825-7.925,7.971a11.011,11.011,0,0,1-7.858,3.275h-0.009a11.03,11.03,0,0,1-7.867-3.275l-41.733-41.963a11.312,11.312,0,0,1,0-15.933ZM373.228,50.97A8.532,8.532,0,0,0,381.5,48.7l17.067-17.067A8.532,8.532,0,0,0,386.5,19.567L369.433,36.634A8.532,8.532,0,0,0,373.228,50.97ZM298.666,34.133A8.533,8.533,0,0,0,307.2,25.6V8.533a8.533,8.533,0,0,0-17.066,0V25.6A8.532,8.532,0,0,0,298.666,34.133Zm196.266,384V119.467a25.628,25.628,0,0,0-25.6-25.6H384a8.533,8.533,0,0,0,0,17.066h85.333a8.541,8.541,0,0,1,8.533,8.533V418.133H460.8V145.067A17.087,17.087,0,0,0,443.732,128H384a8.533,8.533,0,0,0,0,17.066h59.733V418.133H68.267V145.067h51.2a8.534,8.534,0,0,0,0-17.067h-51.2A17.087,17.087,0,0,0,51.2,145.067V418.134H34.133V119.467a8.541,8.541,0,0,1,8.533-8.533h102.4a8.533,8.533,0,0,0,0-17.066H42.666a25.628,25.628,0,0,0-25.6,25.6V418.135A17.083,17.083,0,0,0,0,435.2v34.133A42.717,42.717,0,0,0,42.667,512H469.333A42.717,42.717,0,0,0,512,469.333V435.2A17.088,17.088,0,0,0,494.932,418.133ZM327.524,435.2l-6.175,12.35a8.5,8.5,0,0,1-7.633,4.717H198.283a8.5,8.5,0,0,1-7.633-4.717l-6.175-12.35H327.524Zm167.408,17.067H401.065a8.533,8.533,0,0,0,0,17.066h93.867a25.628,25.628,0,0,1-25.6,25.6H42.667a25.627,25.627,0,0,1-25.6-25.6h93.867a8.533,8.533,0,0,0,0-17.066H17.067V435.2H165.392l9.992,19.983a25.467,25.467,0,0,0,22.9,14.15H313.716a25.467,25.467,0,0,0,22.9-14.15l9.992-19.983H494.933v17.067h0Zm-341.332,0h-8.533a8.533,8.533,0,1,0,0,17.066H153.6A8.533,8.533,0,0,0,153.6,452.267Zm204.8,17.066h8.533a8.533,8.533,0,0,0,0-17.066H358.4A8.533,8.533,0,0,0,358.4,469.333Z"/>
</svg>
