<?xml version="1.0" encoding="utf-8"?>
<!-- Generator: Adobe Illustrator 21.1.0, SVG Export Plug-In . SVG Version: 6.00 Build 0)  -->
<svg version="1.1" id="Layer_1" xmlns="http://www.w3.org/2000/svg" xmlns:xlink="http://www.w3.org/1999/xlink" x="0px" y="0px"
	 viewBox="0 0 38.3 38.3" style="enable-background:new 0 0 38.3 38.3;" xml:space="preserve">
<style type="text/css">
	.st0{fill:#5CD0F6;}
</style>
<g>
	<path class="st0" d="M32.9,12.7V2.8c0-1-0.5-1.9-1.4-2.4c-0.9-0.5-1.9-0.5-2.8,0.1c-4.5,2.7-9.6,8.9-14.9,8.9l0,0l0,0H7.1
		c-1.6,0-3,1.3-3.1,2.9H2.6c-1.4,0-2.6,1.2-2.6,2.6v6c0,1.4,1.2,2.6,2.6,2.6h1.5c0.1,1.2,0.9,2.3,2,2.7L10,37.1
		c0.3,0.7,0.9,1.2,1.7,1.2h5.1c0.6,0,1.1-0.3,1.5-0.8c0.3-0.5,0.4-1.1,0.2-1.7l-3.4-9.4c4.9,0.2,9.6,6.3,13.8,8.9
		c0.4,0.3,0.9,0.4,1.4,0.4s0.9-0.1,1.3-0.4c0.9-0.5,1.4-1.4,1.4-2.4v-9.8c2.9,0,5.3-2.4,5.3-5.3C38.2,15,35.9,12.7,32.9,12.7z
		 M4,21.6H2.6c-0.4,0-0.7-0.3-0.7-0.8v-6c0-0.4,0.3-0.8,0.7-0.8h1.5v7.6H4z M16.6,36.4h-5L8,26.4h5L16.6,36.4z M30.7,33.7
		c-0.1,0.1-0.5,0.2-0.9,0C25,30.8,19.6,24.5,14,24.5H7.3c-0.7,0-1.3-0.6-1.3-1.3V12.5c0-0.7,0.6-1.3,1.3-1.3h5.6v6.1
		c0,0.5,0.4,0.9,0.9,0.9s0.9-0.4,0.9-0.9v-6.1c5.4-0.1,10.6-6.4,15.2-9.2c0.4-0.2,0.8-0.1,0.9,0c0.1,0.1,0.4,0.3,0.4,0.8V33l0,0
		C31.1,33.4,30.8,33.6,30.7,33.7z"/>
	<ellipse class="st0" cx="13.7" cy="20.5" rx="0.9" ry="0.9"/>
</g>
</svg>
