<?xml version="1.0" encoding="utf-8"?>
<!-- Generator: Adobe Illustrator 21.1.0, SVG Export Plug-In . SVG Version: 6.00 Build 0)  -->
<svg version="1.1" id="Layer_1" xmlns="http://www.w3.org/2000/svg" xmlns:xlink="http://www.w3.org/1999/xlink" x="0px" y="0px"
	 viewBox="0 0 82 82" style="enable-background:new 0 0 82 82;" xml:space="preserve">
<style type="text/css">
	.st0{fill:none;}
</style>
<g>
	<polygon class="st0" points="17.4,56.6 25.1,78 35.7,78 28,56.6 	"/>
	<path class="st0" d="M4,31.8v12.9c0,0.9,0.7,1.6,1.6,1.6h3.1V30.2H5.6C4.7,30.2,4,31,4,31.8z"/>
	<path class="st0" d="M66.7,5.9c0-1-0.7-1.5-0.9-1.6c-0.3-0.2-1.1-0.5-1.9,0c-9.8,6-21,19.4-32.5,19.7v13.1c0,1.1-0.9,2-2,2
		s-2-0.9-2-2V24h-12c-1.5,0-2.8,1.3-2.8,2.8v23c0,1.5,1.2,2.8,2.8,2.8h14.5c12,0,23.8,13.4,34,19.7c0.9,0.5,1.6,0.2,1.9,0
		c0.3-0.2,0.9-0.6,0.9-1.6h0V5.9z M29.4,46.1c-1.1,0-2-0.9-2-2c0-1.1,0.9-2,2-2c1.1,0,2,0.9,2,2C31.4,45.2,30.5,46.1,29.4,46.1z"/>
	<path d="M70.7,27.2V5.9c0-2.1-1.1-4.1-3-5.1c-1.9-1.1-4.1-1-5.9,0.1C52.2,6.8,41.2,20,29.9,20c0,0,0,0,0,0h0H15.4
		c-3.5,0-6.4,2.8-6.7,6.2H5.6c-3.1,0-5.6,2.5-5.6,5.6v12.9c0,3.1,2.5,5.6,5.6,5.6h3.2c0.2,2.6,1.9,4.8,4.3,5.8l8.4,23.3
		c0.5,1.5,2,2.6,3.6,2.6h10.9c1.3,0,2.4-0.6,3.2-1.7c0.7-1,0.9-2.4,0.5-3.6l-7.2-20.2C42.7,57,52.9,70.2,61.8,75.7
		c0.9,0.6,2,0.9,3,0.9c1,0,2-0.3,2.9-0.8c1.9-1,3-3,3-5.1v-21c6.2,0,11.3-5.1,11.3-11.3C82,32.2,76.9,27.2,70.7,27.2z M8.7,46.3H5.6
		c-0.9,0-1.6-0.7-1.6-1.6V31.8c0-0.9,0.7-1.6,1.6-1.6h3.1V46.3z M35.7,78H25.1l-7.7-21.4H28L35.7,78z M65.8,72.3
		c-0.3,0.2-1.1,0.5-1.9,0c-10.2-6.3-22-19.7-34-19.7H15.4c-1.5,0-2.8-1.3-2.8-2.8v-23c0-1.5,1.2-2.8,2.8-2.8h12v13.1
		c0,1.1,0.9,2,2,2s2-0.9,2-2V24c11.5-0.3,22.7-13.7,32.5-19.7c0.9-0.5,1.6-0.2,1.9,0c0.3,0.2,0.9,0.6,0.9,1.6v64.8h0
		C66.7,71.7,66.1,72.2,65.8,72.3z"/>
	<ellipse cx="29.4" cy="44.1" rx="2" ry="2"/>
</g>
</svg>
