<svg
        xmlns="http://www.w3.org/2000/svg"
        xmlns:xlink="http://www.w3.org/1999/xlink"
        width="54px" height="52px">
    <path fill-rule="evenodd"  fill="#516E91"
          d="M52.743,10.838 C52.742,10.837 52.740,10.836 52.739,10.835 L52.739,10.835 L42.139,0.258 C41.970,0.088 41.738,-0.006 41.498,-0.000 C41.258,0.005 41.030,0.105 40.867,0.281 L37.585,3.806 C37.265,4.150 37.271,4.685 37.599,5.021 L37.848,5.276 L36.545,6.577 L34.487,6.064 C32.640,5.613 30.693,6.165 29.360,7.517 L25.605,11.882 L21.242,7.529 C19.998,6.282 18.152,5.846 16.480,6.407 C16.380,6.440 16.287,6.491 16.205,6.556 L15.965,6.750 L15.383,6.169 L16.526,5.030 C16.871,4.686 16.871,4.128 16.526,3.784 L16.526,3.784 L12.992,0.258 C12.647,-0.086 12.088,-0.086 11.743,0.258 C11.743,0.258 11.743,0.258 11.743,0.258 L0.259,11.716 C-0.086,12.060 -0.086,12.617 0.258,12.961 C0.259,12.961 0.259,12.962 0.259,12.962 L3.792,16.488 C4.137,16.831 4.696,16.831 5.041,16.488 C5.041,16.488 5.041,16.488 5.042,16.488 L5.441,16.090 L7.534,18.178 L7.020,20.232 C6.569,22.046 7.099,23.964 8.418,25.292 L15.901,32.973 L15.901,39.863 C15.917,41.443 16.806,42.884 18.211,43.612 C18.965,44.012 19.436,44.795 19.435,45.646 L19.435,45.830 L18.551,45.830 C18.064,45.829 17.668,46.224 17.668,46.711 L17.668,46.711 L17.668,51.118 C17.667,51.605 18.062,51.999 18.550,52.000 C18.551,52.000 18.551,52.000 18.551,52.000 L35.335,52.000 C35.823,52.000 36.219,51.606 36.219,51.119 C36.219,51.119 36.219,51.119 36.219,51.118 L36.219,46.711 C36.219,46.225 35.824,45.830 35.337,45.830 C35.336,45.830 35.336,45.830 35.335,45.830 L34.452,45.830 L34.452,44.945 L35.852,43.656 C37.192,42.645 37.982,41.067 37.986,39.391 L37.986,29.066 C39.032,28.941 40.004,28.464 40.744,27.716 L45.414,22.657 C46.511,21.570 46.893,19.954 46.399,18.492 C46.257,18.067 47.018,16.675 47.925,15.609 C48.086,15.769 48.304,15.861 48.532,15.864 L48.541,15.864 C48.773,15.864 48.996,15.773 49.162,15.609 L52.736,12.084 C53.083,11.742 53.086,11.184 52.743,10.838 ZM4.417,14.618 L2.133,12.339 L12.368,2.127 L14.652,4.406 L4.417,14.618 ZM15.979,30.525 L9.676,24.055 C8.789,23.165 8.432,21.877 8.733,20.659 L9.369,18.121 C9.444,17.821 9.356,17.503 9.137,17.285 L6.690,14.843 L14.134,7.416 L15.277,8.555 C15.596,8.874 16.103,8.901 16.455,8.619 L17.180,8.036 C18.183,7.757 19.258,8.039 19.993,8.775 L24.863,13.634 L24.854,13.641 C24.460,14.001 24.166,14.458 24.002,14.966 C23.454,14.670 22.830,14.546 22.211,14.608 C20.607,14.816 19.414,16.190 19.435,17.802 L19.435,27.020 C17.678,27.381 16.313,28.765 15.979,30.525 ZM34.452,50.237 L19.435,50.237 L19.435,47.593 L34.452,47.593 L34.452,50.237 ZM36.219,39.391 C36.209,40.542 35.654,41.622 34.723,42.303 L32.971,43.909 C32.789,44.076 32.685,44.311 32.685,44.558 L32.685,45.830 L21.201,45.830 L21.201,45.647 C21.203,44.144 20.372,42.762 19.042,42.056 C18.213,41.635 17.685,40.791 17.668,39.863 L17.668,31.337 C17.671,30.221 18.379,29.228 19.435,28.856 L19.435,34.372 L21.201,34.372 L21.201,17.802 C21.174,17.092 21.683,16.474 22.387,16.361 C22.761,16.323 23.135,16.445 23.415,16.697 C23.694,16.946 23.853,17.302 23.852,17.677 L23.852,30.847 L25.618,30.847 L25.618,15.914 C25.618,15.184 26.210,14.592 26.942,14.592 C26.983,14.592 27.023,14.594 27.064,14.597 C27.780,14.716 28.295,15.347 28.268,16.070 L28.268,30.847 L30.035,30.847 L30.035,18.558 C30.035,17.828 30.627,17.236 31.359,17.236 C31.400,17.236 31.440,17.238 31.481,17.242 C32.196,17.360 32.712,17.991 32.685,18.714 L32.685,30.847 L34.452,30.847 L34.452,23.568 C35.508,23.939 36.215,24.932 36.219,26.050 L36.219,39.391 ZM44.723,19.050 L44.723,19.050 C45.004,19.892 44.777,20.818 44.139,21.436 L39.470,26.496 C39.065,26.903 38.549,27.180 37.986,27.294 L37.986,26.050 C37.983,23.956 36.507,22.153 34.452,21.731 L34.452,18.714 C34.483,17.075 33.265,15.680 31.634,15.485 C31.081,15.439 30.524,15.540 30.022,15.778 C29.918,14.254 28.739,13.018 27.218,12.842 C27.180,12.838 27.143,12.845 27.105,12.844 L30.654,8.714 C31.547,7.829 32.837,7.473 34.059,7.773 L36.602,8.407 C36.903,8.483 37.221,8.394 37.440,8.176 L39.080,6.540 L46.691,14.350 C45.876,15.294 44.201,17.486 44.723,19.050 ZM48.553,13.731 L39.451,4.393 L41.537,2.151 L50.862,11.454 L48.553,13.731 Z"/>
</svg>