<?xml version="1.0" encoding="utf-8"?>
<!-- Generator: Adobe Illustrator 21.1.0, SVG Export Plug-In . SVG Version: 6.00 Build 0)  -->
<svg version="1.1" id="Layer_1" xmlns="http://www.w3.org/2000/svg" xmlns:xlink="http://www.w3.org/1999/xlink" x="0px" y="0px"
	 viewBox="0 0 32 32" style="enable-background:new 0 0 32 32;" xml:space="preserve">
<g id="_x34__2_">
	<g>
		<path d="M9,17h10.6l-4.1,4.1c-0.4,0.4-0.4,1,0,1.4s1,0.4,1.4,0l5.7-5.7c0.2-0.2,0.5-0.4,0.5-0.9c0-0.6-0.2-0.6-0.5-0.9l-5.7-5.7
			c-0.4-0.4-1-0.4-1.4,0s-0.4,1,0,1.4l4.1,4.1H9c-0.6,0-1,0.4-1,1C8,16.6,8.4,17,9,17z M16,32c8.8,0,16-7.2,16-16S24.8,0,16,0
			S0,7.2,0,16S7.2,32,16,32z M16,2c7.7,0,14,6.3,14,14s-6.3,14-14,14S2,23.7,2,16S8.3,2,16,2z"/>
	</g>
</g>
</svg>
