<?xml version="1.0" encoding="utf-8"?>
<!-- Generator: Adobe Illustrator 19.0.0, SVG Export Plug-In . SVG Version: 6.00 Build 0)  -->
<svg version="1.1" fill="#fff" xmlns="http://www.w3.org/2000/svg" xmlns:xlink="http://www.w3.org/1999/xlink" x="0px" y="0px"
	 viewBox="-25.4 23.4 61.9 56" style="enable-background:new -25.4 23.4 61.9 56;" xml:space="preserve">
<style type="text/css">
	.st0{fill:none;stroke:#fff;stroke-width:0.25;stroke-miterlimit:10;}
	.st1{stroke:#fff;stroke-width:0.25;stroke-miterlimit:10;}
</style>
<g>
	<path class="st0" d="M29.5,54.1v-5.9H16.7l-2.2,2.9l2.3,2.9c0,0,0,0,0,0H29.5z"/>
	<polygon class="st0" points="-11.8,32.3 10.1,32.3 10.1,25.2 -18.5,25.2 -18.5,32.3 -12.1,32.3 	"/>
	<rect x="-11" y="34.1" class="st0" width="12.9" height="2.9"/>
	<polygon class="st0" points="34.7,63.1 32.5,60.2 21.6,60.2 21.6,66.1 32.5,66.1 	"/>
	<path class="st1" d="M36.4,62.6l-3-3.8c-0.1-0.2-0.3-0.3-0.5-0.3H21.6v-2.5h8.6c0.4,0,0.7-0.4,0.7-0.9v-7.7c0-0.5-0.3-0.9-0.7-0.9
		h-14c-0.2,0-0.4,0.1-0.5,0.3l-3,3.8c-0.3,0.3-0.3,0.9,0,1.3l2.8,3.7v22.1H5.9V63.3c0-0.5-0.3-0.9-0.7-0.9h-18.8
		c-0.4,0-0.7,0.4-0.7,0.9v14.2h-9.6v-22c1.1,1.4,2.6,2.2,4.3,2.2c2.3,0,4.2-1.5,5.2-3.8c1,2.2,2.9,3.7,5.1,3.7
		c2.2,0,4.1-1.5,5.1-3.6c1,2.2,2.9,3.6,5.1,3.6c2.2,0,4.2-1.5,5.2-3.7c1,2.2,2.9,3.7,5.1,3.7c0.7,0,1.4-0.2,2-0.4
		c0.4-0.2,0.6-0.7,0.5-1.2c-0.1-0.5-0.6-0.7-1-0.6c-0.5,0.2-0.9,0.3-1.4,0.3c-2.4,0-4.3-2.4-4.3-5.2c0-0.5-0.3-0.9-0.7-0.9
		c0,0,0,0,0,0c0,0,0,0,0,0c-0.4,0-0.7,0.4-0.7,0.9c0,2.9-2,5.2-4.3,5.2c-2.4,0-4.3-2.4-4.3-5.2c0-0.5-0.3-0.9-0.7-0.9c0,0,0,0,0,0
		c0,0,0,0,0,0c-0.4,0-0.7,0.4-0.7,0.9c0,2.9-2,5.2-4.3,5.2s-4.3-2.4-4.3-5.2c0-0.5-0.3-0.9-0.7-0.9c-0.1,0-0.2,0-0.3,0.1
		c-0.3,0.1-0.6,0.4-0.6,0.9c0,2.9-2,5.2-4.3,5.2s-4.3-2.4-4.3-5.2V38.8H2.6h1.5h11.4v5.1c0,0.4,0.3,0.9,0.7,0.9
		c0.4,0,0.7-0.4,0.7-0.9v-6c0-0.5-0.3-0.9-0.7-0.9H4.1H3.3v-2.9h7.6c0.4,0,0.7-0.4,0.7-0.9v-9c0-0.5-0.3-0.9-0.7-0.9h-30.2
		c-0.4,0-0.7,0.4-0.7,0.9v9c0,0.5,0.3,0.9,0.7,0.9h6.8V37h-12.2c-0.4,0-0.7,0.4-0.7,0.9c0,0,0,0,0,0v12.3c0,0,0,0,0,0v28.1
		c0,0.7,0.2,1,0.6,1h11.2c0.4,0,0.7-0.4,0.7-0.9V64.3h8c0,0,0,0,0,0.1v14.1C-5,79-4.6,79.4-4.2,79.4c0.4,0,0.7-0.4,0.7-0.9V64.3
		c0,0,0,0,0-0.1h7.9v14.2c0,0.5,0.3,0.9,0.7,0.9c0,0,0,0,0,0c0,0,0,0,0,0h11c0.4,0,0.7-0.4,0.7-0.9V55.9h3.1v22.5
		c-0.1,0.5,0.3,0.9,0.7,0.9c0.4,0,0.7-0.4,0.7-0.9V68h11.2c0.2,0,0.4-0.1,0.5-0.3l3-3.8C36.6,63.6,36.6,63,36.4,62.6z M-18.5,25.2
		h28.7v7.1h-21.9h-0.4h-6.4V25.2z M-11,34.1H1.9V37H-11V34.1z M16.7,54.1C16.7,54.1,16.7,54.1,16.7,54.1l-2.3-2.9l2.2-2.9h12.8v5.9
		H16.7z M21.6,60.2h10.9l2.2,2.9l-2.2,2.9H21.6V60.2z"/>
</g>
</svg>
