<?xml version="1.0" encoding="utf-8"?>
<!-- Generator: Adobe Illustrator 21.1.0, SVG Export Plug-In . SVG Version: 6.00 Build 0)  -->
<svg version="1.1" id="Layer_1" xmlns="http://www.w3.org/2000/svg" xmlns:xlink="http://www.w3.org/1999/xlink" x="0px" y="0px"
	 viewBox="0 0 38.2 38.2" style="enable-background:new 0 0 38.2 38.2;" xml:space="preserve">
<style type="text/css">
	.st0{fill:#6AD3DB;}
</style>
<g>
	<circle class="st0" cx="29" cy="24.8" r="3.4"/>
	<circle class="st0" cx="9.1" cy="24.8" r="3.4"/>
	<path class="st0" d="M37.3,12.8h-3.2V9.7c0-0.5-0.4-0.9-0.9-0.9s-0.9,0.4-0.9,0.9v3.1h-3.2c-0.5,0-0.9,0.4-0.9,0.9v0
		c0,0.5,0.4,0.9,0.9,0.9h3.2v3.3c0,0.5,0.4,0.9,0.9,0.9s0.9-0.4,0.9-0.9v-3.3h3.2c0.5,0,0.9-0.4,0.9-0.9v0
		C38.2,13.2,37.8,12.8,37.3,12.8z"/>
	<path class="st0" d="M38.2,6.1V4.9c0-0.7-0.6-1.3-1.3-1.3h-5.2l0-0.8c0-1.5-1.1-2.8-2.6-2.8c-1.6-0.1-2.8,1.2-2.8,2.7v0.9H11.9
		l0-0.8c0-1.5-1.1-2.8-2.6-2.8C7.8-0.1,6.5,1.2,6.5,2.7v0.9H0.9C0.4,3.6,0,4,0,4.5v32.8c0,0.5,0.4,0.9,0.9,0.9h36.4
		c0.5,0,0.9-0.3,0.9-0.7v-16c0-0.5-0.4-0.9-0.9-0.9l0,0c-0.5,0-0.9,0.4-0.9,0.9v14.9H1.8v-1.8v-1.8V14.5h23.3c0.5,0,0.8-0.4,0.8-0.8
		v0c0-0.5-0.4-0.8-0.8-0.8H1.8V5.4h4.7v0.9c0,0.2,0,0.5,0.1,0.7C6.9,8.2,8,9.1,9.2,9.1c0.5,0,0.8-0.4,0.8-0.8V8.2
		c0-0.5-0.4-0.8-0.8-0.8C8.7,7.4,8.3,7,8.3,6.5V4.7V2.9C8.3,2.4,8.6,2,9,2c0.6-0.1,1.1,0.3,1.1,0.9v1.8v0.9h1.8h14.5v0.8
		c0,1.4,1,2.6,2.3,2.8h0.4c0.5,0,0.9-0.4,0.9-0.9c0-0.5-0.4-0.9-0.9-0.9c-0.5,0-0.9-0.4-0.9-0.9l0-1.9V2.8c0-0.5,0.3-0.9,0.7-0.9
		C29.5,1.8,30,2.2,30,2.8v1.8v0.9h1.8h4.7v0.6c0,0.5,0.4,0.8,0.8,0.8h0C37.8,6.9,38.2,6.6,38.2,6.1z"/>
</g>
</svg>
