<?xml version="1.0" encoding="utf-8"?>
<!-- Generator: Adobe Illustrator 21.1.0, SVG Export Plug-In . SVG Version: 6.00 Build 0)  -->
<svg version="1.1" id="Layer_1" xmlns="http://www.w3.org/2000/svg" xmlns:xlink="http://www.w3.org/1999/xlink" x="0px" y="0px"
	 viewBox="0 0 38.2 38" style="enable-background:new 0 0 38.2 38;" xml:space="preserve">
<style type="text/css">
	.st0{fill:#67E0CC;}
</style>
<g>
	<path class="st0" d="M37.1,3.4h-5.4V2.5c0-1.5-1.2-2.7-2.7-2.7S26.3,1,26.3,2.5v0.9H11.9V2.5c0-1.5-1.2-2.7-2.7-2.7S6.5,1,6.5,2.5
		v0.9H0.9C0.4,3.4,0,3.8,0,4.3v32.8C0,37.6,0.4,38,0.9,38h36.4c0.5,0,0.9-0.3,0.9-0.7V4.7C38.2,3.8,38,3.4,37.1,3.4z M1.8,5.2h4.7
		v0.9c0,0.2,0,0.5,0.1,0.7C6.9,8,8,8.9,9.2,8.9l0,0l0,0c0.5,0,0.8-0.4,0.8-0.8V8c0-0.5-0.4-0.8-0.8-0.8c-0.5,0-0.9-0.4-0.9-0.9V4.5
		V2.7c0-0.5,0.3-0.9,0.7-0.9c0.6-0.1,1.1,0.3,1.1,0.9v1.8v0.9h1.8h14.5v0.8c0,1.4,1,2.6,2.3,2.8h0.4C29.6,9,30,8.6,30,8.1l0,0
		c0-0.5-0.4-0.9-0.9-0.9s-0.9-0.4-0.9-0.9V4.4l0,0V2.6c0-0.5,0.3-0.9,0.7-0.9C29.5,1.6,30,2,30,2.6v1.8v0.9h1.8h4.7v7.3H1.8V5.2z
		 M1.8,36.2v-1.8v-1.8V14.3h34.6v21.9H1.8z"/>
	<circle class="st0" cx="29" cy="24.6" r="3.4"/>
	<circle class="st0" cx="9" cy="24.6" r="1"/>
	<circle class="st0" cx="19.1" cy="24.6" r="1"/>
</g>
</svg>
