<?xml version="1.0" encoding="utf-8"?>
<!-- Generator: Adobe Illustrator 21.1.0, SVG Export Plug-In . SVG Version: 6.00 Build 0)  -->
<svg version="1.1" id="Layer_1" xmlns="http://www.w3.org/2000/svg" xmlns:xlink="http://www.w3.org/1999/xlink" x="0px" y="0px"
	 viewBox="0 0 82 82" style="enable-background:new 0 0 82 82;" xml:space="preserve">
<style type="text/css">
	.st0{fill:none;}
</style>
<g>
	<path class="st0" d="M78.1,11.6h-10l-3.9,0V9.7V5.8c0-1.2-1.1-2.1-2.3-1.9c-1,0.2-1.6,1.1-1.6,2v3.8h0v3.9c0,1.1,0.9,1.9,1.9,1.9
		c1.1,0,1.9,0.8,1.9,1.9v0c0,1-0.9,1.9-1.9,1.9h-0.8c-2.9-0.4-5-3-5-6v-1.7h-31l-3.9-0.1V9.7V5.8c0-1.2-1.1-2.1-2.3-1.9
		c-1,0.2-1.6,1.1-1.6,2v3.8v3.9c0,1.1,0.9,1.9,1.9,1.9c1,0,1.8,0.8,1.8,1.8v0.2c0,1-0.8,1.8-1.8,1.8h0h0c-2.7,0-5-1.9-5.6-4.4
		c-0.1-0.5-0.2-0.9-0.2-1.4v-1.9h-10v15.6h74.3V11.6z"/>
	<path class="st0" d="M3.9,31.1v39.3v3.9v3.9h74.3v-47H3.9z M19.2,55.4c-1.2,0-2.2-1-2.2-2.2c0-1.2,1-2.2,2.2-2.2
		c1.2,0,2.2,1,2.2,2.2C21.4,54.4,20.4,55.4,19.2,55.4z M41,55.4c-1.2,0-2.2-1-2.2-2.2c0-1.2,1-2.2,2.2-2.2s2.2,1,2.2,2.2
		C43.2,54.4,42.2,55.4,41,55.4z M62.2,60.5c-4,0-7.2-3.2-7.2-7.2c0-4,3.2-7.2,7.2-7.2s7.2,3.2,7.2,7.2
		C69.5,57.2,66.2,60.5,62.2,60.5z"/>
	<path d="M79.6,7.7H68.1V5.8c0-3.2-2.6-5.8-5.8-5.8c-3.2,0-5.8,2.6-5.8,5.8v1.9h-31V5.8c0-3.2-2.6-5.8-5.8-5.8
		c-3.2,0-5.8,2.6-5.8,5.8v1.9h-12C0.9,7.7,0,8.6,0,9.7v70.4C0,81.1,0.9,82,1.9,82h78.1c1.1,0,1.9-0.6,1.9-1.5V10.6
		C82,8.6,81.5,7.7,79.6,7.7z M3.9,11.6h10v1.9c0,0.5,0.1,1,0.2,1.4c0.6,2.5,2.9,4.4,5.6,4.4h0h0c1,0,1.8-0.8,1.8-1.8v-0.2
		c0-1-0.8-1.8-1.8-1.8c-1.1,0-1.9-0.9-1.9-1.9V9.7V5.9c0-1,0.7-1.9,1.6-2c1.2-0.2,2.3,0.7,2.3,1.9v3.9v1.9l3.9,0.1h31v1.7
		c0,3,2.1,5.6,5,6h0.8c1,0,1.9-0.9,1.9-1.9v0c0-1.1-0.9-1.9-1.9-1.9c-1.1,0-1.9-0.9-1.9-1.9V9.7h0V5.9c0-1,0.7-1.9,1.6-2
		c1.2-0.2,2.3,0.7,2.3,1.9v3.9v1.9l3.9,0h10v15.6H3.9V11.6z M3.9,78.1v-3.9v-3.9V31.1h74.3v47H3.9z"/>
	<circle cx="62.2" cy="53.2" r="7.2"/>
	<circle cx="19.2" cy="53.2" r="2.2"/>
	<circle cx="41" cy="53.2" r="2.2"/>
</g>
</svg>
