<?xml version="1.0" encoding="utf-8"?>
<!-- Generator: Adobe Illustrator 21.1.0, SVG Export Plug-In . SVG Version: 6.00 Build 0)  -->
<svg version="1.1" id="Layer_1" xmlns="http://www.w3.org/2000/svg" xmlns:xlink="http://www.w3.org/1999/xlink" x="0px" y="0px"
	 viewBox="0 0 40 40" style="enable-background:new 0 0 40 40;" xml:space="preserve">
<style type="text/css">
	.st0{fill:#90A2B8;}
	.st1{filter:url(#Adobe_OpacityMaskFilter);}
	.st2{fill:#FFFFFF;}
	.st3{mask:url(#mask-2);}
</style>
<title>Color / Primary Blue</title>
<desc>Created with Sketch.</desc>
<g id="Symbols">
	<g id="Icon-_x2F_-Clock" transform="translate(-4.000000, -4.000000)">
		<g id="Color-_x2F_-Primary-Blue" transform="translate(4.000000, 4.000000)">
			<g id="Mask">
				<path id="path-1_1_" class="st0" d="M21,16.1c1.4,0.4,2.5,1.5,2.9,2.9H28c0.6,0,1,0.4,1,1s-0.4,1-1,1h-4.1c-0.4,1.7-2,3-3.9,3
					c-2.2,0-4-1.8-4-4c0-1.9,1.3-3.4,3-3.9V7c0-0.6,0.4-1,1-1s1,0.4,1,1V16.1z M20,40C9,40,0,31,0,20S9,0,20,0s20,9,20,20
					S31,40,20,40z M20,38c9.9,0,18-8.1,18-18S29.9,2,20,2S2,10.1,2,20S10.1,38,20,38z M20,22c1.1,0,2-0.9,2-2s-0.9-2-2-2s-2,0.9-2,2
					S18.9,22,20,22z"/>
			</g>
			<defs>
				<filter id="Adobe_OpacityMaskFilter" filterUnits="userSpaceOnUse" x="-4" y="-4" width="48" height="48">
					<feColorMatrix  type="matrix" values="1 0 0 0 0  0 1 0 0 0  0 0 1 0 0  0 0 0 1 0"/>
				</filter>
			</defs>
			<mask maskUnits="userSpaceOnUse" x="-4" y="-4" width="48" height="48" id="mask-2">
				<g class="st1">
					<path id="path-1" class="st2" d="M21,16.1c1.4,0.4,2.5,1.5,2.9,2.9H28c0.6,0,1,0.4,1,1s-0.4,1-1,1h-4.1c-0.4,1.7-2,3-3.9,3
						c-2.2,0-4-1.8-4-4c0-1.9,1.3-3.4,3-3.9V7c0-0.6,0.4-1,1-1s1,0.4,1,1V16.1z M20,40C9,40,0,31,0,20S9,0,20,0s20,9,20,20
						S31,40,20,40z M20,38c9.9,0,18-8.1,18-18S29.9,2,20,2S2,10.1,2,20S10.1,38,20,38z M20,22c1.1,0,2-0.9,2-2s-0.9-2-2-2
						s-2,0.9-2,2S18.9,22,20,22z"/>
				</g>
			</mask>
			<g class="st3">
				<g transform="translate(-4.000000, -4.000000)">
					<rect class="st0" width="48" height="48"/>
				</g>
			</g>
		</g>
	</g>
</g>
</svg>
