<?xml version="1.0" encoding="utf-8"?>
<!-- Generator: Adobe Illustrator 19.0.0, SVG Export Plug-In . SVG Version: 6.00 Build 0)  -->
<svg version="1.1" fill="#fff" xmlns="http://www.w3.org/2000/svg" xmlns:xlink="http://www.w3.org/1999/xlink" x="0px" y="0px"
	 viewBox="-24.9 23.4 61 56" style="enable-background:new -24.9 23.4 61 56;" xml:space="preserve">
<g>
	<path d="M30,52.7c-1.2-1.2-3.2-1.2-4.4,0L9.4,68.8L7.2,77l-0.5,0.5c-0.4,0.4-0.4,1.1,0,1.5l0,0l0,0c0.2,0.2,0.5,0.3,0.7,0.3
		c0.3,0,0.5-0.1,0.7-0.3l0.5-0.5l8.2-2.2L33,60.1c1.2-1.2,1.2-3.2,0-4.4L30,52.7z M11.8,69.4l10.8-10.8l4.5,4.5L16.3,73.9L11.8,69.4
		z M10.9,71.4l3.4,3.4l-4.7,1.3L10.9,71.4z M31.5,58.6l-3,3l-4.5-4.5l3-3c0.4-0.4,1.1-0.4,1.5,0l3,3C31.9,57.6,31.9,58.2,31.5,58.6z
		"/>
	<path d="M-2.2,37.6c0-3.2-2.6-5.9-5.9-5.9s-5.9,2.6-5.9,5.9c0,3.2,2.6,5.9,5.9,5.9S-2.2,40.9-2.2,37.6z M-11.9,37.6
		c0-2.1,1.7-3.8,3.8-3.8s3.8,1.7,3.8,3.8s-1.7,3.8-3.8,3.8S-11.9,39.7-11.9,37.6z"/>
	<path d="M-18.4,61.9c0.2,0.2,0.5,0.4,0.8,0.4c0.2,0,0.5-0.1,0.7-0.3L0.3,46.9L9,55.6c0.4,0.4,1.1,0.4,1.5,0c0.4-0.4,0.4-1.1,0-1.5
		l-3-3l9.7-10.6l8.7,7.7c0.4,0.4,1.1,0.3,1.5-0.1c0.4-0.4,0.3-1.1-0.1-1.5l-9.5-8.4c-0.4-0.4-1.1-0.4-1.5,0.1L6.1,49.7l-5-5
		c-0.4-0.4-1-0.4-1.4,0l-17.9,15.7C-18.7,60.8-18.7,61.5-18.4,61.9z"/>
	<path d="M35,23.4h-58.9c-0.6,0-1.1,0.5-1.1,1.1v46.3c0,0.6,0.5,1.1,1.1,1.1H3.5c0.6,0,1.1-0.5,1.1-1.1c0-0.6-0.5-1.1-1.1-1.1h-26.3
		V25.5h56.8v25.2c0,0.6,0.5,1.1,1.1,1.1s1.1-0.5,1.1-1.1V24.4C36.1,23.8,35.6,23.4,35,23.4z"/>
</g>
</svg>
