<?xml version="1.0" encoding="utf-8"?>
<!-- Generator: Adobe Illustrator 19.0.0, SVG Export Plug-In . SVG Version: 6.00 Build 0)  -->
<svg version="1.1" fill="#fff" xmlns="http://www.w3.org/2000/svg" xmlns:xlink="http://www.w3.org/1999/xlink" x="0px" y="0px"
	 viewBox="-25.4 23.4 61.9 56" style="enable-background:new -25.4 23.4 61.9 56;" xml:space="preserve">
<g>
	<path d="M36.6,52.6c0-6.7-4.8-12.1-10.6-12.1c-1.2,0-2.4,0.2-3.5,0.7c-2.2-2.7-5.4-4.3-8.9-4.3c-1.3,0-2.6,0.2-3.8,0.7
		c-0.2-2.1-1.5-3.7-3.2-4.2v-4h2.2c0.6,0,1-0.5,1-1.1c0-0.6-0.4-1.1-1-1.1H6.6v-2.5c0-0.6-0.4-1.1-1-1.1s-1,0.5-1,1.1V27H2.4
		c-0.6,0-1,0.5-1,1.1c0,0.6,0.4,1.1,1,1.1h2.2v4c-1.7,0.5-3,2.2-3.2,4.2c-1.2-0.5-2.5-0.7-3.8-0.7c-3.5,0-6.6,1.7-8.9,4.3
		c-1.1-0.4-2.3-0.7-3.5-0.7c-5.9,0-10.6,5.4-10.6,12.1c0,6.3,4.2,11.5,9.6,12.1v8.4c-0.7,0.7-1.1,1.6-1.1,2.7c0,2,1.4,3.6,3.1,3.6
		h38.6c1.7,0,3.1-1.6,3.1-3.6c0-1.1-0.4-2-1.1-2.7v-8.4C32.3,64.1,36.6,58.9,36.6,52.6z M25.9,42.7c4.8,0,8.6,4.4,8.6,9.8
		s-3.9,9.8-8.6,9.8h-5.6c3.3-2.5,5.5-6.8,5.5-11.7c0-2.8-0.8-5.5-2-7.7C24.5,42.8,25.2,42.7,25.9,42.7z M23.8,50.8
		c0,6.4-4.6,11.7-10.2,11.7h-7V42.3c1.9-2.1,4.4-3.2,7-3.2C19.2,39.1,23.8,44.3,23.8,50.8z M7.8,37.9c0,0.2,0,0.4-0.1,0.6
		c-0.4,0.2-0.8,0.5-1.1,0.8v-3.6C7.3,36.1,7.8,37,7.8,37.9z M3.4,37.9c0-1,0.5-1.8,1.2-2.2v3.6c-0.4-0.3-0.8-0.6-1.1-0.8
		C3.4,38.3,3.4,38.1,3.4,37.9z M-2.5,39.1c2.6,0,5.1,1.1,7,3.2v20.2h-7c-5.6,0-10.2-5.2-10.2-11.7S-8.1,39.1-2.5,39.1z M-23.4,52.6
		c0-5.4,3.9-9.8,8.6-9.8c0.7,0,1.4,0.1,2.1,0.3c-1.3,2.2-2,4.9-2,7.7c0,4.9,2.2,9.2,5.5,11.7h-5.6C-19.6,62.4-23.4,58-23.4,52.6z
		 M24.8,77.1h-38.6c-0.6,0-1.1-0.6-1.1-1.3c0-0.7,0.5-1.3,1.1-1.3h38.6c0.6,0,1.1,0.6,1.1,1.3C26,76.5,25.5,77.1,24.8,77.1z
		 M-13.7,72.2L-13.7,72.2l-0.1-1.5c0,0,0,0,0.1,0c1.1,0,1.9-1,1.9-2.2c0-1.2-0.9-2.2-1.9-2.2c0,0,0,0-0.1,0v-1.5h38.7v1.5
		c0,0,0,0-0.1,0c-1.1,0-1.9,1-1.9,2.2c0,1.2,0.9,2.2,1.9,2.2c0,0,0,0,0.1,0v1.5h-0.1H-13.7z"/>
	<path d="M6.6,67.3H4.5c-0.6,0-1,0.5-1,1.1c0,0.6,0.4,1.1,1,1.1h2.1c0.6,0,1-0.5,1-1.1C7.6,67.8,7.2,67.3,6.6,67.3z"/>
	<path d="M19.5,67.3h-2.1c-0.6,0-1,0.5-1,1.1c0,0.6,0.4,1.1,1,1.1h2.1c0.6,0,1-0.5,1-1.1C20.5,67.8,20,67.3,19.5,67.3z"/>
	<path d="M-6.2,67.3h-2.1c-0.6,0-1,0.5-1,1.1c0,0.6,0.4,1.1,1,1.1h2.1c0.6,0,1-0.5,1-1.1C-5.2,67.8-5.7,67.3-6.2,67.3z"/>
	<path d="M-0.9,66.2c-1.1,0-1.9,1-1.9,2.2c0,1.2,0.9,2.2,1.9,2.2s1.9-1,1.9-2.2C1.1,67.2,0.2,66.2-0.9,66.2z"/>
	<path d="M12,66.2c-1.1,0-1.9,1-1.9,2.2c0,1.2,0.9,2.2,1.9,2.2s1.9-1,1.9-2.2C13.9,67.2,13.1,66.2,12,66.2z"/>
</g>
</svg>
