<?xml version="1.0" encoding="utf-8"?>
<!-- Generator: Adobe Illustrator 19.0.0, SVG Export Plug-In . SVG Version: 6.00 Build 0)  -->
<svg version="1.1" fill="#fff" xmlns="http://www.w3.org/2000/svg" xmlns:xlink="http://www.w3.org/1999/xlink" x="0px" y="0px"
	 viewBox="-18.2 23.4 47.7 56" style="enable-background:new -18.2 23.4 47.7 56;" xml:space="preserve">
<style type="text/css">
	.st0{fill:none;}
</style>
<g>
	<path d="M7.6,52.1h-1v-6.1v-0.8h4.2c0.6,0,1-0.5,1-1s-0.5-1-1-1H6.6V26.9l2.2,2.2c0.4,0.4,1.1,0.4,1.5,0s0.4-1.1,0-1.5l-4-4
		c-0.2-0.2-0.5-0.3-0.7-0.3c-0.3,0-0.5,0.1-0.7,0.3l-4,4c-0.4,0.4-0.4,1.1,0,1.5c0.2,0.2,0.5,0.3,0.7,0.3s0.5-0.1,0.7-0.3l2.2-2.2
		V43h-1C0.5,43-2,45.5-2,48.6c0,3.1,2.5,5.6,5.6,5.6h1v6.1v0.9H0.2c-0.6,0-1,0.5-1,1s0.5,1,1,1h4.3v15.1c0,0.6,0.5,1,1,1s1-0.5,1-1
		V63.2h1c3.1,0,5.6-2.5,5.6-5.6C13.2,54.6,10.7,52.1,7.6,52.1z M3.5,52.1c-1.9,0-3.5-1.6-3.5-3.5c0-1.9,1.6-3.5,3.5-3.5h1v0.8v6.1
		H3.5z M7.6,61.1h-1v-0.9v-6.1h1c1.9,0,3.5,1.6,3.5,3.5C11.1,59.6,9.6,61.1,7.6,61.1z"/>
	<g>
		<path class="st0" d="M-16.4,50.5c0,1.2,0.9,2.1,2.1,2.1h0.4v-4.2h-0.4C-15.5,48.4-16.4,49.4-16.4,50.5z"/>
		<path class="st0" d="M-11.5,54.5h-0.4v4.2h0.4c1.2,0,2.1-0.9,2.1-2.1S-10.3,54.5-11.5,54.5z"/>
		<path class="st0" d="M20.5,50.5c0,1.2,0.9,2.1,2.1,2.1h0.4v-4.2h-0.4C21.5,48.4,20.5,49.4,20.5,50.5z"/>
		<path class="st0" d="M25.4,54.5H25v4.2h0.4c1.2,0,2.1-0.9,2.1-2.1S26.6,54.5,25.4,54.5z"/>
		<path d="M-11.5,52.6h-0.4v-4.2h2.6c0.5,0,1-0.4,1-1s-0.4-1-1-1h-2.6V36.4l1,1c0.4,0.4,1,0.4,1.4,0c0.4-0.4,0.4-1,0-1.4l-2.7-2.7
			c-0.4-0.4-1-0.4-1.4,0l-2.7,2.7c-0.2,0.2-0.3,0.4-0.3,0.7c0,0.3,0.1,0.5,0.3,0.7c0.4,0.4,1,0.4,1.4,0l1-1v10.1h-0.4
			c-2.2,0-4,1.8-4,4c0,2.2,1.8,4,4,4h0.4v4.2h-2.7c-0.5,0-1,0.4-1,1s0.4,1,1,1h2.7v10c0,0.5,0.4,1,1,1s1-0.4,1-1v-10h0.4
			c2.2,0,4-1.8,4-4S-9.3,52.6-11.5,52.6z M-9.4,56.6c0,1.2-0.9,2.1-2.1,2.1h-0.4v-4.2h0.4C-10.3,54.5-9.4,55.5-9.4,56.6z
			 M-13.9,48.4v4.2h-0.4c-1.2,0-2.1-0.9-2.1-2.1c0-1.2,0.9-2.1,2.1-2.1H-13.9z"/>
		<path d="M25.4,52.6H25v-4.2h2.6c0.5,0,1-0.4,1-1s-0.4-1-1-1H25V36.4l1,1c0.4,0.4,1,0.4,1.4,0c0.2-0.2,0.3-0.4,0.3-0.7
			c0-0.3-0.1-0.5-0.3-0.7l-2.7-2.7c-0.4-0.4-1-0.4-1.4,0l-2.7,2.7c-0.4,0.4-0.4,1,0,1.4c0.4,0.4,1,0.4,1.4,0l1-1v10.1h-0.4
			c-2.2,0-4,1.8-4,4c0,2.2,1.8,4,4,4h0.4v4.2h-2.7c-0.5,0-1,0.4-1,1s0.4,1,1,1h2.7v10c0,0.5,0.4,1,1,1s1-0.4,1-1v-10h0.4
			c2.2,0,4-1.8,4-4S27.6,52.6,25.4,52.6z M27.5,56.6c0,1.2-0.9,2.1-2.1,2.1H25v-4.2h0.4C26.6,54.5,27.5,55.5,27.5,56.6z M23.1,48.4
			v4.2h-0.4c-1.2,0-2.1-0.9-2.1-2.1c0-1.2,0.9-2.1,2.1-2.1H23.1z"/>
	</g>
</g>
</svg>
