<?xml version="1.0" encoding="utf-8"?>
<!-- Generator: Adobe Illustrator 19.0.0, SVG Export Plug-In . SVG Version: 6.00 Build 0)  -->
<svg version="1.1" id="Layer_1" xmlns="http://www.w3.org/2000/svg" xmlns:xlink="http://www.w3.org/1999/xlink" x="0px" y="0px"
	 viewBox="-280 159 40 40" style="enable-background:new -280 159 40 40;" xml:space="preserve">
<style type="text/css">
	.st0{fill:none;}
</style>
<g fill="#516e91">
	<g>
		<rect x="-277.6" y="189" class="st0" width="7.5" height="7.5"/>
		<rect x="-277.6" y="161.6" class="st0" width="7.5" height="7.5"/>
		<rect x="-250.2" y="189" class="st0" width="7.5" height="7.5"/>
		<path d="M-242.7,186.5h-2.5v-10.5c0-0.9-1-1.5-1.7-1.1l0,0c-0.4,0.2-0.6,0.6-0.6,1.1v10.5h-2.5c-1.4,0-2.5,1.1-2.5,2.5v2.5h-15
			V189c0-1.4-1.1-2.5-2.5-2.5h-2.5v-15h2.5c1.4,0,2.5-1.1,2.5-2.5v-2.5h11.5c0.5,0,0.9-0.2,1.1-0.6l0,0c0.4-0.9-0.1-1.9-1.1-1.9
			h-11.5v-2.5c0-1.4-1.1-2.5-2.5-2.5h-7.5c-1.4,0-2.5,1.1-2.5,2.5v7.5c0,1.4,1.1,2.5,2.5,2.5h2.5v15h-2.5c-1.4,0-2.5,1.1-2.5,2.5
			v7.5c0,1.4,1.1,2.5,2.5,2.5h7.5c1.4,0,2.5-1.1,2.5-2.5V194h15v2.5c0,1.4,1.1,2.5,2.5,2.5h7.5c1.4,0,2.5-1.1,2.5-2.5V189
			C-240.2,187.7-241.3,186.5-242.7,186.5z M-277.6,161.6h7.5v7.5h-7.5V161.6z M-277.6,196.5V189h7.5v7.5H-277.6z M-250.2,196.5V189
			h7.5v7.5H-250.2z"/>
	</g>
	<g id="XMLID_38_">
		<g>
			<path d="M-241.2,162.2c-1.2,2.9-5.2,7.6-7.6,10.1h-0.1l-3.1,1.9l-1.4-1.2l-1.4-1.2l1.7-3.2c2.6-2.6,8.3-8.5,10-8.3
				c0.5,0,0.9,0.2,1.2,0.5c0.2,0.2,0.5,0.7,0.6,1.2C-241.1,162-241.2,162.1-241.2,162.2z M-249.2,172c5.9-6.2,7.6-9,7.6-10.1
				c0-0.5-0.2-0.9-0.4-1c-0.2-0.2-0.5-0.4-1-0.4c-1.1,0-3.5,2.1-9.6,8.2l-1.5,2.9l1,1l1,1L-249.2,172z"/>
			<path d="M-252.2,175.3l-3.7-3.5l2.2-4.1l0.6-0.6c5.2-5.4,8.5-8.2,10.1-8.1c0.6,0,1.2,0.2,1.9,0.7c0.5,0.5,0.7,1.1,0.9,1.7
				c0.1,0.4-0.1,0.7-0.1,1l0,0c-1.4,3.1-5.5,8-7.7,10.3l-0.1,0.1l-0.2,0.1L-252.2,175.3z M-252.9,171.5l1,1l2.1-1.2
				c6.7-7.1,7.2-9,7.2-9.3c0-0.1,0-0.2-0.1-0.2c-0.1-0.1-0.1-0.1-0.4-0.1c-1,0-6,5-8.7,7.8L-252.9,171.5z"/>
		</g>
	</g>
	<g id="XMLID_37_">
		<g>
			<rect x="-250.2" y="166.7" transform="matrix(0.6944 -0.7196 0.7196 0.6944 -198.1973 -128.1173)" width="0.5" height="5.1"/>
			<rect x="-253.3" y="168.1" transform="matrix(-0.7196 -0.6944 0.6944 -0.7196 -547.1977 117.5896)" width="7" height="2.4"/>
		</g>
	</g>
	<g id="XMLID_36_">
		<g>
			<path d="M-252.2,176.3c-0.2,0.5-0.6,1.1-1.1,1.5c-2.9,2.7-9,2.4-9.2,2.4v-0.5c0,0,1.5,0,2.5-1c0.7-0.6,1.1-1.6,1.1-3
				c0-1.4,0.5-2.4,1.2-3.1c1.4-1.2,3.2-1.1,3.2-1.1v0.5c0,0-1.7-0.1-2.9,1c-0.7,0.6-1,1.6-1.1,2.7c0,1.4-0.5,2.5-1.2,3.4
				c-0.2,0.2-0.5,0.5-0.9,0.6c2-0.1,5-0.6,6.7-2.2c1-0.9,1.5-2.1,1.4-3.5h0.5C-251.7,174.8-251.8,175.6-252.2,176.3z"/>
			<path d="M-261.1,181.1c-0.9,0-1.5,0-1.5,0c-0.4-0.1-0.7-0.5-0.7-0.9v-0.5c0-0.2,0.1-0.5,0.2-0.6c0.1-0.1,0.4-0.2,0.6-0.2
				c0,0,1.1,0,1.9-0.6c0.5-0.5,0.7-1.2,0.9-2.2c0-1.6,0.6-3,1.6-3.9c1.5-1.4,3.7-1.5,4.2-1.2c0.4,0.1,0.5,0.5,0.5,0.9v0.5
				c0,0.2-0.1,0.5-0.2,0.6c-0.1,0.1-0.5,0.2-0.6,0.2c0,0-1.4,0-2.2,0.7c-0.5,0.5-0.7,1.1-0.7,2.1c0,1-0.2,1.9-0.6,2.6
				c1.6-0.4,2.9-0.9,3.7-1.6c0.7-0.7,1.1-1.6,1.1-2.7c0-0.2,0.1-0.5,0.2-0.7c0.1-0.2,0.4-0.4,0.6-0.2h0.5c0.5,0,0.9,0.4,0.9,0.9
				c0.1,1-0.1,1.9-0.5,2.7c-0.4,0.7-0.7,1.4-1.2,1.9C-255,180.8-259,181.1-261.1,181.1z"/>
		</g>
	</g>
</g>
</svg>
