<?xml version="1.0" encoding="utf-8"?>
<!-- Generator: Adobe Illustrator 19.0.0, SVG Export Plug-In . SVG Version: 6.00 Build 0)  -->
<svg version="1.1" fill="#fff" xmlns="http://www.w3.org/2000/svg" xmlns:xlink="http://www.w3.org/1999/xlink" x="0px" y="0px"
	 viewBox="0 0 299.3 160" style="enable-background:new 0 0 299.3 160;" xml:space="preserve">
<style type="text/css">
	.st0{fill:#fff;}
</style>
<g id="XMLID_1_">
	<g id="XMLID_127_">
		<path id="XMLID_261_" class="st0" d="M178.8,135.8H98.6c-2.3,0-4.2-1.9-4.2-4.2V30.9c0-2.3,1.9-4.2,4.2-4.2h80.2
			c2.3,0,4.2,1.9,4.2,4.2v100.8C182.9,134,181.1,135.8,178.8,135.8z M98.6,30.4c-0.3,0-0.5,0.2-0.5,0.5v100.8c0,0.3,0.2,0.5,0.5,0.5
			h80.2c0.3,0,0.5-0.2,0.5-0.5V30.9c0-0.3-0.2-0.5-0.5-0.5H98.6z"/>
	</g>
	<g id="XMLID_125_">
		<path id="XMLID_260_" class="st0" d="M94.1,154.9c-2,0-3.7-1.4-4.1-3.4l-15-77.6c-0.4-2.3,1-4.4,3.3-4.9l16.8-3.2l0.7,3.6
			l-16.8,3.2c-0.3,0-0.4,0.3-0.4,0.5l15,77.6c0,0.3,0.3,0.4,0.5,0.4l61.6-11.9c0.3,0,0.4-0.3,0.4-0.5l-0.7-3.9l3.6-0.7l0.7,3.9
			c0.4,2.3-1,4.4-3.3,4.9l-61.6,11.9C94.7,154.8,94.4,154.9,94.1,154.9z"/>
	</g>
	<g id="XMLID_122_">
		<path id="XMLID_259_" class="st0" d="M182.4,87.2l-2.7-2.5l32.7-34.4c0.1-0.1,0.1-0.2,0.1-0.3c0-0.1,0-0.2-0.1-0.3L167,6.3
			c-0.1-0.1-0.2-0.1-0.3-0.1c-0.1,0-0.2,0-0.3,0.1l-22.6,23.7l-2.7-2.5l22.6-23.7c0.8-0.8,1.8-1.3,2.9-1.3c1.1,0,2.2,0.4,3,1.1
			L215,46.9c0.8,0.8,1.3,1.8,1.3,2.9c0,1.1-0.4,2.2-1.1,3L182.4,87.2z"/>
	</g>
	<g id="XMLID_120_">
		<rect id="XMLID_258_" x="96.2" y="64.1" class="st0" width="84.9" height="3.7"/>
	</g>
	<g id="XMLID_119_">
		<path id="XMLID_255_" class="st0" d="M124.5,59.6h-18c-1.8,0-3.2-1.5-3.2-3.2v-18c0-1.8,1.5-3.2,3.2-3.2h18c1.8,0,3.2,1.5,3.2,3.2
			v18C127.7,58.2,126.2,59.6,124.5,59.6z M107,55.9h17v-17h-17V55.9z"/>
	</g>
	<g id="XMLID_118_">
		<rect id="XMLID_254_" x="132.8" y="40.9" class="st0" width="15" height="4"/>
	</g>
	<g id="XMLID_117_">
		<rect id="XMLID_253_" x="132.8" y="50.9" class="st0" width="28" height="3"/>
	</g>
	<g id="XMLID_116_">
		
			<rect id="XMLID_243_" x="106.2" y="87" transform="matrix(0.7072 0.707 -0.707 0.7072 104.9378 -46.028)" class="st0" width="3.7" height="33.4"/>
	</g>
	<g id="XMLID_115_">
		<path id="XMLID_236_" class="st0" d="M126.3,94.6c-5.3,0-9.7-4.3-9.7-9.7c0-5.3,4.3-9.7,9.7-9.7c5.3,0,9.7,4.3,9.7,9.7
			C136,90.3,131.7,94.6,126.3,94.6z M126.3,79c-3.3,0-6,2.7-6,6c0,3.3,2.7,6,6,6s6-2.7,6-6C132.3,81.6,129.6,79,126.3,79z"/>
	</g>
	<g id="XMLID_114_">
		<path id="XMLID_233_" class="st0" d="M159.2,126.5c-5.3,0-9.7-4.3-9.7-9.7s4.3-9.7,9.7-9.7c5.3,0,9.7,4.3,9.7,9.7
			S164.5,126.5,159.2,126.5z M159.2,110.9c-3.3,0-6,2.7-6,6s2.7,6,6,6s6-2.7,6-6S162.5,110.9,159.2,110.9z"/>
	</g>
	<g id="XMLID_113_">
		
			<rect id="XMLID_14_" x="127.8" y="98.9" transform="matrix(0.7071 0.7071 -0.7071 0.7071 113.1933 -71.7012)" class="st0" width="30.6" height="3.7"/>
	</g>
	<g id="XMLID_112_">
		
			<rect id="XMLID_11_" x="171" y="92.5" transform="matrix(0.7071 0.7071 -0.7071 0.7071 123.9588 -91.8881)" class="st0" width="3.7" height="22.4"/>
	</g>
	<g id="XMLID_18_">
		<path id="XMLID_335_" class="st0" d="M225.1,94.7l8.2,1.4l-6.2,14.4l14.8,2.6l6.3-14.4l8.4,1.5l-6.2,14.4l11.6,2l-0.8,4.6
			l-12.9-2.3l-4.5,11l12.2,2.1l-0.8,4.6l-13.5-2.4l-6.4,14.8l-8.5-1.5l6.4-14.8l-14.8-2.6l-6.4,14.8l-8.5-1.5l6.4-14.8l-11.6-2
			l0.8-4.6l12.9,2.3l4.7-10.9l-12.2-2.1l0.8-4.6l13.5,2.4L225.1,94.7 M235.2,128.5l4.7-10.9l-14.8-2.6l-4.7,10.9L235.2,128.5
			 M222.9,90.5l-1.2,2.7l-5.2,11.7l-10.6-1.9l-3.6-0.6l-0.6,3.6l-0.8,4.6l-0.6,3.6l3.6,0.6l7.6,1.3l-1.7,4l-10-1.8l-3.6-0.6
			l-0.6,3.6l-0.8,4.6l-0.6,3.6l3.6,0.6l7,1.2l-4.5,10.5l-1.9,4.3l4.6,0.8l8.5,1.5l2.9,0.5l1.2-2.7l5.2-12.1l7.3,1.3l-4.5,10.5
			l-1.9,4.3l4.6,0.8l8.5,1.5l2.9,0.5l1.2-2.7l5.2-12.1l10.6,1.9l3.6,0.6l0.6-3.6l0.8-4.6l0.6-3.6l-3.6-0.6l-7.7-1.3l1.6-4l10,1.7
			l3.6,0.6l0.6-3.6l0.8-4.6l0.6-3.6l-3.6-0.6l-7-1.2l4.3-10.1l1.8-4.3l-4.6-0.8l-8.4-1.5l-2.9-0.5l-1.2,2.7l-5.2,11.7l-7.3-1.3
			l4.3-10.1l1.8-4.3l-4.6-0.8l-8.2-1.4L222.9,90.5L222.9,90.5z M225.7,123.1l1.7-4l7.3,1.3l-1.7,4L225.7,123.1L225.7,123.1z"/>
	</g>
	<g id="XMLID_15_">
		<path id="XMLID_329_" class="st0" d="M14.6,7.3l8.5,0.6l2.6,15.5l14.9,1.1L38.2,9l8.3,0.6l2.6,15.5l13.7,1l-0.3,4.7l-12.4-0.9
			L52,41.6l13.1,1l-0.3,4.7l-11.8-0.9l2.6,15.9l-8.6-0.6l-2.6-15.9l-14.9-1.1l2.6,15.9L23.3,60l-2.6-15.9l-13.7-1l0.3-4.7l12.4,0.9
			L18,27.5L5,26.6l0.3-4.7l11.8,0.9L14.6,7.3 M43.3,41l-1.9-11.7l-14.9-1.1l1.9,11.7L43.3,41 M10.2,3.2L11,7.9l1.7,10.9l-7.1-0.5
			l-3.7-0.3l-0.3,3.7l-0.3,4.7L1,30l3.7,0.3L14.8,31l0.6,4.2l-7.8-0.6L4,34.4l-0.3,3.7l-0.3,4.7l-0.3,3.7l3.7,0.3l10.7,0.8l2.1,13
			l0.5,2.9l2.9,0.2l8.6,0.6l4.7,0.3L35.6,60l-1.8-11.3l7.4,0.5l2.1,13l0.5,2.9l2.9,0.2l8.6,0.6l4.7,0.3l-0.8-4.6l-1.8-11.3l7.1,0.5
			l3.7,0.3l0.3-3.7l0.3-4.7l0.3-3.7l-3.7-0.3l-10.2-0.7l-0.7-4.2l7.7,0.6l3.7,0.3l0.3-3.7l0.3-4.7l0.3-3.7L63,22.4l-10.8-0.8L50.1,9
			l-0.5-2.9l-2.9-0.2l-8.3-0.6L33.8,5l0.7,4.6l1.7,10.9l-7.4-0.5L26.7,7.3l-0.5-2.9l-2.9-0.2l-8.5-0.6L10.2,3.2L10.2,3.2z
			 M31.6,36.4l-0.7-4.2l7.4,0.5l0.7,4.2L31.6,36.4L31.6,36.4z"/>
	</g>
	<g id="XMLID_12_">
		<g id="XMLID_13_">
			<path id="XMLID_16_" class="st0" d="M52.6,140.5l-16.7-23.7l-4,2.8l-7.1-10.1l4-2.8c-3.2-4.6-4.4-9.8-3.4-14.2
				c0.8-3.8,3.3-7.6,7.1-10.2c2.1-1.5,4-2.5,6-3.2l1.4-0.5l6.9,10.9l-2.3,0.7c-1,0.3-1.9,0.8-2.9,1.5c-1.3,0.9-2.5,2.8-0.2,6l0,0.1
				l6.2-4.3l7.1,10.1l-6.1,4.3l16.7,23.7L52.6,140.5z M36.8,111.6l16.7,23.7l6.6-4.6L43.4,107l6.1-4.3l-2.8-4l-6.2,4.3l-2.2-3.1
				c-3-4.3-2.6-8.6,1.1-11.2c0.6-0.4,1.2-0.8,1.7-1.1l-2.8-4.5c-1.2,0.5-2.4,1.3-3.7,2.2c-1.4,1-4.7,3.7-5.6,7.9
				c-0.8,3.5,0.4,7.8,3.1,11.6l1.9,2.7l-4,2.8l2.8,4L36.8,111.6z"/>
		</g>
	</g>
	<g id="XMLID_9_">
		<path id="XMLID_230_" class="st0" d="M245.2,79.6c-6.9,0-16.4-1.3-24.3-7.4c-0.7-0.5-0.9-1.4-0.6-2.2c0.3-0.8,1.2-1.2,2-1.1
			c0,0,3.4,0.6,7.6,0.1c3.9-0.4,7.3-1.6,9.9-3.4c-4.1-1.2-9-4.4-11.1-11.1c-0.2-0.6,0-1.3,0.4-1.8c0.2-0.2,0.3-0.3,0.5-0.4
			c-3.2-2.5-6.4-6.8-6.2-13.8c0-0.7,0.4-1.3,1-1.6c0.5-0.2,1-0.2,1.4-0.1c-2.6-4.5-4.1-10.8-0.2-17.5c0.3-0.5,0.8-0.9,1.4-0.9
			c0.6-0.1,1.2,0.2,1.6,0.7c0,0,3.5,4.1,8.9,8c4.5,3.2,11.2,6.9,18.8,7.1c-0.1-0.6-0.1-1.3-0.1-1.9c0-9.3,7.5-16.9,16.7-16.9
			c4.2,0,8.2,1.6,11.3,4.5c1.9-0.1,5.1-0.6,8.3-2.9c0.5-0.4,1.3-0.5,1.9-0.2c0.6,0.3,1,0.9,1.1,1.6c0,0.5,0,2.4-2.2,5.3
			c0.6-0.2,1.1-0.5,1.5-0.7c0.6-0.5,1.5-0.5,2.2-0.1c0.7,0.4,1,1.3,0.7,2c-0.2,0.6-1.2,2.9-7.6,8.9c0,2.6-0.1,10.2-3.5,18.7
			c-3.8,9.5-12.4,21.7-32.1,26.4C254,78.8,250.3,79.6,245.2,79.6z M229.2,72.8c11.5,5,24.2,2.4,24.3,2.3c14.5-3.4,24.4-11.5,29.4-24
			c3.8-9.4,3.3-18,3.3-18.1c0-0.6,0.2-1.1,0.6-1.5c1.5-1.4,2.7-2.5,3.6-3.5c-1.4,0.3-2.6,0.4-2.8,0.4c-0.8,0.1-1.6-0.4-1.9-1.2
			c-0.3-0.8-0.1-1.6,0.6-2.1c1.1-0.9,2-1.7,2.8-2.5c-2.3,0.7-4.3,0.8-5.6,0.8c-0.5,0-1-0.2-1.3-0.6c-2.5-2.5-5.8-3.9-9.3-3.9
			c-7.2,0-13,5.9-13,13.2c0,1.1,0.1,2.2,0.4,3.3c0.1,0.5,0,1.1-0.3,1.5c-0.3,0.4-0.8,0.7-1.4,0.8c-7.5,0.4-15.6-2.3-23.3-7.8
			c-3.3-2.4-5.9-4.8-7.6-6.5c-1.2,3.3-1,6.8,0.7,10.2c1.6,3.3,3.9,5.3,3.9,5.3c0.5,0.5,0.8,1.2,0.6,1.9c-0.2,0.7-0.8,1.2-1.5,1.3
			c-1.5,0.2-2.9-0.1-4.1-0.5c1.5,8.3,9.3,10.1,9.7,10.2c0.8,0.2,1.4,0.8,1.4,1.6c0.1,0.8-0.3,1.5-1.1,1.9c-1.2,0.6-2.7,0.7-4,0.7
			c3.4,6.4,10.2,6.4,10.5,6.4c0,0,0,0,0,0c0.7,0,1.4,0.4,1.7,1.1c0.3,0.7,0.2,1.4-0.3,2C240.7,70.8,234.2,72.4,229.2,72.8z"/>
	</g>
	<g id="XMLID_8_">
		<path id="XMLID_225_" class="st0" d="M113.4,19c-4,0-7.2-3.2-7.2-7.2s3.2-7.2,7.2-7.2c4,0,7.2,3.2,7.2,7.2S117.4,19,113.4,19z
			 M113.4,8.2c-1.9,0-3.5,1.6-3.5,3.5s1.6,3.5,3.5,3.5c1.9,0,3.5-1.6,3.5-3.5S115.3,8.2,113.4,8.2z"/>
	</g>
	<g id="XMLID_7_">
		<path id="XMLID_222_" class="st0" d="M127.8,9.1c-1.8,0-3.3-1.5-3.3-3.3s1.5-3.3,3.3-3.3c1.8,0,3.3,1.5,3.3,3.3
			S129.6,9.1,127.8,9.1z M127.8,5.4c-0.2,0-0.4,0.2-0.4,0.4c0,0.2,0.2,0.4,0.4,0.4c0.2,0,0.4-0.2,0.4-0.4
			C128.2,5.6,128,5.4,127.8,5.4z"/>
	</g>
	<g id="XMLID_6_">
		<path id="XMLID_219_" class="st0" d="M79.7,40.5c-1.8,0-3.3-1.5-3.3-3.3s1.5-3.3,3.3-3.3s3.3,1.5,3.3,3.3S81.6,40.5,79.7,40.5z
			 M79.7,36.8c-0.2,0-0.4,0.2-0.4,0.4s0.2,0.4,0.4,0.4c0.2,0,0.4-0.2,0.4-0.4S80,36.8,79.7,36.8z"/>
	</g>
	<g id="XMLID_5_">
		<path id="XMLID_216_" class="st0" d="M166.6,150.1c-1.8,0-3.3-1.5-3.3-3.3c0-1.8,1.5-3.3,3.3-3.3s3.3,1.5,3.3,3.3
			C169.9,148.6,168.4,150.1,166.6,150.1z M166.6,146.4c-0.2,0-0.4,0.2-0.4,0.4s0.2,0.4,0.4,0.4s0.4-0.2,0.4-0.4
			S166.8,146.4,166.6,146.4z"/>
	</g>
	<g id="XMLID_4_">
		<path id="XMLID_213_" class="st0" d="M266.9,92.8c-1.8,0-3.3-1.5-3.3-3.3c0-1.8,1.5-3.3,3.3-3.3c1.8,0,3.3,1.5,3.3,3.3
			C270.2,91.3,268.7,92.8,266.9,92.8z M266.9,89.1c-0.2,0-0.4,0.2-0.4,0.4s0.2,0.4,0.4,0.4s0.4-0.2,0.4-0.4S267.1,89.1,266.9,89.1z"
			/>
	</g>
	<g id="XMLID_3_">
		<path id="XMLID_210_" class="st0" d="M62.5,88.4c-3.4,0-6.3-2.8-6.3-6.3c0-3.4,2.8-6.3,6.3-6.3s6.3,2.8,6.3,6.3
			C68.8,85.6,66,88.4,62.5,88.4z M62.5,79.6c-1.4,0-2.6,1.1-2.6,2.6c0,1.4,1.1,2.6,2.6,2.6c1.4,0,2.6-1.1,2.6-2.6
			C65.1,80.7,63.9,79.6,62.5,79.6z"/>
	</g>
	<g id="XMLID_2_">
		<path id="XMLID_19_" class="st0" d="M181.1,157.5c-3.8,0-6.9-3.1-6.9-6.9s3.1-6.9,6.9-6.9s6.9,3.1,6.9,6.9
			S184.9,157.5,181.1,157.5z M181.1,147.4c-1.8,0-3.2,1.4-3.2,3.2c0,1.8,1.4,3.2,3.2,3.2s3.2-1.4,3.2-3.2
			C184.3,148.8,182.8,147.4,181.1,147.4z"/>
	</g>
</g>
</svg>
