<svg
        xmlns="http://www.w3.org/2000/svg"
        xmlns:xlink="http://www.w3.org/1999/xlink"
        width="55px" height="55px">
    <path fill-rule="evenodd"  fill="rgb(81, 110, 145)"
          d="M45.670,47.538 C43.726,50.655 41.192,54.386 39.893,54.922 L39.894,54.925 C39.862,54.938 39.829,54.948 39.793,54.957 C39.765,54.965 39.737,54.972 39.711,54.977 L39.710,54.975 C39.622,54.990 39.525,54.997 39.418,54.997 C37.752,54.997 33.798,53.231 30.604,51.656 C26.515,49.639 13.032,42.570 11.214,36.263 C10.076,32.317 10.450,28.606 12.295,25.529 C14.008,22.672 16.942,20.530 20.557,19.500 C23.627,18.625 26.858,18.843 29.758,20.103 C31.546,17.505 34.171,15.617 37.239,14.743 C40.855,13.711 44.484,13.982 47.457,15.501 C50.662,17.138 52.956,20.089 54.094,24.035 C55.921,30.373 48.108,43.627 45.670,47.538 ZM52.159,24.587 C51.178,21.186 49.235,18.660 46.538,17.282 C44.018,15.996 40.914,15.778 37.793,16.668 C34.926,17.485 32.511,19.342 30.995,21.896 C30.724,22.354 30.140,22.521 29.664,22.276 C27.993,21.413 26.165,20.974 24.323,20.974 C23.249,20.974 22.169,21.123 21.112,21.424 C17.991,22.314 15.474,24.136 14.024,26.554 C12.471,29.145 12.169,32.310 13.149,35.711 C15.170,42.719 36.706,52.710 39.238,53.010 C40.197,52.226 43.807,47.228 47.163,40.937 C51.168,33.427 52.990,27.468 52.159,24.587 ZM36.362,33.590 L34.289,34.943 L34.234,37.408 C34.225,37.788 33.999,38.131 33.652,38.293 C33.517,38.355 33.371,38.386 33.227,38.386 C33.002,38.386 32.780,38.311 32.597,38.166 L30.663,36.625 L28.290,37.334 C27.924,37.445 27.526,37.337 27.264,37.058 C27.003,36.779 26.923,36.377 27.059,36.021 L27.936,33.715 L26.524,31.688 C26.306,31.376 26.285,30.966 26.471,30.632 C26.657,30.300 27.017,30.103 27.399,30.118 L29.875,30.235 L31.376,28.274 C31.609,27.971 31.996,27.825 32.369,27.898 C32.745,27.970 33.047,28.249 33.148,28.617 L33.801,30.995 L36.141,31.808 C36.503,31.934 36.762,32.252 36.808,32.631 C36.855,33.009 36.682,33.381 36.362,33.590 ZM32.637,32.712 C32.324,32.603 32.085,32.348 31.998,32.031 L31.743,31.101 L31.157,31.867 C30.956,32.129 30.659,32.277 30.307,32.261 L29.340,32.215 L29.892,33.007 C30.081,33.278 30.123,33.623 30.006,33.931 L29.663,34.833 L30.590,34.555 C30.686,34.526 30.783,34.513 30.880,34.513 C31.106,34.513 31.330,34.589 31.510,34.733 L32.265,35.336 L32.287,34.372 C32.295,34.042 32.465,33.739 32.741,33.558 L33.551,33.029 L32.637,32.712 ZM22.997,31.190 L23.303,32.965 C23.367,33.340 23.212,33.720 22.902,33.945 C22.727,34.071 22.519,34.135 22.311,34.135 C22.150,34.135 21.989,34.097 21.842,34.020 L20.240,33.182 L18.638,34.020 C18.300,34.198 17.887,34.168 17.578,33.945 C17.268,33.720 17.112,33.340 17.177,32.965 L17.483,31.190 L16.186,29.932 C15.912,29.667 15.813,29.269 15.932,28.906 C16.050,28.544 16.365,28.280 16.745,28.225 L18.536,27.966 L19.337,26.352 C19.677,25.668 20.803,25.668 21.142,26.352 L21.944,27.966 L23.735,28.225 C24.115,28.280 24.430,28.544 24.548,28.906 C24.667,29.269 24.568,29.667 24.293,29.932 L22.997,31.190 ZM21.131,29.872 C20.803,29.825 20.520,29.620 20.373,29.324 L20.240,29.056 L20.107,29.324 C19.960,29.620 19.677,29.825 19.349,29.872 L19.052,29.915 L19.267,30.124 C19.504,30.354 19.612,30.685 19.557,31.010 L19.506,31.304 L19.771,31.165 C19.918,31.088 20.079,31.050 20.240,31.050 C20.401,31.050 20.562,31.088 20.708,31.165 L20.974,31.304 L20.923,31.010 C20.868,30.685 20.976,30.354 21.213,30.124 L21.428,29.915 L21.131,29.872 ZM42.212,5.575 L40.514,6.199 L40.067,7.944 C39.972,8.314 39.675,8.597 39.301,8.676 C39.231,8.691 39.161,8.698 39.092,8.698 C38.787,8.698 38.495,8.561 38.301,8.317 L37.179,6.904 L35.374,7.021 C34.977,7.044 34.628,6.852 34.436,6.523 C34.244,6.193 34.258,5.783 34.470,5.466 L35.476,3.968 L34.807,2.296 C34.664,1.942 34.737,1.539 34.993,1.256 C35.250,0.972 35.646,0.857 36.015,0.962 L37.757,1.450 L39.150,0.299 C39.443,0.056 39.850,-0.000 40.202,0.155 C40.552,0.310 40.783,0.649 40.798,1.030 L40.870,2.829 L42.400,3.790 C42.724,3.993 42.904,4.362 42.863,4.741 C42.824,5.120 42.570,5.443 42.212,5.575 ZM39.347,4.241 C39.067,4.065 38.892,3.763 38.879,3.434 L38.867,3.135 L38.635,3.326 C38.381,3.538 38.040,3.610 37.719,3.520 L37.431,3.439 L37.542,3.716 C37.665,4.022 37.629,4.369 37.445,4.643 L37.278,4.891 L37.577,4.871 C37.599,4.870 37.621,4.869 37.643,4.869 C37.949,4.869 38.241,5.009 38.433,5.251 L38.619,5.485 L38.693,5.196 C38.775,4.876 39.009,4.617 39.320,4.503 L39.601,4.400 L39.347,4.241 ZM19.185,8.897 L19.660,11.654 C19.725,12.030 19.571,12.409 19.260,12.633 C19.085,12.760 18.877,12.824 18.669,12.824 C18.508,12.824 18.348,12.786 18.200,12.710 L15.710,11.408 L13.220,12.710 C12.881,12.887 12.471,12.857 12.160,12.633 C11.850,12.409 11.695,12.030 11.760,11.654 L12.235,8.897 L10.221,6.944 C9.946,6.679 9.847,6.281 9.966,5.918 C10.084,5.556 10.399,5.291 10.778,5.236 L13.563,4.834 L14.807,2.325 C15.146,1.642 16.274,1.642 16.613,2.325 L17.858,4.834 L20.642,5.236 C21.021,5.291 21.336,5.556 21.454,5.918 C21.573,6.281 21.474,6.679 21.199,6.944 L19.185,8.897 ZM17.044,6.740 C16.716,6.693 16.433,6.488 16.286,6.192 L15.710,5.031 L15.134,6.192 C14.987,6.488 14.704,6.693 14.376,6.740 L13.087,6.926 L14.019,7.830 C14.257,8.060 14.365,8.392 14.309,8.716 L14.089,9.993 L15.242,9.391 C15.388,9.314 15.549,9.275 15.710,9.275 C15.871,9.275 16.032,9.314 16.179,9.391 L17.332,9.993 L17.111,8.716 C17.055,8.392 17.163,8.060 17.401,7.830 L18.333,6.926 L17.044,6.740 ZM11.185,22.140 C11.482,22.382 11.615,22.769 11.529,23.141 C11.443,23.512 11.152,23.802 10.779,23.890 L8.041,24.532 L7.020,27.139 C6.882,27.494 6.552,27.740 6.170,27.773 C6.141,27.776 6.111,27.777 6.082,27.777 C5.733,27.777 5.406,27.596 5.222,27.296 L3.762,24.904 L0.953,24.745 C0.571,24.723 0.234,24.487 0.084,24.136 C-0.066,23.786 -0.002,23.381 0.248,23.092 L2.084,20.972 L1.368,18.267 C1.271,17.898 1.392,17.507 1.681,17.256 C1.971,17.006 2.377,16.941 2.731,17.088 L5.325,18.169 L7.692,16.657 C8.014,16.452 8.427,16.445 8.755,16.641 C9.083,16.837 9.271,17.202 9.239,17.582 L9.007,20.369 L11.185,22.140 ZM7.323,21.587 C7.067,21.378 6.930,21.057 6.957,20.729 L7.065,19.438 L5.969,20.138 C5.691,20.316 5.342,20.347 5.036,20.220 L3.834,19.719 L4.165,20.972 C4.249,21.290 4.171,21.630 3.954,21.880 L3.104,22.861 L4.405,22.935 C4.736,22.955 5.036,23.134 5.208,23.416 L5.884,24.523 L6.357,23.315 C6.477,23.008 6.741,22.779 7.064,22.704 L8.332,22.406 L7.323,21.587 Z"/>
</svg>