<svg
        xmlns="http://www.w3.org/2000/svg"
        xmlns:xlink="http://www.w3.org/1999/xlink"
        width="52px" height="52px">
    <path fill-rule="evenodd"  fill="rgb(81, 110, 145)"
          d="M44.834,31.511 L44.834,44.827 C44.834,46.158 44.137,47.426 42.932,48.060 C42.361,48.377 41.727,48.567 41.093,48.567 C40.459,48.567 39.761,48.377 39.190,47.997 C33.546,44.509 27.078,36.140 20.610,35.823 L25.176,48.631 C25.429,49.392 25.302,50.279 24.859,50.913 C24.351,51.611 23.654,51.991 22.829,51.991 L15.917,51.991 C14.902,51.991 13.951,51.294 13.634,50.343 L8.307,35.569 C6.785,34.935 5.707,33.540 5.580,31.891 L3.551,31.891 C1.585,31.891 0.000,30.306 0.000,28.341 L0.000,20.161 C0.000,18.196 1.585,16.610 3.551,16.610 L5.517,16.610 C5.707,14.455 7.546,12.679 9.766,12.679 L18.961,12.679 C26.127,12.679 33.102,4.310 39.190,0.569 C40.332,-0.129 41.727,-0.192 42.932,0.505 C44.137,1.139 44.834,2.408 44.834,3.739 L44.834,17.245 C48.766,17.245 52.000,20.415 52.000,24.346 C52.000,28.277 48.766,31.511 44.834,31.511 ZM5.517,19.147 L3.551,19.147 C2.980,19.147 2.537,19.591 2.537,20.161 L2.537,28.341 C2.537,28.911 2.980,29.355 3.551,29.355 L5.517,29.355 L5.517,19.147 ZM15.917,49.455 L22.639,49.455 L17.756,35.886 L11.034,35.886 L15.917,49.455 ZM42.298,3.739 C42.298,3.105 41.917,2.851 41.727,2.724 C41.537,2.598 41.093,2.408 40.522,2.724 C34.307,6.529 27.205,15.025 19.912,15.216 L19.912,23.522 C19.912,24.219 19.342,24.790 18.644,24.790 C17.946,24.790 17.376,24.219 17.376,23.522 L17.376,15.216 L9.766,15.216 C8.751,15.216 7.990,16.040 7.990,16.991 L7.990,31.574 C7.990,32.526 8.815,33.350 9.766,33.350 L18.961,33.350 C26.571,33.350 34.054,41.846 40.522,45.841 C41.029,46.158 41.537,45.968 41.727,45.841 C41.917,45.778 42.298,45.460 42.298,44.827 L42.298,3.739 ZM18.644,29.228 C17.943,29.228 17.376,28.661 17.376,27.960 C17.376,27.260 17.943,26.692 18.644,26.692 C19.344,26.692 19.912,27.260 19.912,27.960 C19.912,28.661 19.344,29.228 18.644,29.228 Z"/>
</svg>