<svg
        xmlns="http://www.w3.org/2000/svg"
        xmlns:xlink="http://www.w3.org/1999/xlink"
        width="12px" height="12px">
    <path fill-rule="evenodd"  opacity="0.502" fill="rgb(81, 110, 145)"
          d="M6.000,12.000 C2.692,12.000 -0.000,9.308 -0.000,6.000 C-0.000,2.691 2.692,0.000 6.000,0.000 C9.308,0.000 12.000,2.691 12.000,6.000 C12.000,9.308 9.308,12.000 6.000,12.000 ZM6.000,1.091 C3.293,1.091 1.091,3.293 1.091,6.000 C1.091,8.707 3.293,10.909 6.000,10.909 C8.707,10.909 10.909,8.707 10.909,6.000 C10.909,3.293 8.707,1.091 6.000,1.091 ZM6.000,9.273 C5.699,9.273 5.455,9.029 5.455,8.727 L5.455,5.455 C5.455,5.153 5.699,4.909 6.000,4.909 C6.301,4.909 6.545,5.153 6.545,5.455 L6.545,8.727 C6.545,9.029 6.301,9.273 6.000,9.273 ZM6.387,3.660 C6.332,3.709 6.273,3.747 6.207,3.775 C6.142,3.802 6.071,3.818 6.000,3.818 C5.852,3.818 5.716,3.763 5.613,3.660 C5.564,3.605 5.525,3.546 5.492,3.480 C5.465,3.415 5.455,3.344 5.455,3.273 C5.455,3.234 5.455,3.202 5.465,3.163 C5.471,3.131 5.482,3.098 5.498,3.066 C5.509,3.032 5.525,3.000 5.547,2.967 C5.564,2.940 5.591,2.913 5.613,2.885 C5.667,2.836 5.722,2.798 5.793,2.771 C5.891,2.727 6.000,2.716 6.103,2.738 C6.142,2.744 6.174,2.755 6.207,2.771 C6.240,2.782 6.273,2.798 6.305,2.820 C6.332,2.836 6.360,2.864 6.387,2.885 C6.409,2.913 6.431,2.940 6.453,2.967 C6.475,3.000 6.491,3.032 6.502,3.066 C6.518,3.098 6.529,3.131 6.534,3.163 C6.540,3.202 6.545,3.234 6.545,3.273 C6.545,3.344 6.529,3.415 6.502,3.480 C6.475,3.546 6.436,3.605 6.387,3.660 Z"/>
</svg>