<?xml version="1.0" encoding="utf-8"?>
<!-- Generator: Adobe Illustrator 19.0.0, SVG Export Plug-In . SVG Version: 6.00 Build 0)  -->
<svg version="1.1" fill="#fff" xmlns="http://www.w3.org/2000/svg" xmlns:xlink="http://www.w3.org/1999/xlink" x="0px" y="0px"
	 viewBox="0 0 240 160" style="enable-background:new 0 0 240 160;" xml:space="preserve">
<style type="text/css">
	.st0{stroke:#000000;stroke-linecap:round;stroke-miterlimit:10;}
</style>
<g id="XMLID_226_">
	<g id="XMLID_300_">
		<g id="XMLID_347_">
			<g id="XMLID_352_">
				<path id="XMLID_353_" d="M140.3,112.9c0.7,0,1.2,0.5,1.2,1.2v40.1c0,0.7-0.5,1.2-1.2,1.2h-40.1c-0.7,0-1.2-0.5-1.2-1.2v-40.1
					c0-0.7,0.5-1.2,1.2-1.2H140.3 M140.3,111.7h-40.1c-1.3,0-2.4,1.1-2.4,2.4v40.1c0,1.3,1.1,2.4,2.4,2.4h40.1
					c1.3,0,2.4-1.1,2.4-2.4v-40.1C142.6,112.8,141.6,111.7,140.3,111.7L140.3,111.7z"/>
			</g>
			<g id="XMLID_348_">
				<path id="XMLID_349_" d="M140.3,157.5h-40.1c-1.9,0-3.4-1.5-3.4-3.4v-40.1c0-1.9,1.5-3.4,3.4-3.4h40.1c1.9,0,3.4,1.5,3.4,3.4
					v40.1C143.7,156,142.2,157.5,140.3,157.5z M100.2,113.9c-0.1,0-0.2,0-0.2,0.2v40.1c0,0.1,0,0.2,0.2,0.2h40.1
					c0.1,0,0.2,0,0.2-0.2v-40.1c0-0.1,0-0.2-0.2-0.2H100.2z"/>
			</g>
		</g>
		<g id="XMLID_341_">
			<g id="XMLID_342_">
				<g id="XMLID_345_">
					<path id="XMLID_346_" d="M121.6,121.8h-2.3c-0.3,0-0.6-0.2-0.6-0.6c0-0.3,0.2-0.6,0.6-0.6h2.3c0.3,0,0.6,0.2,0.6,0.6
						C122.2,121.5,122,121.8,121.6,121.8z"/>
				</g>
				<g id="XMLID_343_">
					<path id="XMLID_344_" d="M121.6,122.8h-2.3c-0.9,0-1.6-0.7-1.6-1.6c0-0.9,0.7-1.6,1.6-1.6h2.3c0.9,0,1.6,0.7,1.6,1.6
						C123.2,122.1,122.6,122.8,121.6,122.8z"/>
				</g>
			</g>
		</g>
		<g id="XMLID_335_">
			<g id="XMLID_336_">
				<g id="XMLID_339_">
					<path id="XMLID_340_" d="M130.9,126.6h-11.6c-0.3,0-0.6-0.2-0.6-0.6c0-0.3,0.2-0.6,0.6-0.6h11.6c0.3,0,0.6,0.2,0.6,0.6
						C131.5,126.4,131.3,126.6,130.9,126.6z"/>
				</g>
				<g id="XMLID_337_">
					<path id="XMLID_338_" d="M130.9,127.6h-11.6c-0.9,0-1.6-0.7-1.6-1.6c0-0.9,0.7-1.6,1.6-1.6h11.6c0.9,0,1.6,0.7,1.6,1.6
						C132.5,126.9,131.8,127.6,130.9,127.6z"/>
				</g>
			</g>
		</g>
		<g id="XMLID_326_">
			<g id="XMLID_331_">
				<path id="XMLID_332_" d="M109.8,119.6c2,0,3.7,1.6,3.7,3.7c0,2-1.7,3.7-3.7,3.7c-2,0-3.7-1.6-3.7-3.7
					C106.1,121.2,107.8,119.6,109.8,119.6 M109.8,118.7c-2.6,0-4.7,2-4.7,4.6c0,2.6,2,4.6,4.7,4.6c2.6,0,4.7-2,4.7-4.6
					C114.5,120.7,112.4,118.7,109.8,118.7L109.8,118.7z"/>
			</g>
			<g id="XMLID_327_">
				<path id="XMLID_328_" d="M109.8,128.9c-3.2,0-5.7-2.5-5.7-5.6c0-3.1,2.5-5.6,5.7-5.6s5.7,2.5,5.7,5.6
					C115.5,126.4,113,128.9,109.8,128.9z M109.8,120.6c-1.5,0-2.7,1.2-2.7,2.6c0,1.5,1.2,2.6,2.7,2.6c1.5,0,2.7-1.2,2.7-2.6
					C112.5,121.8,111.3,120.6,109.8,120.6z"/>
			</g>
		</g>
		<g id="XMLID_301_">
			<g id="XMLID_317_">
				<g id="XMLID_322_">
					<path id="XMLID_323_" d="M134.2,132.5v16.1h-27.9v-16.1H134.2 M134.2,131.5h-27.9c-0.6,0-1,0.4-1,1v16.1c0,0.6,0.4,1,1,1h27.9
						c0.6,0,1-0.4,1-1v-16.1C135.2,131.9,134.8,131.5,134.2,131.5L134.2,131.5z"/>
				</g>
				<g id="XMLID_318_">
					<path id="XMLID_319_" d="M134.2,150.7h-27.9c-1.2,0-2-0.8-2-2v-16.1c0-1.2,0.8-2,2-2h27.9c1.2,0,2,0.8,2,2v16.1
						C136.2,149.8,135.4,150.7,134.2,150.7z M107.4,147.6h25.8v-14.1h-25.8V147.6z"/>
				</g>
			</g>
			<g id="XMLID_311_">
				<g id="XMLID_312_">
					<g id="XMLID_315_">
						<path id="XMLID_316_" d="M106.9,147.3c-0.1,0-0.3-0.1-0.4-0.2c-0.2-0.2-0.2-0.4,0-0.6l10.8-9.4c0.2-0.2,0.4-0.2,0.6,0l8.2,7.5
							c0.2,0.2,0.2,0.4,0,0.6c-0.2,0.2-0.4,0.2-0.6,0l-7.9-7.3l-10.4,9.3C107.1,147.2,107,147.3,106.9,147.3z"/>
					</g>
					<g id="XMLID_313_">
						<path id="XMLID_314_" d="M106.9,148.3c-0.4,0-0.8-0.2-1.1-0.5c-0.3-0.3-0.4-0.6-0.4-1s0.2-0.8,0.4-1l10.8-9.5
							c0.5-0.5,1.4-0.5,2,0l8.2,7.5c0.3,0.3,0.5,0.7,0.5,1.1c0,0.4-0.2,0.8-0.4,1c-0.6,0.6-1.5,0.6-2,0l-7.2-6.6l-10,8.9h-0.2
							C107.3,148.3,107.1,148.3,106.9,148.3z"/>
					</g>
				</g>
			</g>
			<g id="XMLID_302_">
				<g id="XMLID_303_">
					<g id="XMLID_309_">
						<path id="XMLID_310_" d="M133.8,147.1c-0.1,0-0.3,0-0.4-0.1l-4.5-4.5l-2.8,2.7c-0.2,0.2-0.4,0.2-0.6,0c-0.2-0.2-0.2-0.4,0-0.6
							l3.1-3.1c0.2-0.2,0.4-0.2,0.6,0l4.9,4.8c0.2,0.2,0.2,0.4,0,0.6C134,147.1,133.8,147.1,133.8,147.1z"/>
					</g>
					<g id="XMLID_304_">
						<path id="XMLID_305_" d="M133.8,148.2c-0.2,0-0.7,0-1.1-0.4l-3.8-3.8l-2,2c-0.6,0.6-1.5,0.6-2,0c-0.3-0.3-0.4-0.6-0.4-1
							c0-0.4,0.2-0.8,0.4-1l3.1-3.1c0.6-0.6,1.5-0.6,2,0l4.9,4.8c0.3,0.3,0.4,0.6,0.4,1c0,0.3-0.1,0.7-0.3,0.9
							C134.8,147.8,134.4,148.2,133.8,148.2z M133.7,146.1l0,1L133.7,146.1C133.7,146.1,133.7,146.1,133.7,146.1z M133.8,146.1v1
							V146.1C133.8,146.1,133.8,146.1,133.8,146.1z"/>
					</g>
				</g>
			</g>
		</g>
	</g>
	<g id="XMLID_297_">
		<g id="XMLID_298_">
			<path id="XMLID_299_" class="st0" d="M163.3,89.3"/>
		</g>
	</g>
	<g id="XMLID_268_">
		<g id="XMLID_288_">
			<g id="XMLID_289_">
				<path id="XMLID_290_" d="M155.7,2.5H84.8c-5.2,0-9.3,4.2-9.3,9.3v70.8c0,5.2,4.2,9.3,9.3,9.3h28c0.3-1.2,1-2.2,2-3h-30
					c-3.5,0-6.4-2.9-6.4-6.4V33h23.6c-3.1,3.9-4.9,8.9-4.9,14.3c0,12.8,10.4,23.1,23.1,23.1c12.8,0,23.1-10.4,23.1-23.1
					c0-5.4-1.8-10.3-4.9-14.3h23.6v49.7c0,3.5-2.9,6.4-6.4,6.4H125c1,0.7,1.7,1.8,2,3h28.7c5.2,0,9.3-4.2,9.3-9.3V11.8
					C165,6.7,160.8,2.5,155.7,2.5z M83.4,30.1h-4.9V11.8c0-3,2.1-5.6,4.9-6.2V30.1z M90.3,30.1h-3.9V5.5h3.9V30.1z M97.1,30.1h-3.9
					V5.5h3.9V30.1z M140.4,47.3c0,11.1-9,20.2-20.2,20.2c-11.1,0-20.2-9-20.2-20.2c0-11.1,9-20.2,20.2-20.2
					C131.4,27.1,140.4,36.1,140.4,47.3z M162.1,30.1h-26.4c-4.1-3.7-9.5-5.9-15.4-5.9c-5.9,0-11.3,2.2-15.4,5.9h-4.8V5.5h55.6
					c3.5,0,6.4,2.9,6.4,6.4V30.1z"/>
			</g>
		</g>
		<g id="XMLID_285_">
			<g id="XMLID_286_">
				<path id="XMLID_287_" d="M155.7,89.1"/>
			</g>
		</g>
		<g id="XMLID_279_">
			<g id="XMLID_280_">
				<path id="XMLID_281_" d="M120.3,62.5c8.4,0,15.3-6.8,15.3-15.3c0-8.4-6.8-15.3-15.3-15.3c-8.4,0-15.3,6.8-15.3,15.3
					C105,55.7,111.9,62.5,120.3,62.5L120.3,62.5z M120.3,35c6.8,0,12.3,5.5,12.3,12.3c0,6.8-5.5,12.3-12.3,12.3
					c-6.8,0-12.3-5.5-12.3-12.3C108,40.5,113.5,35,120.3,35L120.3,35z M120.3,35"/>
			</g>
		</g>
		<g id="XMLID_274_">
			<g id="XMLID_275_">
				<path id="XMLID_276_" d="M120.3,56.6L120.3,56.6c2.5,0,4.8-1,6.6-2.7c2.7-2.7,3.5-6.7,2-10.3c-0.3-0.8-1.2-1.1-1.9-0.8
					c-0.8,0.3-1.1,1.2-0.8,1.9c1,2.4,0.5,5.2-1.4,7c-1.2,1.2-2.8,1.9-4.5,1.9c-1.7,0-3.3-0.7-4.5-1.9c-0.6-0.6-1.5-0.6-2.1,0
					c-0.6,0.6-0.6,1.5,0,2.1C115.4,55.6,117.8,56.6,120.3,56.6L120.3,56.6z M120.3,56.6"/>
			</g>
		</g>
		<g id="XMLID_269_">
			<g id="XMLID_270_">
				<path id="XMLID_271_" d="M141.9,25.1h5.9c0.8,0,1.5-0.7,1.5-1.5c0-0.8-0.7-1.5-1.5-1.5h-4.4v-8.9h10.8v8.9h-0.5
					c-0.8,0-1.5,0.7-1.5,1.5c0,0.8,0.7,1.5,1.5,1.5h2c0.8,0,1.5-0.7,1.5-1.5V11.8c0-0.8-0.7-1.5-1.5-1.5h-13.8
					c-0.8,0-1.5,0.7-1.5,1.5v11.8C140.4,24.5,141.1,25.1,141.9,25.1L141.9,25.1z M141.9,25.1"/>
			</g>
		</g>
	</g>
	<g id="XMLID_265_">
		<g id="XMLID_266_">
			<path id="XMLID_267_" d="M125.7,111.8c-0.8,0-1.5-0.7-1.5-1.5v-10.2c0-0.8,0.7-1.5,1.5-1.5s1.5,0.7,1.5,1.5v10.2
				C127.2,111.2,126.5,111.8,125.7,111.8z"/>
		</g>
	</g>
	<g id="XMLID_257_">
		<g id="XMLID_261_">
			<path id="XMLID_262_" d="M114.2,107.1c-0.8,0-1.5-0.7-1.5-1.5V87.1H105c-0.7,0-1.2-0.4-1.4-1c-0.2-0.6,0-1.3,0.6-1.7l15.3-10.5
				c0.5-0.3,1.2-0.3,1.7,0l15.3,10.5c0.5,0.4,0.8,1,0.6,1.7c-0.2,0.6-0.8,1-1.4,1h-8.3v7c0,0.8-0.7,1.5-1.5,1.5s-1.5-0.7-1.5-1.5
				v-8.5c0-0.8,0.7-1.5,1.5-1.5h5l-10.5-7.2l-10.5,7.2h4.4c0.8,0,1.5,0.7,1.5,1.5v20C115.7,106.4,115,107.1,114.2,107.1z"/>
		</g>
	</g>
	<g id="XMLID_213_">
		<g id="XMLID_251_">
			<g id="XMLID_253_">
				<path id="XMLID_255_" d="M21.5,58c-0.8,0.3-1.6,0-2-0.8l-1.5-3.4c-0.3-0.8,0-1.6,0.8-2c0.8-0.3,1.6,0,2,0.8l1.5,3.4
					C22.6,56.8,22.3,57.6,21.5,58z"/>
			</g>
		</g>
		<g id="XMLID_245_">
			<g id="XMLID_247_">
				<path id="XMLID_249_" d="M26.5,101.7l-12.1,5.4c-0.8,0.3-1.6,0-2-0.8c-0.3-0.8,0-1.6,0.8-2L25.3,99c0.8-0.3,1.6,0,2,0.8
					S27.2,101.4,26.5,101.7z"/>
			</g>
		</g>
		<g id="XMLID_236_">
			<g id="XMLID_240_">
				<g id="XMLID_241_">
					<path id="XMLID_244_" d="M62.8,85.5l-12.1,5.4c-0.8,0.3-1.6,0-2-0.8c-0.3-0.8,0-1.6,0.8-2l12.1-5.4c0.8-0.3,1.6,0,2,0.8
						S63.6,85.2,62.8,85.5z"/>
				</g>
			</g>
		</g>
		<g id="XMLID_224_">
			<g id="XMLID_225_">
				<g id="XMLID_227_">
					<path id="XMLID_231_" d="M66.5,97l-46.1,20.5c-2.4,1.1-5.1,0.8-7-0.6c-1.7-1.3-2.5-3.4-2.1-5.6l0.9-4.9c0-0.1,0-0.2-0.1-0.5
						L3.4,86.2c-5.9-13.2,0.8-29,15-35.3c14.1-6.3,30.4-0.7,36.3,12.5L63.3,83c0.1,0.2,0.2,0.3,0.3,0.4l4.3,2.7
						c1.9,1.2,3,3.2,2.8,5.3C70.6,93.8,68.9,95.9,66.5,97z M19.5,53.6C6.9,59.2,0.9,73.3,6.1,85l8.7,19.6c0.3,0.6,0.5,1.4,0.3,2.3
						l-0.8,4.9c-0.2,1.1,0.1,2.1,1,2.8c1,0.8,2.5,0.9,3.9,0.3l46.1-20.5c1.4-0.6,2.4-1.8,2.5-3.1c0.1-1-0.4-2-1.4-2.6l-4.2-2.7
						c-0.6-0.4-1.2-1-1.5-1.7l-8.7-19.6C46.7,52.9,32.2,48,19.5,53.6z"/>
				</g>
			</g>
		</g>
		<g id="XMLID_220_">
			<g id="XMLID_221_">
				<g id="XMLID_222_">
					<path id="XMLID_223_" d="M47.6,116.6c-5.4,2.4-11.7,0.2-14-4.9c-0.3-0.8,0-1.6,0.8-2s1.6,0,2,0.8c1.6,3.6,6.1,5.1,10,3.4
						c3.9-1.7,5.8-6.1,4.2-9.7c-0.3-0.8,0-1.6,0.8-2c0.8-0.3,1.6,0,2,0.8C55.6,108,53,114.2,47.6,116.6z"/>
				</g>
			</g>
		</g>
		<g id="XMLID_217_">
			<g id="XMLID_218_">
				<path id="XMLID_219_" d="M25.1,49.7c-0.8,0.3-1.6,0-2-0.8l-2-4.5c-1-2.4-4-3.3-6.6-2.2c-2.6,1.2-3.8,4-2.8,6.4l2,4.5
					c0.3,0.8,0,1.6-0.8,2c-0.8,0.3-1.6,0-2-0.8l-2-4.5c-1.7-3.9,0.2-8.5,4.3-10.3s8.8-0.2,10.5,3.7l2,4.5
					C26.2,48.4,25.8,49.3,25.1,49.7z"/>
			</g>
		</g>
		<g id="XMLID_214_">
			<g id="XMLID_215_">
				<path id="XMLID_216_" d="M25.2,49.9c-0.8,0.3-1.6,0-2-0.8l-2-4.5c-1-2.4-4-3.3-6.6-2.2c-2.6,1.2-3.8,4-2.8,6.4l2,4.5
					c0.3,0.8,0,1.6-0.8,2c-0.8,0.3-1.6,0-2-0.8l-2-4.5c-1.7-3.9,0.2-8.5,4.3-10.3c4.1-1.8,8.8-0.2,10.5,3.7l2,4.5
					C26.3,48.7,26,49.6,25.2,49.9z"/>
			</g>
		</g>
	</g>
	<g id="XMLID_17_">
		<g id="XMLID_207_">
			<g id="XMLID_208_">
				<g id="XMLID_209_">
					<path id="XMLID_210_" d="M216.4,116.3L173.2,97c-2.4-1.1-3.4-3.8-2.4-6.2l21.3-47.7c1.1-2.4,3.8-3.4,6.2-2.4l27.6,12.2
						c12.9,6.5,16.2,18,9.5,32.4c-4.2,9-12.7,12.1-16.2,12.9c-0.9,0.2-1.4,1-1.3,1.9l5,10.9c0.4,1.7-0.2,3.5-1.6,4.7
						C219.9,116.7,218,117,216.4,116.3z M224.6,55.6l-27.5-12.2c-0.9-0.4-1.9,0-2.3,0.9L173.6,92c-0.4,0.9,0,1.9,0.9,2.3l43.2,19.2
						c0.6,0.3,1.3,0.2,1.8-0.2c0.5-0.4,0.7-1,0.6-1.6l-5-10.9c-0.6-2.5,1-4.9,3.4-5.6c3-0.8,10.5-3.4,14.2-11.3l0,0
						C238.7,71.1,235.9,61.3,224.6,55.6z"/>
				</g>
			</g>
		</g>
		<g id="XMLID_119_">
			<g id="XMLID_125_">
				<g id="XMLID_127_">
					<path id="XMLID_131_" d="M189,93.5l-3.3-1.5c-2.2-1-3.1-3.5-2.2-5.6l13.6-30.6c1-2.2,3.5-3.1,5.6-2.2l17.8,7.9
						c0.1,0,10.4,4.8,5.9,16.7c-3,7.8-9.1,9-12.5,8.9c-1.8,0-3.6-0.4-5.3-1.2l-8.3-3.7c-0.8-0.4-1.7,0-2.1,0.8l-3.7,8.3
						C193.7,93.5,191.1,94.5,189,93.5z M201.7,56.1c-0.8-0.4-1.7,0-2.1,0.8L186,87.5c-0.4,0.8,0,1.7,0.8,2.1l3.3,1.5
						c0.8,0.4,1.7,0,2.1-0.8l3.7-8.3c1-2.2,3.5-3.1,5.6-2.2l8.3,3.7c1.4,0.6,2.8,0.9,4.2,0.9c3.3,0,7.7-1.2,9.9-7.2
						c3.6-9.5-4.2-13.1-4.5-13.2L201.7,56.1z"/>
				</g>
			</g>
		</g>
		<g id="XMLID_18_">
			<g id="XMLID_19_">
				<g id="XMLID_86_">
					<path id="XMLID_115_" d="M212.2,78.6C212.2,78.6,212.2,78.6,212.2,78.6l-12.4-5.5l3.9-8.7l12.4,5.5c0.1,0,1.4,0.6,2,2.1
						c0.5,1.1,0.4,2.5-0.2,3.9l0,0c-0.6,1.4-1.5,2.3-2.6,2.8C213.7,79.2,212.4,78.7,212.2,78.6z M203.4,71.7l9.9,4.4
						c0.5,0.2,1.4,0.3,2.1-1.3l0,0c0.7-1.7,0-2.2-0.4-2.4L205,68L203.4,71.7z"/>
				</g>
			</g>
		</g>
	</g>
	<g id="XMLID_139_">
		<g id="XMLID_15_">
			<path id="XMLID_16_" d="M54.8,68.4c-0.1,0-0.2,0-0.3,0c-0.8-0.1-1.4-0.9-1.2-1.7c0.7-4.3,1.9-8.5,3.4-12.5
				c0.3-0.8,1.2-1.2,1.9-0.9c0.8,0.3,1.2,1.2,0.9,1.9c-1.5,3.9-2.6,7.9-3.3,11.9C56.1,67.9,55.5,68.4,54.8,68.4z"/>
		</g>
	</g>
	<g id="XMLID_13_">
		<g id="XMLID_14_">
			<path id="XMLID_138_" d="M74.4,128.1c-0.4,0-0.7-0.1-1-0.4c-1.6-1.5-3.2-3.2-4.6-4.9c-0.5-0.6-0.5-1.6,0.2-2.1
				c0.6-0.5,1.6-0.5,2.1,0.2c1.4,1.6,2.9,3.2,4.4,4.6c0.6,0.6,0.6,1.5,0.1,2.1C75.2,128,74.8,128.1,74.4,128.1z"/>
		</g>
	</g>
	<g id="XMLID_122_">
		<g id="XMLID_11_">
			<path id="XMLID_12_" d="M98.6,142.8c-0.2,0-0.3,0-0.5-0.1c-5.6-1.9-11-4.6-15.9-8c-0.7-0.5-0.9-1.4-0.4-2.1
				c0.5-0.7,1.4-0.9,2.1-0.4c4.7,3.2,9.9,5.8,15.2,7.6c0.8,0.3,1.2,1.1,0.9,1.9C99.7,142.4,99.2,142.8,98.6,142.8z"/>
		</g>
	</g>
	<g id="XMLID_117_">
		<g id="XMLID_120_">
			<path id="XMLID_10_" d="M61.9,48.1c-0.2,0-0.5-0.1-0.7-0.2c-0.7-0.4-1-1.3-0.6-2c0.7-1.2,1.4-2.4,2.1-3.5
				c0.4-0.7,1.4-0.9,2.1-0.5c0.7,0.4,0.9,1.4,0.5,2.1c-0.7,1.1-1.4,2.2-2,3.4C63,47.8,62.5,48.1,61.9,48.1z"/>
		</g>
	</g>
	<g id="XMLID_112_">
		<g id="XMLID_113_">
			<path id="XMLID_114_" d="M177.2,114.2c-0.3,0-0.5-0.1-0.8-0.2c-0.7-0.4-0.9-1.3-0.5-2c2.3-3.9,4.3-8,5.7-12.3
				c0.3-0.8,1.1-1.2,1.9-0.9c0.8,0.3,1.2,1.1,0.9,1.9c-1.5,4.5-3.6,8.8-6,12.8C178.2,114,177.8,114.2,177.2,114.2z"/>
		</g>
	</g>
	<g id="XMLID_7_">
		<g id="XMLID_8_">
			<path id="XMLID_9_" d="M166.1,128.1c-0.4,0-0.8-0.2-1.1-0.5c-0.6-0.6-0.5-1.5,0.1-2.1c1.5-1.5,3-3,4.4-4.6
				c0.5-0.6,1.5-0.7,2.1-0.2c0.6,0.5,0.7,1.5,0.2,2.1c-1.5,1.7-3,3.3-4.6,4.9C166.8,128,166.5,128.1,166.1,128.1z"/>
		</g>
	</g>
	<g id="XMLID_4_">
		<g id="XMLID_5_">
			<path id="XMLID_6_" d="M178.6,48.1c-0.5,0-1-0.3-1.3-0.8c-0.6-1.1-1.3-2.3-2-3.4c-0.4-0.7-0.2-1.6,0.5-2.1
				c0.7-0.4,1.6-0.2,2.1,0.5c0.7,1.1,1.4,2.3,2.1,3.5c0.4,0.7,0.1,1.6-0.6,2C179.1,48,178.8,48.1,178.6,48.1z"/>
		</g>
	</g>
	<g id="XMLID_1_">
		<g id="XMLID_2_">
			<path id="XMLID_3_" class="st0" d="M40.9,94.1"/>
		</g>
	</g>
</g>
</svg>
