<?xml version="1.0" encoding="utf-8"?>
<!-- Generator: Adobe Illustrator 19.0.0, SVG Export Plug-In . SVG Version: 6.00 Build 0)  -->
<svg version="1.1" id="Layer_1" xmlns="http://www.w3.org/2000/svg" xmlns:xlink="http://www.w3.org/1999/xlink" x="0px" y="0px"
	 viewBox="-280 159 40 40" style="enable-background:new -280 159 40 40;" xml:space="preserve">
<style type="text/css">
	.st0{fill:none;}
</style>
<g>
	<path class="st0" d="M-268.1,179c0,4.5,3.6,8.1,8.1,8.1c4.5,0,8.1-3.6,8.1-8.1s-3.6-8.1-8.1-8.1
		C-264.5,170.9-268.1,174.5-268.1,179z"/>
	<path class="st0" d="M-250.5,161.6h-19c-4.3,0-7.9,3.5-7.9,7.9v19c0,4.3,3.5,7.9,7.9,7.9h19c4.3,0,7.9-3.5,7.9-7.9v-19
		C-242.6,165.2-246.2,161.6-250.5,161.6z M-260,189.6c-5.9,0-10.6-4.8-10.6-10.6c0-5.9,4.8-10.6,10.6-10.6s10.6,4.8,10.6,10.6
		C-249.4,185.1-253.9,189.6-260,189.6z M-248.7,170.3c-1,0-1.9-0.8-1.9-1.9s0.8-1.9,1.9-1.9s1.9,0.8,1.9,1.9
		S-247.7,170.3-248.7,170.3z"/>
	<path d="M-243.3,162.2c-2.1-2.1-5-3.3-7.9-3.3h-17.5c-6.4,0-11.3,5-11.3,11.3v17.5c0,6.4,5,11.3,11.3,11.3h17.5
		c6.4,0,11.3-5,11.3-11.3v-17.5C-239.9,167.2-241.1,164.3-243.3,162.2z M-242.6,169.5v19c0,4.3-3.5,7.9-7.9,7.9h-19
		c-4.3,0-7.9-3.5-7.9-7.9v-19c0-4.3,3.5-7.9,7.9-7.9h19C-246.2,161.6-242.6,165.2-242.6,169.5z"/>
	<path d="M-260,168.4c-5.9,0-10.6,4.8-10.6,10.6c0,5.9,4.8,10.6,10.6,10.6c6.1,0,10.6-4.6,10.6-10.6
		C-249.4,173.1-254.1,168.4-260,168.4z M-251.9,179c0,4.5-3.6,8.1-8.1,8.1c-4.5,0-8.1-3.6-8.1-8.1s3.6-8.1,8.1-8.1
		C-255.5,170.9-251.9,174.5-251.9,179z"/>
	<circle cx="-248.7" cy="168.5" r="1.9"/>
</g>
</svg>
