<?xml version="1.0" encoding="utf-8"?>
<!-- Generator: Adobe Illustrator 19.0.0, SVG Export Plug-In . SVG Version: 6.00 Build 0)  -->
<svg version="1.1" fill="#fff" xmlns="http://www.w3.org/2000/svg" xmlns:xlink="http://www.w3.org/1999/xlink" x="0px" y="0px"
	 viewBox="0 0 254.9 160" style="enable-background:new 0 0 254.9 160;" xml:space="preserve">
<style type="text/css">
	.st0{fill:#fff;}
	.st1{fill:#fff;stroke:#FFFFFF;stroke-width:8;stroke-miterlimit:10;}
</style>
<g id="XMLID_238_">
	<g id="XMLID_217_">
		<g id="XMLID_232_">
			<g id="XMLID_233_">
				<g id="XMLID_234_">
					<g id="XMLID_235_">
						<path id="XMLID_243_" class="st0" d="M163.4,149.4l-52.4,8c-2.9,0.4-5.6-1.5-6-4.4l-8.9-57.9c-0.4-2.9,1.5-5.6,4.4-6l33.4-5.2
							c16.1-1.7,26.2,7.1,28.6,24.8c1.5,11.1-4.7,19.1-7.4,22c-0.7,0.7-0.7,1.8-0.1,2.6l11.3,7.2c1.4,1.4,1.9,3.5,1.3,5.4
							C167,147.8,165.3,149.1,163.4,149.4z M134.3,87.3L101,92.4c-1,0.2-1.8,1.1-1.6,2.2l8.9,57.9c0.2,1,1.1,1.8,2.2,1.6l52.4-8
							c0.7-0.1,1.3-0.6,1.5-1.3c0.2-0.7,0.1-1.3-0.4-1.8l-11.3-7.2c-2-2-2.1-5.2-0.1-7.3c2.4-2.6,7.8-9.6,6.5-19.3l0,0
							C157,93.4,148.5,85.8,134.3,87.3z"/>
					</g>
				</g>
			</g>
		</g>
		<g id="XMLID_225_">
			<g id="XMLID_226_">
				<g id="XMLID_227_">
					<g id="XMLID_228_">
						<path id="XMLID_230_" class="st0" d="M123.7,144.6l-4.1,0.6c-2.6,0.4-5.1-1.4-5.5-4l-5.7-37.1c-0.4-2.6,1.4-5.1,4-5.5
							l21.6-3.3c0.1,0,12.7-1.8,15.7,12.1c2,9.2-3.1,14-6.3,16c-1.7,1.1-3.6,1.8-5.7,2.1l-10.1,1.5c-1,0.1-1.6,1-1.5,2l1.5,10.1
							C128.1,141.7,126.3,144.2,123.7,144.6z M113,101.6c-1,0.1-1.6,1-1.5,2l5.7,37.1c0.1,1,1,1.6,2,1.5l4.1-0.6c1-0.1,1.6-1,1.5-2
							l-1.5-10.1c-0.4-2.6,1.4-5.1,4-5.5l10.1-1.5c1.7-0.3,3.2-0.8,4.5-1.7c3.1-2,6.5-5.8,5-12.8c-2.4-11.1-11.9-9.8-12.3-9.8
							L113,101.6z"/>
					</g>
				</g>
			</g>
		</g>
		<g id="XMLID_218_">
			<g id="XMLID_219_">
				<g id="XMLID_220_">
					<g id="XMLID_221_">
						<path id="XMLID_222_" class="st0" d="M136.6,116.5C136.6,116.5,136.6,116.5,136.6,116.5l-15,2.3l-1.6-10.5l15-2.3
							c0.1,0,1.7-0.3,3.2,0.7c1.1,0.8,1.9,2.1,2.1,3.8l0,0c0.3,1.7,0,3.1-0.8,4.2C138.4,116.1,136.8,116.4,136.6,116.5z
							 M124.1,115.3l12-1.8c0.6-0.1,1.5-0.6,1.2-2.5l0,0c-0.3-2-1.4-2.1-1.8-2l-12.1,1.8L124.1,115.3z"/>
					</g>
				</g>
			</g>
		</g>
	</g>
	<g id="XMLID_213_">
		<path id="XMLID_214_" class="st0" d="M42.8,110.5l-1.5-0.6C23.9,103.3,12,92.9,5.9,79.1C-3.8,57.2,4.7,34.9,5,33.9l12-31.4
			l1.4,0.4c8.4,2.4,12.4,7.7,13.8,10.1c9.6-2,16.6,1,20.9,3.9c3.3,2.3,5.5,4.8,6.6,6.2c8-2.8,14.5,0.9,14.8,1l1.2,0.7L42.8,110.5z
			 M18.9,6.3L7.9,35c-0.1,0.2-8.4,22.1,0.8,42.8c5.6,12.6,16.5,22.2,32.3,28.6l30.7-80.1c-2.1-0.8-6.7-2.1-12,0.1L58.5,27l-0.7-1.1
			c-0.3-0.6-8.8-13.8-26-9.6l-1.3,0.3L30,15.4c0-0.1-0.8-1.8-2.7-3.7C25.1,9.3,22.2,7.5,18.9,6.3z"/>
	</g>
	<path id="XMLID_212_" class="st0" d="M29.1,36.5c-2.2-0.8-3.3-3.3-2.4-5.4c0.6-1.5,1.9-2.5,3.4-2.7c-0.5-0.4-1.1-0.7-1.8-0.9
		c-4.1-1.6-8.6,0.5-10.2,4.5s0.5,8.6,4.5,10.2c4.1,1.6,8.6-0.5,10.2-4.5c0.2-0.6,0.4-1.3,0.5-1.9C32.3,36.7,30.6,37.1,29.1,36.5z"/>
	<path id="XMLID_211_" class="st0" d="M44.1,42.2c2.2,0.8,4.6-0.3,5.4-2.4c0.6-1.5,0.2-3.1-0.8-4.3c0.6,0.1,1.3,0.2,1.9,0.5
		c4.1,1.6,6.1,6.1,4.5,10.2s-6.1,6.1-10.2,4.5s-6.1-6.1-4.5-10.2c0.2-0.6,0.6-1.2,0.9-1.8C41.6,40.3,42.6,41.6,44.1,42.2z"/>
	<g id="XMLID_209_">
		<path id="XMLID_210_" class="st0" d="M33.7,47.1l2.2-10c0.5-2.4,0.2-4.9-0.9-7l2.8-1.4c0.7,1.4,1.1,2.8,1.3,4.3
			c1.2-1,2.6-1.8,4.1-2.4l1.1,2.9c-2.3,0.9-4.3,2.5-5.5,4.7L33.7,47.1z"/>
	</g>
	<g id="XMLID_207_">
		<path id="XMLID_208_" class="st0" d="M47.9,57.1c-1.7,0-3.3-0.3-4.9-0.9c-1.9-0.7-3.6-1.9-5-3.3l-7.8,3.5l-3.5-7.9
			c-2.1,0.2-4.2-0.1-6.1-0.9C13.5,44.9,10,37,12.7,30c1.3-3.4,3.9-6.1,7.2-7.6c3.3-1.5,7.1-1.6,10.5-0.3c3.2,1.2,5.8,3.6,7.3,6.6
			l-2.8,1.4c-1.2-2.4-3.2-4.2-5.7-5.1c-2.6-1-5.5-0.9-8.1,0.2c-2.6,1.2-4.6,3.2-5.6,5.9c-2.1,5.5,0.7,11.6,6.1,13.7
			c1.8,0.7,3.8,0.9,5.7,0.5l1.2-0.2l3.2,7.2l7.1-3.2l0.8,0.9c1.2,1.5,2.7,2.6,4.5,3.3c2.6,1,5.5,0.9,8.1-0.2
			c2.6-1.2,4.6-3.2,5.6-5.9c1-2.6,0.9-5.5-0.2-8.1s-3.2-4.6-5.9-5.6c-2.4-0.9-5.1-0.9-7.5,0l-1.1-2.9c3.1-1.2,6.6-1.1,9.7,0
			c3.4,1.3,6.1,3.9,7.6,7.2c1.5,3.3,1.6,7.1,0.3,10.5c-1.3,3.4-3.9,6.1-7.2,7.6C51.7,56.7,49.8,57.1,47.9,57.1z"/>
	</g>
	<path id="XMLID_139_" class="st0" d="M231.3,44.6c7.8,0,14.1,6.3,14.1,14.1s-6.3,14.1-14.1,14.1s-14.1-6.3-14.1-14.1
		S223.6,44.6,231.3,44.6 M231.3,37.2c-11.8,0-21.4,9.6-21.4,21.4s9.6,21.4,21.4,21.4c11.8,0,21.4-9.6,21.4-21.4
		S243.2,37.2,231.3,37.2L231.3,37.2z"/>
	<g id="XMLID_131_">
		<rect id="XMLID_138_" x="229.9" y="25.9" class="st0" width="3" height="13"/>
	</g>
	<g id="XMLID_122_">
		
			<rect id="XMLID_125_" x="186.7" y="30.5" transform="matrix(0.8009 0.5988 -0.5988 0.8009 60.0008 -116.4228)" class="st0" width="36.8" height="3.1"/>
	</g>
	<g id="XMLID_119_">
		
			<rect id="XMLID_120_" x="209.6" y="69.4" transform="matrix(0.6542 0.7563 -0.7563 0.6542 131.6197 -132.9066)" class="st0" width="3.1" height="16.1"/>
	</g>
	<circle id="XMLID_118_" class="st0" cx="231.9" cy="24.3" r="7"/>
	<circle id="XMLID_117_" class="st0" cx="190.2" cy="21.1" r="7"/>
	<circle id="XMLID_116_" class="st0" cx="205" cy="82.9" r="7"/>
	<g id="XMLID_112_">
		<path id="XMLID_113_" class="st0" d="M175.2,71.1c-6.8,0-12.3-5.5-12.3-12.3s5.5-12.3,12.3-12.3c6.8,0,12.3,5.5,12.3,12.3
			S182,71.1,175.2,71.1z M175.2,49.6c-5.1,0-9.2,4.1-9.2,9.2s4.1,9.2,9.2,9.2c5.1,0,9.2-4.1,9.2-9.2S180.3,49.6,175.2,49.6z"/>
	</g>
	<g id="XMLID_17_">
		<path id="XMLID_18_" class="st0" d="M89.6,71.1c-6.8,0-12.3-5.5-12.3-12.3s5.5-12.3,12.3-12.3s12.3,5.5,12.3,12.3
			S96.4,71.1,89.6,71.1z M89.6,49.6c-5.1,0-9.2,4.1-9.2,9.2s4.1,9.2,9.2,9.2c5.1,0,9.2-4.1,9.2-9.2S94.7,49.6,89.6,49.6z"/>
	</g>
	<g id="XMLID_13_">
		<path id="XMLID_12_" class="st0" d="M132,30.3c-6.8,0-12.3-5.5-12.3-12.3S125.2,5.6,132,5.6c6.8,0,12.3,5.5,12.3,12.3
			S138.8,30.3,132,30.3z M132,8.7c-5.1,0-9.2,4.1-9.2,9.2s4.1,9.2,9.2,9.2s9.2-4.1,9.2-9.2S137.1,8.7,132,8.7z"/>
	</g>
	<g id="XMLID_10_">
		<path id="XMLID_11_" class="st0" d="M91.2,48.1h-3.1V29.2c0-7,5.7-12.6,12.6-12.6h20.4v3.1h-20.4c-5.2,0-9.5,4.3-9.5,9.5V48.1z"/>
	</g>
	<g id="XMLID_8_">
		<rect id="XMLID_9_" x="130.9" y="28.9" class="st0" width="3" height="57"/>
	</g>
	<g id="XMLID_6_">
		<rect id="XMLID_7_" x="185.9" y="57.9" class="st0" width="28" height="3"/>
	</g>
	<g id="XMLID_4_">
		<rect id="XMLID_5_" x="60.9" y="57.9" class="st0" width="18" height="3"/>
	</g>
	<path id="XMLID_3_" class="st1" d="M132.1,84.3"/>
	<g id="XMLID_16_">
		<path id="XMLID_127_" class="st1" d="M132.1,58.6"/>
	</g>
	<g id="XMLID_1_">
		<path id="XMLID_2_" class="st0" d="M164.2,107.6h-4.1v-3.1h4.1c5.2,0,9.5-4.3,9.5-9.5V69.5h3.1V95
			C176.8,101.9,171.1,107.6,164.2,107.6z"/>
	</g>
</g>
</svg>
