<?xml version="1.0" encoding="utf-8"?>
<!-- Generator: Adobe Illustrator 19.0.0, SVG Export Plug-In . SVG Version: 6.00 Build 0)  -->
<svg version="1.1" fill="#fff" xmlns="http://www.w3.org/2000/svg" xmlns:xlink="http://www.w3.org/1999/xlink" x="0px" y="0px"
	 viewBox="-115 42.7 52 56" style="enable-background:new -115 42.7 52 56;" xml:space="preserve">
<g>
	<path d="M-82.7,66.9c5.9,1.4,11.9-2.2,13.3-8.1c1.4-5.9-2.2-11.9-8.1-13.3L-87.6,43c-5.9-1.4-11.9,2.2-13.3,8.1
		c-1.4,5.9,2.2,11.9,8.1,13.3l2.2,0.5l-7.6,31c-0.1,0.5,0.2,1,0.7,1.1l4,1c0.5,0.1,1-0.2,1.1-0.7l0.1-0.5l7.7,1.9
		c0.5,0.1,1-0.2,1.1-0.7l1.3-5.3c0.1-0.5-0.2-1-0.7-1.1l-3.2-0.8l0.9-3.5c0.1-0.5-0.2-1-0.7-1.1l-3.6-0.9l4.6-19L-82.7,66.9z
		 M-99.2,51.6c1.2-4.9,6.2-8,11.1-6.8l10.1,2.5c4.9,1.2,8,6.2,6.8,11.1c-1.2,4.9-6.2,8-11.1,6.8l-10.1-2.5
		C-97.3,61.5-100.4,56.5-99.2,51.6L-99.2,51.6z M-87.2,87.7l-0.9,3.5c-0.1,0.5,0.2,1,0.7,1.1l3.2,0.8l-0.9,3.6l-6.8-1.7l2-8
		L-87.2,87.7z M-94,96l-2.3-0.6l7.3-30.1l2.3,0.6L-94,96z M-94,96"/>
	<path d="M-74.5,57.6c0.8-3.1-1.2-6.2-4.3-7l-10.1-2.5c-3.1-0.8-6.2,1.2-7,4.3c-0.8,3.1,1.2,6.2,4.3,7l10.1,2.5
		C-78.4,62.6-75.2,60.7-74.5,57.6L-74.5,57.6z M-94.1,52.8c0.5-2.1,2.7-3.5,4.8-2.9l10.1,2.5c2.1,0.5,3.5,2.7,2.9,4.8
		c-0.5,2.1-2.7,3.5-4.8,2.9l-10.1-2.5C-93.3,57.1-94.6,54.9-94.1,52.8L-94.1,52.8z M-94.1,52.8"/>
</g>
</svg>
