<svg
        xmlns="http://www.w3.org/2000/svg"
        xmlns:xlink="http://www.w3.org/1999/xlink"
        width="52px" height="52px">
    <path fill-rule="evenodd"  fill="#516E91"
          d="M51.991,10.215 L41.748,-0.009 L28.842,-0.009 L23.755,5.063 C11.108,4.007 0.911,11.125 0.768,11.228 C0.354,11.522 0.258,12.099 0.554,12.514 C0.734,12.764 1.017,12.900 1.304,12.900 C1.490,12.900 1.677,12.843 1.839,12.727 C1.967,12.635 10.789,6.480 22.004,6.809 L5.529,23.237 L5.536,23.245 L0.000,28.770 L23.175,52.005 L32.427,42.773 C34.328,43.768 36.539,44.258 38.726,44.257 C41.952,44.257 45.117,43.208 47.113,41.211 C53.902,34.418 51.208,26.966 50.286,24.953 L51.990,23.252 L51.990,10.215 L51.991,10.215 ZM40.986,1.835 L50.148,10.980 L50.148,22.487 L32.142,40.442 C28.378,37.742 27.232,32.677 28.923,26.035 C29.049,25.542 28.750,25.039 28.257,24.914 C27.762,24.782 27.263,25.087 27.137,25.579 C24.751,34.953 27.957,39.576 30.822,41.757 L28.709,43.865 L8.144,23.248 L24.437,6.989 C28.306,7.432 32.392,8.710 36.460,11.293 C36.425,11.496 36.398,11.704 36.398,11.918 C36.398,13.918 38.024,15.546 40.024,15.546 C42.024,15.546 43.652,13.918 43.652,11.918 C43.652,9.916 42.024,8.290 40.024,8.290 C38.904,8.290 37.913,8.811 37.248,9.614 C33.479,7.256 29.702,5.941 26.080,5.352 L29.603,1.835 L40.986,1.835 ZM38.536,12.715 C38.943,13.021 39.521,12.939 39.825,12.531 C40.131,12.124 40.048,11.546 39.641,11.240 C39.356,11.027 39.070,10.839 38.786,10.639 C39.107,10.326 39.543,10.133 40.024,10.133 C41.008,10.133 41.808,10.934 41.808,11.919 C41.808,12.902 41.008,13.702 40.024,13.702 C39.284,13.702 38.649,13.249 38.379,12.605 C38.432,12.643 38.484,12.675 38.536,12.715 ZM2.607,28.774 L6.838,24.550 L27.410,45.175 L23.178,49.398 L2.607,28.774 ZM45.810,39.907 C43.436,42.281 38.096,43.363 33.802,41.401 L48.893,26.343 C49.810,28.627 51.294,34.420 45.810,39.907 Z"/>
</svg>