<svg xmlns="http://www.w3.org/2000/svg" width="59.955" height="59.919" viewBox="0 0 512 511.688">
  <metadata><?xpacket begin="﻿" id="W5M0MpCehiHzreSzNTczkc9d"?>
<x:xmpmeta xmlns:x="adobe:ns:meta/" x:xmptk="Adobe XMP Core 5.6-c140 79.160451, 2017/05/06-01:08:21        ">
   <rdf:RDF xmlns:rdf="http://www.w3.org/1999/02/22-rdf-syntax-ns#">
      <rdf:Description rdf:about=""/>
   </rdf:RDF>
</x:xmpmeta>
<?xpacket end="w"?></metadata>
<defs>
    <style>
      .cls-1 {
        fill-rule: evenodd;
      }
    </style>
  </defs>
  <path fill="#516e91" id="Forma_1" data-name="Forma 1" class="cls-1" d="M512,345.393a29.894,29.894,0,0,0-29.867-29.849h-64a8.536,8.536,0,0,1-8.533-8.528V213.205a34.072,34.072,0,0,0-67.137-8.267,8.3,8.3,0,0,0-1.13,4A166.67,166.67,0,0,1,274.476,342a22.417,22.417,0,0,0-5.881-.867H21.538A20.984,20.984,0,0,0,0,361.466v129.89a20.985,20.985,0,0,0,21.538,20.338H268.6a21.886,21.886,0,0,0,17.466-8.528H448a29.743,29.743,0,0,0,24.206-47.2,29.77,29.77,0,0,0,14.195-25.3,29.449,29.449,0,0,0-3.827-14.32,29.57,29.57,0,0,0,15.232-45.667A29.771,29.771,0,0,0,512,345.393ZM204.8,494.637H21.538c-2.425,0-4.471-1.5-4.471-3.281V361.466c0-1.781,2.046-3.281,4.471-3.281H204.8V494.637h0Zm68.265-3.281c0,1.782-2.046,3.281-4.471,3.281H221.867V358.185H268.6c2.425,0,4.471,1.5,4.471,3.281v129.89h0ZM482.133,358.185h-64a8.528,8.528,0,1,0,0,17.056H473.6a12.793,12.793,0,1,1,0,25.585H401.066a8.528,8.528,0,1,0,0,17.056h55.467a12.792,12.792,0,1,1,0,25.584h-64a8.528,8.528,0,1,0,0,17.056H448a12.793,12.793,0,1,1,0,25.585H290.133V361.466a19.19,19.19,0,0,0-2-8.439,183.773,183.773,0,0,0,70.115-139.068c0.024-.261.152-0.487,0.152-0.754a17.067,17.067,0,0,1,34.134,0v93.811a25.62,25.62,0,0,0,25.6,25.585h64A12.792,12.792,0,1,1,482.133,358.185Zm-320-34.112c89.543,0,162.132-72.547,162.132-162.036S251.677,0,162.134,0,0,72.546,0,162.036C0.1,251.484,72.632,323.971,162.134,324.073Zm0-307.017A144.98,144.98,0,1,1,17.067,162.036,145.023,145.023,0,0,1,162.134,17.056Zm-51.2,136.452a25.585,25.585,0,1,0-25.6-25.585A25.593,25.593,0,0,0,110.934,153.508Zm0-34.113a8.528,8.528,0,1,1-8.533,8.528A8.53,8.53,0,0,1,110.934,119.4ZM204.8,153.508a25.585,25.585,0,1,0-25.6-25.585A25.593,25.593,0,0,0,204.8,153.508Zm0-34.113a8.528,8.528,0,1,1-8.533,8.528A8.53,8.53,0,0,1,204.8,119.4Zm-89.842,88.139a8.536,8.536,0,0,0-15.725,6.646,68.314,68.314,0,0,0,125.8,0,8.536,8.536,0,0,0-15.725-6.646A51.23,51.23,0,0,1,114.959,207.534ZM443.733,51.169a8.53,8.53,0,0,0,8.533-8.528V34.113a8.533,8.533,0,0,0-17.066,0v8.528A8.53,8.53,0,0,0,443.733,51.169Zm0,17.057a8.53,8.53,0,0,0-8.533,8.528v8.528a8.533,8.533,0,0,0,17.066,0V76.754A8.53,8.53,0,0,0,443.733,68.226Zm-25.6,0h8.533a8.528,8.528,0,1,0,0-17.056h-8.533A8.528,8.528,0,1,0,418.133,68.226Zm42.667,0h8.533a8.528,8.528,0,1,0,0-17.056H460.8A8.528,8.528,0,1,0,460.8,68.226Z"/>
</svg>
