<?xml version="1.0" encoding="utf-8"?>
<!-- Generator: Adobe Illustrator 19.0.0, SVG Export Plug-In . SVG Version: 6.00 Build 0)  -->
<svg version="1.1" fill="#fff" xmlns="http://www.w3.org/2000/svg" xmlns:xlink="http://www.w3.org/1999/xlink" x="0px" y="0px"
	 viewBox="-15.7 23.4 42.5 56" style="enable-background:new -15.7 23.4 42.5 56;" xml:space="preserve">
<style type="text/css">
	.st0{fill:none;}
</style>
<g>
	<path class="st0" d="M5.6,29.2c-7.4,0-13.4,6-13.4,13.4C-7.9,50-1.8,56,5.6,56S19,50,19,42.6C19,35.2,13,29.2,5.6,29.2z M14.7,41.1
		l-3.4,3.3l0.8,4.7c0.1,0.6-0.1,1.2-0.6,1.5C11,51,10.3,51,9.8,50.7l-4.2-2.2l-4.2,2.2c-0.2,0.1-0.5,0.2-0.7,0.2
		c-0.3,0-0.7-0.1-0.9-0.3c-0.5-0.4-0.7-0.9-0.6-1.5l0.8-4.7l-3.4-3.3c-0.4-0.4-0.6-1-0.4-1.6c0.2-0.6,0.7-1,1.3-1.1L2,37.7l2.1-4.3
		c0.3-0.5,0.8-0.9,1.4-0.9s1.1,0.3,1.4,0.9l2.1,4.3l4.7,0.7c0.6,0.1,1.1,0.5,1.3,1.1C15.3,40.1,15.1,40.7,14.7,41.1z"/>
	<path class="st0" d="M18.4,72.6c0.2-0.4,0.7-0.6,1.2-0.5l5.1,1.6L18,57.3c-1,0.8-2.1,1.6-3.2,2.2l4,9.6c0.1,0.2,0.1,0.5,0,0.8
		c-0.1,0.2-0.3,0.4-0.5,0.5c-0.1,0.1-0.3,0.1-0.4,0.1c-0.4,0-0.8-0.2-0.9-0.6L13,60.4c-1.2,0.5-2.4,0.9-3.6,1.1l6.6,15.8L18.4,72.6z
		"/>
	<path class="st0" d="M8.3,39.6c-0.3,0-0.6-0.3-0.8-0.5l-2-3.9l-2,3.9c-0.1,0.3-0.4,0.5-0.8,0.5l-4.4,0.6l3.2,3.1
		c0.2,0.2,0.3,0.6,0.3,0.9l-0.7,4.3l3.9-2c0.1-0.1,0.3-0.1,0.5-0.1c0.2,0,0.3,0,0.5,0.1l3.9,2l-0.7-4.3c-0.1-0.3,0.1-0.7,0.3-0.9
		l3.2-3.1L8.3,39.6z"/>
	<path class="st0" d="M-13.6,73.7l5.1-1.6c0.1,0,0.2,0,0.3,0c0.4,0,0.7,0.2,0.9,0.5l2.5,4.7l6.6-15.8c-1.2-0.2-2.5-0.6-3.6-1.1
		l-3.9,9.5c-0.2,0.4-0.5,0.6-0.9,0.6c-0.1,0-0.3,0-0.4-0.1c-0.2-0.1-0.4-0.3-0.5-0.5c-0.1-0.2-0.1-0.5,0-0.8l4-9.6
		c-1.1-0.6-2.2-1.3-3.2-2.2L-13.6,73.7z"/>
	<path class="st0" d="M5.6,25.4c-9.5,0-17.3,7.7-17.3,17.2S-4,59.8,5.6,59.8s17.3-7.7,17.3-17.2S15.1,25.4,5.6,25.4z M5.6,58
		C-3,58-9.9,51.1-9.9,42.6c0-8.5,6.9-15.4,15.5-15.4c8.5,0,15.5,6.9,15.5,15.4C21,51.1,14.1,58,5.6,58z"/>
	<path d="M13.8,38.4l-4.7-0.7L7,33.5c-0.3-0.5-0.8-0.9-1.4-0.9s-1.1,0.3-1.4,0.9L2,37.7l-4.7,0.7c-0.6,0.1-1.1,0.5-1.3,1.1
		c-0.2,0.6,0,1.2,0.4,1.6l3.4,3.3l-0.8,4.7c-0.1,0.6,0.1,1.2,0.6,1.5c0.3,0.2,0.6,0.3,0.9,0.3c0.3,0,0.5-0.1,0.7-0.2l4.2-2.2
		l4.2,2.2c0.5,0.3,1.2,0.2,1.7-0.1c0.5-0.4,0.7-0.9,0.6-1.5l-0.8-4.7l3.4-3.3c0.4-0.4,0.6-1,0.4-1.6C14.9,38.9,14.4,38.5,13.8,38.4z
		 M9.2,44.2l0.7,4.3l-3.9-2c-0.1-0.1-0.3-0.1-0.5-0.1c-0.2,0-0.3,0-0.5,0.1l-3.9,2l0.7-4.3c0.1-0.3-0.1-0.7-0.3-0.9l-3.2-3.1
		l4.4-0.6c0.3,0,0.6-0.3,0.8-0.5l2-3.9l2,3.9c0.1,0.3,0.4,0.5,0.8,0.5l4.4,0.6l-3.2,3.1C9.2,43.6,9.1,43.9,9.2,44.2z"/>
	<path d="M5.6,27.2c-8.5,0-15.5,6.9-15.5,15.4C-9.9,51.1-3,58,5.6,58C14.1,58,21,51.1,21,42.6C21,34.1,14.1,27.2,5.6,27.2z M19,42.6
		C19,50,13,56,5.6,56S-7.9,50-7.9,42.6c0-7.4,6-13.4,13.4-13.4S19,35.2,19,42.6z"/>
	<path d="M26.6,73l-7.1-17.1c3.4-3.6,5.3-8.3,5.3-13.3c0-10.6-8.7-19.2-19.3-19.2c-10.6,0-19.3,8.6-19.3,19.2c0,5,1.9,9.7,5.3,13.3
		L-15.5,73c-0.3,0.7-0.2,1.5,0.4,2.1c0.5,0.6,1.3,0.8,2,0.5l4.4-1.4l2.2,4.1c0.3,0.6,1,1,1.7,1c0,0,0.1,0,0.1,0
		c0.8,0,1.4-0.5,1.7-1.2l6.8-16.4c1.2,0.1,2.3,0.1,3.5,0l6.8,16.4c0.3,0.7,1,1.2,1.7,1.2c0,0,0.1,0,0.1,0c0.7,0,1.4-0.4,1.7-1
		l2.2-4.1l4.4,1.4c0.7,0.2,1.5,0,2-0.5C26.8,74.5,26.9,73.7,26.6,73z M13,60.4l3.9,9.5c0.2,0.4,0.5,0.6,0.9,0.6c0.1,0,0.3,0,0.4-0.1
		c0.2-0.1,0.4-0.3,0.5-0.5c0.1-0.2,0.1-0.5,0-0.8l-4-9.6c1.1-0.6,2.2-1.3,3.2-2.2l6.8,16.3l-5.1-1.6c-0.5-0.1-1,0.1-1.2,0.5
		l-2.5,4.7L9.3,61.5C10.6,61.2,11.8,60.9,13,60.4z M-7.6,69.1c-0.1,0.2-0.1,0.5,0,0.8c0.1,0.2,0.3,0.4,0.5,0.5
		c0.1,0.1,0.3,0.1,0.4,0.1c0.4,0,0.8-0.2,0.9-0.6l3.9-9.5c1.2,0.5,2.4,0.9,3.6,1.1l-6.6,15.8l-2.5-4.7C-7.5,72.2-7.8,72-8.2,72
		c-0.1,0-0.2,0-0.3,0l-5.1,1.6l6.8-16.3c1,0.8,2.1,1.6,3.2,2.2L-7.6,69.1z M22.9,42.6c0,9.5-7.8,17.2-17.3,17.2s-17.3-7.7-17.3-17.2
		S-4,25.4,5.6,25.4S22.9,33.1,22.9,42.6z"/>
</g>
</svg>
