<?xml version="1.0" encoding="utf-8"?>
<!-- Generator: Adobe Illustrator 19.0.0, SVG Export Plug-In . SVG Version: 6.00 Build 0)  -->
<svg version="1.1" id="Layer_1" xmlns="http://www.w3.org/2000/svg" xmlns:xlink="http://www.w3.org/1999/xlink" x="0px" y="0px"
	 viewBox="0 0 24 16.8" style="enable-background:new 0 0 24 16.8;" xml:space="preserve">
<style type="text/css">
	.st0{fill:#00bde9;}
</style>
<g id="XMLID_30_">
	<path id="XMLID_2_" class="st0" d="M22.8,2.4H1.2C0.5,2.4,0,1.9,0,1.2v0C0,0.5,0.5,0,1.2,0h21.6C23.5,0,24,0.5,24,1.2v0
		C24,1.9,23.5,2.4,22.8,2.4z"/>
	<path id="XMLID_3_" class="st0" d="M22.8,9.6H1.2C0.5,9.6,0,9.1,0,8.4v0c0-0.7,0.5-1.2,1.2-1.2h21.6c0.7,0,1.2,0.5,1.2,1.2v0
		C24,9.1,23.5,9.6,22.8,9.6z"/>
	<path id="XMLID_4_" class="st0" d="M22.8,16.8H1.2c-0.7,0-1.2-0.5-1.2-1.2v0c0-0.7,0.5-1.2,1.2-1.2h21.6c0.7,0,1.2,0.5,1.2,1.2v0
		C24,16.3,23.5,16.8,22.8,16.8z"/>
</g>
</svg>
