<?xml version="1.0" encoding="utf-8"?>
<!-- Generator: Adobe Illustrator 19.0.0, SVG Export Plug-In . SVG Version: 6.00 Build 0)  -->
<svg version="1.1" id="Layer_1" xmlns="http://www.w3.org/2000/svg" xmlns:xlink="http://www.w3.org/1999/xlink" x="0px" y="0px"
	 viewBox="0 0 17.7 17.7" style="enable-background:new 0 0 17.7 17.7;" xml:space="preserve">
<style type="text/css">
	.st0{fill:#fff;}
</style>
<g id="XMLID_2_">
	<path id="XMLID_3_" class="st0" d="M17.3,2L2,17.3c-0.5,0.5-1.2,0.5-1.7,0l0,0c-0.5-0.5-0.5-1.2,0-1.7L15.6,0.4
		c0.5-0.5,1.2-0.5,1.7,0l0,0C17.8,0.8,17.8,1.6,17.3,2z"/>
	<path id="XMLID_4_" class="st0" d="M0.4,2l15.3,15.3c0.5,0.5,1.2,0.5,1.7,0v0c0.5-0.5,0.5-1.2,0-1.7L2,0.4c-0.5-0.5-1.2-0.5-1.7,0
		l0,0C-0.1,0.8-0.1,1.6,0.4,2z"/>
</g>
</svg>
