<svg id="Layer_1" data-name="Layer 1" xmlns="http://www.w3.org/2000/svg" viewBox="0 0 24 16.8"><defs><style>.cls-1{fill:#fff;}</style></defs><title>menu-open-color</title><g id="_Group_" data-name="&lt;Group&gt;"><path id="_Path_" data-name="&lt;Path&gt;" class="cls-1" d="M22.8,2.4H1.2A1.16,1.16,0,0,1,0,1.2H0A1.16,1.16,0,0,1,1.2,0H22.8A1.16,1.16,0,0,1,24,1.2h0A1.16,1.16,0,0,1,22.8,2.4Z"/><path id="_Path_2" data-name="&lt;Path&gt;" class="cls-1" d="M22.8,9.6H1.2A1.16,1.16,0,0,1,0,8.4H0A1.16,1.16,0,0,1,1.2,7.2H22.8A1.16,1.16,0,0,1,24,8.4h0A1.16,1.16,0,0,1,22.8,9.6Z"/><path id="_Path_3" data-name="&lt;Path&gt;" class="cls-1" d="M22.8,16.8H1.2A1.16,1.16,0,0,1,0,15.6H0a1.16,1.16,0,0,1,1.2-1.2H22.8A1.16,1.16,0,0,1,24,15.6h0A1.16,1.16,0,0,1,22.8,16.8Z"/></g></svg>
