<?xml version="1.0" encoding="utf-8"?>
<!-- Generator: Adobe Illustrator 19.0.0, SVG Export Plug-In . SVG Version: 6.00 Build 0)  -->
<svg version="1.1" id="Layer_1" xmlns="http://www.w3.org/2000/svg" xmlns:xlink="http://www.w3.org/1999/xlink" x="0px" y="0px"
	 viewBox="-369 62.5 254.9 160" style="enable-background:new -369 62.5 254.9 160;" xml:space="preserve">
<style type="text/css">
	.st0{fill:#FFFFFF;}
</style>
<g>
	<g>
		<g>
			<g>
				<g>
					<path class="st0" d="M-236.6,76.6h-9.2c-0.7,0-1.2-0.5-1.2-1.2s0.5-1.2,1.2-1.2h9.2c0.7,0,1.2,0.5,1.2,1.2
						S-235.9,76.6-236.6,76.6z"/>
				</g>
				<g>
					<path class="st0" d="M-236.6,77.1h-9.2c-1,0-1.7-0.7-1.7-1.7s0.7-1.7,1.7-1.7h9.2c1,0,1.7,0.7,1.7,1.7S-235.6,77.1-236.6,77.1z
						 M-245.8,74.7c-0.4,0-0.7,0.3-0.7,0.7s0.3,0.7,0.7,0.7h9.2c0.4,0,0.7-0.3,0.7-0.7s-0.3-0.7-0.7-0.7H-245.8z"/>
				</g>
			</g>
		</g>
		<g>
			<g>
				<path class="st0" d="M-282.1,138.2v58v11.4c0,6,4.8,10.8,10.8,10.8h60.4c6,0,10.8-4.8,10.8-10.8v-11.4v-76.4v-11.4V82.8v-5.4
					c0-6-4.8-10.8-10.8-10.8h-60.4c-6,0-10.8,4.8-10.8,10.8v5.4v44.2V138.2z M-202.8,93.1v101h-77.1v-101l0-1.2v-6.6h77.1v6.6
					L-202.8,93.1z M-279.9,77.5c0-4.7,3.7-8.4,8.4-8.4h60.4c4.7,0,8.4,3.7,8.4,8.4v5.4h-77.1V77.5z M-202.8,207.8
					c0,4.7-3.7,8.4-8.4,8.4h-60.4c-4.7,0-8.4-3.7-8.4-8.4v-11.4h77.1V207.8z"/>
			</g>
			<g>
				<path class="st0" d="M-211,218.8h-60.4c-6.2,0-11.3-5.1-11.3-11.3V77.4c0-6.2,5.1-11.3,11.3-11.3h60.4c6.2,0,11.3,5.1,11.3,11.3
					v130.1C-199.8,213.7-204.8,218.8-211,218.8z M-271.4,67.1c-5.7,0-10.3,4.6-10.3,10.3v130.1c0,5.7,4.6,10.3,10.3,10.3h60.4
					c5.7,0,10.3-4.6,10.3-10.3V77.4c0-5.7-4.6-10.3-10.3-10.3H-271.4z M-211.1,216.6h-60.4c-5,0-8.9-3.9-8.9-8.9v-11.9h78.1v11.9
					C-202.3,212.7-206.2,216.6-211.1,216.6z M-279.4,196.9v10.9c0,4.4,3.5,7.9,7.9,7.9h60.4c4.4,0,7.9-3.5,7.9-7.9v-10.9H-279.4z
					 M-202.3,194.5h-78.1V84.8h78.1V194.5z M-279.4,193.5h76.1V85.8h-76.1V193.5z M-202.3,83.4h-78.1v-5.9c0-5,3.9-8.9,8.9-8.9h60.4
					c5,0,8.9,3.9,8.9,8.9V83.4z M-279.4,82.4h76.1v-4.9c0-4.4-3.5-7.9-7.9-7.9h-60.4c-4.4,0-7.9,3.5-7.9,7.9V82.4z"/>
			</g>
		</g>
		<g>
			<g>
				<path class="st0" d="M-241.2,211.4c3.5,0,6.3-2.9,6.3-6.3c0-3.5-2.9-6.3-6.3-6.3s-6.3,2.9-6.3,6.3
					C-247.7,208.5-244.8,211.4-241.2,211.4z M-241.2,200.9c2.2,0,3.9,1.8,3.9,3.9s-1.8,3.9-3.9,3.9s-3.9-1.8-3.9-3.9
					S-243.5,200.9-241.2,200.9z"/>
			</g>
			<g>
				<path class="st0" d="M-241.2,211.9c-1.9,0-3.7-0.7-5-2.1c-1.2-1.3-1.9-3-1.8-4.8c0-3.8,3.1-6.8,6.8-6.8c3.8,0,6.8,3.1,6.8,6.8
					S-237.4,211.9-241.2,211.9z M-241.2,199.2c-3.2,0-5.8,2.7-5.8,5.8c-0.1,1.5,0.5,2.9,1.6,4c1.1,1.2,2.6,1.8,4.3,1.8
					c3.2,0,5.8-2.6,5.8-5.8C-235.4,201.9-238,199.2-241.2,199.2z M-241.2,209.3c-2.4,0-4.4-2-4.4-4.4c0-2.5,2-4.4,4.4-4.4
					c2.4,0,4.4,2,4.4,4.4S-238.8,209.3-241.2,209.3z M-241.2,201.4c-1.9,0-3.4,1.5-3.4,3.4c0,1.9,1.6,3.4,3.4,3.4
					c1.9,0,3.4-1.6,3.4-3.4S-239.3,201.4-241.2,201.4z"/>
			</g>
		</g>
	</g>
	<g id="XMLID_17_">
		<path id="XMLID_20_" class="st0" d="M-157.3,144.7c-1.8,0-3.3-1.5-3.3-3.3s1.5-3.3,3.3-3.3s3.3,1.5,3.3,3.3
			S-155.4,144.7-157.3,144.7z M-157.3,141c-0.2,0-0.4,0.2-0.4,0.4s0.2,0.4,0.4,0.4c0.2,0,0.4-0.2,0.4-0.4S-157,141-157.3,141z"/>
	</g>
	<g id="XMLID_23_">
		<g id="XMLID_24_">
			<path class="st0" d="M-296.2,99.3c-1.8,0-3.3-1.5-3.3-3.3c0-1.8,1.5-3.3,3.3-3.3c1.8,0,3.3,1.5,3.3,3.3
				C-292.9,97.8-294.3,99.3-296.2,99.3z M-296.2,95.6c-0.2,0-0.4,0.2-0.4,0.4c0,0.2,0.2,0.4,0.4,0.4s0.4-0.2,0.4-0.4
				C-295.8,95.8-295.9,95.6-296.2,95.6z"/>
		</g>
	</g>
	<g id="XMLID_21_">
		<g id="XMLID_22_">
			<path class="st0" d="M-185,108.4c-1.8,0-3.3-1.5-3.3-3.3c0-1.8,1.5-3.3,3.3-3.3s3.3,1.5,3.3,3.3
				C-181.7,106.9-183.1,108.4-185,108.4z M-185,104.7c-0.2,0-0.4,0.2-0.4,0.4c0,0.2,0.2,0.4,0.4,0.4s0.4-0.2,0.4-0.4
				C-184.6,104.9-184.7,104.7-185,104.7z"/>
		</g>
	</g>
	<g id="XMLID_25_">
		<g id="XMLID_26_">
			<path class="st0" d="M-303.3,175.9c-1.8,0-3.3-1.5-3.3-3.3c0-1.8,1.5-3.3,3.3-3.3c1.8,0,3.3,1.5,3.3,3.3
				C-300,174.4-301.4,175.9-303.3,175.9z M-303.3,172.2c-0.2,0-0.4,0.2-0.4,0.4c0,0.2,0.2,0.4,0.4,0.4c0.2,0,0.4-0.2,0.4-0.4
				C-302.9,172.4-303,172.2-303.3,172.2z"/>
		</g>
	</g>
	<g id="XMLID_1_">
		<g id="XMLID_10_">
			<path class="st0" d="M-180.8,171.5c-3.4,0-6.3-2.8-6.3-6.3c0-3.4,2.8-6.3,6.3-6.3s6.3,2.8,6.3,6.3S-177.3,171.5-180.8,171.5z
				 M-180.8,162.7c-1.4,0-2.6,1.1-2.6,2.6c0,1.4,1.1,2.6,2.6,2.6c1.4,0,2.6-1.1,2.6-2.6S-179.4,162.7-180.8,162.7z"/>
		</g>
	</g>
	<g id="XMLID_27_">
		<g id="XMLID_28_">
			<path class="st0" d="M-322.8,151.8c-3.4,0-6.3-2.8-6.3-6.3c0-3.4,2.8-6.3,6.3-6.3s6.3,2.8,6.3,6.3S-319.3,151.8-322.8,151.8z
				 M-322.8,143c-1.4,0-2.6,1.1-2.6,2.6c0,1.4,1.1,2.6,2.6,2.6c1.4,0,2.6-1.1,2.6-2.6S-321.4,143-322.8,143z"/>
		</g>
	</g>
	<g id="XMLID_29_">
		<g>
			<path class="st0" d="M-282.2,125.9c0-1.7,0-3.4,0-5.1c-0.1,1.3-1.3,2.3-2.6,2.3c-1.5,0-2.6-1.2-2.6-2.6c0-1.5,1.2-2.6,2.6-2.6
				c1.3,0,2.5,1,2.6,2.4c0-1.6,0.1-3.2,0.3-4.9c0-0.2,0.1-0.4,0.2-0.5c-0.9-0.5-2-0.8-3.1-0.8c-3.5,0-6.3,2.9-6.3,6.3
				c0,3.5,2.9,6.3,6.3,6.3c0.9,0,1.8-0.2,2.6-0.6C-282.1,126-282.2,126-282.2,125.9z"/>
		</g>
	</g>
	<g id="XMLID_31_">
		<g>
			<path class="st0" d="M-198.3,130.4c-0.7,0-1.3,0.1-1.9,0.3c0.4,0.5,0.5,1.2,0,1.9c-2,3,0.1,6.7-0.3,10c0.7,0.3,1.4,0.4,2.2,0.4
				c3.5,0,6.3-2.8,6.3-6.3S-194.8,130.4-198.3,130.4z M-198.3,139.4c-1.5,0-2.6-1.2-2.6-2.6c0-1.5,1.2-2.6,2.6-2.6
				c1.4,0,2.6,1.1,2.6,2.6S-196.9,139.4-198.3,139.4z"/>
		</g>
	</g>
	<g>
		<path class="st0" d="M-210.9,117.9h-60.6c-2.4,0-4.3-1.9-4.3-4.3V97.1c0-2.4,1.9-4.3,4.3-4.3h60.6c2.4,0,4.3,1.9,4.3,4.3v16.4
			C-206.5,115.9-208.5,117.9-210.9,117.9z M-271.5,95.8c-0.7,0-1.3,0.6-1.3,1.3v16.4c0,0.7,0.6,1.3,1.3,1.3h60.6
			c0.7,0,1.3-0.6,1.3-1.3V97.1c0-0.7-0.6-1.3-1.3-1.3H-271.5z"/>
	</g>
	<g>
		<path class="st0" d="M-212.1,112.2h-13.7V98.5h13.7V112.2z M-222.9,109.2h7.7v-7.7h-7.7V109.2z"/>
	</g>
	<g>
		<rect x="-269.1" y="98.5" class="st0" width="12.6" height="3"/>
	</g>
	<g>
		<rect x="-253.1" y="98.5" class="st0" width="5.7" height="3"/>
	</g>
	<g>
		<path class="st0" d="M-210.9,149.7h-60.6c-2.4,0-4.3-1.9-4.3-4.3V129c0-2.4,1.9-4.3,4.3-4.3h60.6c2.4,0,4.3,1.9,4.3,4.3v16.4
			C-206.5,147.8-208.5,149.7-210.9,149.7z M-271.5,127.6c-0.7,0-1.3,0.6-1.3,1.3v16.4c0,0.7,0.6,1.3,1.3,1.3h60.6
			c0.7,0,1.3-0.6,1.3-1.3V129c0-0.7-0.6-1.3-1.3-1.3H-271.5z"/>
	</g>
	<g>
		<path class="st0" d="M-212.1,144h-13.7v-13.7h13.7V144z M-222.9,141h7.7v-7.7h-7.7V141z"/>
	</g>
	<g>
		<rect x="-258.6" y="130.3" class="st0" width="12.6" height="3"/>
	</g>
	<g>
		<rect x="-269.1" y="130.3" class="st0" width="5.7" height="3"/>
	</g>
	<g>
		<path class="st0" d="M-210.9,181.9h-60.6c-2.4,0-4.3-1.9-4.3-4.3v-16.4c0-2.4,1.9-4.3,4.3-4.3h60.6c2.4,0,4.3,1.9,4.3,4.3v16.4
			C-206.5,179.9-208.5,181.9-210.9,181.9z M-271.5,159.8c-0.7,0-1.3,0.6-1.3,1.3v16.4c0,0.7,0.6,1.3,1.3,1.3h60.6
			c0.7,0,1.3-0.6,1.3-1.3v-16.4c0-0.7-0.6-1.3-1.3-1.3H-271.5z"/>
	</g>
	<g>
		<path class="st0" d="M-212.1,176.1h-13.7v-13.7h13.7V176.1z M-222.9,173.1h7.7v-7.7h-7.7V173.1z"/>
	</g>
	<g>
		<rect x="-269.1" y="162.5" class="st0" width="12.6" height="3"/>
	</g>
	<g>
		<rect x="-253.1" y="162.5" class="st0" width="5.7" height="3"/>
	</g>
</g>
</svg>
