<?xml version="1.0" encoding="utf-8"?>
<!-- Generator: Adobe Illustrator 19.0.0, SVG Export Plug-In . SVG Version: 6.00 Build 0)  -->
<svg version="1.1" fill="#fff" xmlns="http://www.w3.org/2000/svg" xmlns:xlink="http://www.w3.org/1999/xlink" x="0px" y="0px"
	 viewBox="-20 23.4 51.1 56" style="enable-background:new -20 23.4 51.1 56;" xml:space="preserve">
<g>
	<g>
		<g>
			<path d="M30.9,60.7c-0.4-1.1-1.2-1.9-2.3-2.3c-1.1-0.4-2.3-0.3-3.2,0.3l-9.5,5.7L14.6,65H7.8c-0.1,0-0.1,0-0.2-0.1
				c0,0,0-0.1,0-0.2c0,0,0.1-0.1,0.1-0.1l5.2-1.8c2-0.7,3.2-2.7,2.6-4.7c-0.3-1-1-1.9-1.9-2.4c-0.9-0.5-2-0.6-3-0.3l-5.3,1.8
				l-14,0.9c-0.9,0.1-1.8,0.5-2.4,1.1l-7.6,7.6c-1.5,1.5-1.6,3.8-0.3,5.3c0.3,0.4,1.8,1.8,4,3.9c1.3,1.2,2.5,2.4,3.1,3
				c0.2,0.2,0.4,0.3,0.6,0.3c0.2,0,0.4-0.1,0.6-0.2l4.2-3.5c0.9-0.7,2-1.1,3.1-1.1h14.3c0.5,0,1-0.1,1.5-0.3l6.8-2.9c0,0,0,0,0.1,0
				l0.3-0.2c0,0,0,0,0.1,0l9.6-5.8C30.8,64.4,31.5,62.4,30.9,60.7L30.9,60.7z M28.3,63.8l-9.6,5.7l-0.3,0.1l-6.7,2.9
				c-0.3,0.1-0.5,0.2-0.8,0.2H-3.5c-1.6,0-3.1,0.6-4.3,1.6l-3.6,3c-0.7-0.6-1.6-1.5-2.5-2.4c-1.6-1.5-3.6-3.4-3.9-3.8
				c-0.7-0.8-0.6-2,0.2-2.8l7.6-7.6c0.3-0.3,0.8-0.5,1.3-0.6l14.1-0.9c0.1,0,0.2,0,0.2,0l5.5-1.8c0.2-0.1,0.4-0.1,0.6-0.1
				c0.3,0,0.6,0.1,0.9,0.2c0.5,0.3,0.8,0.7,1,1.2c0.3,1-0.4,2.1-1.4,2.5c0,0,0,0,0,0l-5.2,1.9c-0.5,0.2-0.9,0.5-1.1,1
				c-0.3,0.6-0.3,1.3,0.1,1.9c0.4,0.6,1,0.9,1.7,0.9h7c0.1,0,0.2,0,0.4-0.1l1.5-0.7c0,0,0.1,0,0.1-0.1l9.5-5.7
				c0.5-0.3,1.1-0.4,1.7-0.2c0.6,0.2,1,0.6,1.2,1.2C29.5,62.2,29.1,63.3,28.3,63.8L28.3,63.8z"/>
			<path d="M12.8,52.3c8,0,14.5-6.5,14.5-14.5s-6.5-14.5-14.5-14.5S-1.6,29.8-1.6,37.8S4.9,52.3,12.8,52.3z M12.8,25.2
				c7,0,12.6,5.7,12.6,12.6s-5.7,12.6-12.6,12.6S0.2,44.8,0.2,37.8S5.9,25.2,12.8,25.2z"/>
			<path d="M7.9,41.2c0-0.5-0.4-0.9-0.9-0.9s-0.9,0.4-0.9,0.9c0,1.8,1.6,3.2,3.9,3.9v0.5c0,0.5,0.4,0.9,0.9,0.9
				c0.5,0,0.9-0.4,0.9-0.9v-0.1c0.3,0,0.7,0,1,0c0.4,0,0.7,0,1,0v0.1c0,0.5,0.4,0.9,0.9,0.9s0.9-0.4,0.9-0.9v-0.5
				c2.3-0.7,3.9-2.1,3.9-3.9c0-1.8-1.6-3.2-3.9-3.9v-4.9c1.3,0.5,2.1,1.3,2.1,2c0,0.5,0.4,0.9,0.9,0.9s0.9-0.4,0.9-0.9
				c0-1.8-1.6-3.2-3.9-3.9v-0.5c0-0.5-0.4-0.9-0.9-0.9s-0.9,0.4-0.9,0.9v0.1c-0.3,0-0.7,0-1,0c-0.4,0-0.7,0-1,0v-0.1
				c0-0.5-0.4-0.9-0.9-0.9c-0.5,0-0.9,0.4-0.9,0.9v0.5c-2.3,0.7-3.9,2.1-3.9,3.9s1.6,3.2,3.9,3.9v4.9C8.7,42.7,7.9,41.9,7.9,41.2z
				 M15.7,39.2c1.3,0.5,2.1,1.3,2.1,2c0,0.7-0.8,1.5-2.1,2V39.2L15.7,39.2z M11.8,32c0.3,0,0.7-0.1,1-0.1s0.7,0,1,0.1V37
				c-0.3,0-0.7,0-1,0c-0.4,0-0.7,0-1-0.1V32z M11.8,38.7c0.3,0,0.7,0,1,0c0.4,0,0.7,0,1,0.1v4.8c-0.3,0-0.7,0.1-1,0.1s-0.7,0-1-0.1
				V38.7z M7.9,34.4c0-0.7,0.8-1.5,2.1-2v4C8.7,35.9,7.9,35.2,7.9,34.4z"/>
		</g>
	</g>
</g>
</svg>
