<?xml version="1.0" encoding="utf-8"?>
<!-- Generator: Adobe Illustrator 21.1.0, SVG Export Plug-In . SVG Version: 6.00 Build 0)  -->
<svg version="1.1" id="Layer_1" xmlns="http://www.w3.org/2000/svg" xmlns:xlink="http://www.w3.org/1999/xlink" x="0px" y="0px"
	 viewBox="0 0 38.2 38" style="enable-background:new 0 0 38.2 38;" xml:space="preserve">
<style type="text/css">
	.st0{fill:#EC73B1;}
</style>
<g>
	<ellipse class="st0" cx="30.7" cy="7.8" rx="0.9" ry="0.9"/>
	<path class="st0" d="M38,4.4c-0.6-1.9-2.4-3.1-4.2-2.9l-0.1-0.2c-0.1-0.5-0.5-0.8-0.9-1.1c-0.4-0.2-0.9-0.3-1.4-0.1L12.8,5.5
		C12.3,5.6,12,6,11.7,6.4c-0.2,0.4-0.3,0.9-0.1,1.4V8L1.5,11.9c-1.1,0.4-1.7,1.5-1.4,2.7l0.6,2c0.3,0.9,1.1,1.5,2.1,1.5
		c0.2,0,0.4,0,0.6-0.1l10.7-2.2l0,0c0.2,0.8,1,1.3,1.7,1.3c0.2,0,0.3,0,0.5-0.1l1.5-0.4c-1.2,0.5-2,1.7-2,3.1c0,0.6,0.2,1.2,0.5,1.7
		l-5.6,15.5c-0.2,0.5,0,1,0.5,1.1c0.1,0,0.2,0,0.3,0c0.4,0,0.7-0.2,0.8-0.6l2.8-7.6h3.3V37c0,0.5,0.4,0.9,0.9,0.9s0.9-0.4,0.9-0.9
		v-7.2h3.3l2.8,7.6c0.1,0.4,0.5,0.6,0.8,0.6c0.1,0,0.2,0,0.3,0c0.5-0.2,0.7-0.7,0.5-1.1l-5.7-15.6c0.3-0.5,0.5-1.1,0.5-1.7
		c0-1.9-1.5-3.4-3.4-3.4c-0.2,0-0.4,0-0.6,0l16.2-4.7c1-0.3,1.5-1.3,1.2-2.3l0,0C37.8,8.2,38.6,6.3,38,4.4z M2.9,16.3L2.9,16.3
		c-0.2,0-0.5,0-0.5-0.2l-0.6-2c0-0.2,0-0.4,0.2-0.5l10.1-3.9l1.3,4.4L2.9,16.3z M20.6,22.7l2,5.5H20v-5.3
		C20.2,22.9,20.4,22.8,20.6,22.7z M18.2,28.2h-2.6l2-5.5c0.2,0.1,0.4,0.2,0.6,0.2V28.2L18.2,28.2z M34.4,9.8l-18.6,5.5l0,0l-2.4-8
		l0,0l14.8-4.4L29,5.6c0.1,0.4,0.5,0.7,0.8,0.7c0.1,0,0.2,0,0.2,0c0.5-0.1,0.7-0.6,0.6-1.1l-0.8-2.7l2.1-0.6l0,0l0,0V2l0,0L34.4,9.8
		C34.4,9.7,34.4,9.8,34.4,9.8z M36.2,6.6c-0.1,0.3-0.4,0.5-0.6,0.7l-1.3-4.2c0.9,0.1,1.7,0.7,2,1.7C36.5,5.5,36.5,6.1,36.2,6.6z"/>
</g>
</svg>
