<?xml version="1.0" encoding="utf-8"?>
<!-- Generator: Adobe Illustrator 21.1.0, SVG Export Plug-In . SVG Version: 6.00 Build 0)  -->
<svg version="1.1" id="Layer_1" xmlns="http://www.w3.org/2000/svg" xmlns:xlink="http://www.w3.org/1999/xlink" x="0px" y="0px"
	 viewBox="0 0 82 82" style="enable-background:new 0 0 82 82;" xml:space="preserve">
<style type="text/css">
	.st0{fill:none;}
</style>
<g>
	<path class="st0" d="M48.5,60.7l-4.3-11.8c-0.4,0.2-0.8,0.4-1.3,0.5v11.3H48.5z"/>
	<path class="st0" d="M33.4,60.7h5.7V49.4c-0.5-0.1-0.9-0.3-1.3-0.5L33.4,60.7z"/>
	<path class="st0" d="M4.4,29.4c-0.4,0.1-0.7,0.6-0.5,1l1.3,4.3c0.1,0.4,0.6,0.7,1,0.5l0.1,0l22.5-4.8L26,21.1L4.4,29.4z"/>
	<path class="st0" d="M73.6,7.1l2.7,8.9c0.5-0.4,0.9-0.9,1.3-1.5c0.6-1.2,0.8-2.5,0.4-3.8C77.4,8.7,75.6,7.3,73.6,7.1z"/>
	<path class="st0" d="M68.8,4.2L68.8,4.2l-0.1-0.3c0,0-0.1-0.1-0.1-0.1c0,0,0,0,0,0l-4.5,1.3l1.7,5.8c0.3,1-0.3,2.1-1.3,2.4
		c-0.2,0.1-0.4,0.1-0.5,0.1c-0.8,0-1.6-0.5-1.8-1.4l-1.7-5.7l-31.8,9.5c0,0-0.1,0.1-0.1,0.1l5.1,17.2c0,0.1,0.1,0.1,0.1,0.1
		l39.9-11.9c0.1,0,0.1-0.1,0.1-0.1L68.8,4.2z M65.8,19c-1.1,0-2-0.9-2-2c0-1.1,0.9-2,2-2c1.1,0,2,0.9,2,2C67.7,18.1,66.8,19,65.8,19
		z"/>
	<ellipse cx="65.8" cy="17" rx="2" ry="2"/>
	<path d="M81.6,9.6c-1.2-4-5.1-6.6-9.1-6.3l-0.2-0.5c-0.3-1-1-1.8-1.9-2.3c-0.9-0.5-2-0.6-3-0.3l-40,11.9c-1,0.3-1.8,1-2.3,1.9
		c-0.5,0.9-0.6,2-0.3,3l0.1,0.4L3.2,25.8c-2.4,0.8-3.7,3.3-3,5.7l1.3,4.3c0.6,2,2.4,3.3,4.4,3.3c0.4,0,0.8-0.1,1.2-0.2L30,34.1
		l0,0.1c0.5,1.7,2.1,2.8,3.7,2.8c0.4,0,0.7-0.1,1.1-0.2l3.2-0.9c-2.5,1.1-4.3,3.7-4.3,6.6c0,1.3,0.4,2.6,1,3.6L22.6,79.4
		c-0.4,1,0.1,2.1,1.1,2.4c0.2,0.1,0.4,0.1,0.7,0.1c0.8,0,1.5-0.5,1.8-1.2l5.9-16.2h7.1v15.5c0,1.1,0.9,1.9,1.9,1.9
		c1,0,1.9-0.9,1.9-1.9V64.6h7l5.9,16.2c0.3,0.8,1,1.2,1.8,1.2c0.2,0,0.4,0,0.7-0.1c1-0.4,1.5-1.5,1.1-2.4L47.2,46.1
		c0.6-1.1,1-2.3,1-3.7c0-4-3.2-7.2-7.2-7.2c-0.4,0-0.8,0-1.2,0.1l35-10.4c2.1-0.6,3.2-2.8,2.6-4.9l0-0.1C81,17.9,82.8,13.7,81.6,9.6
		z M6.2,35.2l-0.1,0c-0.4,0.1-0.9-0.1-1-0.5l-1.3-4.3c-0.1-0.4,0.1-0.9,0.5-1L26,21.1l2.8,9.4L6.2,35.2z M44.2,48.9l4.3,11.8h-5.6
		V49.4C43.3,49.3,43.8,49.1,44.2,48.9z M39.1,60.7h-5.7l4.3-11.9c0.4,0.2,0.9,0.4,1.3,0.5V60.7z M73.7,21.2L33.8,33.1
		c-0.1,0-0.1,0-0.1-0.1l-5.1-17.2c0,0,0-0.1,0.1-0.1l31.8-9.5l1.7,5.7c0.2,0.8,1,1.4,1.8,1.4c0.2,0,0.4,0,0.5-0.1
		c1-0.3,1.6-1.3,1.3-2.4l-1.7-5.8l4.5-1.3c0,0,0,0,0,0c0,0,0.1,0,0.1,0.1l0.1,0.3v0l5,16.9C73.8,21.1,73.8,21.2,73.7,21.2z
		 M77.6,14.5c-0.3,0.6-0.8,1.1-1.3,1.5l-2.7-8.9c2,0.2,3.7,1.6,4.3,3.6C78.4,12,78.2,13.3,77.6,14.5z"/>
</g>
</svg>
