<svg
        xmlns="http://www.w3.org/2000/svg"
        xmlns:xlink="http://www.w3.org/1999/xlink"
        width="38px" height="38px">
    <path fill-rule="evenodd"  fill="#97a8bd"
          d="M26.125,33.249 C26.125,34.556 25.056,35.624 23.750,35.624 L4.750,35.624 C3.444,35.624 2.375,34.556 2.375,33.249 L2.375,14.250 C2.375,12.944 3.444,11.875 4.750,11.875 L7.125,11.875 L7.125,9.500 L4.750,9.500 C2.137,9.500 -0.000,11.638 -0.000,14.250 L-0.000,33.249 C-0.000,35.862 2.137,38.000 4.750,38.000 L23.750,38.000 C26.363,38.000 28.500,35.862 28.500,33.249 L28.500,30.875 L26.125,30.875 L26.125,33.249 ZM33.250,0.000 L14.250,0.000 C11.638,0.000 9.500,2.137 9.500,4.749 L9.500,23.750 C9.500,26.362 11.638,28.500 14.250,28.500 L33.250,28.500 C35.863,28.500 38.000,26.362 38.000,23.750 L38.000,4.749 C38.000,2.137 35.863,0.000 33.250,0.000 ZM35.625,23.750 C35.625,25.056 34.556,26.125 33.250,26.125 L14.250,26.125 C12.944,26.125 11.875,25.056 11.875,23.750 L11.875,4.749 C11.875,3.443 12.944,2.375 14.250,2.375 L33.250,2.375 C34.556,2.375 35.625,3.443 35.625,4.749 L35.625,23.750 Z"/>
</svg>