<?xml version="1.0" encoding="utf-8"?>
<!-- Generator: Adobe Illustrator 21.1.0, SVG Export Plug-In . SVG Version: 6.00 Build 0)  -->
<svg version="1.1" id="Layer_1" xmlns="http://www.w3.org/2000/svg" xmlns:xlink="http://www.w3.org/1999/xlink" x="0px" y="0px"
	 viewBox="0 0 67 67" style="enable-background:new 0 0 67 67;" xml:space="preserve">
<style type="text/css">
	.st0{fill:#6AD3DB;}
	.st1{fill:#FFFFFF;}
</style>
<g>
	<circle class="st0" cx="33.5" cy="33.5" r="33.5"/>
	<path class="st1" d="M51.5,17h-5.4v-0.9c0-1.5-1.2-2.7-2.7-2.7s-2.7,1.2-2.7,2.7V17H26.3v-0.9c0-1.5-1.2-2.7-2.7-2.7
		s-2.7,1.2-2.7,2.7V17h-5.6c-0.5,0-0.9,0.4-0.9,0.9v32.8c0,0.5,0.4,0.9,0.9,0.9h36.4c0.5,0,0.9-0.3,0.9-0.7V18.3
		C52.6,17.4,52.4,17,51.5,17z M16.2,18.8h4.7v0.9c0,0.2,0,0.5,0.1,0.7c0.3,1.2,1.4,2.1,2.6,2.1l0,0l0,0c0.5,0,0.8-0.4,0.8-0.8v-0.1
		c0-0.5-0.4-0.8-0.8-0.8c-0.5,0-0.9-0.4-0.9-0.9v-1.8v-1.8c0-0.5,0.3-0.9,0.7-0.9c0.6-0.1,1.1,0.3,1.1,0.9v1.8V19h1.8h14.5v0.8
		c0,1.4,1,2.6,2.3,2.8h0.4c0.5,0,0.9-0.4,0.9-0.9l0,0c0-0.5-0.4-0.9-0.9-0.9s-0.9-0.4-0.9-0.9V18l0,0v-1.8c0-0.5,0.3-0.9,0.7-0.9
		c0.6-0.1,1.1,0.3,1.1,0.9V18v0.9h1.8h4.7v7.3H16.2V18.8z M16.2,49.8V48v-1.8V27.9h34.6v21.9H16.2z"/>
	<circle class="st1" cx="43.4" cy="38.2" r="3.4"/>
	<circle class="st1" cx="23.5" cy="38.2" r="3.4"/>
</g>
</svg>
