<svg id="Layer_1" data-name="Layer 1" xmlns="http://www.w3.org/2000/svg" viewBox="0 0 172 133.43"><defs><style>.cls-1{fill:#ebebeb;}</style></defs><title>quote</title><path class="cls-1" d="M-79.33-8.67a76,76,0,0,0,36-6.92,60.37,60.37,0,0,0,19-13C-12.65-40.71-9.71-55-7.67-65.59c1.57-8.16,1.52-13.05,1.33-35.33-0.08-9.8-.25-30.36-0.33-40.74L-82-142v77.08h28.67c0,3-.44,12-7,19.33A30,30,0,0,1-71.67-38,36.07,36.07,0,0,1-86-35.26Z" transform="translate(86 142)"/><path class="cls-1" d="M12.91-8.67a76,76,0,0,0,36-6.92,60.37,60.37,0,0,0,19-13C79.59-40.71,82.53-55,84.57-65.59c1.57-8.16,1.52-13.05,1.33-35.33-0.08-9.8-.25-30.36-0.33-40.74L10.24-142v77.08H38.91c0,3-.44,12-7,19.33A30,30,0,0,1,20.57-38,36.07,36.07,0,0,1,6.24-35.26Z" transform="translate(86 142)"/></svg>