<?xml version="1.0" encoding="utf-8"?>
<!-- Generator: Adobe Illustrator 21.1.0, SVG Export Plug-In . SVG Version: 6.00 Build 0)  -->
<svg version="1.1" id="Capa_1" xmlns="http://www.w3.org/2000/svg" xmlns:xlink="http://www.w3.org/1999/xlink" x="0px" y="0px"
	 viewBox="0 0 56 56" style="enable-background:new 0 0 56 56;" xml:space="preserve">
<g transform="translate(0 -1)">
	<g>
		<g>
			<path d="M11.2,15c-4.1,0-7.5,3.3-7.5,7.5c0,4.1,3.3,7.5,7.5,7.5c4.1,0,7.5-3.3,7.5-7.5S15.3,15,11.2,15z M11.2,28.1
				c-3.1,0-5.6-2.5-5.6-5.6c0-3.1,2.5-5.6,5.6-5.6c3.1,0,5.6,2.5,5.6,5.6S14.3,28.1,11.2,28.1z"/>
			<path d="M13.4,23.5c-0.3-0.1-0.7,0-0.9,0.2c-0.7,0.7-1.9,0.7-2.6,0c-0.4-0.4-1-0.4-1.3,0c-0.4,0.4-0.4,1,0,1.3
				c0.7,0.7,1.6,1.1,2.6,1.1c1,0,1.9-0.4,2.6-1.1c0.2-0.2,0.3-0.6,0.2-0.9C14,23.9,13.7,23.6,13.4,23.5z"/>
			<path d="M9,21.5c0.2,0.1,0.5,0.1,0.7,0c0.1,0,0.2-0.1,0.3-0.2c0.2-0.2,0.3-0.4,0.3-0.7c0-0.1,0-0.2-0.1-0.4
				c-0.1-0.2-0.3-0.4-0.5-0.5c-0.2-0.1-0.5-0.1-0.7,0c-0.1,0-0.2,0.1-0.3,0.2c-0.1,0.1-0.2,0.2-0.2,0.3c0,0.1-0.1,0.2-0.1,0.4
				c0,0.2,0.1,0.5,0.3,0.7C8.8,21.3,8.9,21.4,9,21.5z"/>
			<path d="M12.7,21.5c0.2,0.1,0.5,0.1,0.7,0c0.1,0,0.2-0.1,0.3-0.2c0.2-0.2,0.3-0.4,0.3-0.7c0-0.1,0-0.2-0.1-0.4
				c-0.1-0.2-0.3-0.4-0.5-0.5c-0.2-0.1-0.5-0.1-0.7,0c-0.1,0-0.2,0.1-0.3,0.2c-0.1,0.1-0.2,0.2-0.2,0.3c0,0.1-0.1,0.2-0.1,0.4
				c0,0.2,0.1,0.5,0.3,0.7C12.5,21.3,12.6,21.4,12.7,21.5z"/>
			<path d="M28,15c-4.1,0-7.5,3.3-7.5,7.5c0,4.1,3.3,7.5,7.5,7.5c4.1,0,7.5-3.3,7.5-7.5S32.1,15,28,15z M28,28.1
				c-3.1,0-5.6-2.5-5.6-5.6c0-3.1,2.5-5.6,5.6-5.6c3.1,0,5.6,2.5,5.6,5.6S31.1,28.1,28,28.1z"/>
			<path d="M25.8,21.5c0.2,0.1,0.5,0.1,0.7,0c0.1,0,0.2-0.1,0.3-0.2c0.2-0.2,0.3-0.4,0.3-0.7c0-0.1,0-0.2-0.1-0.4
				c-0.1-0.2-0.3-0.4-0.5-0.5c-0.2-0.1-0.5-0.1-0.7,0c-0.1,0-0.2,0.1-0.3,0.2c-0.1,0.1-0.2,0.2-0.2,0.3c0,0.1-0.1,0.2-0.1,0.4
				c0,0.2,0.1,0.5,0.3,0.7C25.6,21.3,25.7,21.4,25.8,21.5z"/>
			<path d="M30.2,19.7c-0.2-0.1-0.5-0.1-0.7,0c-0.1,0-0.2,0.1-0.3,0.2c-0.1,0.1-0.2,0.2-0.2,0.3c0,0.1-0.1,0.2-0.1,0.4
				c0,0.2,0.1,0.5,0.3,0.7c0.1,0.1,0.2,0.1,0.3,0.2c0.2,0.1,0.5,0.1,0.7,0c0.1,0,0.2-0.1,0.3-0.2c0.2-0.2,0.3-0.4,0.3-0.7
				c0-0.1,0-0.2-0.1-0.4C30.6,20,30.5,19.8,30.2,19.7z"/>
			<path d="M44.8,15c-4.1,0-7.5,3.3-7.5,7.5c0,4.1,3.3,7.5,7.5,7.5c4.1,0,7.5-3.3,7.5-7.5S48.9,15,44.8,15z M44.8,28.1
				c-3.1,0-5.6-2.5-5.6-5.6c0-3.1,2.5-5.6,5.6-5.6c3.1,0,5.6,2.5,5.6,5.6S47.9,28.1,44.8,28.1z"/>
			<path d="M42.2,24.5c-0.4,0.4-0.4,1,0,1.3c0.4,0.4,1,0.4,1.3,0c0.7-0.7,1.9-0.7,2.6,0c0.4,0.4,1,0.4,1.3,0s0.4-1,0-1.3
				C46,23,43.6,23,42.2,24.5z"/>
			<path d="M42.6,21.5c0.2,0.1,0.5,0.1,0.7,0c0.1,0,0.2-0.1,0.3-0.2c0.2-0.2,0.3-0.4,0.3-0.7c0-0.1,0-0.2-0.1-0.4
				c-0.1-0.2-0.3-0.4-0.5-0.5c-0.2-0.1-0.5-0.1-0.7,0c-0.1,0-0.2,0.1-0.3,0.2c-0.1,0.1-0.2,0.2-0.2,0.3c0,0.1-0.1,0.2-0.1,0.4
				c0,0.2,0.1,0.5,0.3,0.7C42.4,21.3,42.5,21.4,42.6,21.5z"/>
			<path d="M46.3,21.5c0.2,0.1,0.5,0.1,0.7,0c0.1,0,0.2-0.1,0.3-0.2c0.2-0.2,0.3-0.4,0.3-0.7c0-0.1,0-0.2-0.1-0.4
				c-0.1-0.2-0.3-0.4-0.5-0.5c-0.2-0.1-0.5-0.1-0.7,0c-0.1,0-0.2,0.1-0.3,0.2c-0.1,0.1-0.2,0.2-0.2,0.3c0,0.1-0.1,0.2-0.1,0.4
				c0,0.2,0.1,0.5,0.3,0.7C46.1,21.3,46.2,21.4,46.3,21.5z"/>
			<path d="M29.9,23.4h-3.7c-0.5,0-0.9,0.4-0.9,0.9c0,0.5,0.4,0.9,0.9,0.9h3.7c0.5,0,0.9-0.4,0.9-0.9C30.8,23.8,30.4,23.4,29.9,23.4
				z"/>
			<path d="M51.3,1H4.7C2.1,1,0,3,0,5.5v36.7c0,2.5,2.1,4.5,4.7,4.5h14.9v4.7h-3.7c-2.1,0-3.7,1.7-3.7,3.7v0.9
				c0,0.2,0.1,0.5,0.3,0.7c0.2,0.2,0.4,0.3,0.7,0.3h29.9c0.2,0,0.5-0.1,0.7-0.3c0.2-0.2,0.3-0.4,0.3-0.7v-0.9c0-2.1-1.7-3.7-3.7-3.7
				h-3.7v-4.7h14.9c2.5,0,4.6-2,4.7-4.5V5.5C56,3,53.9,1,51.3,1z M40.1,53.3c1,0,1.9,0.8,1.9,1.9H14c0-1,0.8-1.9,1.9-1.9H40.1z
				 M21.5,51.4v-4.7h13.1v4.7H21.5z M54.1,42.2c0,1.5-1.3,2.7-2.8,2.6H4.7c-1.5,0-2.8-1.1-2.8-2.6v-3.9h52.3V42.2z M54.1,36.5H1.9
				v-31c0-1.5,1.3-2.7,2.8-2.6h46.7c1.5,0,2.8,1.1,2.8,2.6V36.5z"/>
		</g>
	</g>
</g>
</svg>
