<?xml version="1.0" encoding="utf-8"?>
<!-- Generator: Adobe Illustrator 19.0.0, SVG Export Plug-In . SVG Version: 6.00 Build 0)  -->
<svg version="1.1" fill="#fff" xmlns="http://www.w3.org/2000/svg" xmlns:xlink="http://www.w3.org/1999/xlink" x="0px" y="0px"
	 viewBox="-25.4 23.4 61.9 56" style="enable-background:new -25.4 23.4 61.9 56;" xml:space="preserve">
<style type="text/css">
	.st0{fill:none;}
</style>
<g>
	<polygon class="st0" points="7.9,71.1 16.4,62.9 17.2,57.9 8.7,66.1 	"/>
	<path class="st0" d="M21.5,46.3c0.9-0.9,0.9-2.4,0-3.3c-0.4-0.5-1-0.7-1.7-0.7c-0.6,0-1.2,0.2-1.7,0.7c-0.9,0.9-0.9,2.4,0,3.3
		C19,47.2,20.6,47.2,21.5,46.3z"/>
	<path class="st0" d="M-1.2,66.2c-0.2,0.2-0.4,0.3-0.7,0.3s-0.5-0.1-0.7-0.3c-0.4-0.4-0.4-1,0-1.4l4.1-4l-1-1
		c-2,0.4-10,2.5-12.8,8.7l5.3-1.7c0.4-0.1,0.8,0,1.1,0.3s0.2,0.8,0,1.1l-4.8,6.6l4.7-2.1c0.3-0.1,0.6-0.1,0.9,0
		c0.3,0.2,0.4,0.5,0.4,0.8l0,3.3c1.9-1,5.7-4.1,9.1-13.3l-1.5-1.5L-1.2,66.2z"/>
	<polygon class="st0" points="6.3,47 1.2,47.7 -7.4,55.9 -2.3,55.3 	"/>
	<path class="st0" d="M-0.4,56.1L3,59.5l10.2-9.7c0.4-0.4,1-0.4,1.4,0c0.4,0.4,0.4,1,0,1.4L4.4,60.9l3.4,3.4l18.6-17.9
		c0,0,4.2-4.2,4.6-12.3c-8.4,0.2-12.6,4.2-12.7,4.2L-0.4,56.1z M23,41.7c1.7,1.7,1.6,4.4,0,6c-0.8,0.8-1.9,1.2-3.1,1.2
		c-1.2,0-2.3-0.4-3.1-1.3c-1.7-1.7-1.6-4.4,0-6c0.8-0.8,1.9-1.2,3.1-1.2C21.1,40.4,22.2,40.8,23,41.7z"/>
	<path d="M32,32.1h-0.3c-9.7,0-14.6,4.6-14.8,4.8l-8.2,7.9l-8.1,1c-0.2,0-0.4,0.1-0.5,0.3l-10.9,10.4c-0.3,0.3-0.4,0.7-0.2,1.1
		c0.1,0.3,0.5,0.5,0.9,0.5c0,0,0.1,0,0.1,0l8-1l1.1,1.1c-3.6,1-11.7,3.9-13.8,11.7c0,0.4,0,0.7,0.3,1s0.6,0.3,1,0.2l4.3-1.4
		l-5.3,7.2c-0.2,0.3-0.2,0.8,0,1.2c0.3,0.3,0.8,0.4,1.2,0.2l6.7-3.1l0,3.2c0,0.3,0.1,0.5,0.3,0.7c0.1,0.1,0.4,0.2,0.6,0.2
		c0,0,0.1,0,0,0c0.3,0,6.5-1,11.5-14.1L6.6,66l-1.2,7.7c0,0.4,0.1,0.8,0.5,1c0.1,0,0.3,0.1,0.4,0.1c0.2,0,0.5-0.1,0.7-0.3L18,64
		c0.1-0.1,0.2-0.3,0.3-0.5l1.2-7.9l8.2-7.9c0.2-0.2,5.1-5.1,5.2-14.7c0-0.2-0.1-0.5-0.3-0.7C32.5,32.1,32.2,32.1,32,32.1z M1.2,47.7
		L6.3,47l-8.6,8.2l-5.1,0.6L1.2,47.7z M-4.7,77l0-3.3c0-0.3-0.1-0.6-0.4-0.8c-0.3-0.1-0.6-0.2-0.9,0l-4.7,2.1l4.8-6.6
		c0.2-0.3,0.2-0.8,0-1.1s-0.7-0.5-1.1-0.3l-5.3,1.7c2.8-6.2,10.8-8.3,12.8-8.7l1,1l-4.1,4c-0.4,0.3-0.4,1,0,1.4
		c0.2,0.2,0.4,0.3,0.7,0.3s0.5-0.1,0.7-0.3l4.1-3.9l1.5,1.5C1.1,72.9-2.8,76-4.7,77z M16.4,62.9l-8.5,8.2l0.8-5l8.5-8.2L16.4,62.9z
		 M26.3,46.3L7.7,64.2l-3.4-3.4l10.2-9.8c0.4-0.3,0.4-1,0-1.4c-0.3-0.4-1-0.4-1.4,0L3,59.5l-3.4-3.4l18.6-17.9c0,0,4.3-4,12.7-4.2
		C30.5,42.1,26.4,46.3,26.3,46.3z"/>
	<path d="M16.7,47.7c0.8,0.8,1.9,1.3,3.1,1.3c1.1,0,2.2-0.4,3.1-1.2c1.7-1.7,1.7-4.3,0-6c-0.8-0.8-1.9-1.3-3.1-1.3
		c-1.2,0-2.2,0.4-3.1,1.2C15.1,43.3,15,46,16.7,47.7z M18.2,43c0.4-0.4,1-0.7,1.7-0.7c0.6,0,1.2,0.2,1.7,0.7c0.9,0.9,0.9,2.4,0,3.3
		c-0.9,0.9-2.5,0.8-3.4,0C17.2,45.4,17.2,43.9,18.2,43z"/>
	<ellipse cx="-2.4" cy="25.1" rx="1.8" ry="1.8"/>
	<ellipse cx="-23.6" cy="48" rx="1.8" ry="1.8"/>
	<ellipse cx="34.8" cy="71.4" rx="1.8" ry="1.8"/>
</g>
</svg>
