<?xml version="1.0" encoding="utf-8"?>
<!-- Generator: Adobe Illustrator 19.0.0, SVG Export Plug-In . SVG Version: 6.00 Build 0)  -->
<svg version="1.1" fill="#fff" xmlns="http://www.w3.org/2000/svg" xmlns:xlink="http://www.w3.org/1999/xlink" x="0px" y="0px"
	 viewBox="-115 42.7 52 56" style="enable-background:new -115 42.7 52 56;" xml:space="preserve">
<g>
	<path d="M-100.4,66.3c-1.2,0-2.3-0.2-3.3-0.5c-1-0.3-1.9-0.8-2.7-1.3c-0.8-0.6-1.4-1.2-1.8-2c-0.4-0.8-0.7-1.7-0.7-2.6v-0.1
		c0-0.7,0.1-1.3,0.4-1.9c0.3-0.6,0.6-1.1,1.1-1.6c0.4-0.5,1-0.9,1.6-1.3c0.6-0.4,1.3-0.7,2-0.9c-0.6-0.2-1.1-0.5-1.6-0.8
		c-0.5-0.3-1-0.7-1.4-1.2c-0.4-0.4-0.7-0.9-0.9-1.5c-0.2-0.6-0.4-1.2-0.4-1.8v-0.1c0-0.9,0.2-1.7,0.7-2.4c0.4-0.7,1-1.4,1.7-1.9
		c0.7-0.5,1.5-0.9,2.5-1.2c0.9-0.3,1.9-0.4,2.9-0.4c1,0,1.9,0.1,2.9,0.4c0.9,0.3,1.7,0.7,2.5,1.2c0.7,0.5,1.3,1.1,1.7,1.9
		c0.4,0.7,0.7,1.5,0.7,2.4v0.1c0,0.7-0.1,1.3-0.4,1.8c-0.2,0.6-0.6,1-0.9,1.5c-0.4,0.4-0.8,0.8-1.4,1.2c-0.5,0.3-1,0.6-1.6,0.8
		c0.7,0.2,1.4,0.5,2,0.9c0.6,0.4,1.2,0.8,1.6,1.3c0.4,0.5,0.8,1,1.1,1.6c0.3,0.6,0.4,1.2,0.4,1.9v0.1c0,1-0.2,1.8-0.7,2.6
		c-0.4,0.8-1,1.5-1.8,2c-0.8,0.6-1.7,1-2.7,1.3C-98.1,66.1-99.2,66.3-100.4,66.3z M-100.4,64.8c1,0,2-0.1,2.8-0.4
		c0.8-0.3,1.5-0.6,2.1-1.1c0.6-0.4,1-1,1.3-1.5c0.3-0.6,0.5-1.2,0.5-1.8v-0.1c0-0.7-0.2-1.4-0.5-2c-0.3-0.6-0.8-1.1-1.4-1.5
		c-0.6-0.4-1.3-0.8-2.1-1c-0.8-0.2-1.7-0.4-2.6-0.4c-0.9,0-1.8,0.1-2.6,0.4c-0.8,0.2-1.5,0.6-2.1,1c-0.6,0.4-1.1,1-1.4,1.5
		c-0.3,0.6-0.5,1.3-0.5,2v0.1c0,0.7,0.2,1.3,0.5,1.8c0.3,0.6,0.7,1.1,1.3,1.5c0.6,0.4,1.3,0.8,2.1,1.1
		C-102.4,64.6-101.5,64.8-100.4,64.8z M-100.4,53.5c0.8,0,1.6-0.1,2.3-0.3c0.7-0.2,1.3-0.5,1.9-1c0.5-0.4,1-0.9,1.3-1.5
		c0.3-0.6,0.5-1.2,0.5-1.9v-0.1c0-0.7-0.2-1.3-0.5-1.8c-0.3-0.5-0.7-1-1.3-1.4c-0.5-0.4-1.2-0.7-1.9-0.9c-0.7-0.2-1.5-0.3-2.3-0.3
		c-0.8,0-1.6,0.1-2.3,0.3c-0.7,0.2-1.4,0.5-1.9,0.9c-0.5,0.4-1,0.9-1.3,1.4c-0.3,0.5-0.5,1.1-0.5,1.8v0.1c0,0.7,0.2,1.3,0.5,1.9
		c0.3,0.6,0.7,1.1,1.3,1.5c0.5,0.4,1.2,0.7,1.9,1C-102,53.4-101.2,53.5-100.4,53.5z"/>
	<path d="M-78.6,66.3c-1.5,0-2.8-0.3-3.9-0.9c-1.2-0.6-2.2-1.5-3-2.6c-0.8-1.1-1.4-2.3-1.9-3.8c-0.4-1.4-0.7-2.9-0.7-4.5v-0.1
		c0-1.6,0.2-3.1,0.7-4.5c0.4-1.4,1.1-2.7,1.9-3.8c0.8-1.1,1.8-1.9,3-2.6c1.2-0.6,2.5-1,3.9-1c1.5,0,2.8,0.3,3.9,0.9
		c1.2,0.6,2.2,1.5,3,2.6c0.8,1.1,1.4,2.3,1.9,3.8c0.4,1.4,0.7,2.9,0.7,4.5v0.1c0,1.6-0.2,3.1-0.7,4.5c-0.4,1.4-1.1,2.7-1.9,3.8
		c-0.8,1.1-1.8,1.9-3,2.6C-75.8,66-77.1,66.3-78.6,66.3z M-78.5,64.8c1.2,0,2.2-0.3,3.2-0.8c0.9-0.6,1.8-1.3,2.4-2.3
		c0.7-0.9,1.2-2,1.5-3.3c0.4-1.2,0.5-2.5,0.5-3.8v-0.1c0-1.3-0.2-2.6-0.5-3.8c-0.4-1.2-0.9-2.3-1.6-3.3c-0.7-0.9-1.5-1.7-2.4-2.3
		c-1-0.6-2-0.9-3.2-0.9c-1.2,0-2.2,0.3-3.2,0.8c-0.9,0.6-1.8,1.3-2.4,2.3c-0.7,0.9-1.2,2-1.5,3.3c-0.4,1.2-0.5,2.5-0.5,3.8v0.1
		c0,1.3,0.2,2.6,0.5,3.8c0.4,1.2,0.9,2.3,1.6,3.3c0.7,1,1.5,1.7,2.4,2.3C-80.8,64.5-79.7,64.8-78.5,64.8z"/>
</g>
<g>
	<path d="M-108.4,97.4c0-0.2,0.1-0.4,0.2-0.5l8.3-7.5c0.9-0.8,1.7-1.6,2.4-2.3c0.6-0.7,1.2-1.3,1.6-2c0.4-0.6,0.7-1.2,0.9-1.8
		c0.2-0.6,0.3-1.2,0.3-1.8c0-0.7-0.1-1.4-0.4-2c-0.3-0.6-0.7-1.1-1.1-1.5c-0.5-0.4-1-0.7-1.6-1c-0.6-0.2-1.3-0.3-2-0.3
		c-1.5,0-2.7,0.4-3.7,1.1c-0.9,0.6-1.8,1.5-2.6,2.6c-0.2,0.3-0.6,0.4-0.9,0.2l-0.2-0.1c-0.3-0.2-0.4-0.6-0.2-0.9
		c0.4-0.5,0.8-1,1.2-1.5c0.5-0.6,1.1-1.1,1.8-1.5c0.6-0.4,1.4-0.8,2.1-1c0.8-0.2,1.7-0.4,2.7-0.4c1,0,1.9,0.2,2.7,0.5
		c0.8,0.3,1.5,0.8,2.1,1.3c0.6,0.6,1.1,1.2,1.4,2c0.3,0.8,0.5,1.6,0.5,2.5v0.1c0,0.8-0.1,1.5-0.3,2.2c-0.2,0.7-0.6,1.4-1,2.1
		c-0.5,0.7-1.1,1.4-1.8,2.1c-0.7,0.7-1.6,1.6-2.6,2.5l-5.7,5.2c-0.4,0.4-0.2,1.1,0.4,1.1h10.6c0.4,0,0.6,0.3,0.6,0.6v0.3
		c0,0.4-0.3,0.6-0.6,0.6h-15V97.4z"/>
	<path d="M-79.1,98.7c-1.5,0-2.8-0.3-3.9-0.9c-1.2-0.6-2.2-1.5-3-2.6c-0.8-1.1-1.4-2.3-1.9-3.8c-0.4-1.4-0.7-2.9-0.7-4.5v-0.1
		c0-1.6,0.2-3.1,0.7-4.5c0.4-1.4,1.1-2.7,1.9-3.8c0.8-1.1,1.8-1.9,3-2.6c1.2-0.6,2.5-1,3.9-1c1.5,0,2.8,0.3,3.9,0.9
		c1.2,0.6,2.2,1.5,3,2.6c0.8,1.1,1.4,2.3,1.9,3.8c0.4,1.4,0.7,2.9,0.7,4.5v0.1c0,1.6-0.2,3.1-0.7,4.5c-0.4,1.4-1.1,2.7-1.9,3.8
		c-0.8,1.1-1.8,1.9-3,2.6C-76.4,98.4-77.7,98.7-79.1,98.7z M-79.1,97.2c1.2,0,2.2-0.3,3.2-0.8c0.9-0.6,1.8-1.3,2.4-2.3
		c0.7-0.9,1.2-2,1.5-3.3c0.4-1.2,0.5-2.5,0.5-3.8v-0.1c0-1.3-0.2-2.6-0.5-3.8c-0.4-1.2-0.9-2.3-1.6-3.3c-0.7-0.9-1.5-1.7-2.4-2.3
		c-1-0.6-2-0.9-3.2-0.9c-1.2,0-2.2,0.3-3.2,0.8c-0.9,0.6-1.8,1.3-2.4,2.3c-0.7,0.9-1.2,2-1.5,3.3c-0.4,1.2-0.5,2.5-0.5,3.8v0.1
		c0,1.3,0.2,2.6,0.5,3.8c0.4,1.2,0.9,2.3,1.5,3.3c0.7,1,1.5,1.7,2.4,2.3C-81.3,96.9-80.2,97.2-79.1,97.2z"/>
</g>
<rect x="-110.6" y="70.1" width="43.2" height="1.3"/>
</svg>
