<?xml version="1.0" encoding="utf-8"?>
<!-- Generator: Adobe Illustrator 19.0.0, SVG Export Plug-In . SVG Version: 6.00 Build 0)  -->
<svg version="1.1" fill="#fff" xmlns="http://www.w3.org/2000/svg" xmlns:xlink="http://www.w3.org/1999/xlink" x="0px" y="0px"
	 viewBox="-115 42.7 52 56" style="enable-background:new -115 42.7 52 56;" xml:space="preserve">
<style type="text/css">
	.st0{fill:#fff;}
</style>
<g>
	<path class="st0" d="M-81.1,63.2c0.7-7.3-1.9-14.8-7.3-20.2c-0.3-0.3-0.9-0.3-1.2,0c-5.4,5.4-8,12.9-7.3,20.2
		c-1.9,2-2.9,4.6-2.9,7.3c0,2.8,1.1,5.4,3,7.4c0.5,0.5,1.7,0.3,1.5-0.8c-0.1-0.6-0.2-1.1-0.2-1.7c0-1.4,0.4-2.7,1.2-3.7
		c0.1,0.1,0.3,0.1,0.4,0.1h9.9c0.2,0,0.3,0,0.4-0.1c0.8,1.1,1.2,2.4,1.2,3.7c0,0.5-0.1,1.1-0.2,1.7c-0.2,1.2,1.1,1.2,1.5,0.8
		c1.9-2,3-4.7,3-7.4C-78.2,67.8-79.2,65.2-81.1,63.2L-81.1,63.2z M-89,44.9c1.6,1.7,2.8,3.6,3.8,5.6h-7.6
		C-91.8,48.4-90.6,46.5-89,44.9L-89,44.9z M-97.2,74.3c-0.5-1.2-0.8-2.4-0.8-3.8c0-1.8,0.5-3.5,1.5-4.9c0,0.1,0.9,3.6,1.3,4.5
		C-96.3,71.3-97,72.7-97.2,74.3L-97.2,74.3z M-84.6,70.1h-8.8c-2.5-5.8-2.4-12.3-0.2-17.9h9.2C-82.2,57.8-82.1,64.3-84.6,70.1
		L-84.6,70.1z M-82.7,70.1c0.5-1.2,1.3-4.4,1.3-4.5c1,1.5,1.5,3.2,1.5,4.9c0,1.3-0.3,2.6-0.8,3.8C-81,72.7-81.7,71.3-82.7,70.1
		L-82.7,70.1z M-82.7,70.1"/>
	<path class="st0" d="M-92.5,74.2c-0.5,0-0.9,0.4-0.9,0.9v18.4c0,0.5,0.4,0.9,0.9,0.9c0.5,0,0.9-0.4,0.9-0.9V75.1
		C-91.7,74.6-92.1,74.2-92.5,74.2L-92.5,74.2z M-92.5,74.2"/>
	<path class="st0" d="M-89,74.2c-0.2,0-0.5,0.1-0.6,0.3l0,0c-0.1,0.1-0.2,0.2-0.2,0.4c0,0.1,0,0.2,0,0.2v22.7c0,0.1,0,0.1,0,0.2
		c0.1,0.4,0.4,0.7,0.8,0.7c0.4,0,0.8-0.3,0.8-0.7c0-0.1,0-0.1,0-0.2V75.1c0-0.1,0-0.2,0-0.2C-88.3,74.5-88.6,74.2-89,74.2L-89,74.2z
		 M-89,74.2"/>
	<path class="st0" d="M-85.5,74.2c-0.5,0-0.9,0.4-0.9,0.9v18.4c0,0.5,0.4,0.9,0.9,0.9c0.5,0,0.9-0.4,0.9-0.9V75.1
		C-84.6,74.6-85,74.2-85.5,74.2L-85.5,74.2z M-85.5,74.2"/>
</g>
</svg>
