<?xml version="1.0" encoding="utf-8"?>
<!-- Generator: Adobe Illustrator 19.0.0, SVG Export Plug-In . SVG Version: 6.00 Build 0)  -->
<svg version="1.1" fill="#fff" xmlns="http://www.w3.org/2000/svg" xmlns:xlink="http://www.w3.org/1999/xlink" x="0px" y="0px"
	 viewBox="-20.4 23.4 52 56" style="enable-background:new -20.4 23.4 52 56;" xml:space="preserve">
<g>
	<path d="M30.5,70.3c0.6,0,1.1-0.5,1.1-1.1V58.1c0-0.6-0.5-1.1-1.1-1.1H18.8c-0.6,0-1.1,0.5-1.1,1.1v11.1c0,0.6,0.5,1.1,1.1,1.1
		H30.5L30.5,70.3z M29.4,59.2v9h-9.5v-9H29.4L29.4,59.2z"/>
	<path d="M10,34.6c2.7-2.6,2.7-6.8,0-9.3s-7.1-2.6-9.8,0s-2.7,6.8,0,9.3C2.9,37.2,7.3,37.2,10,34.6L10,34.6z M8.4,26.8
		c1.8,1.8,1.8,4.6,0,6.4c-1.8,1.8-4.9,1.8-6.7,0c-1.8-1.8-1.8-4.6,0-6.4C3.6,25,6.6,25,8.4,26.8z"/>
	<path d="M-8.5,68.3c2.7-2.6,2.7-6.8,0-9.3c-2.7-2.6-7.1-2.6-9.8,0s-2.7,6.8,0,9.3S-11.2,70.9-8.5,68.3L-8.5,68.3z M-10.1,60.5
		c1.8,1.8,1.8,4.6,0,6.4c-1.8,1.8-4.9,1.8-6.7,0c-1.8-1.8-1.8-4.6,0-6.4C-14.9,58.7-11.9,58.7-10.1,60.5z"/>
	<path d="M-8.8,76.6c0,0.6,0.5,1.1,1.1,1.1c0.6,0,1.1-0.5,1.1-1.1l0-1.7c6.8,6.2,17.8,5.9,24.8-0.7c0.4-0.4,0.4-1.1,0-1.5
		c-0.4-0.4-1.1-0.4-1.6,0C10.6,78.5,1,78.8-5,73.4h1.7c0.6,0,1.1-0.5,1.1-1.1c0-0.6-0.5-1.1-1.1-1.1h-4.4c-0.3,0-0.6,0.1-0.8,0.3
		c-0.2,0.2-0.3,0.5-0.3,0.7C-8.8,72.4-8.8,76.6-8.8,76.6z"/>
	<path d="M21.6,54.5c0.6,0.1,1.2-0.3,1.3-0.8l0.9-4.1c0.1-0.3,0-0.6-0.2-0.8s-0.4-0.4-0.7-0.4c-0.6-0.1-1.2,0.3-1.3,0.8l-0.3,1.6
		l-8.8-12.5c-0.3-0.5-1-0.6-1.5-0.3s-0.6,1-0.3,1.5l8.8,12.5l-1.7-0.3c-0.6-0.1-1.2,0.3-1.3,0.8c-0.1,0.6,0.3,1.1,0.9,1.2L21.6,54.5
		z"/>
	<path d="M0.2,38.2c-0.2-0.6-0.8-0.9-1.4-0.7l-4.3,1.1c-0.3,0.1-0.5,0.3-0.7,0.5c-0.1,0.2-0.2,0.5-0.1,0.8c0.2,0.6,0.8,0.9,1.4,0.7
		l1.7-0.4L-11,53.3c-0.3,0.5-0.1,1.1,0.4,1.4c0.5,0.3,1.2,0.1,1.5-0.4l7.8-13.1l0.5,1.6c0.2,0.6,0.8,0.9,1.4,0.7
		c0.6-0.2,0.9-0.7,0.8-1.3L0.2,38.2z"/>
</g>
</svg>
