<svg xmlns="http://www.w3.org/2000/svg" width="60.032" height="60.109" viewBox="0 0 511.344 512">
  <metadata><?xpacket begin="﻿" id="W5M0MpCehiHzreSzNTczkc9d"?>
<x:xmpmeta xmlns:x="adobe:ns:meta/" x:xmptk="Adobe XMP Core 5.6-c140 79.160451, 2017/05/06-01:08:21        ">
   <rdf:RDF xmlns:rdf="http://www.w3.org/1999/02/22-rdf-syntax-ns#">
      <rdf:Description rdf:about=""/>
   </rdf:RDF>
</x:xmpmeta>

<?xpacket end="w"?></metadata>
<defs>
    <style>
      .cls-1 {
        fill-rule: evenodd;
      }
    </style>
  </defs>
  <path id="Forma_1" data-name="Forma 1" class="cls-1" d="M511.016,491.877a85.991,85.991,0,0,0-50.345-57.691,68.165,68.165,0,0,0-26.079-126.4v-9.125a8.528,8.528,0,1,0-17.056,0v9.125A68.172,68.172,0,0,0,391.86,434.432a91.07,91.07,0,0,0-42.7,38.848,115.017,115.017,0,0,0-56.473-47.757,76.764,76.764,0,1,0-74.373,0A115.015,115.015,0,0,0,161.84,473.28a91.058,91.058,0,0,0-42.7-38.848A68.172,68.172,0,0,0,93.464,307.786v-9.125a8.528,8.528,0,1,0-17.056,0v9.125a68.165,68.165,0,0,0-26.079,126.4A85.993,85.993,0,0,0-.016,491.877a16.483,16.483,0,0,0,3.44,13.754,17.2,17.2,0,0,0,13.388,6.358H494.19a17.2,17.2,0,0,0,13.387-6.358A16.482,16.482,0,0,0,511.016,491.877ZM33.768,375.459a51.165,51.165,0,1,1,51.169,51.2A51.2,51.2,0,0,1,33.768,375.459ZM16.7,495.293c5.609-27.47,37.219-51.57,67.646-51.57,31.3,0,62.07,24.258,67.609,51.224Zm179.1-136.9a59.7,59.7,0,1,1,59.7,59.732A59.714,59.714,0,0,1,195.8,358.392ZM171,494.922c6.934-27.711,45.323-59.731,84.5-59.731s77.565,32.02,84.5,59.731H171ZM374.9,375.459a51.164,51.164,0,1,1,51.169,51.2A51.2,51.2,0,0,1,374.9,375.459ZM494.189,494.922H359.05c5.551-26.957,36.315-51.2,67.6-51.2,30.428,0,62.038,24.1,67.713,51.112A0.275,0.275,0,0,1,494.189,494.922ZM84.937,213.328a8.53,8.53,0,0,0,8.528-8.532V179.2a8.528,8.528,0,1,0-17.056,0v25.6A8.53,8.53,0,0,0,84.937,213.328Zm0,59.733a8.53,8.53,0,0,0,8.528-8.533v-25.6a8.528,8.528,0,1,0-17.056,0v25.6A8.531,8.531,0,0,0,84.937,273.061ZM434.592,179.2a8.528,8.528,0,1,0-17.056,0v25.6a8.528,8.528,0,1,0,17.056,0V179.2Zm-8.528,51.2a8.53,8.53,0,0,0-8.528,8.533v25.6a8.528,8.528,0,1,0,17.056,0v-25.6A8.531,8.531,0,0,0,426.064,230.4ZM84.937,153.6a8.531,8.531,0,0,0,8.528-8.533v-8.533h51.6A110.927,110.927,0,0,0,246.971,238.5V256a8.528,8.528,0,1,0,17.056,0V238.5A110.926,110.926,0,0,0,365.933,136.53h51.6v8.533a8.528,8.528,0,1,0,17.056,0V136.53a17.079,17.079,0,0,0-17.057-17.067h-51.6A110.926,110.926,0,0,0,264.026,17.5V8.533a8.527,8.527,0,1,0-17.054,0V17.5A110.926,110.926,0,0,0,145.066,119.464h-51.6a17.079,17.079,0,0,0-17.057,17.067v8.533A8.531,8.531,0,0,0,84.937,153.6ZM264.028,34.565a93.935,93.935,0,0,1,84.85,84.9H314.516a59.749,59.749,0,0,0-50.488-50.517V34.565Zm0,51.629a42.778,42.778,0,0,1,33.251,33.27H264.028V86.194Zm0,50.336h33.251a42.777,42.777,0,0,1-33.251,33.27V136.53Zm0,50.518a59.75,59.75,0,0,0,50.488-50.518h34.362a93.935,93.935,0,0,1-84.85,84.9V187.048ZM246.972,169.8a42.777,42.777,0,0,1-33.251-33.27h33.251V169.8Zm0-50.336H213.721a42.778,42.778,0,0,1,33.251-33.27v33.27Zm0-84.9V68.947a59.751,59.751,0,0,0-50.488,50.518H162.123A93.934,93.934,0,0,1,246.972,34.565ZM196.484,136.53a59.751,59.751,0,0,0,50.488,50.518v34.381a93.934,93.934,0,0,1-84.849-84.9h34.361Z"/>
</svg>
