<?xml version="1.0" encoding="utf-8"?>
<!-- Generator: Adobe Illustrator 19.0.0, SVG Export Plug-In . SVG Version: 6.00 Build 0)  -->
<svg version="1.1" id="Layer_1" xmlns="http://www.w3.org/2000/svg" xmlns:xlink="http://www.w3.org/1999/xlink" x="0px" y="0px"
	 viewBox="-280 159 40 40" style="enable-background:new -280 159 40 40;" xml:space="preserve">
<g fill="#516e91" id="_x39__16_">
	<g>
		<path d="M-258.7,177.9V171c0-0.7-0.6-1.3-1.3-1.3s-1.3,0.6-1.3,1.3v6.9c-1.5,0.6-2.7,2-2.7,3.8c0,2.2,1.8,4,4,4s4-1.8,4-4
			C-256,179.9-257.1,178.5-258.7,177.9z M-258.7,164.4C-258.7,164.4-258.7,164.4-258.7,164.4l0-2.7h5.3c0.7,0,1.3-0.6,1.3-1.3
			c0-0.7-0.6-1.3-1.3-1.3h-13.3c-0.7,0-1.3,0.6-1.3,1.3c0,0.7,0.6,1.3,1.3,1.3h5.3v2.7c0,0,0,0,0,0.1c-9,0.7-16,8.1-16,17.3
			c0,9.6,7.8,17.3,17.3,17.3s17.3-7.8,17.3-17.3C-242.7,172.5-249.7,165.1-258.7,164.4z M-260,196.3c-8.1,0-14.7-6.6-14.7-14.7
			s6.6-14.7,14.7-14.7c8.1,0,14.7,6.6,14.7,14.7S-251.9,196.3-260,196.3z"/>
	</g>
</g>
</svg>
