<?xml version="1.0" encoding="utf-8"?>
<!-- Generator: Adobe Illustrator 21.1.0, SVG Export Plug-In . SVG Version: 6.00 Build 0)  -->
<svg version="1.1" id="Layer_1" xmlns="http://www.w3.org/2000/svg" xmlns:xlink="http://www.w3.org/1999/xlink" x="0px" y="0px"
	 viewBox="0 0 67 67" style="enable-background:new 0 0 67 67;" xml:space="preserve">
<style type="text/css">
	.st0{fill:#5CD0F6;}
	.st1{fill:#FFFFFF;}
</style>
<g>
	<circle class="st0" cx="33.5" cy="33.5" r="33.5"/>
	<g>
		<path class="st1" d="M47.3,26.1v-9.9c0-1-0.5-1.9-1.4-2.4c-0.9-0.5-1.9-0.5-2.8,0.1c-4.5,2.7-9.6,8.9-14.9,8.9c0,0,0,0,0,0h0h-6.7
			c-1.6,0-3,1.3-3.1,2.9H17c-1.4,0-2.6,1.2-2.6,2.6v6c0,1.4,1.2,2.6,2.6,2.6h1.5c0.1,1.2,0.9,2.3,2,2.7l3.9,10.9
			c0.3,0.7,0.9,1.2,1.7,1.2h5.1c0.6,0,1.1-0.3,1.5-0.8c0.3-0.5,0.4-1.1,0.2-1.7l-3.4-9.4c4.9,0.2,9.6,6.3,13.8,8.9
			c0.4,0.3,0.9,0.4,1.4,0.4c0.5,0,0.9-0.1,1.3-0.4c0.9-0.5,1.4-1.4,1.4-2.4v-9.8c2.9,0,5.3-2.4,5.3-5.3
			C52.6,28.4,50.3,26.1,47.3,26.1z M18.4,35H17c-0.4,0-0.7-0.3-0.7-0.8v-6c0-0.4,0.3-0.8,0.7-0.8h1.5V35z M31,49.8h-5l-3.6-10h5
			L31,49.8z M45.1,47.1c-0.1,0.1-0.5,0.2-0.9,0c-4.8-2.9-10.2-9.2-15.8-9.2h-6.7c-0.7,0-1.3-0.6-1.3-1.3V25.9c0-0.7,0.6-1.3,1.3-1.3
			h5.6v6.1c0,0.5,0.4,0.9,0.9,0.9s0.9-0.4,0.9-0.9v-6.1c5.4-0.1,10.6-6.4,15.2-9.2c0.4-0.2,0.8-0.1,0.9,0c0.1,0.1,0.4,0.3,0.4,0.8
			v30.2h0C45.5,46.8,45.2,47,45.1,47.1z"/>
		<ellipse class="st1" cx="28.1" cy="33.9" rx="0.9" ry="0.9"/>
	</g>
</g>
</svg>
