<?xml version="1.0" encoding="utf-8"?>
<!-- Generator: Adobe Illustrator 21.1.0, SVG Export Plug-In . SVG Version: 6.00 Build 0)  -->
<svg version="1.1" id="Layer_1" xmlns="http://www.w3.org/2000/svg" xmlns:xlink="http://www.w3.org/1999/xlink" x="0px" y="0px"
	 viewBox="0 0 67 67" style="enable-background:new 0 0 67 67;" xml:space="preserve">
<style type="text/css">
	.st0{fill:#EC73B1;}
	.st1{fill:#FFFFFF;}
</style>
<g>
	<circle class="st0" cx="33.5" cy="33.5" r="33.5"/>
	<g>
		<ellipse class="st1" cx="45.1" cy="22.3" rx="0.9" ry="0.9"/>
		<path class="st1" d="M52.4,18.9c-0.6-1.9-2.4-3.1-4.2-2.9l-0.1-0.2c-0.1-0.5-0.5-0.8-0.9-1.1c-0.4-0.2-0.9-0.3-1.4-0.1L27.2,20
			c-0.5,0.1-0.8,0.5-1.1,0.9c-0.2,0.4-0.3,0.9-0.1,1.4l0,0.2l-10.1,3.9c-1.1,0.4-1.7,1.5-1.4,2.7l0.6,2c0.3,0.9,1.1,1.5,2.1,1.5
			c0.2,0,0.4,0,0.6-0.1l10.7-2.2v0c0.2,0.8,1,1.3,1.7,1.3c0.2,0,0.3,0,0.5-0.1l1.5-0.4c-1.2,0.5-2,1.7-2,3.1c0,0.6,0.2,1.2,0.5,1.7
			l-5.6,15.5c-0.2,0.5,0,1,0.5,1.1c0.1,0,0.2,0,0.3,0c0.4,0,0.7-0.2,0.8-0.6l2.8-7.6h3.3v7.2c0,0.5,0.4,0.9,0.9,0.9
			c0.5,0,0.9-0.4,0.9-0.9v-7.2h3.3l2.8,7.6c0.1,0.4,0.5,0.6,0.8,0.6c0.1,0,0.2,0,0.3,0c0.5-0.2,0.7-0.7,0.5-1.1l-5.7-15.6
			c0.3-0.5,0.5-1.1,0.5-1.7c0-1.9-1.5-3.4-3.4-3.4c-0.2,0-0.4,0-0.6,0L49.3,26c1-0.3,1.5-1.3,1.2-2.3v0C52.2,22.7,53,20.8,52.4,18.9
			z M17.3,30.8L17.3,30.8c-0.2,0-0.5,0-0.5-0.2l-0.6-2c0-0.2,0-0.4,0.2-0.5l10.1-3.9l1.3,4.4L17.3,30.8z M35,37.2l2,5.5h-2.6v-5.3
			C34.6,37.4,34.8,37.3,35,37.2z M32.6,42.7H30l2-5.5c0.2,0.1,0.4,0.2,0.6,0.2L32.6,42.7L32.6,42.7z M48.8,24.3l-18.6,5.5
			c0,0,0,0,0,0l-2.4-8c0,0,0,0,0,0l14.8-4.4l0.8,2.7c0.1,0.4,0.5,0.7,0.8,0.7c0.1,0,0.2,0,0.2,0c0.5-0.1,0.7-0.6,0.6-1.1l-0.8-2.7
			l2.1-0.6l0,0c0,0,0,0,0,0l0,0.1l0,0L48.8,24.3C48.8,24.2,48.8,24.3,48.8,24.3z M50.6,21.1c-0.1,0.3-0.4,0.5-0.6,0.7l-1.3-4.2
			c0.9,0.1,1.7,0.7,2,1.7C50.9,20,50.9,20.6,50.6,21.1z"/>
	</g>
</g>
</svg>
