<svg
        xmlns="http://www.w3.org/2000/svg"
        xmlns:xlink="http://www.w3.org/1999/xlink"
        width="68px" height="45px">
    <path fill-rule="evenodd"  fill="#516E91"
          d="M65.876,11.180 L38.490,1.731 C35.595,0.731 32.405,0.731 29.509,1.731 L2.124,11.180 C0.834,11.625 -0.000,12.800 -0.000,14.173 C-0.000,15.545 0.834,16.720 2.124,17.165 L14.804,21.540 L14.804,31.066 C14.804,32.805 16.800,34.123 20.906,35.095 C24.415,35.926 29.065,36.383 34.000,36.383 C38.935,36.383 43.585,35.926 47.094,35.095 C48.837,34.682 50.198,34.207 51.189,33.664 L51.189,35.608 C49.947,36.030 49.049,37.214 49.049,38.605 L49.049,43.990 C49.049,44.548 49.498,45.000 50.052,45.000 L54.333,45.000 C54.887,45.000 55.336,44.548 55.336,43.990 L55.336,38.605 C55.336,37.214 54.439,36.030 53.196,35.608 L53.196,21.540 L65.876,17.165 C67.166,16.720 68.000,15.545 68.000,14.173 C68.000,12.800 67.166,11.625 65.876,11.180 ZM46.634,33.129 C43.271,33.926 38.784,34.364 34.000,34.364 C29.215,34.364 24.728,33.926 21.365,33.129 C17.621,32.243 16.810,31.261 16.810,31.066 L16.810,29.356 C17.802,29.899 19.163,30.374 20.906,30.787 C24.415,31.618 29.065,32.076 34.000,32.076 C38.934,32.076 43.585,31.618 47.094,30.787 C48.837,30.374 50.198,29.899 51.189,29.356 L51.189,31.066 C51.189,31.261 50.379,32.243 46.634,33.129 ZM53.330,42.980 L51.056,42.980 L51.056,38.605 C51.056,37.974 51.566,37.461 52.193,37.461 C52.820,37.461 53.330,37.974 53.330,38.605 L53.330,42.980 ZM51.189,26.757 C51.189,26.954 50.379,27.935 46.634,28.821 C43.271,29.618 38.784,30.057 34.000,30.057 C29.215,30.057 24.728,29.618 21.365,28.821 C17.621,27.935 16.810,26.954 16.810,26.757 L16.810,22.232 L29.509,26.614 C30.957,27.114 32.479,27.364 34.000,27.364 C35.521,27.364 37.043,27.114 38.490,26.614 L51.189,22.232 L51.189,26.757 ZM65.225,15.255 L53.198,19.405 C53.152,19.381 53.104,19.358 53.053,19.340 L39.159,14.546 C39.240,14.318 39.284,14.081 39.284,13.833 C39.284,12.030 37.012,10.671 34.000,10.671 C30.988,10.671 28.716,12.030 28.716,13.833 C28.716,15.638 30.988,16.997 34.000,16.997 C35.469,16.997 36.760,16.674 37.699,16.133 C37.776,16.188 37.861,16.234 37.955,16.265 L50.125,20.465 L37.839,24.704 C35.364,25.559 32.636,25.559 30.160,24.704 L2.775,15.255 C2.062,15.009 2.007,14.364 2.007,14.173 C2.007,13.981 2.062,13.335 2.775,13.090 L30.160,3.640 C31.398,3.213 32.699,2.999 34.000,2.999 C35.301,2.999 36.601,3.213 37.839,3.640 L65.225,13.090 C65.938,13.335 65.994,13.981 65.994,14.173 C65.994,14.364 65.938,15.009 65.225,15.255 ZM37.277,13.833 C37.277,14.128 36.150,14.978 34.000,14.978 C31.849,14.978 30.723,14.128 30.723,13.833 C30.723,13.540 31.849,12.690 34.000,12.690 C36.150,12.690 37.277,13.540 37.277,13.833 Z"/>
</svg>