<?xml version="1.0" encoding="utf-8"?>
<!-- Generator: Adobe Illustrator 19.0.0, SVG Export Plug-In . SVG Version: 6.00 Build 0)  -->
<svg version="1.1" fill="#fff" xmlns="http://www.w3.org/2000/svg" xmlns:xlink="http://www.w3.org/1999/xlink" x="0px" y="0px"
	 viewBox="-21.8 23.4 54.8 56" style="enable-background:new -21.8 23.4 54.8 56;" xml:space="preserve">
<g>
	<path d="M32.1,57.3l-2.8-2.8c-1.1-1.1-3-1.1-4.1,0l-15,15l-2.1,7.6l-0.5,0.5c-0.4,0.4-0.4,1,0,1.4l0,0l0,0c0.2,0.2,0.4,0.3,0.7,0.3
		c0.3,0,0.5-0.1,0.7-0.3l0.5-0.5l7.6-2.1l15-15C33.2,60.3,33.2,58.5,32.1,57.3z M12.4,70.1l10-10l4.1,4.1l-10,10L12.4,70.1z
		 M11.5,72l3.1,3.1l-4.3,1.2L11.5,72z M30.7,60.1l-2.8,2.8l-4.1-4.1l2.8-2.8c0.4-0.4,1-0.4,1.4,0l2.8,2.8
		C31.1,59.1,31.1,59.7,30.7,60.1z"/>
	<path d="M5.1,33.1c3.3,0,5.8,0.8,7.2,2.4c1.7,1.9,1.4,4.3,1.4,4.3l0,5.6l0.3,0.3c0.4,0.3,0.5,0.7,0.5,1.2v3.5
		c0,0.7-0.5,1.3-1.2,1.5c-0.5,0.2-0.8,0.7-0.6,1.2c0.2,0.5,0.7,0.8,1.2,0.6c1.5-0.5,2.5-1.8,2.5-3.4v-3.5c0-0.8-0.3-1.7-0.9-2.3V40
		c0.1-0.5,0.2-3.4-1.8-5.7c-1.8-2.1-4.7-3.1-8.7-3.1s-6.9,1-8.7,3.1c-2.1,2.4-1.9,5.2-1.8,5.7v4.6c-0.6,0.6-0.9,1.5-0.9,2.3v3.5
		c0,1.1,0.5,2.1,1.3,2.8c0.8,3.1,2.4,5.5,3,6.2v2.8c0,0.8-0.4,1.5-1.1,1.9l-7.7,4.2c-0.3,0.1-0.5,0.3-0.8,0.5
		c-5.1-4.6-8.3-11.2-8.3-18.6c0-13.7,11.2-24.9,24.9-24.9S30,36.5,30,50.3c0,0.5,0.4,1,1,1s1-0.4,1-1c0-14.8-12.1-26.9-26.9-26.9
		s-26.9,12.1-26.9,26.9c0,7.8,3.3,14.9,8.7,19.8l0,0l0.3,0.2c2.3,2,4.9,3.7,7.8,4.8c0.2,0.1,0.3,0.1,0.5,0.2c0.3,0.1,0.7,0.2,1,0.4
		c0.4,0.1,0.8,0.2,1.1,0.4c0.3,0.1,0.5,0.2,0.8,0.2c0.7,0.2,1.4,0.3,2.1,0.5c0.1,0,0.1,0,0.2,0c0.5,0,0.9-0.3,1-0.8
		c0.1-0.5-0.3-1-0.8-1.1c0,0,0,0,0,0c-0.6-0.1-1.3-0.3-1.9-0.4c-0.2-0.1-0.4-0.1-0.6-0.2c-0.4-0.1-0.8-0.2-1.2-0.4
		c-0.5-0.2-1-0.3-1.4-0.5c-0.2-0.1-0.4-0.2-0.6-0.2c-0.4-0.2-0.8-0.4-1.2-0.6c0,0-0.1,0-0.1-0.1c-1.3-0.7-2.6-1.5-3.7-2.3
		c0,0,0.1,0,0.1-0.1l7.7-4.2c1.3-0.7,2.2-2.1,2.2-3.6v-3.5l-0.2-0.3c0,0-2.1-2.6-2.9-6.1l-0.1-0.4l-0.3-0.2
		c-0.5-0.3-0.8-0.8-0.8-1.4v-3.5c0-0.5,0.2-0.9,0.5-1.2l0.3-0.3V40l0-0.1c0,0-0.3-2.4,1.4-4.3C-0.7,34,1.7,33.1,5.1,33.1z"/>
</g>
</svg>
