<?xml version="1.0" encoding="UTF-8"?>
<svg width="166px" height="52px" viewBox="0 0 166 52" version="1.1" xmlns="http://www.w3.org/2000/svg" xmlns:xlink="http://www.w3.org/1999/xlink">
    <!-- Generator: Sketch 52.5 (67469) - http://www.bohemiancoding.com/sketch -->
    <title>Helsinki SaaS Meetup Copy</title>
    <desc>Created with Sketch.</desc>
    <defs>
        <linearGradient x1="0%" y1="100%" x2="100%" y2="0%" id="linearGradient-1">
            <stop stop-color="#00AFAD" offset="0%"></stop>
            <stop stop-color="#07D79C" offset="100%"></stop>
        </linearGradient>
        <path d="M1106.12,3468.2 L1110.872,3468.2 L1110.872,3485 L1106.12,3485 L1106.12,3478.448 L1099.64,3478.448 L1099.64,3485 L1094.888,3485 L1094.888,3468.2 L1099.64,3468.2 L1099.64,3474.512 L1106.12,3474.512 L1106.12,3468.2 Z M1127.312,3478.52 C1127.312,3478.856 1127.264,3479.288 1127.24,3479.648 L1117.784,3479.648 C1118.168,3480.968 1119.296,3481.736 1120.976,3481.736 C1122.248,3481.736 1123.088,3481.376 1123.976,3480.608 L1126.376,3483.104 C1125.128,3484.496 1123.304,3485.216 1120.832,3485.216 C1116.2,3485.216 1113.2,3482.36 1113.2,3478.472 C1113.2,3474.56 1116.248,3471.776 1120.352,3471.776 C1124.192,3471.776 1127.312,3474.224 1127.312,3478.52 Z M1120.376,3475.016 C1118.96,3475.016 1117.976,3475.88 1117.712,3477.248 L1123.04,3477.248 C1122.8,3475.88 1121.792,3475.016 1120.376,3475.016 Z M1129.424,3485 L1129.424,3467.192 L1133.984,3467.192 L1133.984,3485 L1129.424,3485 Z M1141.664,3485.216 C1139.456,3485.216 1137.176,3484.664 1135.904,3483.872 L1137.272,3480.752 C1138.472,3481.496 1140.224,3481.952 1141.808,3481.952 C1143.344,3481.952 1143.848,3481.616 1143.848,3481.064 C1143.848,3479.312 1136.168,3481.304 1136.168,3476.096 C1136.168,3473.648 1138.424,3471.776 1142.504,3471.776 C1144.328,3471.776 1146.344,3472.16 1147.64,3472.88 L1146.272,3475.976 C1144.976,3475.256 1143.68,3475.016 1142.528,3475.016 C1140.992,3475.016 1140.44,3475.448 1140.44,3475.928 C1140.44,3477.728 1148.096,3475.784 1148.096,3480.944 C1148.096,3483.344 1145.888,3485.216 1141.664,3485.216 Z M1152.344,3470.552 C1150.664,3470.552 1149.56,3469.496 1149.56,3468.128 C1149.56,3466.76 1150.664,3465.704 1152.344,3465.704 C1154.024,3465.704 1155.128,3466.688 1155.128,3468.056 C1155.128,3469.496 1154.024,3470.552 1152.344,3470.552 Z M1150.064,3485 L1150.064,3471.992 L1154.624,3471.992 L1154.624,3485 L1150.064,3485 Z M1166.048,3471.776 C1169.096,3471.776 1171.424,3473.528 1171.424,3477.56 L1171.424,3485 L1166.864,3485 L1166.864,3478.304 C1166.864,3476.432 1166.048,3475.64 1164.728,3475.64 C1163.264,3475.64 1162.136,3476.552 1162.136,3478.712 L1162.136,3485 L1157.576,3485 L1157.576,3471.992 L1161.92,3471.992 L1161.92,3473.408 C1162.952,3472.328 1164.416,3471.776 1166.048,3471.776 Z M1183.832,3485 L1180.184,3480.44 L1178.84,3481.808 L1178.84,3485 L1174.28,3485 L1174.28,3467.192 L1178.84,3467.192 L1178.84,3476.528 L1183.496,3471.992 L1188.896,3471.992 L1183.496,3477.56 L1189.352,3485 L1183.832,3485 Z M1193.024,3470.552 C1191.344,3470.552 1190.24,3469.496 1190.24,3468.128 C1190.24,3466.76 1191.344,3465.704 1193.024,3465.704 C1194.704,3465.704 1195.808,3466.688 1195.808,3468.056 C1195.808,3469.496 1194.704,3470.552 1193.024,3470.552 Z M1190.744,3485 L1190.744,3471.992 L1195.304,3471.992 L1195.304,3485 L1190.744,3485 Z M1069.628,3512.336 C1066.868,3512.336 1064.132,3511.592 1062.548,3510.488 L1064.108,3506.984 C1065.596,3507.968 1067.708,3508.64 1069.652,3508.64 C1071.62,3508.64 1072.388,3508.088 1072.388,3507.272 C1072.388,3504.608 1062.836,3506.552 1062.836,3500.312 C1062.836,3497.312 1065.284,3494.864 1070.276,3494.864 C1072.46,3494.864 1074.716,3495.368 1076.372,3496.328 L1074.908,3499.856 C1073.3,3498.992 1071.716,3498.56 1070.252,3498.56 C1068.26,3498.56 1067.54,3499.232 1067.54,3500.072 C1067.54,3502.64 1077.068,3500.72 1077.068,3506.912 C1077.068,3509.84 1074.62,3512.336 1069.628,3512.336 Z M1084.58,3498.776 C1088.804,3498.776 1091.228,3500.648 1091.228,3504.776 L1091.228,3512 L1086.98,3512 L1086.98,3510.32 C1086.332,3511.568 1085.036,3512.216 1083.14,3512.216 C1080.02,3512.216 1078.292,3510.464 1078.292,3508.208 C1078.292,3505.808 1080.044,3504.32 1084.076,3504.32 L1086.668,3504.32 C1086.596,3503 1085.708,3502.256 1083.908,3502.256 C1082.66,3502.256 1081.268,3502.688 1080.38,3503.384 L1078.844,3500.288 C1080.332,3499.304 1082.54,3498.776 1084.58,3498.776 Z M1084.412,3509.336 C1085.42,3509.336 1086.308,3508.856 1086.668,3507.824 L1086.668,3506.696 L1084.7,3506.696 C1083.236,3506.696 1082.708,3507.224 1082.708,3508.016 C1082.708,3508.784 1083.332,3509.336 1084.412,3509.336 Z M1099.652,3498.776 C1103.876,3498.776 1106.3,3500.648 1106.3,3504.776 L1106.3,3512 L1102.052,3512 L1102.052,3510.32 C1101.404,3511.568 1100.108,3512.216 1098.212,3512.216 C1095.092,3512.216 1093.364,3510.464 1093.364,3508.208 C1093.364,3505.808 1095.116,3504.32 1099.148,3504.32 L1101.74,3504.32 C1101.668,3503 1100.78,3502.256 1098.98,3502.256 C1097.732,3502.256 1096.34,3502.688 1095.452,3503.384 L1093.916,3500.288 C1095.404,3499.304 1097.612,3498.776 1099.652,3498.776 Z M1099.484,3509.336 C1100.492,3509.336 1101.38,3508.856 1101.74,3507.824 L1101.74,3506.696 L1099.772,3506.696 C1098.308,3506.696 1097.78,3507.224 1097.78,3508.016 C1097.78,3508.784 1098.404,3509.336 1099.484,3509.336 Z M1115.3,3512.336 C1112.54,3512.336 1109.804,3511.592 1108.22,3510.488 L1109.78,3506.984 C1111.268,3507.968 1113.38,3508.64 1115.324,3508.64 C1117.292,3508.64 1118.06,3508.088 1118.06,3507.272 C1118.06,3504.608 1108.508,3506.552 1108.508,3500.312 C1108.508,3497.312 1110.956,3494.864 1115.948,3494.864 C1118.132,3494.864 1120.388,3495.368 1122.044,3496.328 L1120.58,3499.856 C1118.972,3498.992 1117.388,3498.56 1115.924,3498.56 C1113.932,3498.56 1113.212,3499.232 1113.212,3500.072 C1113.212,3502.64 1122.74,3500.72 1122.74,3506.912 C1122.74,3509.84 1120.292,3512.336 1115.3,3512.336 Z M1151.444,3512 L1147.076,3512 L1147.028,3503.096 L1142.708,3510.344 L1140.596,3510.344 L1136.3,3503.336 L1136.3,3512 L1131.908,3512 L1131.908,3495.2 L1135.82,3495.2 L1141.724,3504.896 L1147.484,3495.2 L1151.396,3495.2 L1151.444,3512 Z M1167.884,3505.52 C1167.884,3505.856 1167.836,3506.288 1167.812,3506.648 L1158.356,3506.648 C1158.74,3507.968 1159.868,3508.736 1161.548,3508.736 C1162.82,3508.736 1163.66,3508.376 1164.548,3507.608 L1166.948,3510.104 C1165.7,3511.496 1163.876,3512.216 1161.404,3512.216 C1156.772,3512.216 1153.772,3509.36 1153.772,3505.472 C1153.772,3501.56 1156.82,3498.776 1160.924,3498.776 C1164.764,3498.776 1167.884,3501.224 1167.884,3505.52 Z M1160.948,3502.016 C1159.532,3502.016 1158.548,3502.88 1158.284,3504.248 L1163.612,3504.248 C1163.372,3502.88 1162.364,3502.016 1160.948,3502.016 Z M1183.292,3505.52 C1183.292,3505.856 1183.244,3506.288 1183.22,3506.648 L1173.764,3506.648 C1174.148,3507.968 1175.276,3508.736 1176.956,3508.736 C1178.228,3508.736 1179.068,3508.376 1179.956,3507.608 L1182.356,3510.104 C1181.108,3511.496 1179.284,3512.216 1176.812,3512.216 C1172.18,3512.216 1169.18,3509.36 1169.18,3505.472 C1169.18,3501.56 1172.228,3498.776 1176.332,3498.776 C1180.172,3498.776 1183.292,3501.224 1183.292,3505.52 Z M1176.356,3502.016 C1174.94,3502.016 1173.956,3502.88 1173.692,3504.248 L1179.02,3504.248 C1178.78,3502.88 1177.772,3502.016 1176.356,3502.016 Z M1193.252,3508.28 L1194.38,3511.472 C1193.588,3511.976 1192.412,3512.216 1191.212,3512.216 C1187.876,3512.216 1185.932,3510.584 1185.932,3507.248 L1185.932,3502.88 L1184.036,3502.88 L1184.036,3499.472 L1185.932,3499.472 L1185.932,3496.088 L1190.492,3496.088 L1190.492,3499.472 L1193.468,3499.472 L1193.468,3502.88 L1190.492,3502.88 L1190.492,3507.2 C1190.492,3508.16 1191.044,3508.688 1191.86,3508.688 C1192.364,3508.688 1192.868,3508.544 1193.252,3508.28 Z M1205.252,3498.992 L1209.812,3498.992 L1209.812,3512 L1205.468,3512 L1205.468,3510.608 C1204.484,3511.688 1203.092,3512.216 1201.604,3512.216 C1198.412,3512.216 1196.084,3510.392 1196.084,3506.264 L1196.084,3498.992 L1200.644,3498.992 L1200.644,3505.52 C1200.644,3507.536 1201.436,3508.328 1202.804,3508.328 C1204.148,3508.328 1205.252,3507.44 1205.252,3505.256 L1205.252,3498.992 Z M1220.924,3498.776 C1224.452,3498.776 1227.308,3501.368 1227.308,3505.496 C1227.308,3509.624 1224.452,3512.216 1220.924,3512.216 C1219.412,3512.216 1218.188,3511.76 1217.3,3510.848 L1217.3,3516.656 L1212.74,3516.656 L1212.74,3498.992 L1217.084,3498.992 L1217.084,3500.288 C1217.948,3499.256 1219.22,3498.776 1220.924,3498.776 Z M1219.964,3508.592 C1221.5,3508.592 1222.7,3507.464 1222.7,3505.496 C1222.7,3503.528 1221.5,3502.4 1219.964,3502.4 C1218.428,3502.4 1217.228,3503.528 1217.228,3505.496 C1217.228,3507.464 1218.428,3508.592 1219.964,3508.592 Z" id="path-2"></path>
    </defs>
    <g id="-" stroke="none" stroke-width="1" fill="none" fill-rule="evenodd">
        <g id="About" transform="translate(-1062.000000, -3465.000000)" fill-rule="nonzero">
            <g id="Helsinki-SaaS-Meetup-Copy">
                <use fill="#BFBFBF" xlink:href="#path-2"></use>
                <use fill="url(#linearGradient-1)" xlink:href="#path-2"></use>
            </g>
        </g>
    </g>
</svg>