<?xml version="1.0" encoding="UTF-8"?>
<svg width="173px" height="23px" viewBox="0 0 173 23" version="1.1" xmlns="http://www.w3.org/2000/svg" xmlns:xlink="http://www.w3.org/1999/xlink">
    <!-- Generator: Sketch 52.4 (67378) - http://www.bohemiancoding.com/sketch -->
    <title>Makers Camp Copy 2</title>
    <desc>Created with Sketch.</desc>
    <defs>
        <linearGradient x1="0%" y1="100%" x2="100%" y2="0%" id="linearGradient-1">
            <stop stop-color="#00AFAD" offset="0%"></stop>
            <stop stop-color="#07D79C" offset="100%"></stop>
        </linearGradient>
    </defs>
    <g id="About" stroke="none" stroke-width="1" fill="none" fill-rule="evenodd">
        <path d="M19.652,18 L15.284,18 L15.236,9.096 L10.916,16.344 L8.804,16.344 L4.508,9.336 L4.508,18 L0.116,18 L0.116,1.2 L4.028,1.2 L9.932,10.896 L15.692,1.2 L19.604,1.2 L19.652,18 Z M28.34,4.776 C32.564,4.776 34.988,6.648 34.988,10.776 L34.988,18 L30.74,18 L30.74,16.32 C30.092,17.568 28.796,18.216 26.9,18.216 C23.78,18.216 22.052,16.464 22.052,14.208 C22.052,11.808 23.804,10.32 27.836,10.32 L30.428,10.32 C30.356,9 29.468,8.256 27.668,8.256 C26.42,8.256 25.028,8.688 24.14,9.384 L22.604,6.288 C24.092,5.304 26.3,4.776 28.34,4.776 Z M28.172,15.336 C29.18,15.336 30.068,14.856 30.428,13.824 L30.428,12.696 L28.46,12.696 C26.996,12.696 26.468,13.224 26.468,14.016 C26.468,14.784 27.092,15.336 28.172,15.336 Z M47.42,18 L43.772,13.44 L42.428,14.808 L42.428,18 L37.868,18 L37.868,0.192 L42.428,0.192 L42.428,9.528 L47.084,4.992 L52.484,4.992 L47.084,10.56 L52.94,18 L47.42,18 Z M67.628,11.52 C67.628,11.856 67.58,12.288 67.556,12.648 L58.1,12.648 C58.484,13.968 59.612,14.736 61.292,14.736 C62.564,14.736 63.404,14.376 64.292,13.608 L66.692,16.104 C65.444,17.496 63.62,18.216 61.148,18.216 C56.516,18.216 53.516,15.36 53.516,11.472 C53.516,7.56 56.564,4.776 60.668,4.776 C64.508,4.776 67.628,7.224 67.628,11.52 Z M60.692,8.016 C59.276,8.016 58.292,8.88 58.028,10.248 L63.356,10.248 C63.116,8.88 62.108,8.016 60.692,8.016 Z M74.084,6.552 C75.02,5.376 76.532,4.776 78.452,4.776 L78.452,8.88 C78.044,8.832 77.756,8.808 77.42,8.808 C75.572,8.808 74.3,9.744 74.3,12.024 L74.3,18 L69.74,18 L69.74,4.992 L74.084,4.992 L74.084,6.552 Z M85.1,18.216 C82.892,18.216 80.612,17.664 79.34,16.872 L80.708,13.752 C81.908,14.496 83.66,14.952 85.244,14.952 C86.78,14.952 87.284,14.616 87.284,14.064 C87.284,12.312 79.604,14.304 79.604,9.096 C79.604,6.648 81.86,4.776 85.94,4.776 C87.764,4.776 89.78,5.16 91.076,5.88 L89.708,8.976 C88.412,8.256 87.116,8.016 85.964,8.016 C84.428,8.016 83.876,8.448 83.876,8.928 C83.876,10.728 91.532,8.784 91.532,13.944 C91.532,16.344 89.324,18.216 85.1,18.216 Z M109.076,18.336 C103.748,18.336 99.836,14.712 99.836,9.6 C99.836,4.488 103.748,0.864 109.076,0.864 C112.172,0.864 114.668,1.992 116.3,4.032 L113.276,6.768 C112.22,5.496 110.924,4.8 109.316,4.8 C106.556,4.8 104.636,6.72 104.636,9.6 C104.636,12.48 106.556,14.4 109.316,14.4 C110.924,14.4 112.22,13.704 113.276,12.432 L116.3,15.168 C114.668,17.208 112.172,18.336 109.076,18.336 Z M123.74,4.776 C127.964,4.776 130.388,6.648 130.388,10.776 L130.388,18 L126.14,18 L126.14,16.32 C125.492,17.568 124.196,18.216 122.3,18.216 C119.18,18.216 117.452,16.464 117.452,14.208 C117.452,11.808 119.204,10.32 123.236,10.32 L125.828,10.32 C125.756,9 124.868,8.256 123.068,8.256 C121.82,8.256 120.428,8.688 119.54,9.384 L118.004,6.288 C119.492,5.304 121.7,4.776 123.74,4.776 Z M123.572,15.336 C124.58,15.336 125.468,14.856 125.828,13.824 L125.828,12.696 L123.86,12.696 C122.396,12.696 121.868,13.224 121.868,14.016 C121.868,14.784 122.492,15.336 123.572,15.336 Z M150.212,4.776 C153.236,4.776 155.468,6.528 155.468,10.56 L155.468,18 L150.908,18 L150.908,11.304 C150.908,9.432 150.14,8.64 148.94,8.64 C147.62,8.64 146.66,9.528 146.66,11.544 L146.66,18 L142.1,18 L142.1,11.304 C142.1,9.432 141.356,8.64 140.132,8.64 C138.788,8.64 137.828,9.528 137.828,11.544 L137.828,18 L133.268,18 L133.268,4.992 L137.612,4.992 L137.612,6.36 C138.596,5.304 139.964,4.776 141.5,4.776 C143.276,4.776 144.788,5.424 145.7,6.816 C146.732,5.52 148.34,4.776 150.212,4.776 Z M166.532,4.776 C170.06,4.776 172.916,7.368 172.916,11.496 C172.916,15.624 170.06,18.216 166.532,18.216 C165.02,18.216 163.796,17.76 162.908,16.848 L162.908,22.656 L158.348,22.656 L158.348,4.992 L162.692,4.992 L162.692,6.288 C163.556,5.256 164.828,4.776 166.532,4.776 Z M165.572,14.592 C167.108,14.592 168.308,13.464 168.308,11.496 C168.308,9.528 167.108,8.4 165.572,8.4 C164.036,8.4 162.836,9.528 162.836,11.496 C162.836,13.464 164.036,14.592 165.572,14.592 Z" id="Makers-Camp-Copy-2" fill="url(#linearGradient-1)" fill-rule="nonzero"></path>
    </g>
</svg>