<?xml version="1.0" encoding="UTF-8"?>
<svg width="64px" height="80px" viewBox="0 0 64 80" version="1.1" xmlns="http://www.w3.org/2000/svg" xmlns:xlink="http://www.w3.org/1999/xlink">
    <!-- Generator: Sketch 52.4 (67378) - http://www.bohemiancoding.com/sketch -->
    <title>saas-03_header 2 copy 2</title>
    <desc>Created with Sketch.</desc>
    <g id="About" stroke="none" stroke-width="1" fill="none" fill-rule="evenodd">
        <g id="saas-03_header-2-copy-2">
            <g id="saas-03_header-2-copy" transform="translate(32.000000, 40.000000) rotate(-360.000000) translate(-32.000000, -40.000000) ">
                <g id="saas-03_header" transform="translate(0.000000, -0.000000)">
                    <path d="M12.052883,69.8570225 C10.5022146,69.8570225 9.44494635,70.7106889 8.95154539,71.6354755 L8.88107819,71.6354755 L8.81056832,70.0704741 L7.33040981,70.0704741 C7.40087701,70.8529789 7.40087701,71.6354755 7.40087701,72.6314236 L7.40087701,79.4606471 L9.09252331,79.4606471 L9.09252331,73.8407739 C9.09252331,73.5562102 9.16299051,73.2716384 9.23350123,73.0582361 C9.51541355,72.1334495 10.4317466,71.2797832 11.4890148,71.2797832 C13.1101513,71.2797832 13.6740186,72.5603032 13.6740186,74.0541841 L13.6740186,79.4606469 L15.3656649,79.4606471 L15.3656649,73.8407737 C15.3656646,70.6395684 13.3920634,69.8570225 12.052883,69.8570225 Z" id="Path" fill="#000000"></path>
                    <path d="M24.5991232,73.6984918 C24.5991232,71.8489268 23.8942769,69.8570223 21.0748962,69.8570223 C19.87665,69.8570223 18.7489135,70.2127145 17.9735595,70.6395682 L18.3259806,71.7777571 C18.9603597,71.3509527 19.87665,71.0663809 20.7929402,71.0663809 C22.6960305,71.0663809 22.9074767,72.4891416 22.9074767,73.2005178 L22.9074767,73.41392 C19.3127827,73.41392 17.339223,74.6232784 17.339223,76.8996973 C17.339223,78.2513376 18.3259804,79.6029369 20.1586059,79.6029369 C21.4977865,79.6029369 22.4845865,78.9627221 22.9779866,78.1801762 L23.0484538,78.1801762 L23.1894327,79.3895264 L24.7401001,79.3895264 C24.6695902,78.7492705 24.599123,77.9667739 24.599123,77.1131076 L24.599123,73.6984918 L24.5991232,73.6984918 Z M23.0484538,76.2594414 L22.9779866,76.2594414 C22.9779866,76.4017232 22.9779866,76.6151337 22.9074767,76.8285769 C22.6255635,77.6110817 21.8502074,78.3935783 20.652006,78.3935783 C19.8061828,78.3935783 19.1013365,77.8956535 19.1013365,76.7574153 C19.1013365,74.9078503 21.2158731,74.6232784 23.0484538,74.6232784 L23.0484535,76.2594414 L23.0484538,76.2594414 Z" id="Shape" fill="#000000" fill-rule="nonzero"></path>
                    <path d="M29.2510865,67.8651713 L27.6299501,68.292025 L27.6299501,70.0704739 L26.2202596,70.0704739 L26.2202596,71.3509527 L27.6299501,71.3509527 L27.6299501,76.472893 C27.6299501,77.6110819 27.8413941,78.3935785 28.264327,78.9627221 C28.6872173,79.3895264 29.3215964,79.6740983 30.0969097,79.6740983 C30.7312866,79.6740983 31.2951539,79.5318164 31.5771098,79.4606467 L31.5065999,78.180176 C31.2246867,78.2512964 31.0131998,78.3224578 30.5198426,78.3224578 C29.6035074,78.3224578 29.2510865,77.6822019 29.2510865,76.4728435 L29.2510865,71.422073 L31.647577,71.422073 L31.647577,70.1415941 L29.2510865,70.1415941 L29.2510865,67.8651713 Z" id="Path" fill="#000000"></path>
                    <path d="M34.4669596,66.3712904 C33.8325805,66.3712904 33.4096902,66.8692686 33.4096902,67.4383629 C33.4096902,68.0074572 33.8325805,68.5054313 34.3964924,68.5054313 C35.1013387,68.5054313 35.4537596,68.0074572 35.4537596,67.4383629 C35.524227,66.7981029 35.1013387,66.3712904 34.4669596,66.3712904 Z" id="Path" fill="#000000"></path>
                    <rect id="Rectangle" fill="#000000" x="33.6211364" y="70.0704739" width="1.69164629" height="9.39017605"></rect>
                    <path d="M42.0792806,69.8570225 C39.5418539,69.8570225 37.4273195,71.7066368 37.4273195,74.8366809 C37.4273195,77.8244841 39.4008789,79.6740985 41.8678347,79.6740985 C44.1233523,79.6740985 46.5197999,78.1801764 46.5197999,74.69444 C46.5903076,71.8489268 44.7576864,69.8570225 42.0792806,69.8570225 Z M42.0792806,78.3935785 C40.4581461,78.3935785 39.2598999,76.8285771 39.2598999,74.7655605 C39.1894327,72.9871157 40.1057212,71.1375425 42.0792806,71.1375425 C44.0528401,71.1375425 44.8986613,73.1293975 44.8986613,74.7655605 C44.8986613,76.8996973 43.7004149,78.3935785 42.0792806,78.3935785 Z" id="Shape" fill="#000000" fill-rule="nonzero"></path>
                    <path d="M53.3568075,69.8570225 C51.8061402,69.8570225 50.748873,70.7106889 50.2555136,71.6354755 L50.1850018,71.6354755 L50.1145346,70.0704741 L48.6343345,70.0704741 C48.7048463,70.8529789 48.7048463,71.6354755 48.7048463,72.6314236 L48.7048463,79.4606471 L50.3964478,79.4606471 L50.3964478,73.8407739 C50.3964478,73.5562102 50.4669596,73.2716384 50.5374268,73.0582361 C50.8193807,72.1334495 51.735673,71.2797832 52.7929404,71.2797832 C54.4140749,71.2797832 54.977946,72.5603032 54.977946,74.0541841 L54.977946,79.4606469 L56.6695923,79.4606471 L56.6695923,73.8407737 C56.6695923,70.6395684 54.6960326,69.8570225 53.3568075,69.8570225 Z" id="Path" fill="#000000"></path>
                    <g id="Group" fill="#51AA49">
                        <path d="M48.7260132,12.404093 C48.7260132,10.0836861 48.1375366,8.56119294 46.8291994,8.56119294 C45.7229779,8.56119294 44.9184083,9.92438096 44.9184083,12.4911917 C44.9184083,14.9422472 45.6654583,16.3345257 46.8152181,16.3345257 C48.1087565,16.3345257 48.7260132,14.8116428 48.7260132,12.404093 Z" id="Path"></path>
                        <path d="M0,-0.000414904306 L0,64.5928413 L64,64.5928413 L64,-0.000414904306 L0,-0.000414904306 Z M51.4569417,15.6962646 C51.8160766,15.9284704 52.6494669,16.2909769 53.5263102,16.2909769 C55.1495524,16.2909769 55.6525024,15.2467028 55.6384766,14.4636373 C55.6237225,13.1439555 54.4459554,12.5782902 53.2246908,12.5782902 L52.5204062,12.5782902 L52.5204062,11.6210717 L53.2246908,11.6210717 C54.1443401,11.6210717 55.3080811,11.142506 55.3080811,10.0256342 C55.3080811,9.27161785 54.8338705,8.60435139 53.6701254,8.60435139 C52.9223471,8.60435139 52.2040365,8.93815837 51.8020956,9.22806797 L51.4709677,8.29989624 C51.9598959,7.93743309 52.9083213,7.57492665 53.9142212,7.57492665 C55.7535157,7.57492665 56.586906,8.67690538 56.586906,9.82278 C56.586906,10.7945014 56.0124107,11.6210715 54.8626507,12.0416297 L54.8626507,12.0706777 C56.0124107,12.3024925 56.946041,13.1730024 56.946041,14.4926851 C56.946041,16.0010671 55.7822959,17.3207478 53.5403322,17.3207478 C52.491626,17.3207478 51.571981,16.9868993 51.1117922,16.6824868 L51.4569417,15.6962646 Z M11.6299499,56.9099517 C9.72690112,56.9099517 7.89427733,56.4119776 6.97798699,55.9140035 L7.75329984,52.7839144 C8.74010091,53.2818885 10.2907693,53.7798667 11.8414377,53.7798667 C13.5330413,53.7798667 14.4493316,53.0684862 14.4493316,52.0014137 C14.4493316,51.0054655 13.6740183,50.4363712 11.7004597,49.7249907 C8.95154517,48.7290878 7.18943211,47.2351657 7.18943211,44.816498 C7.18943211,42.0421011 9.5859232,39.9079641 13.3920631,39.9079641 C15.2246874,39.9079641 16.5638679,40.2636522 17.550669,40.7616263 L16.7048448,43.7494295 C16.0705105,43.4648618 14.8722643,42.9668877 13.3215959,42.9668877 C11.7004595,42.9668877 10.9251034,43.6782639 10.9251034,44.5319302 C10.9251034,45.5989987 11.8414374,46.0969728 13.955974,46.8794734 C16.8458227,47.9465419 18.185046,49.4404682 18.185046,51.7880114 C18.1850464,54.5623633 16.1409779,56.9099517 11.6299499,56.9099517 Z M27.488973,56.6965044 L27.2775268,55.4871501 L27.2070596,55.4871501 C26.4317037,56.4830983 25.2335002,56.9810722 23.8238097,56.9810722 C21.4273193,56.9810722 20.0176269,55.2026233 20.0176269,53.2818885 C20.0176269,50.2229648 22.7665425,48.7290428 26.9956134,48.7290428 L26.9956134,48.5868021 C26.9956134,47.9465421 26.6431923,47.0217596 24.810567,47.0217596 C23.6123228,47.0217596 22.3436094,47.448568 21.5682961,47.9465421 L20.8634498,45.5278784 C21.6387631,45.1010248 23.2598995,44.46081 25.4449459,44.46081 C29.3920629,44.46081 30.6607763,46.8083532 30.6607763,49.6538705 L30.5903091,49.6538705 L30.5903091,53.7798667 C30.5903091,54.9180556 30.6607763,56.0562896 30.8017532,56.6965044 L27.488973,56.6965044 Z M40.3171671,56.6965044 L40.105721,55.4871501 L39.964746,55.4871501 C39.1894327,56.4830983 37.9911866,56.9810722 36.581494,56.9810722 C34.1850014,56.9810722 32.7753131,55.2026233 32.7753131,53.2818885 C32.7753131,50.2229648 35.5242266,48.7290428 39.7532996,48.7290428 L39.7532996,48.5868021 C39.7532996,47.9465421 39.4008785,47.0217596 37.568294,47.0217596 C36.3700518,47.0217596 35.1013385,47.448568 34.3259804,47.9465421 L33.6211362,45.5278784 C34.3964922,45.1010248 36.0176267,44.46081 38.2026323,44.46081 C42.1497922,44.46081 43.4185056,46.8083532 43.4185056,49.6538705 L43.4185056,53.7798667 C43.4185056,54.9180556 43.4889728,56.0562896 43.6299477,56.6965044 L40.3171671,56.6965044 Z M43.6536092,12.4766897 C43.6536092,9.31516665 45.004663,7.57492687 46.9014769,7.57492687 C48.8698281,7.57492687 49.9908079,9.34421469 49.9908079,12.3460413 C49.9908079,15.5511142 48.8123085,17.320748 46.7436766,17.320748 C44.9184081,17.3207478 43.6823486,15.594663 43.6536092,12.4766897 Z M50.5374268,56.9099517 C48.6343343,56.9099517 46.8017538,56.4119776 45.8854656,55.9140035 L46.6607748,52.7839144 C47.6475791,53.2818885 49.1982464,53.7798667 50.748873,53.7798667 C52.4405193,53.7798667 53.3568075,53.0684862 53.3568075,52.0014137 C53.3568075,51.0054655 52.5814942,50.4363712 50.6079386,49.7249907 C47.859021,48.7290878 46.0969075,47.2351657 46.0969075,44.816498 C46.0969075,42.0421011 48.4934001,39.9079641 52.2995403,39.9079641 C54.1321655,39.9079641 55.4713461,40.2636522 56.4581461,40.7616263 L55.6123209,43.7494295 C54.9779458,43.4648618 53.7797404,42.9668877 52.2290731,42.9668877 C50.6079386,42.9668877 49.8325805,43.6782639 49.8325805,44.5319302 C49.8325805,45.5989987 50.7488727,46.0969728 52.8634074,46.8794734 C55.7532998,47.9465419 57.0924804,49.4404682 57.0924804,51.7880114 C57.0924804,54.5623633 55.0484538,56.9099517 50.5374268,56.9099517 Z" id="Shape" fill-rule="nonzero"></path>
                        <path d="M23.612323,52.9262005 C23.612323,53.8509871 24.2466999,54.3489612 25.0925231,54.3489612 C26.0088134,54.3489612 26.7841267,53.7798669 26.9956134,52.997366 C27.0660826,52.7839144 27.0660826,52.5705123 27.0660826,52.357106 L27.0660826,51.0766312 C25.0925231,51.0766312 23.612323,51.5034398 23.612323,52.9262005 Z" id="Path"></path>
                        <path d="M36.4405193,52.9262005 C36.4405193,53.8509871 37.0748943,54.3489612 37.9207194,54.3489612 C38.8370076,54.3489612 39.6123209,53.7798669 39.823767,52.997366 C39.8942788,52.7839144 39.8942788,52.5705123 39.8942788,52.357106 L39.8942788,51.0766312 C37.9207194,51.0766312 36.4405193,51.5034398 36.4405193,52.9262005 Z" id="Path"></path>
                    </g>
                    <g id="Group" transform="translate(6.400000, 7.368421)" fill="#FFFFFF">
                        <path d="M7.5559744,39.5110526 C5.44143787,38.7285519 4.52510379,38.2305778 4.52510379,37.1635094 C4.52510379,36.309843 5.30045973,35.5984669 6.92159637,35.5984669 C8.47226475,35.5984669 9.67051093,36.096441 10.3048452,36.3810087 L11.1506694,33.3932055 C10.1638684,32.8952314 8.82468779,32.5395432 6.99206357,32.5395432 C3.18592341,32.5395432 0.789432533,34.6736801 0.789432533,37.4480771 C0.789432533,39.8667449 2.55154539,41.3606669 5.30046016,42.3565699 C7.27401877,43.0679504 8.04933205,43.6370447 8.04933205,44.6329929 C8.04933205,45.7000654 7.13304171,46.4114458 5.44143808,46.4114458 C3.89076971,46.4114458 2.34010133,45.9134677 1.35330027,45.4154936 L0.577987413,48.5455827 C1.49427776,49.0435568 3.32690155,49.5415309 5.22995029,49.5415309 C9.74097835,49.5415309 11.7850468,47.1939424 11.7850468,44.4195906 C11.7850464,42.0720472 10.4458231,40.578121 7.5559744,39.5110526 Z" id="Path"></path>
                        <path d="M24.1903095,42.2854494 L24.2607767,42.2854494 C24.2607767,39.4399322 22.9920634,37.0923889 19.0449463,37.0923889 C16.8598999,37.0923889 15.2387635,37.7326037 14.4634502,38.1594574 L15.1682965,40.578121 C15.9436098,40.0801469 17.2123232,39.6533385 18.4105675,39.6533385 C20.2431927,39.6533385 20.5956139,40.578121 20.5956139,41.218381 L20.5956139,41.3606217 C16.3665427,41.3606217 13.6176273,42.8545438 13.6176273,45.9134674 C13.6176273,47.8342022 15.0273197,49.6126511 17.4238101,49.6126511 C18.8335006,49.6126511 20.0317041,49.114677 20.8070601,48.118729 L20.8775273,48.118729 L21.0889734,49.3280834 L24.4017542,49.3280834 C24.2607772,48.6878686 24.1903102,47.5496345 24.1903102,46.4114456 L24.1903102,42.2854494 L24.1903095,42.2854494 Z M20.6660828,44.9886849 C20.6660828,45.2020913 20.6660828,45.4154933 20.5956137,45.6289449 C20.3841269,46.4114456 19.6088134,46.9805402 18.6925233,46.9805402 C17.8467002,46.9805402 17.2123232,46.4825661 17.2123232,45.5577795 C17.2123232,44.1350188 18.6925233,43.7082104 20.666083,43.7082104 L20.666083,44.9886849 L20.6660828,44.9886849 Z" id="Shape" fill-rule="nonzero"></path>
                        <path d="M37.0185058,42.2854494 C37.0185058,39.4399322 35.7497924,37.0923889 31.8026325,37.0923889 C29.6176269,37.0923889 27.9964924,37.7326037 27.2211364,38.1594574 L27.9259806,40.578121 C28.7013387,40.0801469 29.9700521,39.6533385 31.1682942,39.6533385 C33.0008787,39.6533385 33.3532998,40.578121 33.3532998,41.218381 L33.3532998,41.3606217 C29.1242268,41.3606217 26.3753133,42.8545438 26.3753133,45.9134674 C26.3753133,47.8342022 27.7850016,49.6126511 30.1814942,49.6126511 C31.5911866,49.6126511 32.7894327,49.114677 33.5647462,48.118729 L33.7057212,48.118729 L33.9171674,49.3280834 L37.2299482,49.3280834 C37.0889732,48.6878686 37.018506,47.5496345 37.018506,46.4114456 L37.018506,42.2854494 L37.0185058,42.2854494 Z M33.494279,44.9886849 C33.494279,45.2020913 33.494279,45.4154933 33.4237673,45.6289449 C33.2123211,46.4114456 32.4370078,46.9805402 31.5207196,46.9805402 C30.6748943,46.9805402 30.0405195,46.4825661 30.0405195,45.5577795 C30.0405195,44.1350188 31.5207196,43.7082104 33.4942793,43.7082104 L33.4942793,44.9886849 L33.494279,44.9886849 Z" id="Shape" fill-rule="nonzero"></path>
                        <path d="M46.4634074,39.5110526 C44.348873,38.7285519 43.4325805,38.2305778 43.4325805,37.1635094 C43.4325805,36.309843 44.2079386,35.5984669 45.8290731,35.5984669 C47.3797404,35.5984669 48.577946,36.096441 49.2123209,36.3810087 L50.0581461,33.3932055 C49.0713459,32.8952314 47.7321655,32.5395432 45.8995403,32.5395432 C42.0934001,32.5395432 39.6969075,34.6736801 39.6969075,37.4480771 C39.6969075,39.8667449 41.459021,41.3606669 44.2079386,42.3565699 C46.181494,43.0679504 46.9568075,43.6370447 46.9568075,44.6329929 C46.9568075,45.7000654 46.0405193,46.4114458 44.348873,46.4114458 C42.7982464,46.4114458 41.2475791,45.9134677 40.2607748,45.4154936 L39.4854656,48.5455827 C40.4017538,49.0435568 42.2343345,49.5415309 44.1374268,49.5415309 C48.6484538,49.5415309 50.6924804,47.1939424 50.6924804,44.4195906 C50.6924804,42.0720472 49.3533001,40.578121 46.4634074,39.5110526 Z" id="Path"></path>
                        <path d="M43.5908081,4.97762026 C43.5908081,1.97579364 42.4698283,0.206505813 40.5014771,0.206505813 C38.6046633,0.206505813 37.2536094,1.9467456 37.2536094,5.10826861 C37.2823488,8.22624196 38.5184083,9.95232677 40.343677,9.95232677 C42.4123087,9.95232677 43.5908081,8.18269316 43.5908081,4.97762026 Z M38.5184081,5.12277067 C38.5184081,2.55595969 39.3229777,1.19277189 40.4291991,1.19277189 C41.7375366,1.19277189 42.326013,2.71526507 42.326013,5.03567199 C42.326013,7.44322172 41.7087563,8.96610462 40.4152179,8.96610462 C39.2654581,8.96610462 38.5184081,7.57382615 38.5184081,5.12277067 Z" id="Shape" fill-rule="nonzero"></path>
                        <path d="M50.5460407,7.12426431 C50.5460407,5.8045816 49.6124105,4.93407146 48.4626505,4.70225687 L48.4626505,4.67320883 C49.6124105,4.25265067 50.1869058,3.42608077 50.1869058,2.45435916 C50.1869058,1.30848455 49.3535155,0.206505813 47.514221,0.206505813 C46.5083209,0.206505813 45.5598957,0.569012033 45.0709675,0.931475407 L45.4020954,1.85964713 C45.8040363,1.56973754 46.5223469,1.23593055 47.2701252,1.23593055 C48.4338703,1.23593055 48.9080809,1.90319701 48.9080809,2.65721335 C48.9080809,3.77408514 47.7443398,4.25265089 46.8246906,4.25265089 L46.120406,4.25265089 L46.120406,5.20986914 L46.8246906,5.20986914 C48.0459552,5.20986914 49.2237222,5.77553443 49.2384764,7.09521627 C49.2525022,7.87828172 48.7495522,8.92255581 47.12631,8.92255581 C46.2494667,8.92255581 45.4160764,8.56004959 45.0569414,8.32784356 L44.7117918,9.31406593 C45.1719806,9.61847844 46.0916258,9.95232699 47.1403317,9.95232699 C49.3822957,9.95232677 50.5460407,8.63264622 50.5460407,7.12426431 Z" id="Path"></path>
                    </g>
                </g>
            </g>
        </g>
    </g>
</svg>