<?xml version="1.0" encoding="UTF-8"?>
<svg width="178px" height="52px" viewBox="0 0 178 52" version="1.1" xmlns="http://www.w3.org/2000/svg" xmlns:xlink="http://www.w3.org/1999/xlink">
    <!-- Generator: Sketch 52.5 (67469) - http://www.bohemiancoding.com/sketch -->
    <title>San Francisco SaaS M Copy</title>
    <desc>Created with Sketch.</desc>
    <defs>
        <linearGradient x1="0%" y1="100%" x2="100%" y2="0%" id="linearGradient-1">
            <stop stop-color="#1B67CA" offset="0%"></stop>
            <stop stop-color="#9107D7" offset="100%"></stop>
        </linearGradient>
        <path d="M759.748,3485.336 C756.988,3485.336 754.252,3484.592 752.668,3483.488 L754.228,3479.984 C755.716,3480.968 757.828,3481.64 759.772,3481.64 C761.74,3481.64 762.508,3481.088 762.508,3480.272 C762.508,3477.608 752.956,3479.552 752.956,3473.312 C752.956,3470.312 755.404,3467.864 760.396,3467.864 C762.58,3467.864 764.836,3468.368 766.492,3469.328 L765.028,3472.856 C763.42,3471.992 761.836,3471.56 760.372,3471.56 C758.38,3471.56 757.66,3472.232 757.66,3473.072 C757.66,3475.64 767.188,3473.72 767.188,3479.912 C767.188,3482.84 764.74,3485.336 759.748,3485.336 Z M774.7,3471.776 C778.924,3471.776 781.348,3473.648 781.348,3477.776 L781.348,3485 L777.1,3485 L777.1,3483.32 C776.452,3484.568 775.156,3485.216 773.26,3485.216 C770.14,3485.216 768.412,3483.464 768.412,3481.208 C768.412,3478.808 770.164,3477.32 774.196,3477.32 L776.788,3477.32 C776.716,3476 775.828,3475.256 774.028,3475.256 C772.78,3475.256 771.388,3475.688 770.5,3476.384 L768.964,3473.288 C770.452,3472.304 772.66,3471.776 774.7,3471.776 Z M774.532,3482.336 C775.54,3482.336 776.428,3481.856 776.788,3480.824 L776.788,3479.696 L774.82,3479.696 C773.356,3479.696 772.828,3480.224 772.828,3481.016 C772.828,3481.784 773.452,3482.336 774.532,3482.336 Z M792.7,3471.776 C795.748,3471.776 798.076,3473.528 798.076,3477.56 L798.076,3485 L793.516,3485 L793.516,3478.304 C793.516,3476.432 792.7,3475.64 791.38,3475.64 C789.916,3475.64 788.788,3476.552 788.788,3478.712 L788.788,3485 L784.228,3485 L784.228,3471.992 L788.572,3471.992 L788.572,3473.408 C789.604,3472.328 791.068,3471.776 792.7,3471.776 Z M821.308,3471.872 L812.884,3471.872 L812.884,3475.568 L820.3,3475.568 L820.3,3479.24 L812.884,3479.24 L812.884,3485 L808.132,3485 L808.132,3468.2 L821.308,3468.2 L821.308,3471.872 Z M827.668,3473.552 C828.604,3472.376 830.116,3471.776 832.036,3471.776 L832.036,3475.88 C831.628,3475.832 831.34,3475.808 831.004,3475.808 C829.156,3475.808 827.884,3476.744 827.884,3479.024 L827.884,3485 L823.324,3485 L823.324,3471.992 L827.668,3471.992 L827.668,3473.552 Z M839.5,3471.776 C843.724,3471.776 846.148,3473.648 846.148,3477.776 L846.148,3485 L841.9,3485 L841.9,3483.32 C841.252,3484.568 839.956,3485.216 838.06,3485.216 C834.94,3485.216 833.212,3483.464 833.212,3481.208 C833.212,3478.808 834.964,3477.32 838.996,3477.32 L841.588,3477.32 C841.516,3476 840.628,3475.256 838.828,3475.256 C837.58,3475.256 836.188,3475.688 835.3,3476.384 L833.764,3473.288 C835.252,3472.304 837.46,3471.776 839.5,3471.776 Z M839.332,3482.336 C840.34,3482.336 841.228,3481.856 841.588,3480.824 L841.588,3479.696 L839.62,3479.696 C838.156,3479.696 837.628,3480.224 837.628,3481.016 C837.628,3481.784 838.252,3482.336 839.332,3482.336 Z M857.5,3471.776 C860.548,3471.776 862.876,3473.528 862.876,3477.56 L862.876,3485 L858.316,3485 L858.316,3478.304 C858.316,3476.432 857.5,3475.64 856.18,3475.64 C854.716,3475.64 853.588,3476.552 853.588,3478.712 L853.588,3485 L849.028,3485 L849.028,3471.992 L853.372,3471.992 L853.372,3473.408 C854.404,3472.328 855.868,3471.776 857.5,3471.776 Z M872.38,3485.216 C868.012,3485.216 864.916,3482.432 864.916,3478.472 C864.916,3474.56 868.012,3471.776 872.38,3471.776 C875.332,3471.776 877.588,3473.096 878.476,3475.352 L874.948,3477.152 C874.324,3475.928 873.412,3475.4 872.356,3475.4 C870.772,3475.4 869.524,3476.504 869.524,3478.472 C869.524,3480.488 870.772,3481.592 872.356,3481.592 C873.412,3481.592 874.324,3481.064 874.948,3479.84 L878.476,3481.64 C877.588,3483.896 875.332,3485.216 872.38,3485.216 Z M882.484,3470.552 C880.804,3470.552 879.7,3469.496 879.7,3468.128 C879.7,3466.76 880.804,3465.704 882.484,3465.704 C884.164,3465.704 885.268,3466.688 885.268,3468.056 C885.268,3469.496 884.164,3470.552 882.484,3470.552 Z M880.204,3485 L880.204,3471.992 L884.764,3471.992 L884.764,3485 L880.204,3485 Z M892.444,3485.216 C890.236,3485.216 887.956,3484.664 886.684,3483.872 L888.052,3480.752 C889.252,3481.496 891.004,3481.952 892.588,3481.952 C894.124,3481.952 894.628,3481.616 894.628,3481.064 C894.628,3479.312 886.948,3481.304 886.948,3476.096 C886.948,3473.648 889.204,3471.776 893.284,3471.776 C895.108,3471.776 897.124,3472.16 898.42,3472.88 L897.052,3475.976 C895.756,3475.256 894.46,3475.016 893.308,3475.016 C891.772,3475.016 891.22,3475.448 891.22,3475.928 C891.22,3477.728 898.876,3475.784 898.876,3480.944 C898.876,3483.344 896.668,3485.216 892.444,3485.216 Z M907.492,3485.216 C903.124,3485.216 900.028,3482.432 900.028,3478.472 C900.028,3474.56 903.124,3471.776 907.492,3471.776 C910.444,3471.776 912.7,3473.096 913.588,3475.352 L910.06,3477.152 C909.436,3475.928 908.524,3475.4 907.468,3475.4 C905.884,3475.4 904.636,3476.504 904.636,3478.472 C904.636,3480.488 905.884,3481.592 907.468,3481.592 C908.524,3481.592 909.436,3481.064 910.06,3479.84 L913.588,3481.64 C912.7,3483.896 910.444,3485.216 907.492,3485.216 Z M921.844,3485.216 C917.596,3485.216 914.5,3482.408 914.5,3478.472 C914.5,3474.56 917.596,3471.776 921.844,3471.776 C926.14,3471.776 929.188,3474.56 929.188,3478.472 C929.188,3482.408 926.14,3485.216 921.844,3485.216 Z M921.844,3481.592 C923.404,3481.592 924.58,3480.464 924.58,3478.472 C924.58,3476.504 923.404,3475.4 921.844,3475.4 C920.308,3475.4 919.108,3476.504 919.108,3478.472 C919.108,3480.464 920.308,3481.592 921.844,3481.592 Z M765.628,3512.336 C762.868,3512.336 760.132,3511.592 758.548,3510.488 L760.108,3506.984 C761.596,3507.968 763.708,3508.64 765.652,3508.64 C767.62,3508.64 768.388,3508.088 768.388,3507.272 C768.388,3504.608 758.836,3506.552 758.836,3500.312 C758.836,3497.312 761.284,3494.864 766.276,3494.864 C768.46,3494.864 770.716,3495.368 772.372,3496.328 L770.908,3499.856 C769.3,3498.992 767.716,3498.56 766.252,3498.56 C764.26,3498.56 763.54,3499.232 763.54,3500.072 C763.54,3502.64 773.068,3500.72 773.068,3506.912 C773.068,3509.84 770.62,3512.336 765.628,3512.336 Z M780.58,3498.776 C784.804,3498.776 787.228,3500.648 787.228,3504.776 L787.228,3512 L782.98,3512 L782.98,3510.32 C782.332,3511.568 781.036,3512.216 779.14,3512.216 C776.02,3512.216 774.292,3510.464 774.292,3508.208 C774.292,3505.808 776.044,3504.32 780.076,3504.32 L782.668,3504.32 C782.596,3503 781.708,3502.256 779.908,3502.256 C778.66,3502.256 777.268,3502.688 776.38,3503.384 L774.844,3500.288 C776.332,3499.304 778.54,3498.776 780.58,3498.776 Z M780.412,3509.336 C781.42,3509.336 782.308,3508.856 782.668,3507.824 L782.668,3506.696 L780.7,3506.696 C779.236,3506.696 778.708,3507.224 778.708,3508.016 C778.708,3508.784 779.332,3509.336 780.412,3509.336 Z M795.652,3498.776 C799.876,3498.776 802.3,3500.648 802.3,3504.776 L802.3,3512 L798.052,3512 L798.052,3510.32 C797.404,3511.568 796.108,3512.216 794.212,3512.216 C791.092,3512.216 789.364,3510.464 789.364,3508.208 C789.364,3505.808 791.116,3504.32 795.148,3504.32 L797.74,3504.32 C797.668,3503 796.78,3502.256 794.98,3502.256 C793.732,3502.256 792.34,3502.688 791.452,3503.384 L789.916,3500.288 C791.404,3499.304 793.612,3498.776 795.652,3498.776 Z M795.484,3509.336 C796.492,3509.336 797.38,3508.856 797.74,3507.824 L797.74,3506.696 L795.772,3506.696 C794.308,3506.696 793.78,3507.224 793.78,3508.016 C793.78,3508.784 794.404,3509.336 795.484,3509.336 Z M811.3,3512.336 C808.54,3512.336 805.804,3511.592 804.22,3510.488 L805.78,3506.984 C807.268,3507.968 809.38,3508.64 811.324,3508.64 C813.292,3508.64 814.06,3508.088 814.06,3507.272 C814.06,3504.608 804.508,3506.552 804.508,3500.312 C804.508,3497.312 806.956,3494.864 811.948,3494.864 C814.132,3494.864 816.388,3495.368 818.044,3496.328 L816.58,3499.856 C814.972,3498.992 813.388,3498.56 811.924,3498.56 C809.932,3498.56 809.212,3499.232 809.212,3500.072 C809.212,3502.64 818.74,3500.72 818.74,3506.912 C818.74,3509.84 816.292,3512.336 811.3,3512.336 Z M847.444,3512 L843.076,3512 L843.028,3503.096 L838.708,3510.344 L836.596,3510.344 L832.3,3503.336 L832.3,3512 L827.908,3512 L827.908,3495.2 L831.82,3495.2 L837.724,3504.896 L843.484,3495.2 L847.396,3495.2 L847.444,3512 Z M863.884,3505.52 C863.884,3505.856 863.836,3506.288 863.812,3506.648 L854.356,3506.648 C854.74,3507.968 855.868,3508.736 857.548,3508.736 C858.82,3508.736 859.66,3508.376 860.548,3507.608 L862.948,3510.104 C861.7,3511.496 859.876,3512.216 857.404,3512.216 C852.772,3512.216 849.772,3509.36 849.772,3505.472 C849.772,3501.56 852.82,3498.776 856.924,3498.776 C860.764,3498.776 863.884,3501.224 863.884,3505.52 Z M856.948,3502.016 C855.532,3502.016 854.548,3502.88 854.284,3504.248 L859.612,3504.248 C859.372,3502.88 858.364,3502.016 856.948,3502.016 Z M879.292,3505.52 C879.292,3505.856 879.244,3506.288 879.22,3506.648 L869.764,3506.648 C870.148,3507.968 871.276,3508.736 872.956,3508.736 C874.228,3508.736 875.068,3508.376 875.956,3507.608 L878.356,3510.104 C877.108,3511.496 875.284,3512.216 872.812,3512.216 C868.18,3512.216 865.18,3509.36 865.18,3505.472 C865.18,3501.56 868.228,3498.776 872.332,3498.776 C876.172,3498.776 879.292,3501.224 879.292,3505.52 Z M872.356,3502.016 C870.94,3502.016 869.956,3502.88 869.692,3504.248 L875.02,3504.248 C874.78,3502.88 873.772,3502.016 872.356,3502.016 Z M889.252,3508.28 L890.38,3511.472 C889.588,3511.976 888.412,3512.216 887.212,3512.216 C883.876,3512.216 881.932,3510.584 881.932,3507.248 L881.932,3502.88 L880.036,3502.88 L880.036,3499.472 L881.932,3499.472 L881.932,3496.088 L886.492,3496.088 L886.492,3499.472 L889.468,3499.472 L889.468,3502.88 L886.492,3502.88 L886.492,3507.2 C886.492,3508.16 887.044,3508.688 887.86,3508.688 C888.364,3508.688 888.868,3508.544 889.252,3508.28 Z M901.252,3498.992 L905.812,3498.992 L905.812,3512 L901.468,3512 L901.468,3510.608 C900.484,3511.688 899.092,3512.216 897.604,3512.216 C894.412,3512.216 892.084,3510.392 892.084,3506.264 L892.084,3498.992 L896.644,3498.992 L896.644,3505.52 C896.644,3507.536 897.436,3508.328 898.804,3508.328 C900.148,3508.328 901.252,3507.44 901.252,3505.256 L901.252,3498.992 Z M916.924,3498.776 C920.452,3498.776 923.308,3501.368 923.308,3505.496 C923.308,3509.624 920.452,3512.216 916.924,3512.216 C915.412,3512.216 914.188,3511.76 913.3,3510.848 L913.3,3516.656 L908.74,3516.656 L908.74,3498.992 L913.084,3498.992 L913.084,3500.288 C913.948,3499.256 915.22,3498.776 916.924,3498.776 Z M915.964,3508.592 C917.5,3508.592 918.7,3507.464 918.7,3505.496 C918.7,3503.528 917.5,3502.4 915.964,3502.4 C914.428,3502.4 913.228,3503.528 913.228,3505.496 C913.228,3507.464 914.428,3508.592 915.964,3508.592 Z" id="path-2"></path>
    </defs>
    <g id="-" stroke="none" stroke-width="1" fill="none" fill-rule="evenodd">
        <g id="About" transform="translate(-752.000000, -3465.000000)" fill-rule="nonzero">
            <g id="San-Francisco-SaaS-M-Copy">
                <use fill="#2B5ACC" xlink:href="#path-2"></use>
                <use fill="url(#linearGradient-1)" xlink:href="#path-2"></use>
            </g>
        </g>
    </g>
</svg>