<?xml version="1.0" encoding="UTF-8"?>
<svg width="178px" height="21px" viewBox="0 0 178 21" version="1.1" xmlns="http://www.w3.org/2000/svg" xmlns:xlink="http://www.w3.org/1999/xlink">
    <!-- Generator: Sketch 52.4 (67378) - http://www.bohemiancoding.com/sketch -->
    <title>San Francisco Copy 2</title>
    <desc>Created with Sketch.</desc>
    <defs>
        <linearGradient x1="0%" y1="100%" x2="100%" y2="0%" id="linearGradient-1">
            <stop stop-color="#1B67CA" offset="0%"></stop>
            <stop stop-color="#9107D7" offset="100%"></stop>
        </linearGradient>
    </defs>
    <g id="About" stroke="none" stroke-width="1" fill="none" fill-rule="evenodd">
        <path d="M7.748,20.336 C4.988,20.336 2.252,19.592 0.668,18.488 L2.228,14.984 C3.716,15.968 5.828,16.64 7.772,16.64 C9.74,16.64 10.508,16.088 10.508,15.272 C10.508,12.608 0.956,14.552 0.956,8.312 C0.956,5.312 3.404,2.864 8.396,2.864 C10.58,2.864 12.836,3.368 14.492,4.328 L13.028,7.856 C11.42,6.992 9.836,6.56 8.372,6.56 C6.38,6.56 5.66,7.232 5.66,8.072 C5.66,10.64 15.188,8.72 15.188,14.912 C15.188,17.84 12.74,20.336 7.748,20.336 Z M22.7,6.776 C26.924,6.776 29.348,8.648 29.348,12.776 L29.348,20 L25.1,20 L25.1,18.32 C24.452,19.568 23.156,20.216 21.26,20.216 C18.14,20.216 16.412,18.464 16.412,16.208 C16.412,13.808 18.164,12.32 22.196,12.32 L24.788,12.32 C24.716,11 23.828,10.256 22.028,10.256 C20.78,10.256 19.388,10.688 18.5,11.384 L16.964,8.288 C18.452,7.304 20.66,6.776 22.7,6.776 Z M22.532,17.336 C23.54,17.336 24.428,16.856 24.788,15.824 L24.788,14.696 L22.82,14.696 C21.356,14.696 20.828,15.224 20.828,16.016 C20.828,16.784 21.452,17.336 22.532,17.336 Z M40.7,6.776 C43.748,6.776 46.076,8.528 46.076,12.56 L46.076,20 L41.516,20 L41.516,13.304 C41.516,11.432 40.7,10.64 39.38,10.64 C37.916,10.64 36.788,11.552 36.788,13.712 L36.788,20 L32.228,20 L32.228,6.992 L36.572,6.992 L36.572,8.408 C37.604,7.328 39.068,6.776 40.7,6.776 Z M69.308,6.872 L60.884,6.872 L60.884,10.568 L68.3,10.568 L68.3,14.24 L60.884,14.24 L60.884,20 L56.132,20 L56.132,3.2 L69.308,3.2 L69.308,6.872 Z M75.668,8.552 C76.604,7.376 78.116,6.776 80.036,6.776 L80.036,10.88 C79.628,10.832 79.34,10.808 79.004,10.808 C77.156,10.808 75.884,11.744 75.884,14.024 L75.884,20 L71.324,20 L71.324,6.992 L75.668,6.992 L75.668,8.552 Z M87.5,6.776 C91.724,6.776 94.148,8.648 94.148,12.776 L94.148,20 L89.9,20 L89.9,18.32 C89.252,19.568 87.956,20.216 86.06,20.216 C82.94,20.216 81.212,18.464 81.212,16.208 C81.212,13.808 82.964,12.32 86.996,12.32 L89.588,12.32 C89.516,11 88.628,10.256 86.828,10.256 C85.58,10.256 84.188,10.688 83.3,11.384 L81.764,8.288 C83.252,7.304 85.46,6.776 87.5,6.776 Z M87.332,17.336 C88.34,17.336 89.228,16.856 89.588,15.824 L89.588,14.696 L87.62,14.696 C86.156,14.696 85.628,15.224 85.628,16.016 C85.628,16.784 86.252,17.336 87.332,17.336 Z M105.5,6.776 C108.548,6.776 110.876,8.528 110.876,12.56 L110.876,20 L106.316,20 L106.316,13.304 C106.316,11.432 105.5,10.64 104.18,10.64 C102.716,10.64 101.588,11.552 101.588,13.712 L101.588,20 L97.028,20 L97.028,6.992 L101.372,6.992 L101.372,8.408 C102.404,7.328 103.868,6.776 105.5,6.776 Z M120.38,20.216 C116.012,20.216 112.916,17.432 112.916,13.472 C112.916,9.56 116.012,6.776 120.38,6.776 C123.332,6.776 125.588,8.096 126.476,10.352 L122.948,12.152 C122.324,10.928 121.412,10.4 120.356,10.4 C118.772,10.4 117.524,11.504 117.524,13.472 C117.524,15.488 118.772,16.592 120.356,16.592 C121.412,16.592 122.324,16.064 122.948,14.84 L126.476,16.64 C125.588,18.896 123.332,20.216 120.38,20.216 Z M130.484,5.552 C128.804,5.552 127.7,4.496 127.7,3.128 C127.7,1.76 128.804,0.704 130.484,0.704 C132.164,0.704 133.268,1.688 133.268,3.056 C133.268,4.496 132.164,5.552 130.484,5.552 Z M128.204,20 L128.204,6.992 L132.764,6.992 L132.764,20 L128.204,20 Z M140.444,20.216 C138.236,20.216 135.956,19.664 134.684,18.872 L136.052,15.752 C137.252,16.496 139.004,16.952 140.588,16.952 C142.124,16.952 142.628,16.616 142.628,16.064 C142.628,14.312 134.948,16.304 134.948,11.096 C134.948,8.648 137.204,6.776 141.284,6.776 C143.108,6.776 145.124,7.16 146.42,7.88 L145.052,10.976 C143.756,10.256 142.46,10.016 141.308,10.016 C139.772,10.016 139.22,10.448 139.22,10.928 C139.22,12.728 146.876,10.784 146.876,15.944 C146.876,18.344 144.668,20.216 140.444,20.216 Z M155.492,20.216 C151.124,20.216 148.028,17.432 148.028,13.472 C148.028,9.56 151.124,6.776 155.492,6.776 C158.444,6.776 160.7,8.096 161.588,10.352 L158.06,12.152 C157.436,10.928 156.524,10.4 155.468,10.4 C153.884,10.4 152.636,11.504 152.636,13.472 C152.636,15.488 153.884,16.592 155.468,16.592 C156.524,16.592 157.436,16.064 158.06,14.84 L161.588,16.64 C160.7,18.896 158.444,20.216 155.492,20.216 Z M169.844,20.216 C165.596,20.216 162.5,17.408 162.5,13.472 C162.5,9.56 165.596,6.776 169.844,6.776 C174.14,6.776 177.188,9.56 177.188,13.472 C177.188,17.408 174.14,20.216 169.844,20.216 Z M169.844,16.592 C171.404,16.592 172.58,15.464 172.58,13.472 C172.58,11.504 171.404,10.4 169.844,10.4 C168.308,10.4 167.108,11.504 167.108,13.472 C167.108,15.464 168.308,16.592 169.844,16.592 Z" id="San-Francisco-Copy-2" fill="url(#linearGradient-1)" fill-rule="nonzero"></path>
    </g>
</svg>